<svg width="18" height="18" viewBox="0 0 18 18" fill="none" xmlns="http://www.w3.org/2000/svg">
<path d="M7.69141 1.61133L8.55859 0.744141C8.92578 0.376953 9.51953 0.376953 9.88281 0.744141L17.4766 8.33398C17.8438 8.70117 17.8438 9.29492 17.4766 9.6582L9.88281 17.252C9.51562 17.6191 8.92188 17.6191 8.55859 17.252L7.69141 16.3848C7.32031 16.0137 7.32812 15.4082 7.70703 15.0449L12.4141 10.5605H1.1875C0.667969 10.5605 0.25 10.1426 0.25 9.62305V8.37305C0.25 7.85352 0.667969 7.43555 1.1875 7.43555H12.4141L7.70703 2.95117C7.32422 2.58789 7.31641 1.98242 7.69141 1.61133Z" fill="#6D3745"/>
</svg>
