<svg width="16" height="16" viewBox="0 0 16 16" fill="none" xmlns="http://www.w3.org/2000/svg">
<path d="M14.6817 1.78315H14.5562V1.21407C14.5562 0.63446 14.0863 0.164551 13.5068 0.164551C12.9261 0.164551 12.4562 0.63446 12.4562 1.21407V1.78315H10.8922V1.21407C10.8922 0.63446 10.4224 0.164551 9.84273 0.164551C9.2626 0.164551 8.79272 0.63446 8.79272 1.21407V1.78315H7.21773V1.21407C7.21773 0.63446 6.74786 0.164551 6.16825 0.164551C5.58811 0.164551 5.11771 0.63446 5.11771 1.21407V1.78315H3.54325V1.21407C3.54325 0.63446 3.0733 0.164551 2.4932 0.164551C1.91363 0.164551 1.44376 0.63446 1.44376 1.21407V1.78315H1.31775C0.590132 1.78315 0 2.37276 0 3.10037L0.0105243 13.4682C0.0105243 14.7738 1.0726 15.8359 2.37831 15.8359H13.6217C14.9274 15.8359 15.9885 14.7738 15.9885 13.4682L16 3.10037C16 2.37276 15.4099 1.78315 14.6817 1.78315ZM14.9395 13.4682C14.9395 14.1958 14.3489 14.7864 13.6217 14.7864H2.37831C1.65112 14.7864 1.06053 14.1958 1.06053 13.4682V4.57145H14.9395V13.4682Z" fill="#6D3745"/>
<path d="M2.86616 9.30723H5.09952C5.39511 9.30723 5.63447 9.06783 5.63447 8.77221V6.53836C5.63447 6.24277 5.39507 6.00391 5.09952 6.00391H2.86616C2.5706 6.00391 2.33118 6.24281 2.33118 6.53836V8.77221C2.33121 9.06783 2.5706 9.30723 2.86616 9.30723Z" fill="#6D3745"/>
<path d="M2.86616 13.3614H5.09952C5.39511 13.3614 5.63447 13.122 5.63447 12.8269V10.5926C5.63447 10.2975 5.39507 10.0581 5.09952 10.0581H2.86616C2.5706 10.0581 2.33118 10.2975 2.33118 10.5926V12.8269C2.33121 13.122 2.5706 13.3614 2.86616 13.3614Z" fill="#6D3745"/>
<path d="M6.92085 13.3614H9.15473C9.44976 13.3614 9.68972 13.122 9.68972 12.8269V10.5926C9.68972 10.2975 9.44976 10.0581 9.15473 10.0581H6.92085C6.62529 10.0581 6.38635 10.2975 6.38635 10.5926V12.8269C6.38639 13.122 6.62529 13.3614 6.92085 13.3614Z" fill="#6D3745"/>
<path d="M10.9601 9.30723H13.1935C13.4896 9.30723 13.7284 9.06784 13.7284 8.77221V6.53836C13.7284 6.24277 13.4896 6.00391 13.1935 6.00391H10.9601C10.6645 6.00391 10.4252 6.24281 10.4252 6.53836V8.77221C10.4252 9.06784 10.6645 9.30723 10.9601 9.30723ZM11.0777 6.72577C11.0777 6.68746 11.1087 6.65539 11.1475 6.65539H13.006C13.0448 6.65539 13.0763 6.68746 13.0763 6.72577V8.58481C13.0763 8.62364 13.0448 8.65462 13.006 8.65462H11.1475C11.1087 8.65462 11.0777 8.62364 11.0777 8.58481V6.72577Z" fill="#6D3745"/>
<path d="M10.9601 13.3614H13.1935C13.4896 13.3614 13.7284 13.122 13.7284 12.8269V10.5926C13.7284 10.2975 13.4896 10.0581 13.1935 10.0581H10.9601C10.6645 10.0581 10.4252 10.2975 10.4252 10.5926V12.8269C10.4252 13.122 10.6645 13.3614 10.9601 13.3614Z" fill="#6D3745"/>
<path d="M6.90629 9.30723H9.13965C9.43468 9.30723 9.67463 9.06784 9.67463 8.77221V6.53836C9.67463 6.24277 9.43471 6.00391 9.13965 6.00391H6.90629C6.61017 6.00391 6.37134 6.24281 6.37134 6.53836V8.77221C6.37134 9.06784 6.61017 9.30723 6.90629 9.30723Z" fill="#6D3745"/>
</svg>
