<svg width="21" height="21" viewBox="0 0 21 21" fill="none" xmlns="http://www.w3.org/2000/svg">
<path d="M7.68258 10.3653C8.01255 10.8428 7.9139 10.4449 7.9139 19.9628C7.9139 20.8145 8.88565 21.302 9.57053 20.7925C12.4971 18.586 13.0818 18.3949 13.0818 17.3629C13.0818 10.427 13.001 10.817 13.3132 10.3653L18.0656 3.89636H2.93018L7.68258 10.3653Z" fill="#6D3745"/>
<path d="M19.8607 0.527461C19.6909 0.202207 19.3578 0 18.9912 0H2.00433C1.21253 0 0.746631 0.893197 1.20084 1.54219C1.20457 1.54842 1.14928 1.47275 2.02607 2.66602H18.9694C19.7166 1.64912 20.216 1.20976 19.8607 0.527461Z" fill="#6D3745"/>
</svg>
