<svg width="21" height="21" viewBox="0 0 21 21" fill="none" xmlns="http://www.w3.org/2000/svg">
<path d="M7.69568 0H1.79267C0.804193 0 0 0.804193 0 1.79267V7.69568C0 8.68416 0.804193 9.48835 1.79267 9.48835H7.69568C8.68416 9.48835 9.48835 8.68416 9.48835 7.69568V1.79267C9.48835 0.804193 8.68416 0 7.69568 0Z" fill="#6D3745"/>
<path d="M19.2074 0H13.3044C12.3159 0 11.5117 0.804193 11.5117 1.79267V7.69568C11.5117 8.68416 12.3159 9.48835 13.3044 9.48835H19.2074C20.1959 9.48835 21.0001 8.68416 21.0001 7.69568V1.79267C21.0001 0.804193 20.1959 0 19.2074 0Z" fill="#6D3745"/>
<path d="M7.69568 11.5116H1.79267C0.804193 11.5116 0 12.3158 0 13.3043V19.2073C0 20.1958 0.804193 21 1.79267 21H7.69568C8.68416 21 9.48835 20.1958 9.48835 19.2073V13.3043C9.48835 12.3158 8.68416 11.5116 7.69568 11.5116Z" fill="#6D3745"/>
<path d="M19.2074 11.5116H13.3044C12.3159 11.5116 11.5117 12.3158 11.5117 13.3043V19.2073C11.5117 20.1958 12.3159 21 13.3044 21H19.2074C20.1959 21 21.0001 20.1958 21.0001 19.2073V13.3043C21.0001 12.3158 20.1959 11.5116 19.2074 11.5116Z" fill="#6D3745"/>
</svg>
