<svg width="61" height="61" viewBox="0 0 61 61" fill="none" xmlns="http://www.w3.org/2000/svg">
<g opacity="0.5">
<path d="M57.9788 31.4782L42.868 16.3674C42.5138 16.0131 42.0933 15.7321 41.6304 15.5404C41.1676 15.3487 40.6716 15.25 40.1706 15.25C39.6697 15.25 39.1736 15.3487 38.7108 15.5404C38.248 15.7321 37.8275 16.0131 37.4733 16.3674L10.7172 43.1273C10.0022 43.8429 9.60059 44.8131 9.60059 45.8247C9.60059 46.8362 10.0022 47.8064 10.7172 48.522L19.3792 57.1878H37.662L57.9788 36.8691C58.6931 36.1539 59.0943 35.1844 59.0943 34.1737C59.0943 33.1629 58.6931 32.1934 57.9788 31.4782ZM36.0836 53.3753H20.9594L13.4107 45.8227L25.4429 33.7905L40.5557 48.9032L36.0836 53.3753ZM43.2511 46.2078L28.1384 31.0951L40.1725 19.0628L55.2834 34.1737L43.2511 46.2078Z" fill="black"/>
<path d="M20.9688 22.875H15.25V3.8125H20.9688C22.485 3.81401 23.9387 4.41701 25.0108 5.48916C26.083 6.5613 26.686 8.01501 26.6875 9.53125V17.1562C26.686 18.6725 26.083 20.1262 25.0108 21.1983C23.9387 22.2705 22.485 22.8735 20.9688 22.875ZM19.0625 19.0625H20.9688C21.4743 19.0625 21.9592 18.8617 22.3167 18.5042C22.6742 18.1467 22.875 17.6618 22.875 17.1562V9.53125C22.875 9.02568 22.6742 8.54082 22.3167 8.18333C21.9592 7.82584 21.4743 7.625 20.9688 7.625H19.0625V19.0625Z" fill="black"/>
<path d="M7.625 3.8125H0V7.625H7.625V11.4375H1.90625V15.25H7.625V19.0625H0V22.875H7.625C8.63567 22.8735 9.60452 22.4713 10.3192 21.7567C11.0338 21.042 11.436 20.0732 11.4375 19.0625V7.625C11.4365 6.61417 11.0345 5.64503 10.3197 4.93027C9.60497 4.21551 8.63583 3.81351 7.625 3.8125Z" fill="black"/>
</g>
</svg>
