<svg width="119" height="37" viewBox="0 0 119 37" fill="none" xmlns="http://www.w3.org/2000/svg">
<path d="M0 18.5C0 8.28273 8.28273 0 18.5 0H100.5C110.717 0 119 8.28273 119 18.5C119 28.7173 110.717 37 100.5 37H18.5C8.28273 37 0 28.7173 0 18.5Z" fill="#56BB6D" fill-opacity="0.3"/>
<circle cx="21" cy="17.5" r="5" fill="#07B32E"/>
<path d="M43.552 19.744L41.752 15.08C41.6987 14.9413 41.6427 14.7813 41.584 14.6C41.5253 14.4133 41.4693 14.216 41.416 14.008C41.304 14.44 41.1893 14.8 41.072 15.088L39.272 19.744H43.552ZM46.784 24H45.584C45.4453 24 45.3333 23.9653 45.248 23.896C45.1627 23.8267 45.0987 23.7387 45.056 23.632L43.984 20.864H38.84L37.768 23.632C37.736 23.728 37.6747 23.8133 37.584 23.888C37.4933 23.9627 37.3813 24 37.248 24H36.048L40.632 12.536H42.2L46.784 24ZM53.3774 17.336C53.3347 17.3947 53.292 17.44 53.2494 17.472C53.2067 17.504 53.148 17.52 53.0734 17.52C52.9934 17.52 52.9054 17.488 52.8094 17.424C52.7134 17.3547 52.5934 17.28 52.4494 17.2C52.3107 17.12 52.1374 17.048 51.9294 16.984C51.7267 16.9147 51.476 16.88 51.1774 16.88C50.7774 16.88 50.4254 16.952 50.1214 17.096C49.8174 17.2347 49.5614 17.4373 49.3534 17.704C49.1507 17.9707 48.996 18.2933 48.8894 18.672C48.788 19.0507 48.7374 19.4747 48.7374 19.944C48.7374 20.4347 48.7934 20.872 48.9054 21.256C49.0174 21.6347 49.1747 21.9547 49.3774 22.216C49.5854 22.472 49.8334 22.6693 50.1214 22.808C50.4147 22.9413 50.7427 23.008 51.1054 23.008C51.452 23.008 51.7374 22.968 51.9614 22.888C52.1854 22.8027 52.3694 22.7093 52.5134 22.608C52.6627 22.5067 52.7854 22.416 52.8814 22.336C52.9827 22.2507 53.0814 22.208 53.1774 22.208C53.2947 22.208 53.3854 22.2533 53.4494 22.344L53.8494 22.864C53.6734 23.0827 53.4734 23.2693 53.2494 23.424C53.0254 23.5787 52.7827 23.7093 52.5214 23.816C52.2654 23.9173 51.996 23.992 51.7134 24.04C51.4307 24.088 51.1427 24.112 50.8494 24.112C50.3427 24.112 49.8707 24.0187 49.4334 23.832C49.0014 23.6453 48.6254 23.376 48.3054 23.024C47.9854 22.6667 47.7347 22.2293 47.5534 21.712C47.372 21.1947 47.2814 20.6053 47.2814 19.944C47.2814 19.3413 47.364 18.784 47.5294 18.272C47.7 17.76 47.9454 17.32 48.2654 16.952C48.5907 16.5787 48.988 16.288 49.4574 16.08C49.932 15.872 50.476 15.768 51.0894 15.768C51.66 15.768 52.1614 15.8613 52.5934 16.048C53.0307 16.2293 53.4174 16.488 53.7534 16.824L53.3774 17.336ZM60.8774 17.336C60.8347 17.3947 60.792 17.44 60.7494 17.472C60.7067 17.504 60.648 17.52 60.5734 17.52C60.4934 17.52 60.4054 17.488 60.3094 17.424C60.2134 17.3547 60.0934 17.28 59.9494 17.2C59.8107 17.12 59.6374 17.048 59.4294 16.984C59.2267 16.9147 58.976 16.88 58.6774 16.88C58.2774 16.88 57.9254 16.952 57.6214 17.096C57.3174 17.2347 57.0614 17.4373 56.8534 17.704C56.6507 17.9707 56.496 18.2933 56.3894 18.672C56.288 19.0507 56.2374 19.4747 56.2374 19.944C56.2374 20.4347 56.2934 20.872 56.4054 21.256C56.5174 21.6347 56.6747 21.9547 56.8774 22.216C57.0854 22.472 57.3334 22.6693 57.6214 22.808C57.9147 22.9413 58.2427 23.008 58.6054 23.008C58.952 23.008 59.2374 22.968 59.4614 22.888C59.6854 22.8027 59.8694 22.7093 60.0134 22.608C60.1627 22.5067 60.2854 22.416 60.3814 22.336C60.4827 22.2507 60.5814 22.208 60.6774 22.208C60.7947 22.208 60.8854 22.2533 60.9494 22.344L61.3494 22.864C61.1734 23.0827 60.9734 23.2693 60.7494 23.424C60.5254 23.5787 60.2827 23.7093 60.0214 23.816C59.7654 23.9173 59.496 23.992 59.2134 24.04C58.9307 24.088 58.6427 24.112 58.3494 24.112C57.8427 24.112 57.3707 24.0187 56.9334 23.832C56.5014 23.6453 56.1254 23.376 55.8054 23.024C55.4854 22.6667 55.2347 22.2293 55.0534 21.712C54.872 21.1947 54.7814 20.6053 54.7814 19.944C54.7814 19.3413 54.864 18.784 55.0294 18.272C55.2 17.76 55.4454 17.32 55.7654 16.952C56.0907 16.5787 56.488 16.288 56.9574 16.08C57.432 15.872 57.976 15.768 58.5894 15.768C59.16 15.768 59.6614 15.8613 60.0934 16.048C60.5307 16.2293 60.9174 16.488 61.2534 16.824L60.8774 17.336ZM68.1614 19.064C68.1614 18.7333 68.1134 18.432 68.0174 18.16C67.9267 17.8827 67.7907 17.6453 67.6094 17.448C67.4334 17.2453 67.2174 17.0907 66.9614 16.984C66.7054 16.872 66.4147 16.816 66.0894 16.816C65.4067 16.816 64.8654 17.016 64.4654 17.416C64.0707 17.8107 63.8254 18.36 63.7294 19.064H68.1614ZM69.3134 22.864C69.1374 23.0773 68.9267 23.264 68.6814 23.424C68.436 23.5787 68.172 23.7067 67.8894 23.808C67.612 23.9093 67.324 23.984 67.0254 24.032C66.7267 24.0853 66.4307 24.112 66.1374 24.112C65.5774 24.112 65.06 24.0187 64.5854 23.832C64.116 23.64 63.708 23.3627 63.3614 23C63.02 22.632 62.7534 22.1787 62.5614 21.64C62.3694 21.1013 62.2734 20.4827 62.2734 19.784C62.2734 19.2187 62.3587 18.6907 62.5294 18.2C62.7054 17.7093 62.956 17.2853 63.2814 16.928C63.6067 16.5653 64.004 16.2827 64.4734 16.08C64.9427 15.872 65.4707 15.768 66.0574 15.768C66.5427 15.768 66.9907 15.8507 67.4014 16.016C67.8174 16.176 68.1747 16.4107 68.4734 16.72C68.7774 17.024 69.0147 17.4027 69.1854 17.856C69.356 18.304 69.4414 18.816 69.4414 19.392C69.4414 19.616 69.4174 19.7653 69.3694 19.84C69.3214 19.9147 69.2307 19.952 69.0974 19.952H63.6814C63.6974 20.464 63.7667 20.9093 63.8894 21.288C64.0174 21.6667 64.1934 21.984 64.4174 22.24C64.6414 22.4907 64.908 22.68 65.2174 22.808C65.5267 22.9307 65.8734 22.992 66.2574 22.992C66.6147 22.992 66.9214 22.952 67.1774 22.872C67.4387 22.7867 67.6627 22.696 67.8494 22.6C68.036 22.504 68.1907 22.416 68.3134 22.336C68.4414 22.2507 68.5507 22.208 68.6414 22.208C68.7587 22.208 68.8494 22.2533 68.9134 22.344L69.3134 22.864ZM72.6225 22.048C72.8838 22.4 73.1692 22.648 73.4785 22.792C73.7878 22.936 74.1345 23.008 74.5185 23.008C75.2758 23.008 75.8572 22.7387 76.2625 22.2C76.6678 21.6613 76.8705 20.8933 76.8705 19.896C76.8705 19.368 76.8225 18.9147 76.7265 18.536C76.6358 18.1573 76.5025 17.848 76.3265 17.608C76.1505 17.3627 75.9345 17.184 75.6785 17.072C75.4225 16.96 75.1318 16.904 74.8065 16.904C74.3425 16.904 73.9345 17.0107 73.5825 17.224C73.2358 17.4373 72.9158 17.7387 72.6225 18.128V22.048ZM72.5505 17.152C72.8918 16.7307 73.2865 16.392 73.7345 16.136C74.1825 15.88 74.6945 15.752 75.2705 15.752C75.7398 15.752 76.1638 15.8427 76.5425 16.024C76.9212 16.2 77.2438 16.464 77.5105 16.816C77.7772 17.1627 77.9825 17.5947 78.1265 18.112C78.2705 18.6293 78.3425 19.224 78.3425 19.896C78.3425 20.4933 78.2625 21.0507 78.1025 21.568C77.9425 22.08 77.7105 22.5253 77.4065 22.904C77.1078 23.2773 76.7398 23.5733 76.3025 23.792C75.8705 24.0053 75.3825 24.112 74.8385 24.112C74.3425 24.112 73.9158 24.0293 73.5585 23.864C73.2065 23.6933 72.8945 23.4587 72.6225 23.16V26.744H71.1905V15.896H72.0465C72.2492 15.896 72.3745 15.9947 72.4225 16.192L72.5505 17.152ZM82.5379 24.128C81.8979 24.128 81.4045 23.9493 81.0579 23.592C80.7165 23.2347 80.5459 22.72 80.5459 22.048V17.088H79.5699C79.4845 17.088 79.4125 17.064 79.3539 17.016C79.2952 16.9627 79.2659 16.8827 79.2659 16.776V16.208L80.5939 16.04L80.9219 13.536C80.9379 13.456 80.9725 13.392 81.0259 13.344C81.0845 13.2907 81.1592 13.264 81.2499 13.264H81.9699V16.056H84.3139V17.088H81.9699V21.952C81.9699 22.2933 82.0525 22.5467 82.2179 22.712C82.3832 22.8773 82.5965 22.96 82.8579 22.96C83.0072 22.96 83.1352 22.9413 83.2419 22.904C83.3539 22.8613 83.4499 22.816 83.5299 22.768C83.6099 22.72 83.6765 22.6773 83.7299 22.64C83.7885 22.5973 83.8392 22.576 83.8819 22.576C83.9565 22.576 84.0232 22.6213 84.0819 22.712L84.4979 23.392C84.2525 23.6213 83.9565 23.8027 83.6099 23.936C83.2632 24.064 82.9059 24.128 82.5379 24.128ZM91.1614 19.064C91.1614 18.7333 91.1134 18.432 91.0174 18.16C90.9267 17.8827 90.7907 17.6453 90.6094 17.448C90.4334 17.2453 90.2174 17.0907 89.9614 16.984C89.7054 16.872 89.4147 16.816 89.0894 16.816C88.4067 16.816 87.8654 17.016 87.4654 17.416C87.0707 17.8107 86.8254 18.36 86.7294 19.064H91.1614ZM92.3134 22.864C92.1374 23.0773 91.9267 23.264 91.6814 23.424C91.436 23.5787 91.172 23.7067 90.8894 23.808C90.612 23.9093 90.324 23.984 90.0254 24.032C89.7267 24.0853 89.4307 24.112 89.1374 24.112C88.5774 24.112 88.06 24.0187 87.5854 23.832C87.116 23.64 86.708 23.3627 86.3614 23C86.02 22.632 85.7534 22.1787 85.5614 21.64C85.3694 21.1013 85.2734 20.4827 85.2734 19.784C85.2734 19.2187 85.3587 18.6907 85.5294 18.2C85.7054 17.7093 85.956 17.2853 86.2814 16.928C86.6067 16.5653 87.004 16.2827 87.4734 16.08C87.9427 15.872 88.4707 15.768 89.0574 15.768C89.5427 15.768 89.9907 15.8507 90.4014 16.016C90.8174 16.176 91.1747 16.4107 91.4734 16.72C91.7774 17.024 92.0147 17.4027 92.1854 17.856C92.356 18.304 92.4414 18.816 92.4414 19.392C92.4414 19.616 92.4174 19.7653 92.3694 19.84C92.3214 19.9147 92.2307 19.952 92.0974 19.952H86.6814C86.6974 20.464 86.7667 20.9093 86.8894 21.288C87.0174 21.6667 87.1934 21.984 87.4174 22.24C87.6414 22.4907 87.908 22.68 88.2174 22.808C88.5267 22.9307 88.8734 22.992 89.2574 22.992C89.6147 22.992 89.9214 22.952 90.1774 22.872C90.4387 22.7867 90.6627 22.696 90.8494 22.6C91.036 22.504 91.1907 22.416 91.3134 22.336C91.4414 22.2507 91.5507 22.208 91.6414 22.208C91.7587 22.208 91.8494 22.2533 91.9134 22.344L92.3134 22.864ZM99.4705 17.824C99.2038 17.4667 98.9158 17.2187 98.6065 17.08C98.2972 16.936 97.9505 16.864 97.5665 16.864C96.8145 16.864 96.2358 17.1333 95.8305 17.672C95.4252 18.2107 95.2225 18.9787 95.2225 19.976C95.2225 20.504 95.2678 20.9573 95.3585 21.336C95.4492 21.7093 95.5825 22.0187 95.7585 22.264C95.9345 22.504 96.1505 22.68 96.4065 22.792C96.6625 22.904 96.9532 22.96 97.2785 22.96C97.7478 22.96 98.1558 22.8533 98.5025 22.64C98.8545 22.4267 99.1772 22.1253 99.4705 21.736V17.824ZM100.895 12.216V24H100.047C99.8438 24 99.7158 23.9013 99.6625 23.704L99.5345 22.72C99.1878 23.136 98.7932 23.472 98.3505 23.728C97.9078 23.984 97.3958 24.112 96.8145 24.112C96.3505 24.112 95.9292 24.024 95.5505 23.848C95.1718 23.6667 94.8492 23.4027 94.5825 23.056C94.3158 22.7093 94.1105 22.2773 93.9665 21.76C93.8225 21.2427 93.7505 20.648 93.7505 19.976C93.7505 19.3787 93.8305 18.824 93.9905 18.312C94.1505 17.7947 94.3798 17.3467 94.6785 16.968C94.9772 16.5893 95.3425 16.2933 95.7745 16.08C96.2118 15.8613 96.7025 15.752 97.2465 15.752C97.7425 15.752 98.1665 15.8373 98.5185 16.008C98.8758 16.1733 99.1932 16.4053 99.4705 16.704V12.216H100.895Z" fill="#07B32E"/>
</svg>
