<svg width="125" height="37" viewBox="0 0 125 37" fill="none" xmlns="http://www.w3.org/2000/svg">
<path d="M0 18.5C0 8.28273 8.28273 0 18.5 0H106.5C116.717 0 125 8.28273 125 18.5C125 28.7173 116.717 37 106.5 37H18.5C8.28273 37 0 28.7173 0 18.5Z" fill="#56BB6D" fill-opacity="0.3"/>
<path d="M21.4343 23.2322L16.2343 18.0322C15.9219 17.7198 15.9219 17.2133 16.2343 16.9008L17.3656 15.7695C17.6781 15.457 18.1846 15.457 18.497 15.7695L22 19.2724L29.503 11.7695C29.8154 11.4571 30.3219 11.4571 30.6343 11.7695L31.7657 12.9008C32.0781 13.2132 32.0781 13.7198 31.7657 14.0322L22.5657 23.2322C22.2532 23.5447 21.7467 23.5447 21.4343 23.2322Z" fill="#07B32E"/>
<path d="M49.552 19.744L47.752 15.08C47.6987 14.9413 47.6427 14.7813 47.584 14.6C47.5253 14.4133 47.4693 14.216 47.416 14.008C47.304 14.44 47.1893 14.8 47.072 15.088L45.272 19.744H49.552ZM52.784 24H51.584C51.4453 24 51.3333 23.9653 51.248 23.896C51.1627 23.8267 51.0987 23.7387 51.056 23.632L49.984 20.864H44.84L43.768 23.632C43.736 23.728 43.6747 23.8133 43.584 23.888C43.4933 23.9627 43.3813 24 43.248 24H42.048L46.632 12.536H48.2L52.784 24ZM59.3774 17.336C59.3347 17.3947 59.292 17.44 59.2494 17.472C59.2067 17.504 59.148 17.52 59.0734 17.52C58.9934 17.52 58.9054 17.488 58.8094 17.424C58.7134 17.3547 58.5934 17.28 58.4494 17.2C58.3107 17.12 58.1374 17.048 57.9294 16.984C57.7267 16.9147 57.476 16.88 57.1774 16.88C56.7774 16.88 56.4254 16.952 56.1214 17.096C55.8174 17.2347 55.5614 17.4373 55.3534 17.704C55.1507 17.9707 54.996 18.2933 54.8894 18.672C54.788 19.0507 54.7374 19.4747 54.7374 19.944C54.7374 20.4347 54.7934 20.872 54.9054 21.256C55.0174 21.6347 55.1747 21.9547 55.3774 22.216C55.5854 22.472 55.8334 22.6693 56.1214 22.808C56.4147 22.9413 56.7427 23.008 57.1054 23.008C57.452 23.008 57.7374 22.968 57.9614 22.888C58.1854 22.8027 58.3694 22.7093 58.5134 22.608C58.6627 22.5067 58.7854 22.416 58.8814 22.336C58.9827 22.2507 59.0814 22.208 59.1774 22.208C59.2947 22.208 59.3854 22.2533 59.4494 22.344L59.8494 22.864C59.6734 23.0827 59.4734 23.2693 59.2494 23.424C59.0254 23.5787 58.7827 23.7093 58.5214 23.816C58.2654 23.9173 57.996 23.992 57.7134 24.04C57.4307 24.088 57.1427 24.112 56.8494 24.112C56.3427 24.112 55.8707 24.0187 55.4334 23.832C55.0014 23.6453 54.6254 23.376 54.3054 23.024C53.9854 22.6667 53.7347 22.2293 53.5534 21.712C53.372 21.1947 53.2814 20.6053 53.2814 19.944C53.2814 19.3413 53.364 18.784 53.5294 18.272C53.7 17.76 53.9454 17.32 54.2654 16.952C54.5907 16.5787 54.988 16.288 55.4574 16.08C55.932 15.872 56.476 15.768 57.0894 15.768C57.66 15.768 58.1614 15.8613 58.5934 16.048C59.0307 16.2293 59.4174 16.488 59.7534 16.824L59.3774 17.336ZM66.8774 17.336C66.8347 17.3947 66.792 17.44 66.7494 17.472C66.7067 17.504 66.648 17.52 66.5734 17.52C66.4934 17.52 66.4054 17.488 66.3094 17.424C66.2134 17.3547 66.0934 17.28 65.9494 17.2C65.8107 17.12 65.6374 17.048 65.4294 16.984C65.2267 16.9147 64.976 16.88 64.6774 16.88C64.2774 16.88 63.9254 16.952 63.6214 17.096C63.3174 17.2347 63.0614 17.4373 62.8534 17.704C62.6507 17.9707 62.496 18.2933 62.3894 18.672C62.288 19.0507 62.2374 19.4747 62.2374 19.944C62.2374 20.4347 62.2934 20.872 62.4054 21.256C62.5174 21.6347 62.6747 21.9547 62.8774 22.216C63.0854 22.472 63.3334 22.6693 63.6214 22.808C63.9147 22.9413 64.2427 23.008 64.6054 23.008C64.952 23.008 65.2374 22.968 65.4614 22.888C65.6854 22.8027 65.8694 22.7093 66.0134 22.608C66.1627 22.5067 66.2854 22.416 66.3814 22.336C66.4827 22.2507 66.5814 22.208 66.6774 22.208C66.7947 22.208 66.8854 22.2533 66.9494 22.344L67.3494 22.864C67.1734 23.0827 66.9734 23.2693 66.7494 23.424C66.5254 23.5787 66.2827 23.7093 66.0214 23.816C65.7654 23.9173 65.496 23.992 65.2134 24.04C64.9307 24.088 64.6427 24.112 64.3494 24.112C63.8427 24.112 63.3707 24.0187 62.9334 23.832C62.5014 23.6453 62.1254 23.376 61.8054 23.024C61.4854 22.6667 61.2347 22.2293 61.0534 21.712C60.872 21.1947 60.7814 20.6053 60.7814 19.944C60.7814 19.3413 60.864 18.784 61.0294 18.272C61.2 17.76 61.4454 17.32 61.7654 16.952C62.0907 16.5787 62.488 16.288 62.9574 16.08C63.432 15.872 63.976 15.768 64.5894 15.768C65.16 15.768 65.6614 15.8613 66.0934 16.048C66.5307 16.2293 66.9174 16.488 67.2534 16.824L66.8774 17.336ZM74.1614 19.064C74.1614 18.7333 74.1134 18.432 74.0174 18.16C73.9267 17.8827 73.7907 17.6453 73.6094 17.448C73.4334 17.2453 73.2174 17.0907 72.9614 16.984C72.7054 16.872 72.4147 16.816 72.0894 16.816C71.4067 16.816 70.8654 17.016 70.4654 17.416C70.0707 17.8107 69.8254 18.36 69.7294 19.064H74.1614ZM75.3134 22.864C75.1374 23.0773 74.9267 23.264 74.6814 23.424C74.436 23.5787 74.172 23.7067 73.8894 23.808C73.612 23.9093 73.324 23.984 73.0254 24.032C72.7267 24.0853 72.4307 24.112 72.1374 24.112C71.5774 24.112 71.06 24.0187 70.5854 23.832C70.116 23.64 69.708 23.3627 69.3614 23C69.02 22.632 68.7534 22.1787 68.5614 21.64C68.3694 21.1013 68.2734 20.4827 68.2734 19.784C68.2734 19.2187 68.3587 18.6907 68.5294 18.2C68.7054 17.7093 68.956 17.2853 69.2814 16.928C69.6067 16.5653 70.004 16.2827 70.4734 16.08C70.9427 15.872 71.4707 15.768 72.0574 15.768C72.5427 15.768 72.9907 15.8507 73.4014 16.016C73.8174 16.176 74.1747 16.4107 74.4734 16.72C74.7774 17.024 75.0147 17.4027 75.1854 17.856C75.356 18.304 75.4414 18.816 75.4414 19.392C75.4414 19.616 75.4174 19.7653 75.3694 19.84C75.3214 19.9147 75.2307 19.952 75.0974 19.952H69.6814C69.6974 20.464 69.7667 20.9093 69.8894 21.288C70.0174 21.6667 70.1934 21.984 70.4174 22.24C70.6414 22.4907 70.908 22.68 71.2174 22.808C71.5267 22.9307 71.8734 22.992 72.2574 22.992C72.6147 22.992 72.9214 22.952 73.1774 22.872C73.4387 22.7867 73.6627 22.696 73.8494 22.6C74.036 22.504 74.1907 22.416 74.3134 22.336C74.4414 22.2507 74.5507 22.208 74.6414 22.208C74.7587 22.208 74.8494 22.2533 74.9134 22.344L75.3134 22.864ZM78.6225 22.048C78.8838 22.4 79.1692 22.648 79.4785 22.792C79.7878 22.936 80.1345 23.008 80.5185 23.008C81.2758 23.008 81.8572 22.7387 82.2625 22.2C82.6678 21.6613 82.8705 20.8933 82.8705 19.896C82.8705 19.368 82.8225 18.9147 82.7265 18.536C82.6358 18.1573 82.5025 17.848 82.3265 17.608C82.1505 17.3627 81.9345 17.184 81.6785 17.072C81.4225 16.96 81.1318 16.904 80.8065 16.904C80.3425 16.904 79.9345 17.0107 79.5825 17.224C79.2358 17.4373 78.9158 17.7387 78.6225 18.128V22.048ZM78.5505 17.152C78.8918 16.7307 79.2865 16.392 79.7345 16.136C80.1825 15.88 80.6945 15.752 81.2705 15.752C81.7398 15.752 82.1638 15.8427 82.5425 16.024C82.9212 16.2 83.2438 16.464 83.5105 16.816C83.7772 17.1627 83.9825 17.5947 84.1265 18.112C84.2705 18.6293 84.3425 19.224 84.3425 19.896C84.3425 20.4933 84.2625 21.0507 84.1025 21.568C83.9425 22.08 83.7105 22.5253 83.4065 22.904C83.1078 23.2773 82.7398 23.5733 82.3025 23.792C81.8705 24.0053 81.3825 24.112 80.8385 24.112C80.3425 24.112 79.9158 24.0293 79.5585 23.864C79.2065 23.6933 78.8945 23.4587 78.6225 23.16V26.744H77.1905V15.896H78.0465C78.2492 15.896 78.3745 15.9947 78.4225 16.192L78.5505 17.152ZM88.5379 24.128C87.8979 24.128 87.4045 23.9493 87.0579 23.592C86.7165 23.2347 86.5459 22.72 86.5459 22.048V17.088H85.5699C85.4845 17.088 85.4125 17.064 85.3539 17.016C85.2952 16.9627 85.2659 16.8827 85.2659 16.776V16.208L86.5939 16.04L86.9219 13.536C86.9379 13.456 86.9725 13.392 87.0259 13.344C87.0845 13.2907 87.1592 13.264 87.2499 13.264H87.9699V16.056H90.3139V17.088H87.9699V21.952C87.9699 22.2933 88.0525 22.5467 88.2179 22.712C88.3832 22.8773 88.5965 22.96 88.8579 22.96C89.0072 22.96 89.1352 22.9413 89.2419 22.904C89.3539 22.8613 89.4499 22.816 89.5299 22.768C89.6099 22.72 89.6765 22.6773 89.7299 22.64C89.7885 22.5973 89.8392 22.576 89.8819 22.576C89.9565 22.576 90.0232 22.6213 90.0819 22.712L90.4979 23.392C90.2525 23.6213 89.9565 23.8027 89.6099 23.936C89.2632 24.064 88.9059 24.128 88.5379 24.128ZM97.1614 19.064C97.1614 18.7333 97.1134 18.432 97.0174 18.16C96.9267 17.8827 96.7907 17.6453 96.6094 17.448C96.4334 17.2453 96.2174 17.0907 95.9614 16.984C95.7054 16.872 95.4147 16.816 95.0894 16.816C94.4067 16.816 93.8654 17.016 93.4654 17.416C93.0707 17.8107 92.8254 18.36 92.7294 19.064H97.1614ZM98.3134 22.864C98.1374 23.0773 97.9267 23.264 97.6814 23.424C97.436 23.5787 97.172 23.7067 96.8894 23.808C96.612 23.9093 96.324 23.984 96.0254 24.032C95.7267 24.0853 95.4307 24.112 95.1374 24.112C94.5774 24.112 94.06 24.0187 93.5854 23.832C93.116 23.64 92.708 23.3627 92.3614 23C92.02 22.632 91.7534 22.1787 91.5614 21.64C91.3694 21.1013 91.2734 20.4827 91.2734 19.784C91.2734 19.2187 91.3587 18.6907 91.5294 18.2C91.7054 17.7093 91.956 17.2853 92.2814 16.928C92.6067 16.5653 93.004 16.2827 93.4734 16.08C93.9427 15.872 94.4707 15.768 95.0574 15.768C95.5427 15.768 95.9907 15.8507 96.4014 16.016C96.8174 16.176 97.1747 16.4107 97.4734 16.72C97.7774 17.024 98.0147 17.4027 98.1854 17.856C98.356 18.304 98.4414 18.816 98.4414 19.392C98.4414 19.616 98.4174 19.7653 98.3694 19.84C98.3214 19.9147 98.2307 19.952 98.0974 19.952H92.6814C92.6974 20.464 92.7667 20.9093 92.8894 21.288C93.0174 21.6667 93.1934 21.984 93.4174 22.24C93.6414 22.4907 93.908 22.68 94.2174 22.808C94.5267 22.9307 94.8734 22.992 95.2574 22.992C95.6147 22.992 95.9214 22.952 96.1774 22.872C96.4387 22.7867 96.6627 22.696 96.8494 22.6C97.036 22.504 97.1907 22.416 97.3134 22.336C97.4414 22.2507 97.5507 22.208 97.6414 22.208C97.7587 22.208 97.8494 22.2533 97.9134 22.344L98.3134 22.864ZM105.471 17.824C105.204 17.4667 104.916 17.2187 104.607 17.08C104.297 16.936 103.951 16.864 103.567 16.864C102.815 16.864 102.236 17.1333 101.831 17.672C101.425 18.2107 101.223 18.9787 101.223 19.976C101.223 20.504 101.268 20.9573 101.359 21.336C101.449 21.7093 101.583 22.0187 101.759 22.264C101.935 22.504 102.151 22.68 102.407 22.792C102.663 22.904 102.953 22.96 103.279 22.96C103.748 22.96 104.156 22.8533 104.503 22.64C104.855 22.4267 105.177 22.1253 105.471 21.736V17.824ZM106.895 12.216V24H106.047C105.844 24 105.716 23.9013 105.663 23.704L105.535 22.72C105.188 23.136 104.793 23.472 104.351 23.728C103.908 23.984 103.396 24.112 102.815 24.112C102.351 24.112 101.929 24.024 101.551 23.848C101.172 23.6667 100.849 23.4027 100.583 23.056C100.316 22.7093 100.111 22.2773 99.9665 21.76C99.8225 21.2427 99.7505 20.648 99.7505 19.976C99.7505 19.3787 99.8305 18.824 99.9905 18.312C100.151 17.7947 100.38 17.3467 100.679 16.968C100.977 16.5893 101.343 16.2933 101.775 16.08C102.212 15.8613 102.703 15.752 103.247 15.752C103.743 15.752 104.167 15.8373 104.519 16.008C104.876 16.1733 105.193 16.4053 105.471 16.704V12.216H106.895Z" fill="#07B32E"/>
</svg>
