<svg width="143" height="34" viewBox="0 0 143 34" fill="none" xmlns="http://www.w3.org/2000/svg">
<path d="M43.384 18.46H41.002V20.974H39.952V18.46H37.582V17.488H39.952V14.98H41.002V17.488H43.384V18.46ZM45.8089 15.928C45.8089 16.44 45.9449 16.834 46.2169 17.11C46.4929 17.382 46.8769 17.518 47.3689 17.518C47.6329 17.518 47.8649 17.476 48.0649 17.392C48.2689 17.308 48.4409 17.196 48.5809 17.056C48.7209 16.912 48.8269 16.746 48.8989 16.558C48.9709 16.366 49.0069 16.162 49.0069 15.946C49.0069 15.694 48.9669 15.47 48.8869 15.274C48.8109 15.074 48.7009 14.904 48.5569 14.764C48.4169 14.624 48.2489 14.518 48.0529 14.446C47.8569 14.37 47.6429 14.332 47.4109 14.332C47.1669 14.332 46.9469 14.372 46.7509 14.452C46.5549 14.532 46.3869 14.644 46.2469 14.788C46.1069 14.928 45.9989 15.096 45.9229 15.292C45.8469 15.484 45.8089 15.696 45.8089 15.928ZM48.0229 18.61C48.1029 18.51 48.1769 18.416 48.2449 18.328C48.3129 18.236 48.3769 18.144 48.4369 18.052C48.2289 18.2 47.9969 18.314 47.7409 18.394C47.4849 18.47 47.2129 18.508 46.9249 18.508C46.6129 18.508 46.3129 18.456 46.0249 18.352C45.7369 18.244 45.4809 18.086 45.2569 17.878C45.0329 17.666 44.8529 17.406 44.7169 17.098C44.5849 16.786 44.5189 16.428 44.5189 16.024C44.5189 15.644 44.5889 15.286 44.7289 14.95C44.8729 14.614 45.0729 14.322 45.3289 14.074C45.5849 13.822 45.8909 13.624 46.2469 13.48C46.6029 13.336 46.9969 13.264 47.4289 13.264C47.8569 13.264 48.2449 13.334 48.5929 13.474C48.9409 13.61 49.2369 13.804 49.4809 14.056C49.7249 14.304 49.9129 14.602 50.0449 14.95C50.1769 15.294 50.2429 15.674 50.2429 16.09C50.2429 16.35 50.2189 16.596 50.1709 16.828C50.1269 17.06 50.0609 17.286 49.9729 17.506C49.8889 17.722 49.7849 17.936 49.6609 18.148C49.5409 18.356 49.4049 18.568 49.2529 18.784L47.2189 21.7C47.1589 21.788 47.0689 21.86 46.9489 21.916C46.8329 21.972 46.7009 22 46.5529 22H45.3709L48.0229 18.61ZM57.0839 21.022V22H52.3739V21.022H54.1739V15.61C54.1739 15.418 54.1799 15.222 54.1919 15.022L52.8059 16.192C52.7459 16.24 52.6839 16.272 52.6199 16.288C52.5599 16.3 52.5019 16.3 52.4459 16.288C52.3939 16.276 52.3459 16.258 52.3019 16.234C52.2619 16.206 52.2299 16.176 52.2059 16.144L51.8039 15.58L54.4079 13.342H55.4579V21.022H57.0839ZM64.3511 21.076C64.6111 21.076 64.8431 21.04 65.0471 20.968C65.2511 20.892 65.4211 20.788 65.5571 20.656C65.6971 20.52 65.8031 20.36 65.8751 20.176C65.9471 19.992 65.9831 19.792 65.9831 19.576C65.9831 19.312 65.9411 19.084 65.8571 18.892C65.7771 18.7 65.6631 18.542 65.5151 18.418C65.3711 18.29 65.1991 18.196 64.9991 18.136C64.7991 18.072 64.5831 18.04 64.3511 18.04C64.1191 18.04 63.9031 18.072 63.7031 18.136C63.5031 18.196 63.3291 18.29 63.1811 18.418C63.0371 18.542 62.9231 18.7 62.8391 18.892C62.7591 19.084 62.7191 19.312 62.7191 19.576C62.7191 19.792 62.7551 19.992 62.8271 20.176C62.8991 20.36 63.0031 20.52 63.1391 20.656C63.2791 20.788 63.4511 20.892 63.6551 20.968C63.8591 21.04 64.0911 21.076 64.3511 21.076ZM64.3511 14.254C64.1151 14.254 63.9071 14.29 63.7271 14.362C63.5511 14.434 63.4051 14.53 63.2891 14.65C63.1731 14.77 63.0851 14.912 63.0251 15.076C62.9691 15.236 62.9411 15.406 62.9411 15.586C62.9411 15.766 62.9651 15.942 63.0131 16.114C63.0651 16.286 63.1451 16.44 63.2531 16.576C63.3651 16.708 63.5111 16.814 63.6911 16.894C63.8711 16.974 64.0911 17.014 64.3511 17.014C64.6111 17.014 64.8311 16.974 65.0111 16.894C65.1911 16.814 65.3351 16.708 65.4431 16.576C65.5551 16.44 65.6351 16.286 65.6831 16.114C65.7351 15.942 65.7611 15.766 65.7611 15.586C65.7611 15.406 65.7311 15.236 65.6711 15.076C65.6151 14.912 65.5271 14.77 65.4071 14.65C65.2911 14.53 65.1451 14.434 64.9691 14.362C64.7931 14.29 64.5871 14.254 64.3511 14.254ZM65.7131 17.494C66.2451 17.658 66.6431 17.918 66.9071 18.274C67.1751 18.63 67.3091 19.072 67.3091 19.6C67.3091 19.98 67.2371 20.324 67.0931 20.632C66.9491 20.94 66.7471 21.202 66.4871 21.418C66.2271 21.634 65.9151 21.802 65.5511 21.922C65.1911 22.038 64.7911 22.096 64.3511 22.096C63.9111 22.096 63.5091 22.038 63.1451 21.922C62.7851 21.802 62.4751 21.634 62.2151 21.418C61.9551 21.202 61.7531 20.94 61.6091 20.632C61.4651 20.324 61.3931 19.98 61.3931 19.6C61.3931 19.072 61.5251 18.63 61.7891 18.274C62.0571 17.918 62.4571 17.658 62.9891 17.494C62.5571 17.322 62.2311 17.072 62.0111 16.744C61.7951 16.416 61.6871 16.022 61.6871 15.562C61.6871 15.238 61.7511 14.936 61.8791 14.656C62.0071 14.376 62.1871 14.134 62.4191 13.93C62.6551 13.722 62.9371 13.56 63.2651 13.444C63.5931 13.324 63.9551 13.264 64.3511 13.264C64.7471 13.264 65.1071 13.324 65.4311 13.444C65.7591 13.56 66.0391 13.722 66.2711 13.93C66.5071 14.134 66.6891 14.376 66.8171 14.656C66.9491 14.936 67.0151 15.238 67.0151 15.562C67.0151 16.022 66.9051 16.416 66.6851 16.744C66.4691 17.072 66.1451 17.322 65.7131 17.494ZM73.736 20.782C73.876 20.782 73.986 20.824 74.066 20.908C74.146 20.988 74.186 21.092 74.186 21.22V22H68.342V21.562C68.342 21.474 68.36 21.382 68.396 21.286C68.432 21.19 68.49 21.102 68.57 21.022L71.258 18.328C71.486 18.1 71.688 17.882 71.864 17.674C72.044 17.466 72.196 17.258 72.32 17.05C72.448 16.842 72.544 16.632 72.608 16.42C72.676 16.204 72.71 15.978 72.71 15.742C72.71 15.514 72.674 15.314 72.602 15.142C72.534 14.966 72.438 14.822 72.314 14.71C72.194 14.594 72.048 14.508 71.876 14.452C71.708 14.392 71.522 14.362 71.318 14.362C71.122 14.362 70.94 14.39 70.772 14.446C70.608 14.502 70.46 14.58 70.328 14.68C70.2 14.78 70.092 14.9 70.004 15.04C69.92 15.176 69.858 15.326 69.818 15.49C69.758 15.654 69.68 15.764 69.584 15.82C69.492 15.876 69.356 15.888 69.176 15.856L68.498 15.736C68.558 15.328 68.67 14.97 68.834 14.662C69.002 14.354 69.212 14.098 69.464 13.894C69.716 13.686 70.004 13.53 70.328 13.426C70.656 13.318 71.01 13.264 71.39 13.264C71.774 13.264 72.126 13.322 72.446 13.438C72.77 13.55 73.048 13.712 73.28 13.924C73.516 14.132 73.7 14.386 73.832 14.686C73.964 14.986 74.03 15.324 74.03 15.7C74.03 16.02 73.982 16.316 73.886 16.588C73.794 16.86 73.668 17.12 73.508 17.368C73.348 17.616 73.16 17.858 72.944 18.094C72.732 18.326 72.508 18.562 72.272 18.802L70.184 20.938C70.356 20.89 70.528 20.852 70.7 20.824C70.876 20.796 71.042 20.782 71.198 20.782H73.736ZM76.641 15.928C76.641 16.44 76.777 16.834 77.049 17.11C77.325 17.382 77.709 17.518 78.201 17.518C78.465 17.518 78.697 17.476 78.897 17.392C79.101 17.308 79.273 17.196 79.413 17.056C79.553 16.912 79.659 16.746 79.731 16.558C79.803 16.366 79.839 16.162 79.839 15.946C79.839 15.694 79.799 15.47 79.719 15.274C79.643 15.074 79.533 14.904 79.389 14.764C79.249 14.624 79.081 14.518 78.885 14.446C78.689 14.37 78.475 14.332 78.243 14.332C77.999 14.332 77.779 14.372 77.583 14.452C77.387 14.532 77.219 14.644 77.079 14.788C76.939 14.928 76.831 15.096 76.755 15.292C76.679 15.484 76.641 15.696 76.641 15.928ZM78.855 18.61C78.935 18.51 79.009 18.416 79.077 18.328C79.145 18.236 79.209 18.144 79.269 18.052C79.061 18.2 78.829 18.314 78.573 18.394C78.317 18.47 78.045 18.508 77.757 18.508C77.445 18.508 77.145 18.456 76.857 18.352C76.569 18.244 76.313 18.086 76.089 17.878C75.865 17.666 75.685 17.406 75.549 17.098C75.417 16.786 75.351 16.428 75.351 16.024C75.351 15.644 75.421 15.286 75.561 14.95C75.705 14.614 75.905 14.322 76.161 14.074C76.417 13.822 76.723 13.624 77.079 13.48C77.435 13.336 77.829 13.264 78.261 13.264C78.689 13.264 79.077 13.334 79.425 13.474C79.773 13.61 80.069 13.804 80.313 14.056C80.557 14.304 80.745 14.602 80.877 14.95C81.009 15.294 81.075 15.674 81.075 16.09C81.075 16.35 81.051 16.596 81.003 16.828C80.959 17.06 80.893 17.286 80.805 17.506C80.721 17.722 80.617 17.936 80.493 18.148C80.373 18.356 80.237 18.568 80.085 18.784L78.051 21.7C77.991 21.788 77.901 21.86 77.781 21.916C77.665 21.972 77.533 22 77.385 22H76.203L78.855 18.61ZM87.9159 21.022V22H83.2059V21.022H85.0059V15.61C85.0059 15.418 85.0119 15.222 85.0239 15.022L83.6379 16.192C83.5779 16.24 83.5159 16.272 83.4519 16.288C83.3919 16.3 83.3339 16.3 83.2779 16.288C83.2259 16.276 83.1779 16.258 83.1339 16.234C83.0939 16.206 83.0619 16.176 83.0379 16.144L82.6359 15.58L85.2399 13.342H86.2899V21.022H87.9159ZM95.3448 17.68C95.3448 18.436 95.2628 19.09 95.0988 19.642C94.9388 20.194 94.7168 20.652 94.4328 21.016C94.1488 21.38 93.8148 21.65 93.4308 21.826C93.0468 22.002 92.6328 22.09 92.1888 22.09C91.7448 22.09 91.3308 22.002 90.9468 21.826C90.5628 21.65 90.2288 21.38 89.9448 21.016C89.6648 20.652 89.4448 20.194 89.2848 19.642C89.1248 19.09 89.0448 18.436 89.0448 17.68C89.0448 16.924 89.1248 16.27 89.2848 15.718C89.4448 15.162 89.6648 14.704 89.9448 14.344C90.2288 13.98 90.5628 13.71 90.9468 13.534C91.3308 13.354 91.7448 13.264 92.1888 13.264C92.6328 13.264 93.0468 13.354 93.4308 13.534C93.8148 13.71 94.1488 13.98 94.4328 14.344C94.7168 14.704 94.9388 15.162 95.0988 15.718C95.2628 16.27 95.3448 16.924 95.3448 17.68ZM94.0128 17.68C94.0128 17.04 93.9608 16.508 93.8568 16.084C93.7568 15.656 93.6228 15.314 93.4548 15.058C93.2868 14.802 93.0928 14.62 92.8728 14.512C92.6528 14.404 92.4248 14.35 92.1888 14.35C91.9488 14.35 91.7188 14.404 91.4988 14.512C91.2828 14.62 91.0908 14.802 90.9228 15.058C90.7548 15.314 90.6208 15.656 90.5208 16.084C90.4208 16.508 90.3708 17.04 90.3708 17.68C90.3708 18.32 90.4208 18.854 90.5208 19.282C90.6208 19.706 90.7548 20.046 90.9228 20.302C91.0908 20.558 91.2828 20.74 91.4988 20.848C91.7188 20.956 91.9488 21.01 92.1888 21.01C92.4248 21.01 92.6528 20.956 92.8728 20.848C93.0928 20.74 93.2868 20.558 93.4548 20.302C93.6228 20.046 93.7568 19.706 93.8568 19.282C93.9608 18.854 94.0128 18.32 94.0128 17.68ZM102.198 13.36V13.93C102.198 14.098 102.18 14.234 102.144 14.338C102.108 14.442 102.072 14.53 102.036 14.602L98.6218 21.55C98.5618 21.678 98.4758 21.786 98.3638 21.874C98.2558 21.958 98.1118 22 97.9318 22H97.0018L100.482 15.166C100.546 15.042 100.61 14.93 100.674 14.83C100.738 14.73 100.81 14.634 100.89 14.542H96.5758C96.4958 14.542 96.4258 14.512 96.3658 14.452C96.3058 14.388 96.2758 14.316 96.2758 14.236V13.36H102.198ZM104.485 15.928C104.485 16.44 104.621 16.834 104.893 17.11C105.169 17.382 105.553 17.518 106.045 17.518C106.309 17.518 106.541 17.476 106.741 17.392C106.945 17.308 107.117 17.196 107.257 17.056C107.397 16.912 107.503 16.746 107.575 16.558C107.647 16.366 107.683 16.162 107.683 15.946C107.683 15.694 107.643 15.47 107.563 15.274C107.487 15.074 107.377 14.904 107.233 14.764C107.093 14.624 106.925 14.518 106.729 14.446C106.533 14.37 106.319 14.332 106.087 14.332C105.843 14.332 105.623 14.372 105.427 14.452C105.231 14.532 105.063 14.644 104.923 14.788C104.783 14.928 104.675 15.096 104.599 15.292C104.523 15.484 104.485 15.696 104.485 15.928ZM106.699 18.61C106.779 18.51 106.853 18.416 106.921 18.328C106.989 18.236 107.053 18.144 107.113 18.052C106.905 18.2 106.673 18.314 106.417 18.394C106.161 18.47 105.889 18.508 105.601 18.508C105.289 18.508 104.989 18.456 104.701 18.352C104.413 18.244 104.157 18.086 103.933 17.878C103.709 17.666 103.529 17.406 103.393 17.098C103.261 16.786 103.195 16.428 103.195 16.024C103.195 15.644 103.265 15.286 103.405 14.95C103.549 14.614 103.749 14.322 104.005 14.074C104.261 13.822 104.567 13.624 104.923 13.48C105.279 13.336 105.673 13.264 106.105 13.264C106.533 13.264 106.921 13.334 107.269 13.474C107.617 13.61 107.913 13.804 108.157 14.056C108.401 14.304 108.589 14.602 108.721 14.95C108.853 15.294 108.919 15.674 108.919 16.09C108.919 16.35 108.895 16.596 108.847 16.828C108.803 17.06 108.737 17.286 108.649 17.506C108.565 17.722 108.461 17.936 108.337 18.148C108.217 18.356 108.081 18.568 107.929 18.784L105.895 21.7C105.835 21.788 105.745 21.86 105.625 21.916C105.509 21.972 105.377 22 105.229 22H104.047L106.699 18.61ZM113.078 21.076C113.338 21.076 113.57 21.04 113.774 20.968C113.978 20.892 114.148 20.788 114.284 20.656C114.424 20.52 114.53 20.36 114.602 20.176C114.674 19.992 114.71 19.792 114.71 19.576C114.71 19.312 114.668 19.084 114.584 18.892C114.504 18.7 114.39 18.542 114.242 18.418C114.098 18.29 113.926 18.196 113.726 18.136C113.526 18.072 113.31 18.04 113.078 18.04C112.846 18.04 112.63 18.072 112.43 18.136C112.23 18.196 112.056 18.29 111.908 18.418C111.764 18.542 111.65 18.7 111.566 18.892C111.486 19.084 111.446 19.312 111.446 19.576C111.446 19.792 111.482 19.992 111.554 20.176C111.626 20.36 111.73 20.52 111.866 20.656C112.006 20.788 112.178 20.892 112.382 20.968C112.586 21.04 112.818 21.076 113.078 21.076ZM113.078 14.254C112.842 14.254 112.634 14.29 112.454 14.362C112.278 14.434 112.132 14.53 112.016 14.65C111.9 14.77 111.812 14.912 111.752 15.076C111.696 15.236 111.668 15.406 111.668 15.586C111.668 15.766 111.692 15.942 111.74 16.114C111.792 16.286 111.872 16.44 111.98 16.576C112.092 16.708 112.238 16.814 112.418 16.894C112.598 16.974 112.818 17.014 113.078 17.014C113.338 17.014 113.558 16.974 113.738 16.894C113.918 16.814 114.062 16.708 114.17 16.576C114.282 16.44 114.362 16.286 114.41 16.114C114.462 15.942 114.488 15.766 114.488 15.586C114.488 15.406 114.458 15.236 114.398 15.076C114.342 14.912 114.254 14.77 114.134 14.65C114.018 14.53 113.872 14.434 113.696 14.362C113.52 14.29 113.314 14.254 113.078 14.254ZM114.44 17.494C114.972 17.658 115.37 17.918 115.634 18.274C115.902 18.63 116.036 19.072 116.036 19.6C116.036 19.98 115.964 20.324 115.82 20.632C115.676 20.94 115.474 21.202 115.214 21.418C114.954 21.634 114.642 21.802 114.278 21.922C113.918 22.038 113.518 22.096 113.078 22.096C112.638 22.096 112.236 22.038 111.872 21.922C111.512 21.802 111.202 21.634 110.942 21.418C110.682 21.202 110.48 20.94 110.336 20.632C110.192 20.324 110.12 19.98 110.12 19.6C110.12 19.072 110.252 18.63 110.516 18.274C110.784 17.918 111.184 17.658 111.716 17.494C111.284 17.322 110.958 17.072 110.738 16.744C110.522 16.416 110.414 16.022 110.414 15.562C110.414 15.238 110.478 14.936 110.606 14.656C110.734 14.376 110.914 14.134 111.146 13.93C111.382 13.722 111.664 13.56 111.992 13.444C112.32 13.324 112.682 13.264 113.078 13.264C113.474 13.264 113.834 13.324 114.158 13.444C114.486 13.56 114.766 13.722 114.998 13.93C115.234 14.134 115.416 14.376 115.544 14.656C115.676 14.936 115.742 15.238 115.742 15.562C115.742 16.022 115.632 16.416 115.412 16.744C115.196 17.072 114.872 17.322 114.44 17.494ZM123.081 13.36V13.93C123.081 14.098 123.063 14.234 123.027 14.338C122.991 14.442 122.955 14.53 122.919 14.602L119.505 21.55C119.445 21.678 119.359 21.786 119.247 21.874C119.139 21.958 118.995 22 118.815 22H117.885L121.365 15.166C121.429 15.042 121.493 14.93 121.557 14.83C121.621 14.73 121.693 14.634 121.773 14.542H117.459C117.379 14.542 117.309 14.512 117.249 14.452C117.189 14.388 117.159 14.316 117.159 14.236V13.36H123.081ZM130.042 13.36V13.93C130.042 14.098 130.024 14.234 129.988 14.338C129.952 14.442 129.916 14.53 129.88 14.602L126.466 21.55C126.406 21.678 126.32 21.786 126.208 21.874C126.1 21.958 125.956 22 125.776 22H124.846L128.326 15.166C128.39 15.042 128.454 14.93 128.518 14.83C128.582 14.73 128.654 14.634 128.734 14.542H124.42C124.34 14.542 124.27 14.512 124.21 14.452C124.15 14.388 124.12 14.316 124.12 14.236V13.36H130.042Z" fill="#6D3745"/>
<rect x="0.5" y="0.5" width="142" height="33" rx="7.5" stroke="#6D3745"/>
<path d="M15.6426 13.5718C15.4039 11.9993 16.5126 10.5868 18.2064 10.0693C18.507 9.97744 18.8313 10.0036 19.1132 10.1425C19.3952 10.2814 19.6136 10.5225 19.7239 10.8168L20.2676 12.2668C20.3552 12.5001 20.371 12.7542 20.3131 12.9965C20.2552 13.2389 20.1262 13.4584 19.9426 13.6268L18.3251 15.1081C18.2454 15.1813 18.186 15.2738 18.1527 15.3768C18.1194 15.4798 18.1134 15.5896 18.1351 15.6956L18.1501 15.7606L18.1889 15.9231C18.39 16.7126 18.6965 17.4715 19.1001 18.1793C19.5398 18.9315 20.0854 19.6164 20.7201 20.2131L20.7701 20.2581C20.8509 20.3298 20.9488 20.3793 21.0544 20.4019C21.16 20.4244 21.2696 20.4193 21.3726 20.3868L23.4639 19.7281C23.7016 19.6535 23.9561 19.6516 24.1948 19.7226C24.4336 19.7937 24.6457 19.9344 24.8039 20.1268L25.7939 21.3281C26.2064 21.8281 26.1564 22.5631 25.6826 23.0043C24.3864 24.2131 22.6039 24.4606 21.3639 23.4643C19.8439 22.2383 18.5626 20.743 17.5839 19.0531C16.5973 17.3645 15.9382 15.5049 15.6414 13.5718H15.6426ZM19.4464 15.7781L20.7864 14.5481C21.1537 14.2113 21.4119 13.7723 21.528 13.2877C21.644 12.803 21.6126 12.2947 21.4376 11.8281L20.8951 10.3781C20.6731 9.7859 20.2336 9.30067 19.6662 9.02126C19.0988 8.74186 18.4462 8.68932 17.8414 8.87434C15.7376 9.51809 14.0489 11.4043 14.4064 13.7606C14.6564 15.4056 15.2326 17.4981 16.5039 19.6831C17.5598 21.5052 18.942 23.1175 20.5814 24.4393C22.4414 25.9331 24.9239 25.4231 26.5364 23.9206C27.4939 23.0281 27.5914 21.5456 26.7601 20.5356L25.7701 19.3331C25.4534 18.9487 25.0291 18.6677 24.5516 18.526C24.0741 18.3844 23.5652 18.3886 23.0901 18.5381L21.3539 19.0843C20.9056 18.6221 20.5129 18.1091 20.1839 17.5556C19.866 16.996 19.6183 16.3995 19.4464 15.7793V15.7781Z" fill="#6D3745"/>
</svg>
