<svg width="179" height="34" viewBox="0 0 179 34" fill="none" xmlns="http://www.w3.org/2000/svg">
<path d="M42.112 16.08C42.072 16.132 42.034 16.172 41.998 16.2C41.962 16.228 41.91 16.242 41.842 16.242C41.774 16.242 41.702 16.218 41.626 16.17C41.554 16.122 41.466 16.07 41.362 16.014C41.262 15.954 41.14 15.9 40.996 15.852C40.852 15.804 40.672 15.78 40.456 15.78C40.176 15.78 39.93 15.83 39.718 15.93C39.51 16.03 39.334 16.174 39.19 16.362C39.05 16.546 38.944 16.772 38.872 17.04C38.804 17.304 38.77 17.602 38.77 17.934C38.77 18.278 38.808 18.584 38.884 18.852C38.96 19.12 39.068 19.346 39.208 19.53C39.352 19.714 39.524 19.854 39.724 19.95C39.928 20.046 40.156 20.094 40.408 20.094C40.656 20.094 40.858 20.064 41.014 20.004C41.17 19.944 41.3 19.878 41.404 19.806C41.508 19.734 41.596 19.668 41.668 19.608C41.744 19.548 41.824 19.518 41.908 19.518C42.012 19.518 42.092 19.558 42.148 19.638L42.514 20.112C42.366 20.292 42.202 20.444 42.022 20.568C41.842 20.692 41.652 20.794 41.452 20.874C41.252 20.95 41.044 21.004 40.828 21.036C40.612 21.072 40.394 21.09 40.174 21.09C39.794 21.09 39.438 21.02 39.106 20.88C38.778 20.736 38.49 20.53 38.242 20.262C37.998 19.99 37.804 19.66 37.66 19.272C37.52 18.88 37.45 18.434 37.45 17.934C37.45 17.482 37.514 17.064 37.642 16.68C37.77 16.292 37.956 15.958 38.2 15.678C38.448 15.398 38.754 15.18 39.118 15.024C39.482 14.864 39.902 14.784 40.378 14.784C40.822 14.784 41.212 14.856 41.548 15C41.888 15.144 42.19 15.348 42.454 15.612L42.112 16.08ZM46.0922 14.784C46.5442 14.784 46.9522 14.858 47.3162 15.006C47.6842 15.154 47.9962 15.364 48.2522 15.636C48.5122 15.908 48.7122 16.238 48.8522 16.626C48.9922 17.014 49.0622 17.45 49.0622 17.934C49.0622 18.418 48.9922 18.854 48.8522 19.242C48.7122 19.63 48.5122 19.962 48.2522 20.238C47.9962 20.51 47.6842 20.72 47.3162 20.868C46.9522 21.016 46.5442 21.09 46.0922 21.09C45.6362 21.09 45.2242 21.016 44.8562 20.868C44.4922 20.72 44.1802 20.51 43.9202 20.238C43.6602 19.962 43.4602 19.63 43.3202 19.242C43.1802 18.854 43.1102 18.418 43.1102 17.934C43.1102 17.45 43.1802 17.014 43.3202 16.626C43.4602 16.238 43.6602 15.908 43.9202 15.636C44.1802 15.364 44.4922 15.154 44.8562 15.006C45.2242 14.858 45.6362 14.784 46.0922 14.784ZM46.0922 20.082C46.6442 20.082 47.0542 19.898 47.3222 19.53C47.5942 19.158 47.7302 18.628 47.7302 17.94C47.7302 17.252 47.5942 16.722 47.3222 16.35C47.0542 15.974 46.6442 15.786 46.0922 15.786C45.5322 15.786 45.1162 15.974 44.8442 16.35C44.5722 16.722 44.4362 17.252 44.4362 17.94C44.4362 18.628 44.5722 19.158 44.8442 19.53C45.1162 19.898 45.5322 20.082 46.0922 20.082ZM51.5076 15.69C51.6396 15.554 51.7756 15.432 51.9156 15.324C52.0596 15.212 52.2116 15.116 52.3716 15.036C52.5316 14.956 52.7016 14.894 52.8816 14.85C53.0616 14.806 53.2576 14.784 53.4696 14.784C53.8056 14.784 54.0996 14.84 54.3516 14.952C54.6076 15.064 54.8216 15.222 54.9936 15.426C55.1696 15.63 55.3016 15.876 55.3896 16.164C55.4776 16.448 55.5216 16.762 55.5216 17.106V21H54.2376V17.106C54.2376 16.694 54.1416 16.374 53.9496 16.146C53.7616 15.918 53.4736 15.804 53.0856 15.804C52.7976 15.804 52.5296 15.87 52.2816 16.002C52.0376 16.134 51.8076 16.314 51.5916 16.542V21H50.3016V14.88H51.0816C51.2576 14.88 51.3696 14.962 51.4176 15.126L51.5076 15.69ZM58.9082 21.096C58.4002 21.096 58.0082 20.954 57.7322 20.67C57.4602 20.382 57.3242 19.978 57.3242 19.458V15.894H56.6522C56.5802 15.894 56.5182 15.872 56.4662 15.828C56.4142 15.78 56.3882 15.71 56.3882 15.618V15.096L57.3782 14.952L57.6602 13.182C57.6802 13.114 57.7142 13.06 57.7622 13.02C57.8102 12.976 57.8742 12.954 57.9542 12.954H58.6142V14.964H60.3122V15.894H58.6142V19.368C58.6142 19.588 58.6682 19.756 58.7762 19.872C58.8842 19.988 59.0282 20.046 59.2082 20.046C59.3082 20.046 59.3942 20.034 59.4662 20.01C59.5382 19.982 59.6002 19.954 59.6522 19.926C59.7042 19.894 59.7482 19.866 59.7842 19.842C59.8242 19.814 59.8622 19.8 59.8982 19.8C59.9702 19.8 60.0282 19.84 60.0722 19.92L60.4562 20.55C60.2562 20.726 60.0202 20.862 59.7482 20.958C59.4762 21.05 59.1962 21.096 58.9082 21.096ZM64.599 18.324C64.139 18.34 63.751 18.378 63.435 18.438C63.119 18.494 62.863 18.568 62.667 18.66C62.471 18.748 62.329 18.854 62.241 18.978C62.157 19.102 62.115 19.238 62.115 19.386C62.115 19.53 62.137 19.654 62.181 19.758C62.229 19.858 62.293 19.942 62.373 20.01C62.457 20.074 62.553 20.122 62.661 20.154C62.773 20.182 62.895 20.196 63.027 20.196C63.363 20.196 63.651 20.134 63.891 20.01C64.135 19.882 64.371 19.698 64.599 19.458V18.324ZM61.179 15.732C61.871 15.088 62.695 14.766 63.651 14.766C64.003 14.766 64.315 14.824 64.587 14.94C64.863 15.052 65.093 15.212 65.277 15.42C65.465 15.628 65.607 15.876 65.703 16.164C65.803 16.448 65.853 16.764 65.853 17.112V21H65.277C65.153 21 65.059 20.982 64.995 20.946C64.931 20.906 64.877 20.828 64.833 20.712L64.707 20.214C64.551 20.354 64.397 20.48 64.245 20.592C64.093 20.7 63.935 20.792 63.771 20.868C63.611 20.944 63.437 21 63.249 21.036C63.065 21.076 62.861 21.096 62.637 21.096C62.389 21.096 62.157 21.062 61.941 20.994C61.729 20.926 61.545 20.824 61.389 20.688C61.233 20.548 61.109 20.376 61.017 20.172C60.929 19.968 60.885 19.728 60.885 19.452C60.885 19.216 60.947 18.986 61.071 18.762C61.199 18.538 61.407 18.338 61.695 18.162C61.987 17.982 62.369 17.834 62.841 17.718C63.317 17.602 63.903 17.536 64.599 17.52V17.112C64.599 16.672 64.505 16.344 64.317 16.128C64.129 15.912 63.853 15.804 63.489 15.804C63.241 15.804 63.033 15.836 62.865 15.9C62.697 15.96 62.551 16.026 62.427 16.098C62.303 16.17 62.193 16.238 62.097 16.302C62.001 16.362 61.899 16.392 61.791 16.392C61.703 16.392 61.627 16.37 61.563 16.326C61.503 16.278 61.453 16.22 61.413 16.152L61.179 15.732ZM71.6901 16.08C71.6501 16.132 71.6121 16.172 71.5761 16.2C71.5401 16.228 71.4881 16.242 71.4201 16.242C71.3521 16.242 71.2801 16.218 71.2041 16.17C71.1321 16.122 71.0441 16.07 70.9401 16.014C70.8401 15.954 70.7181 15.9 70.5741 15.852C70.4301 15.804 70.2501 15.78 70.0341 15.78C69.7541 15.78 69.5081 15.83 69.2961 15.93C69.0881 16.03 68.9121 16.174 68.7681 16.362C68.6281 16.546 68.5221 16.772 68.4501 17.04C68.3821 17.304 68.3481 17.602 68.3481 17.934C68.3481 18.278 68.3861 18.584 68.4621 18.852C68.5381 19.12 68.6461 19.346 68.7861 19.53C68.9301 19.714 69.1021 19.854 69.3021 19.95C69.5061 20.046 69.7341 20.094 69.9861 20.094C70.2341 20.094 70.4361 20.064 70.5921 20.004C70.7481 19.944 70.8781 19.878 70.9821 19.806C71.0861 19.734 71.1741 19.668 71.2461 19.608C71.3221 19.548 71.4021 19.518 71.4861 19.518C71.5901 19.518 71.6701 19.558 71.7261 19.638L72.0921 20.112C71.9441 20.292 71.7801 20.444 71.6001 20.568C71.4201 20.692 71.2301 20.794 71.0301 20.874C70.8301 20.95 70.6221 21.004 70.4061 21.036C70.1901 21.072 69.9721 21.09 69.7521 21.09C69.3721 21.09 69.0161 21.02 68.6841 20.88C68.3561 20.736 68.0681 20.53 67.8201 20.262C67.5761 19.99 67.3821 19.66 67.2381 19.272C67.0981 18.88 67.0281 18.434 67.0281 17.934C67.0281 17.482 67.0921 17.064 67.2201 16.68C67.3481 16.292 67.5341 15.958 67.7781 15.678C68.0261 15.398 68.3321 15.18 68.6961 15.024C69.0601 14.864 69.4801 14.784 69.9561 14.784C70.4001 14.784 70.7901 14.856 71.1261 15C71.4661 15.144 71.7681 15.348 72.0321 15.612L71.6901 16.08ZM75.0918 21.096C74.5838 21.096 74.1918 20.954 73.9158 20.67C73.6438 20.382 73.5078 19.978 73.5078 19.458V15.894H72.8358C72.7638 15.894 72.7018 15.872 72.6498 15.828C72.5978 15.78 72.5718 15.71 72.5718 15.618V15.096L73.5618 14.952L73.8438 13.182C73.8638 13.114 73.8978 13.06 73.9458 13.02C73.9938 12.976 74.0578 12.954 74.1378 12.954H74.7978V14.964H76.4958V15.894H74.7978V19.368C74.7978 19.588 74.8518 19.756 74.9598 19.872C75.0678 19.988 75.2118 20.046 75.3918 20.046C75.4918 20.046 75.5778 20.034 75.6497 20.01C75.7218 19.982 75.7838 19.954 75.8358 19.926C75.8878 19.894 75.9318 19.866 75.9678 19.842C76.0078 19.814 76.0458 19.8 76.0818 19.8C76.1538 19.8 76.2118 19.84 76.2558 19.92L76.6398 20.55C76.4398 20.726 76.2038 20.862 75.9318 20.958C75.6598 21.05 75.3798 21.096 75.0918 21.096ZM82.9726 16.134C82.8446 16.106 82.6946 16.092 82.5226 16.092C82.2506 16.092 81.9986 16.15 81.7666 16.266C81.5346 16.382 81.3326 16.536 81.1606 16.728C80.9926 16.92 80.8606 17.142 80.7646 17.394C80.6686 17.642 80.6206 17.898 80.6206 18.162C80.6206 18.434 80.6806 18.648 80.8006 18.804C80.9246 18.96 81.1026 19.038 81.3346 19.038C81.4466 19.038 81.5606 19.02 81.6766 18.984C81.7926 18.948 81.9026 18.886 82.0066 18.798C82.1146 18.706 82.2126 18.584 82.3006 18.432C82.3926 18.28 82.4686 18.09 82.5286 17.862L82.9726 16.134ZM83.5246 17.73C83.4526 18.006 83.4166 18.232 83.4166 18.408C83.4166 18.584 83.4426 18.722 83.4946 18.822C83.5506 18.918 83.6266 18.986 83.7226 19.026C83.8186 19.062 83.9246 19.08 84.0406 19.08C84.2206 19.08 84.3926 19.026 84.5566 18.918C84.7206 18.81 84.8626 18.658 84.9826 18.462C85.1066 18.266 85.2046 18.032 85.2766 17.76C85.3486 17.484 85.3846 17.182 85.3846 16.854C85.3846 16.318 85.2986 15.848 85.1266 15.444C84.9586 15.04 84.7246 14.702 84.4246 14.43C84.1246 14.158 83.7686 13.954 83.3566 13.818C82.9446 13.682 82.4966 13.614 82.0126 13.614C81.4846 13.614 80.9906 13.714 80.5306 13.914C80.0746 14.114 79.6766 14.39 79.3366 14.742C79.0006 15.094 78.7346 15.51 78.5386 15.99C78.3466 16.47 78.2506 16.988 78.2506 17.544C78.2506 18.212 78.3546 18.798 78.5626 19.302C78.7706 19.806 79.0546 20.228 79.4146 20.568C79.7786 20.908 80.2066 21.164 80.6986 21.336C81.1906 21.508 81.7186 21.594 82.2826 21.594C82.8986 21.594 83.4346 21.53 83.8906 21.402C84.3466 21.274 84.7306 21.118 85.0426 20.934C85.1346 20.878 85.2166 20.862 85.2886 20.886C85.3606 20.906 85.4126 20.958 85.4446 21.042L85.6246 21.516C85.2006 21.796 84.7126 22.02 84.1606 22.188C83.6126 22.356 82.9866 22.44 82.2826 22.44C81.5746 22.44 80.9166 22.328 80.3086 22.104C79.7006 21.88 79.1746 21.558 78.7306 21.138C78.2866 20.718 77.9386 20.206 77.6866 19.602C77.4346 18.994 77.3086 18.308 77.3086 17.544C77.3086 17.112 77.3626 16.696 77.4706 16.296C77.5826 15.892 77.7386 15.514 77.9386 15.162C78.1426 14.806 78.3866 14.482 78.6706 14.19C78.9546 13.894 79.2706 13.642 79.6186 13.434C79.9666 13.222 80.3426 13.058 80.7466 12.942C81.1506 12.826 81.5726 12.768 82.0126 12.768C82.3846 12.768 82.7486 12.81 83.1046 12.894C83.4646 12.974 83.8026 13.094 84.1186 13.254C84.4386 13.414 84.7326 13.612 85.0006 13.848C85.2686 14.084 85.4986 14.354 85.6906 14.658C85.8866 14.958 86.0386 15.292 86.1466 15.66C86.2546 16.028 86.3086 16.426 86.3086 16.854C86.3086 17.282 86.2466 17.682 86.1226 18.054C85.9986 18.422 85.8266 18.742 85.6066 19.014C85.3866 19.286 85.1266 19.5 84.8266 19.656C84.5266 19.812 84.2026 19.89 83.8546 19.89C83.5626 19.89 83.3146 19.822 83.1106 19.686C82.9066 19.55 82.7686 19.332 82.6966 19.032C82.4606 19.332 82.2086 19.548 81.9406 19.68C81.6766 19.812 81.3886 19.878 81.0766 19.878C80.8326 19.878 80.6186 19.836 80.4346 19.752C80.2546 19.664 80.1046 19.546 79.9846 19.398C79.8646 19.246 79.7746 19.068 79.7146 18.864C79.6546 18.656 79.6246 18.432 79.6246 18.192C79.6246 17.964 79.6526 17.734 79.7086 17.502C79.7686 17.27 79.8546 17.046 79.9666 16.83C80.0826 16.614 80.2266 16.412 80.3986 16.224C80.5746 16.032 80.7766 15.866 81.0046 15.726C81.2366 15.586 81.4966 15.476 81.7846 15.396C82.0726 15.312 82.3886 15.27 82.7326 15.27C83.0206 15.27 83.2706 15.292 83.4826 15.336C83.6946 15.38 83.8966 15.444 84.0886 15.528L83.5246 17.73ZM91.2447 15.99C91.2127 16.046 91.1767 16.086 91.1367 16.11C91.0967 16.134 91.0467 16.146 90.9867 16.146C90.9187 16.146 90.8447 16.126 90.7647 16.086C90.6847 16.042 90.5907 15.994 90.4827 15.942C90.3747 15.89 90.2467 15.844 90.0987 15.804C89.9547 15.76 89.7847 15.738 89.5887 15.738C89.4287 15.738 89.2827 15.758 89.1507 15.798C89.0227 15.834 88.9127 15.888 88.8207 15.96C88.7327 16.028 88.6647 16.11 88.6167 16.206C88.5687 16.298 88.5447 16.398 88.5447 16.506C88.5447 16.65 88.5887 16.77 88.6767 16.866C88.7647 16.962 88.8807 17.046 89.0247 17.118C89.1687 17.186 89.3327 17.248 89.5167 17.304C89.7007 17.36 89.8887 17.42 90.0807 17.484C90.2727 17.548 90.4607 17.622 90.6447 17.706C90.8287 17.79 90.9927 17.894 91.1367 18.018C91.2807 18.138 91.3967 18.286 91.4847 18.462C91.5727 18.634 91.6167 18.844 91.6167 19.092C91.6167 19.38 91.5647 19.646 91.4607 19.89C91.3567 20.134 91.2047 20.346 91.0047 20.526C90.8047 20.706 90.5547 20.846 90.2547 20.946C89.9587 21.046 89.6187 21.096 89.2347 21.096C89.0227 21.096 88.8167 21.076 88.6167 21.036C88.4207 21 88.2327 20.95 88.0527 20.886C87.8767 20.818 87.7107 20.738 87.5547 20.646C87.4027 20.554 87.2667 20.454 87.1467 20.346L87.4467 19.854C87.4827 19.794 87.5267 19.748 87.5787 19.716C87.6347 19.68 87.7027 19.662 87.7827 19.662C87.8667 19.662 87.9487 19.69 88.0287 19.746C88.1127 19.798 88.2087 19.856 88.3167 19.92C88.4287 19.984 88.5627 20.044 88.7187 20.1C88.8747 20.152 89.0687 20.178 89.3007 20.178C89.4927 20.178 89.6587 20.156 89.7987 20.112C89.9387 20.064 90.0547 20 90.1467 19.92C90.2387 19.84 90.3067 19.75 90.3507 19.65C90.3947 19.546 90.4167 19.436 90.4167 19.32C90.4167 19.164 90.3727 19.036 90.2847 18.936C90.1967 18.836 90.0787 18.75 89.9307 18.678C89.7867 18.606 89.6207 18.542 89.4327 18.486C89.2487 18.43 89.0607 18.37 88.8687 18.306C88.6767 18.242 88.4867 18.168 88.2987 18.084C88.1147 18 87.9487 17.894 87.8007 17.766C87.6567 17.634 87.5407 17.476 87.4527 17.292C87.3647 17.104 87.3207 16.876 87.3207 16.608C87.3207 16.364 87.3687 16.132 87.4647 15.912C87.5647 15.692 87.7087 15.498 87.8967 15.33C88.0887 15.162 88.3227 15.03 88.5987 14.934C88.8787 14.834 89.2007 14.784 89.5647 14.784C89.9767 14.784 90.3507 14.85 90.6867 14.982C91.0227 15.114 91.3047 15.294 91.5327 15.522L91.2447 15.99ZM92.829 21V14.88H93.609C93.785 14.88 93.897 14.962 93.945 15.126L94.029 15.66C94.141 15.532 94.257 15.416 94.377 15.312C94.497 15.204 94.625 15.112 94.761 15.036C94.901 14.956 95.049 14.894 95.205 14.85C95.365 14.806 95.537 14.784 95.721 14.784C95.917 14.784 96.097 14.812 96.261 14.868C96.425 14.924 96.569 15.004 96.693 15.108C96.821 15.212 96.931 15.338 97.023 15.486C97.115 15.634 97.191 15.8 97.251 15.984C97.343 15.772 97.459 15.59 97.599 15.438C97.739 15.286 97.895 15.162 98.067 15.066C98.239 14.97 98.421 14.9 98.613 14.856C98.809 14.808 99.007 14.784 99.207 14.784C99.535 14.784 99.827 14.836 100.083 14.94C100.343 15.044 100.561 15.196 100.737 15.396C100.917 15.592 101.053 15.834 101.145 16.122C101.237 16.41 101.283 16.738 101.283 17.106V21H99.993V17.106C99.993 16.674 99.899 16.35 99.711 16.134C99.527 15.914 99.253 15.804 98.889 15.804C98.725 15.804 98.571 15.832 98.427 15.888C98.283 15.944 98.157 16.026 98.049 16.134C97.941 16.242 97.855 16.378 97.791 16.542C97.731 16.702 97.701 16.89 97.701 17.106V21H96.411V17.106C96.411 16.658 96.321 16.33 96.141 16.122C95.961 15.91 95.697 15.804 95.349 15.804C95.109 15.804 94.887 15.866 94.683 15.99C94.479 16.11 94.291 16.276 94.119 16.488V21H92.829ZM104.134 14.88V21H102.844V14.88H104.134ZM104.35 13.032C104.35 13.148 104.326 13.258 104.278 13.362C104.234 13.466 104.172 13.558 104.092 13.638C104.012 13.714 103.918 13.776 103.81 13.824C103.706 13.868 103.594 13.89 103.474 13.89C103.358 13.89 103.248 13.868 103.144 13.824C103.044 13.776 102.956 13.714 102.88 13.638C102.804 13.558 102.742 13.466 102.694 13.362C102.65 13.258 102.628 13.148 102.628 13.032C102.628 12.912 102.65 12.8 102.694 12.696C102.742 12.592 102.804 12.502 102.88 12.426C102.956 12.346 103.044 12.284 103.144 12.24C103.248 12.192 103.358 12.168 103.474 12.168C103.594 12.168 103.706 12.192 103.81 12.24C103.918 12.284 104.012 12.346 104.092 12.426C104.172 12.502 104.234 12.592 104.278 12.696C104.326 12.8 104.35 12.912 104.35 13.032ZM107.069 12.12V21H105.779V12.12H107.069ZM112.675 17.25C112.675 17.034 112.643 16.834 112.579 16.65C112.519 16.462 112.429 16.3 112.309 16.164C112.189 16.024 112.039 15.916 111.859 15.84C111.683 15.76 111.479 15.72 111.247 15.72C110.779 15.72 110.411 15.854 110.143 16.122C109.875 16.39 109.705 16.766 109.633 17.25H112.675ZM109.597 18.042C109.613 18.39 109.667 18.692 109.759 18.948C109.851 19.2 109.973 19.41 110.125 19.578C110.281 19.746 110.465 19.872 110.677 19.956C110.893 20.036 111.133 20.076 111.397 20.076C111.649 20.076 111.867 20.048 112.051 19.992C112.235 19.932 112.395 19.868 112.531 19.8C112.667 19.728 112.783 19.664 112.879 19.608C112.975 19.548 113.063 19.518 113.143 19.518C113.247 19.518 113.327 19.558 113.383 19.638L113.749 20.112C113.597 20.292 113.425 20.444 113.233 20.568C113.041 20.692 112.837 20.794 112.621 20.874C112.405 20.95 112.183 21.004 111.955 21.036C111.727 21.072 111.505 21.09 111.289 21.09C110.865 21.09 110.471 21.02 110.107 20.88C109.747 20.736 109.433 20.526 109.165 20.25C108.901 19.974 108.693 19.632 108.541 19.224C108.393 18.816 108.319 18.346 108.319 17.814C108.319 17.39 108.385 16.994 108.517 16.626C108.653 16.258 108.845 15.938 109.093 15.666C109.345 15.394 109.649 15.18 110.005 15.024C110.365 14.864 110.771 14.784 111.223 14.784C111.599 14.784 111.947 14.846 112.267 14.97C112.587 15.09 112.863 15.268 113.095 15.504C113.327 15.74 113.507 16.03 113.635 16.374C113.767 16.714 113.833 17.102 113.833 17.538C113.833 17.738 113.811 17.872 113.767 17.94C113.723 18.008 113.643 18.042 113.527 18.042H109.597ZM118.306 18.324C117.846 18.34 117.458 18.378 117.142 18.438C116.826 18.494 116.57 18.568 116.374 18.66C116.178 18.748 116.036 18.854 115.948 18.978C115.864 19.102 115.822 19.238 115.822 19.386C115.822 19.53 115.844 19.654 115.888 19.758C115.936 19.858 116 19.942 116.08 20.01C116.164 20.074 116.26 20.122 116.368 20.154C116.48 20.182 116.602 20.196 116.734 20.196C117.07 20.196 117.358 20.134 117.598 20.01C117.842 19.882 118.078 19.698 118.306 19.458V18.324ZM114.886 15.732C115.578 15.088 116.402 14.766 117.358 14.766C117.71 14.766 118.022 14.824 118.294 14.94C118.57 15.052 118.8 15.212 118.984 15.42C119.172 15.628 119.314 15.876 119.41 16.164C119.51 16.448 119.56 16.764 119.56 17.112V21H118.984C118.86 21 118.766 20.982 118.702 20.946C118.638 20.906 118.584 20.828 118.54 20.712L118.414 20.214C118.258 20.354 118.104 20.48 117.952 20.592C117.8 20.7 117.642 20.792 117.478 20.868C117.318 20.944 117.144 21 116.956 21.036C116.772 21.076 116.568 21.096 116.344 21.096C116.096 21.096 115.864 21.062 115.648 20.994C115.436 20.926 115.252 20.824 115.096 20.688C114.94 20.548 114.816 20.376 114.724 20.172C114.636 19.968 114.592 19.728 114.592 19.452C114.592 19.216 114.654 18.986 114.778 18.762C114.906 18.538 115.114 18.338 115.402 18.162C115.694 17.982 116.076 17.834 116.548 17.718C117.024 17.602 117.61 17.536 118.306 17.52V17.112C118.306 16.672 118.212 16.344 118.024 16.128C117.836 15.912 117.56 15.804 117.196 15.804C116.948 15.804 116.74 15.836 116.572 15.9C116.404 15.96 116.258 16.026 116.134 16.098C116.01 16.17 115.9 16.238 115.804 16.302C115.708 16.362 115.606 16.392 115.498 16.392C115.41 16.392 115.334 16.37 115.27 16.326C115.21 16.278 115.16 16.22 115.12 16.152L114.886 15.732ZM122.385 12.12V21H121.095V12.12H122.385ZM125.321 14.88V21H124.031V14.88H125.321ZM125.537 13.032C125.537 13.148 125.513 13.258 125.465 13.362C125.421 13.466 125.359 13.558 125.279 13.638C125.199 13.714 125.105 13.776 124.997 13.824C124.893 13.868 124.781 13.89 124.661 13.89C124.545 13.89 124.435 13.868 124.331 13.824C124.231 13.776 124.143 13.714 124.067 13.638C123.991 13.558 123.929 13.466 123.881 13.362C123.837 13.258 123.815 13.148 123.815 13.032C123.815 12.912 123.837 12.8 123.881 12.696C123.929 12.592 123.991 12.502 124.067 12.426C124.143 12.346 124.231 12.284 124.331 12.24C124.435 12.192 124.545 12.168 124.661 12.168C124.781 12.168 124.893 12.192 124.997 12.24C125.105 12.284 125.199 12.346 125.279 12.426C125.359 12.502 125.421 12.592 125.465 12.696C125.513 12.8 125.537 12.912 125.537 13.032ZM129.126 17.886C129.526 17.886 129.826 17.784 130.026 17.58C130.226 17.376 130.326 17.11 130.326 16.782C130.326 16.446 130.226 16.18 130.026 15.984C129.826 15.788 129.526 15.69 129.126 15.69C128.73 15.69 128.43 15.788 128.226 15.984C128.026 16.18 127.926 16.446 127.926 16.782C127.926 16.942 127.952 17.09 128.004 17.226C128.056 17.362 128.132 17.48 128.232 17.58C128.332 17.676 128.456 17.752 128.604 17.808C128.756 17.86 128.93 17.886 129.126 17.886ZM130.92 21.3C130.92 21.164 130.88 21.056 130.8 20.976C130.724 20.892 130.62 20.828 130.488 20.784C130.356 20.736 130.202 20.702 130.026 20.682C129.85 20.658 129.662 20.642 129.462 20.634C129.266 20.622 129.064 20.612 128.856 20.604C128.652 20.592 128.454 20.572 128.262 20.544C128.07 20.644 127.912 20.764 127.788 20.904C127.668 21.044 127.608 21.206 127.608 21.39C127.608 21.51 127.638 21.622 127.698 21.726C127.762 21.83 127.858 21.92 127.986 21.996C128.118 22.072 128.284 22.132 128.484 22.176C128.688 22.22 128.932 22.242 129.216 22.242C129.784 22.242 130.21 22.154 130.494 21.978C130.778 21.802 130.92 21.576 130.92 21.3ZM132.216 15.102V15.582C132.216 15.742 132.12 15.84 131.928 15.876L131.316 15.978C131.42 16.21 131.472 16.468 131.472 16.752C131.472 17.052 131.412 17.324 131.292 17.568C131.176 17.812 131.014 18.02 130.806 18.192C130.598 18.364 130.35 18.496 130.062 18.588C129.774 18.68 129.462 18.726 129.126 18.726C128.998 18.726 128.872 18.72 128.748 18.708C128.628 18.692 128.51 18.672 128.394 18.648C128.278 18.716 128.192 18.788 128.136 18.864C128.08 18.94 128.052 19.018 128.052 19.098C128.052 19.23 128.11 19.328 128.226 19.392C128.342 19.456 128.494 19.502 128.682 19.53C128.874 19.558 129.092 19.576 129.336 19.584C129.58 19.592 129.828 19.606 130.08 19.626C130.332 19.646 130.58 19.68 130.824 19.728C131.068 19.772 131.284 19.848 131.472 19.956C131.664 20.06 131.818 20.202 131.934 20.382C132.05 20.562 132.108 20.796 132.108 21.084C132.108 21.348 132.042 21.606 131.91 21.858C131.778 22.11 131.586 22.334 131.334 22.53C131.086 22.726 130.782 22.882 130.422 22.998C130.062 23.118 129.652 23.178 129.192 23.178C128.736 23.178 128.338 23.134 127.998 23.046C127.662 22.958 127.38 22.838 127.152 22.686C126.928 22.538 126.76 22.366 126.648 22.17C126.54 21.974 126.486 21.77 126.486 21.558C126.486 21.27 126.576 21.024 126.756 20.82C126.94 20.616 127.188 20.456 127.5 20.34C127.332 20.26 127.196 20.15 127.092 20.01C126.992 19.87 126.942 19.686 126.942 19.458C126.942 19.278 127.008 19.09 127.14 18.894C127.272 18.698 127.47 18.532 127.734 18.396C127.43 18.228 127.19 18.006 127.014 17.73C126.838 17.45 126.75 17.124 126.75 16.752C126.75 16.448 126.808 16.174 126.924 15.93C127.044 15.686 127.21 15.478 127.422 15.306C127.634 15.134 127.884 15.002 128.172 14.91C128.464 14.818 128.782 14.772 129.126 14.772C129.654 14.772 130.114 14.882 130.506 15.102H132.216ZM134.441 15.69C134.573 15.554 134.709 15.432 134.849 15.324C134.993 15.212 135.145 15.116 135.305 15.036C135.465 14.956 135.635 14.894 135.815 14.85C135.995 14.806 136.191 14.784 136.403 14.784C136.739 14.784 137.033 14.84 137.285 14.952C137.541 15.064 137.755 15.222 137.927 15.426C138.103 15.63 138.235 15.876 138.323 16.164C138.411 16.448 138.455 16.762 138.455 17.106V21H137.171V17.106C137.171 16.694 137.075 16.374 136.883 16.146C136.695 15.918 136.407 15.804 136.019 15.804C135.731 15.804 135.463 15.87 135.215 16.002C134.971 16.134 134.741 16.314 134.525 16.542V21H133.235V14.88H134.015C134.191 14.88 134.303 14.962 134.351 15.126L134.441 15.69ZM143.976 17.25C143.976 17.034 143.944 16.834 143.88 16.65C143.82 16.462 143.73 16.3 143.61 16.164C143.49 16.024 143.34 15.916 143.16 15.84C142.984 15.76 142.78 15.72 142.548 15.72C142.08 15.72 141.712 15.854 141.444 16.122C141.176 16.39 141.006 16.766 140.934 17.25H143.976ZM140.898 18.042C140.914 18.39 140.968 18.692 141.06 18.948C141.152 19.2 141.274 19.41 141.426 19.578C141.582 19.746 141.766 19.872 141.978 19.956C142.194 20.036 142.434 20.076 142.698 20.076C142.95 20.076 143.168 20.048 143.352 19.992C143.536 19.932 143.696 19.868 143.832 19.8C143.968 19.728 144.084 19.664 144.18 19.608C144.276 19.548 144.364 19.518 144.444 19.518C144.548 19.518 144.628 19.558 144.684 19.638L145.05 20.112C144.898 20.292 144.726 20.444 144.534 20.568C144.342 20.692 144.138 20.794 143.922 20.874C143.706 20.95 143.484 21.004 143.256 21.036C143.028 21.072 142.806 21.09 142.59 21.09C142.166 21.09 141.772 21.02 141.408 20.88C141.048 20.736 140.734 20.526 140.466 20.25C140.202 19.974 139.994 19.632 139.842 19.224C139.694 18.816 139.62 18.346 139.62 17.814C139.62 17.39 139.686 16.994 139.818 16.626C139.954 16.258 140.146 15.938 140.394 15.666C140.646 15.394 140.95 15.18 141.306 15.024C141.666 14.864 142.072 14.784 142.524 14.784C142.9 14.784 143.248 14.846 143.568 14.97C143.888 15.09 144.164 15.268 144.396 15.504C144.628 15.74 144.808 16.03 144.936 16.374C145.068 16.714 145.134 17.102 145.134 17.538C145.134 17.738 145.112 17.872 145.068 17.94C145.024 18.008 144.944 18.042 144.828 18.042H140.898ZM147.555 16.014C147.747 15.626 147.979 15.322 148.251 15.102C148.523 14.878 148.849 14.766 149.229 14.766C149.361 14.766 149.485 14.782 149.601 14.814C149.717 14.842 149.821 14.886 149.913 14.946L149.823 15.918C149.807 15.986 149.781 16.034 149.745 16.062C149.713 16.086 149.669 16.098 149.613 16.098C149.553 16.098 149.467 16.088 149.355 16.068C149.243 16.044 149.125 16.032 149.001 16.032C148.821 16.032 148.661 16.058 148.521 16.11C148.385 16.162 148.261 16.238 148.149 16.338C148.041 16.438 147.945 16.56 147.861 16.704C147.777 16.848 147.699 17.012 147.627 17.196V21H146.337V14.88H147.087C147.223 14.88 147.317 14.906 147.369 14.958C147.421 15.006 147.457 15.092 147.477 15.216L147.555 16.014ZM154.385 15.99C154.353 16.046 154.317 16.086 154.277 16.11C154.237 16.134 154.187 16.146 154.127 16.146C154.059 16.146 153.985 16.126 153.905 16.086C153.825 16.042 153.731 15.994 153.623 15.942C153.515 15.89 153.387 15.844 153.239 15.804C153.095 15.76 152.925 15.738 152.729 15.738C152.569 15.738 152.423 15.758 152.291 15.798C152.163 15.834 152.053 15.888 151.961 15.96C151.873 16.028 151.805 16.11 151.757 16.206C151.709 16.298 151.685 16.398 151.685 16.506C151.685 16.65 151.729 16.77 151.817 16.866C151.905 16.962 152.021 17.046 152.165 17.118C152.309 17.186 152.473 17.248 152.657 17.304C152.841 17.36 153.029 17.42 153.221 17.484C153.413 17.548 153.601 17.622 153.785 17.706C153.969 17.79 154.133 17.894 154.277 18.018C154.421 18.138 154.537 18.286 154.625 18.462C154.713 18.634 154.757 18.844 154.757 19.092C154.757 19.38 154.705 19.646 154.601 19.89C154.497 20.134 154.345 20.346 154.145 20.526C153.945 20.706 153.695 20.846 153.395 20.946C153.099 21.046 152.759 21.096 152.375 21.096C152.163 21.096 151.957 21.076 151.757 21.036C151.561 21 151.373 20.95 151.193 20.886C151.017 20.818 150.851 20.738 150.695 20.646C150.543 20.554 150.407 20.454 150.287 20.346L150.587 19.854C150.623 19.794 150.667 19.748 150.719 19.716C150.775 19.68 150.843 19.662 150.923 19.662C151.007 19.662 151.089 19.69 151.169 19.746C151.253 19.798 151.349 19.856 151.457 19.92C151.569 19.984 151.703 20.044 151.859 20.1C152.015 20.152 152.209 20.178 152.441 20.178C152.633 20.178 152.799 20.156 152.939 20.112C153.079 20.064 153.195 20 153.287 19.92C153.379 19.84 153.447 19.75 153.491 19.65C153.535 19.546 153.557 19.436 153.557 19.32C153.557 19.164 153.513 19.036 153.425 18.936C153.337 18.836 153.219 18.75 153.071 18.678C152.927 18.606 152.761 18.542 152.573 18.486C152.389 18.43 152.201 18.37 152.009 18.306C151.817 18.242 151.627 18.168 151.439 18.084C151.255 18 151.089 17.894 150.941 17.766C150.797 17.634 150.681 17.476 150.593 17.292C150.505 17.104 150.461 16.876 150.461 16.608C150.461 16.364 150.509 16.132 150.605 15.912C150.705 15.692 150.849 15.498 151.037 15.33C151.229 15.162 151.463 15.03 151.739 14.934C152.019 14.834 152.341 14.784 152.705 14.784C153.117 14.784 153.491 14.85 153.827 14.982C154.163 15.114 154.445 15.294 154.673 15.522L154.385 15.99ZM155.772 20.256C155.772 20.14 155.792 20.032 155.832 19.932C155.876 19.828 155.934 19.738 156.006 19.662C156.082 19.586 156.17 19.526 156.27 19.482C156.374 19.438 156.484 19.416 156.6 19.416C156.716 19.416 156.824 19.438 156.924 19.482C157.028 19.526 157.118 19.586 157.194 19.662C157.27 19.738 157.33 19.828 157.374 19.932C157.418 20.032 157.44 20.14 157.44 20.256C157.44 20.376 157.418 20.486 157.374 20.586C157.33 20.686 157.27 20.774 157.194 20.85C157.118 20.926 157.028 20.984 156.924 21.024C156.824 21.068 156.716 21.09 156.6 21.09C156.484 21.09 156.374 21.068 156.27 21.024C156.17 20.984 156.082 20.926 156.006 20.85C155.934 20.774 155.876 20.686 155.832 20.586C155.792 20.486 155.772 20.376 155.772 20.256ZM160.15 14.88V21H158.86V14.88H160.15ZM160.366 13.032C160.366 13.148 160.342 13.258 160.294 13.362C160.25 13.466 160.188 13.558 160.108 13.638C160.028 13.714 159.934 13.776 159.826 13.824C159.722 13.868 159.61 13.89 159.49 13.89C159.374 13.89 159.264 13.868 159.16 13.824C159.06 13.776 158.972 13.714 158.896 13.638C158.82 13.558 158.758 13.466 158.71 13.362C158.666 13.258 158.644 13.148 158.644 13.032C158.644 12.912 158.666 12.8 158.71 12.696C158.758 12.592 158.82 12.502 158.896 12.426C158.972 12.346 159.06 12.284 159.16 12.24C159.264 12.192 159.374 12.168 159.49 12.168C159.61 12.168 159.722 12.192 159.826 12.24C159.934 12.284 160.028 12.346 160.108 12.426C160.188 12.502 160.25 12.592 160.294 12.696C160.342 12.8 160.366 12.912 160.366 13.032ZM162.976 15.69C163.108 15.554 163.244 15.432 163.384 15.324C163.528 15.212 163.68 15.116 163.84 15.036C164 14.956 164.17 14.894 164.35 14.85C164.53 14.806 164.726 14.784 164.938 14.784C165.274 14.784 165.568 14.84 165.82 14.952C166.076 15.064 166.29 15.222 166.462 15.426C166.638 15.63 166.77 15.876 166.858 16.164C166.946 16.448 166.99 16.762 166.99 17.106V21H165.706V17.106C165.706 16.694 165.61 16.374 165.418 16.146C165.23 15.918 164.942 15.804 164.554 15.804C164.266 15.804 163.998 15.87 163.75 16.002C163.506 16.134 163.276 16.314 163.06 16.542V21H161.77V14.88H162.55C162.726 14.88 162.838 14.962 162.886 15.126L162.976 15.69Z" fill="#6D3745"/>
<rect x="0.5" y="0.5" width="178" height="33" rx="7.5" stroke="#6D3745"/>
<path d="M28.5 10.75H13.5C13.1685 10.75 12.8505 10.8817 12.6161 11.1161C12.3817 11.3505 12.25 11.6685 12.25 12V22C12.25 22.3315 12.3817 22.6495 12.6161 22.8839C12.8505 23.1183 13.1685 23.25 13.5 23.25H28.5C28.8315 23.25 29.1495 23.1183 29.3839 22.8839C29.6183 22.6495 29.75 22.3315 29.75 22V12C29.75 11.6685 29.6183 11.3505 29.3839 11.1161C29.1495 10.8817 28.8315 10.75 28.5 10.75ZM27.125 12L21 16.2375L14.875 12H27.125ZM13.5 22V12.5687L20.6438 17.5125C20.7484 17.5851 20.8727 17.624 21 17.624C21.1273 17.624 21.2516 17.5851 21.3562 17.5125L28.5 12.5687V22H13.5Z" fill="#6D3745"/>
</svg>
