<svg width="44" height="44" viewBox="0 0 44 44" fill="none" xmlns="http://www.w3.org/2000/svg">
<path d="M22.0001 0C9.86921 0 0 9.86913 0 22C0 34.1309 9.86921 44 22.0001 44C34.1309 44 44 34.1309 44 22C44 9.86913 34.1309 0 22.0001 0ZM22.0001 40.3934C11.8578 40.3934 3.60653 32.1424 3.60653 22C3.60653 11.8578 11.8578 3.60656 22.0001 3.60656C32.1423 3.60656 40.3935 11.8578 40.3935 22C40.3935 32.1424 32.1423 40.3934 22.0001 40.3934Z" fill="#56BB6D"/>
<path d="M31.5171 13.5554L18.4548 26.618L12.4827 20.6458C11.7784 19.9416 10.6367 19.9416 9.9324 20.6458C9.22826 21.3501 9.22826 22.4918 9.9324 23.196L17.1797 30.4434C17.5318 30.7954 17.9933 30.9715 18.4548 30.9715C18.9163 30.9715 19.3778 30.7954 19.7299 30.4434L34.0673 16.1058C34.7715 15.4016 34.7715 14.2599 34.0673 13.5556C33.363 12.8513 32.2212 12.8513 31.5171 13.5554Z" fill="#56BB6D"/>
</svg>
