<svg width="16" height="16" viewBox="0 0 16 16" fill="none" xmlns="http://www.w3.org/2000/svg">
<path d="M14.6817 1.78266H14.5562V1.21358C14.5562 0.633972 14.0863 0.164062 13.5068 0.164062C12.9261 0.164062 12.4562 0.633972 12.4562 1.21358V1.78266H10.8922V1.21358C10.8922 0.633972 10.4224 0.164062 9.84273 0.164062C9.2626 0.164062 8.79272 0.633972 8.79272 1.21358V1.78266H7.21773V1.21358C7.21773 0.633972 6.74786 0.164062 6.16825 0.164062C5.58811 0.164062 5.11771 0.633972 5.11771 1.21358V1.78266H3.54325V1.21358C3.54325 0.633972 3.0733 0.164062 2.4932 0.164062C1.91363 0.164062 1.44376 0.633972 1.44376 1.21358V1.78266H1.31775C0.590132 1.78266 0 2.37227 0 3.09988L0.0105243 13.4677C0.0105243 14.7733 1.0726 15.8354 2.37831 15.8354H13.6217C14.9274 15.8354 15.9885 14.7733 15.9885 13.4677L16 3.09988C16 2.37227 15.4099 1.78266 14.6817 1.78266ZM14.9395 13.4677C14.9395 14.1953 14.3489 14.7859 13.6217 14.7859H2.37831C1.65112 14.7859 1.06053 14.1953 1.06053 13.4677V4.57097H14.9395V13.4677Z" fill="#6D3745"/>
<path d="M2.86628 9.30625H5.09964C5.39523 9.30625 5.63459 9.06686 5.63459 8.77123V6.53739C5.63459 6.2418 5.3952 6.00293 5.09964 6.00293H2.86628C2.57073 6.00293 2.3313 6.24183 2.3313 6.53739V8.77123C2.33133 9.06686 2.57073 9.30625 2.86628 9.30625Z" fill="#6D3745"/>
<path d="M2.86628 13.36H5.09964C5.39523 13.36 5.63459 13.1206 5.63459 12.8255V10.5911C5.63459 10.2961 5.3952 10.0566 5.09964 10.0566H2.86628C2.57073 10.0566 2.3313 10.2961 2.3313 10.5911V12.8255C2.33133 13.1206 2.57073 13.36 2.86628 13.36Z" fill="#6D3745"/>
<path d="M6.92097 13.36H9.15485C9.44988 13.36 9.68984 13.1206 9.68984 12.8255V10.5911C9.68984 10.2961 9.44988 10.0566 9.15485 10.0566H6.92097C6.62541 10.0566 6.38647 10.2961 6.38647 10.5911V12.8255C6.38651 13.1206 6.62541 13.36 6.92097 13.36Z" fill="#6D3745"/>
<path d="M10.9602 9.30625H13.1936C13.4897 9.30625 13.7285 9.06686 13.7285 8.77123V6.53739C13.7285 6.2418 13.4897 6.00293 13.1936 6.00293H10.9602C10.6647 6.00293 10.4253 6.24183 10.4253 6.53739V8.77123C10.4253 9.06686 10.6647 9.30625 10.9602 9.30625ZM11.0779 6.72479C11.0779 6.68648 11.1088 6.65442 11.1476 6.65442H13.0062C13.045 6.65442 13.0765 6.68648 13.0765 6.72479V8.58383C13.0765 8.62266 13.045 8.65364 13.0062 8.65364H11.1476C11.1088 8.65364 11.0779 8.62266 11.0779 8.58383V6.72479Z" fill="#6D3745"/>
<path d="M10.9602 13.36H13.1936C13.4897 13.36 13.7285 13.1206 13.7285 12.8255V10.5911C13.7285 10.2961 13.4897 10.0566 13.1936 10.0566H10.9602C10.6647 10.0566 10.4253 10.2961 10.4253 10.5911V12.8255C10.4253 13.1206 10.6647 13.36 10.9602 13.36Z" fill="#6D3745"/>
<path d="M6.90629 9.30625H9.13965C9.43468 9.30625 9.67463 9.06686 9.67463 8.77123V6.53739C9.67463 6.2418 9.43471 6.00293 9.13965 6.00293H6.90629C6.61017 6.00293 6.37134 6.24183 6.37134 6.53739V8.77123C6.37134 9.06686 6.61017 9.30625 6.90629 9.30625Z" fill="#6D3745"/>
</svg>
