<svg width="16" height="16" viewBox="0 0 16 16" fill="none" xmlns="http://www.w3.org/2000/svg">
<path d="M13.3335 1.33398H6.66683C6.31321 1.33398 5.97407 1.47446 5.72402 1.72451C5.47397 1.97456 5.3335 2.3137 5.3335 2.66732V4.00065H10.6668C11.0205 4.00065 11.3596 4.14113 11.6096 4.39118C11.8597 4.64122 12.0002 4.98036 12.0002 5.33398V10.6673H13.3335C13.6871 10.6673 14.0263 10.5268 14.2763 10.2768C14.5264 10.0267 14.6668 9.68761 14.6668 9.33398V2.66732C14.6668 2.3137 14.5264 1.97456 14.2763 1.72451C14.0263 1.47446 13.6871 1.33398 13.3335 1.33398Z" fill="#6D3745"/>
<path d="M2.66683 14.6673H9.3335C10.0688 14.6673 10.6668 14.0693 10.6668 13.334V6.66732C10.6668 5.93198 10.0688 5.33398 9.3335 5.33398H2.66683C1.9315 5.33398 1.3335 5.93198 1.3335 6.66732V13.334C1.3335 14.0693 1.9315 14.6673 2.66683 14.6673ZM4.00016 8.00065H8.00016V9.33398H4.00016V8.00065ZM4.00016 10.6673H8.00016V12.0007H4.00016V10.6673Z" fill="#6D3745"/>
</svg>
