<svg width="210" height="50" viewBox="0 0 210 50" fill="none" xmlns="http://www.w3.org/2000/svg">
<rect width="210" height="50" rx="15" fill="#56BB6D"/>
<path d="M73.5368 28.432C73.6381 28.432 73.7261 28.472 73.8008 28.552L74.5448 29.36C74.0755 29.9253 73.4995 30.3627 72.8168 30.672C72.1341 30.976 71.3181 31.128 70.3688 31.128C69.5261 31.128 68.7635 30.984 68.0808 30.696C67.4035 30.4027 66.8248 29.9973 66.3448 29.48C65.8648 28.9573 65.4941 28.336 65.2328 27.616C64.9768 26.896 64.8488 26.104 64.8488 25.24C64.8488 24.376 64.9848 23.584 65.2568 22.864C65.5341 22.1387 65.9208 21.5173 66.4168 21C66.9181 20.4773 67.5155 20.072 68.2088 19.784C68.9075 19.496 69.6755 19.352 70.5128 19.352C71.3448 19.352 72.0781 19.488 72.7128 19.76C73.3528 20.0267 73.9075 20.384 74.3768 20.832L73.7608 21.704C73.7181 21.7627 73.6675 21.8133 73.6088 21.856C73.5501 21.8987 73.4701 21.92 73.3688 21.92C73.2621 21.92 73.1395 21.872 73.0008 21.776C72.8675 21.6747 72.6941 21.5653 72.4808 21.448C72.2728 21.3253 72.0088 21.216 71.6888 21.12C71.3741 21.0187 70.9795 20.968 70.5048 20.968C69.9555 20.968 69.4515 21.064 68.9928 21.256C68.5341 21.448 68.1395 21.728 67.8088 22.096C67.4781 22.464 67.2195 22.912 67.0328 23.44C66.8515 23.968 66.7608 24.568 66.7608 25.24C66.7608 25.9173 66.8568 26.5227 67.0488 27.056C67.2408 27.584 67.5048 28.032 67.8408 28.4C68.1768 28.7627 68.5715 29.04 69.0248 29.232C69.4781 29.424 69.9661 29.52 70.4888 29.52C70.8088 29.52 71.0941 29.504 71.3448 29.472C71.6008 29.4347 71.8355 29.3787 72.0488 29.304C72.2621 29.224 72.4621 29.1253 72.6488 29.008C72.8408 28.8907 73.0301 28.7467 73.2168 28.576C73.3235 28.48 73.4301 28.432 73.5368 28.432ZM77.5345 24.352C77.7905 23.8347 78.0999 23.4293 78.4625 23.136C78.8252 22.8373 79.2599 22.688 79.7665 22.688C79.9425 22.688 80.1079 22.7093 80.2625 22.752C80.4172 22.7893 80.5559 22.848 80.6785 22.928L80.5585 24.224C80.5372 24.3147 80.5025 24.3787 80.4545 24.416C80.4119 24.448 80.3532 24.464 80.2785 24.464C80.1985 24.464 80.0839 24.4507 79.9345 24.424C79.7852 24.392 79.6279 24.376 79.4625 24.376C79.2225 24.376 79.0092 24.4107 78.8225 24.48C78.6412 24.5493 78.4759 24.6507 78.3265 24.784C78.1825 24.9173 78.0545 25.08 77.9425 25.272C77.8305 25.464 77.7265 25.6827 77.6305 25.928V31H75.9105V22.84H76.9105C77.0919 22.84 77.2172 22.8747 77.2865 22.944C77.3559 23.008 77.4039 23.1227 77.4305 23.288L77.5345 24.352ZM86.9876 26C86.9876 25.712 86.9449 25.4453 86.8596 25.2C86.7796 24.9493 86.6596 24.7333 86.4996 24.552C86.3396 24.3653 86.1396 24.2213 85.8996 24.12C85.6649 24.0133 85.3929 23.96 85.0836 23.96C84.4596 23.96 83.9689 24.1387 83.6116 24.496C83.2542 24.8533 83.0276 25.3547 82.9316 26H86.9876ZM82.8836 27.056C82.9049 27.52 82.9769 27.9227 83.0996 28.264C83.2222 28.6 83.3849 28.88 83.5876 29.104C83.7956 29.328 84.0409 29.496 84.3236 29.608C84.6116 29.7147 84.9316 29.768 85.2836 29.768C85.6196 29.768 85.9102 29.7307 86.1556 29.656C86.4009 29.576 86.6142 29.4907 86.7956 29.4C86.9769 29.304 87.1316 29.2187 87.2596 29.144C87.3876 29.064 87.5049 29.024 87.6116 29.024C87.7502 29.024 87.8569 29.0773 87.9316 29.184L88.4196 29.816C88.2169 30.056 87.9876 30.2587 87.7316 30.424C87.4756 30.5893 87.2036 30.7253 86.9156 30.832C86.6276 30.9333 86.3316 31.0053 86.0276 31.048C85.7236 31.096 85.4276 31.12 85.1396 31.12C84.5742 31.12 84.0489 31.0267 83.5636 30.84C83.0836 30.648 82.6649 30.368 82.3076 30C81.9556 29.632 81.6782 29.176 81.4756 28.632C81.2782 28.088 81.1796 27.4613 81.1796 26.752C81.1796 26.1867 81.2676 25.6587 81.4436 25.168C81.6249 24.6773 81.8809 24.2507 82.2116 23.888C82.5476 23.5253 82.9529 23.24 83.4276 23.032C83.9076 22.8187 84.4489 22.712 85.0516 22.712C85.5529 22.712 86.0169 22.7947 86.4436 22.96C86.8702 23.12 87.2382 23.3573 87.5476 23.672C87.8569 23.9867 88.0969 24.3733 88.2676 24.832C88.4436 25.2853 88.5316 25.8027 88.5316 26.384C88.5316 26.6507 88.5022 26.8293 88.4436 26.92C88.3849 27.0107 88.2782 27.056 88.1236 27.056H82.8836ZM94.5956 27.432C93.9822 27.4533 93.4649 27.504 93.0435 27.584C92.6222 27.6587 92.2809 27.7573 92.0195 27.88C91.7582 27.9973 91.5689 28.1387 91.4515 28.304C91.3395 28.4693 91.2835 28.6507 91.2835 28.848C91.2835 29.04 91.3129 29.2053 91.3715 29.344C91.4355 29.4773 91.5209 29.5893 91.6275 29.68C91.7395 29.7653 91.8675 29.8293 92.0115 29.872C92.1609 29.9093 92.3235 29.928 92.4995 29.928C92.9475 29.928 93.3315 29.8453 93.6515 29.68C93.9769 29.5093 94.2915 29.264 94.5956 28.944V27.432ZM90.0355 23.976C90.9582 23.1173 92.0569 22.688 93.3315 22.688C93.8009 22.688 94.2169 22.7653 94.5795 22.92C94.9475 23.0693 95.2542 23.2827 95.4995 23.56C95.7502 23.8373 95.9395 24.168 96.0675 24.552C96.2009 24.9307 96.2675 25.352 96.2675 25.816V31H95.4995C95.3342 31 95.2089 30.976 95.1235 30.928C95.0382 30.8747 94.9662 30.7707 94.9075 30.616L94.7395 29.952C94.5315 30.1387 94.3262 30.3067 94.1235 30.456C93.9209 30.6 93.7102 30.7227 93.4915 30.824C93.2782 30.9253 93.0462 31 92.7955 31.048C92.5502 31.1013 92.2782 31.128 91.9795 31.128C91.6489 31.128 91.3395 31.0827 91.0515 30.992C90.7689 30.9013 90.5235 30.7653 90.3155 30.584C90.1075 30.3973 89.9422 30.168 89.8195 29.896C89.7022 29.624 89.6435 29.304 89.6435 28.936C89.6435 28.6213 89.7262 28.3147 89.8915 28.016C90.0622 27.7173 90.3395 27.4507 90.7235 27.216C91.1129 26.976 91.6222 26.7787 92.2515 26.624C92.8862 26.4693 93.6675 26.3813 94.5956 26.36V25.816C94.5956 25.2293 94.4702 24.792 94.2195 24.504C93.9689 24.216 93.6009 24.072 93.1155 24.072C92.7849 24.072 92.5075 24.1147 92.2835 24.2C92.0595 24.28 91.8649 24.368 91.6995 24.464C91.5342 24.56 91.3875 24.6507 91.2595 24.736C91.1315 24.816 90.9955 24.856 90.8515 24.856C90.7342 24.856 90.6329 24.8267 90.5475 24.768C90.4675 24.704 90.4009 24.6267 90.3475 24.536L90.0355 23.976ZM100.889 31.128C100.212 31.128 99.6891 30.9387 99.3211 30.56C98.9584 30.176 98.7771 29.6373 98.7771 28.944V24.192H97.8811C97.7851 24.192 97.7024 24.1627 97.6331 24.104C97.5637 24.04 97.5291 23.9467 97.5291 23.824V23.128L98.8491 22.936L99.2251 20.576C99.2517 20.4853 99.2971 20.4133 99.3611 20.36C99.4251 20.3013 99.5104 20.272 99.6171 20.272H100.497V22.952H102.761V24.192H100.497V28.824C100.497 29.1173 100.569 29.3413 100.713 29.496C100.857 29.6507 101.049 29.728 101.289 29.728C101.422 29.728 101.537 29.712 101.633 29.68C101.729 29.6427 101.812 29.6053 101.881 29.568C101.95 29.5253 102.009 29.488 102.057 29.456C102.11 29.4187 102.161 29.4 102.209 29.4C102.305 29.4 102.382 29.4533 102.441 29.56L102.953 30.4C102.686 30.6347 102.372 30.816 102.009 30.944C101.646 31.0667 101.273 31.128 100.889 31.128ZM109.506 26C109.506 25.712 109.464 25.4453 109.378 25.2C109.298 24.9493 109.178 24.7333 109.018 24.552C108.858 24.3653 108.658 24.2213 108.418 24.12C108.184 24.0133 107.912 23.96 107.602 23.96C106.978 23.96 106.488 24.1387 106.13 24.496C105.773 24.8533 105.546 25.3547 105.45 26H109.506ZM105.402 27.056C105.424 27.52 105.496 27.9227 105.618 28.264C105.741 28.6 105.904 28.88 106.106 29.104C106.314 29.328 106.56 29.496 106.842 29.608C107.13 29.7147 107.45 29.768 107.802 29.768C108.138 29.768 108.429 29.7307 108.674 29.656C108.92 29.576 109.133 29.4907 109.314 29.4C109.496 29.304 109.65 29.2187 109.778 29.144C109.906 29.064 110.024 29.024 110.13 29.024C110.269 29.024 110.376 29.0773 110.45 29.184L110.938 29.816C110.736 30.056 110.506 30.2587 110.25 30.424C109.994 30.5893 109.722 30.7253 109.434 30.832C109.146 30.9333 108.85 31.0053 108.546 31.048C108.242 31.096 107.946 31.12 107.658 31.12C107.093 31.12 106.568 31.0267 106.082 30.84C105.602 30.648 105.184 30.368 104.826 30C104.474 29.632 104.197 29.176 103.994 28.632C103.797 28.088 103.698 27.4613 103.698 26.752C103.698 26.1867 103.786 25.6587 103.962 25.168C104.144 24.6773 104.4 24.2507 104.73 23.888C105.066 23.5253 105.472 23.24 105.946 23.032C106.426 22.8187 106.968 22.712 107.57 22.712C108.072 22.712 108.536 22.7947 108.962 22.96C109.389 23.12 109.757 23.3573 110.066 23.672C110.376 23.9867 110.616 24.3733 110.786 24.832C110.962 25.2853 111.05 25.8027 111.05 26.384C111.05 26.6507 111.021 26.8293 110.962 26.92C110.904 27.0107 110.797 27.056 110.642 27.056H105.402ZM120.743 25.352C121.159 25.352 121.524 25.2987 121.839 25.192C122.159 25.0853 122.423 24.936 122.631 24.744C122.844 24.5467 123.004 24.3093 123.111 24.032C123.217 23.7547 123.271 23.4453 123.271 23.104C123.271 22.768 123.217 22.4667 123.111 22.2C123.009 21.9333 122.855 21.7067 122.647 21.52C122.439 21.3333 122.175 21.192 121.855 21.096C121.54 20.9947 121.169 20.944 120.743 20.944H119.031V25.352H120.743ZM120.743 19.48C121.495 19.48 122.145 19.568 122.695 19.744C123.249 19.92 123.705 20.168 124.063 20.488C124.425 20.8027 124.695 21.184 124.871 21.632C125.047 22.0747 125.135 22.5653 125.135 23.104C125.135 23.6533 125.041 24.1573 124.855 24.616C124.668 25.0693 124.391 25.4613 124.023 25.792C123.655 26.1173 123.196 26.3733 122.647 26.56C122.103 26.7413 121.468 26.832 120.743 26.832H119.031V31H117.159V19.48H120.743ZM128.409 19.16V31H126.689V19.16H128.409ZM134.992 27.432C134.379 27.4533 133.862 27.504 133.44 27.584C133.019 27.6587 132.678 27.7573 132.416 27.88C132.155 27.9973 131.966 28.1387 131.848 28.304C131.736 28.4693 131.68 28.6507 131.68 28.848C131.68 29.04 131.71 29.2053 131.768 29.344C131.832 29.4773 131.918 29.5893 132.024 29.68C132.136 29.7653 132.264 29.8293 132.408 29.872C132.558 29.9093 132.72 29.928 132.896 29.928C133.344 29.928 133.728 29.8453 134.048 29.68C134.374 29.5093 134.688 29.264 134.992 28.944V27.432ZM130.432 23.976C131.355 23.1173 132.454 22.688 133.728 22.688C134.198 22.688 134.614 22.7653 134.976 22.92C135.344 23.0693 135.651 23.2827 135.896 23.56C136.147 23.8373 136.336 24.168 136.464 24.552C136.598 24.9307 136.664 25.352 136.664 25.816V31H135.896C135.731 31 135.606 30.976 135.52 30.928C135.435 30.8747 135.363 30.7707 135.304 30.616L135.136 29.952C134.928 30.1387 134.723 30.3067 134.52 30.456C134.318 30.6 134.107 30.7227 133.888 30.824C133.675 30.9253 133.443 31 133.192 31.048C132.947 31.1013 132.675 31.128 132.376 31.128C132.046 31.128 131.736 31.0827 131.448 30.992C131.166 30.9013 130.92 30.7653 130.712 30.584C130.504 30.3973 130.339 30.168 130.216 29.896C130.099 29.624 130.04 29.304 130.04 28.936C130.04 28.6213 130.123 28.3147 130.288 28.016C130.459 27.7173 130.736 27.4507 131.12 27.216C131.51 26.976 132.019 26.7787 132.648 26.624C133.283 26.4693 134.064 26.3813 134.992 26.36V25.816C134.992 25.2293 134.867 24.792 134.616 24.504C134.366 24.216 133.998 24.072 133.512 24.072C133.182 24.072 132.904 24.1147 132.68 24.2C132.456 24.28 132.262 24.368 132.096 24.464C131.931 24.56 131.784 24.6507 131.656 24.736C131.528 24.816 131.392 24.856 131.248 24.856C131.131 24.856 131.03 24.8267 130.944 24.768C130.864 24.704 130.798 24.6267 130.744 24.536L130.432 23.976ZM140.387 23.92C140.563 23.7387 140.745 23.576 140.931 23.432C141.123 23.2827 141.326 23.1547 141.539 23.048C141.753 22.9413 141.979 22.8587 142.219 22.8C142.459 22.7413 142.721 22.712 143.003 22.712C143.451 22.712 143.843 22.7867 144.179 22.936C144.521 23.0853 144.806 23.296 145.035 23.568C145.27 23.84 145.446 24.168 145.563 24.552C145.681 24.9307 145.739 25.3493 145.739 25.808V31H144.027V25.808C144.027 25.2587 143.899 24.832 143.643 24.528C143.393 24.224 143.009 24.072 142.491 24.072C142.107 24.072 141.75 24.16 141.419 24.336C141.094 24.512 140.787 24.752 140.499 25.056V31H138.779V22.84H139.819C140.054 22.84 140.203 22.9493 140.267 23.168L140.387 23.92Z" fill="white"/>
</svg>
