<svg width="16" height="16" viewBox="0 0 16 16" fill="none" xmlns="http://www.w3.org/2000/svg">
<path d="M6.66699 0.96582H9.34106V1.41577H10.3068V0.902832C10.3069 0.405029 9.9021 0 9.40454 0H6.60352C6.10596 0 5.70117 0.405029 5.70117 0.902832V1.41577H6.66699V0.96582Z" fill="#FF0000"/>
<path d="M12.5381 5.24194H3.47224C3.22382 5.24194 3.02827 5.45386 3.04829 5.70154L3.80622 15.0736C3.84846 15.5968 4.28486 15.9998 4.80915 15.9998H11.2011C11.7254 15.9998 12.1618 15.5968 12.204 15.0735L12.962 5.70154C12.9821 5.45386 12.7866 5.24194 12.5381 5.24194ZM5.66743 15.0001C5.65729 15.0007 5.64716 15.0011 5.63715 15.0011C5.38398 15.0011 5.17145 14.804 5.15571 14.5479L4.68073 6.85388C4.66437 6.58765 4.86689 6.35852 5.133 6.34216C5.39826 6.32605 5.62836 6.52808 5.64472 6.79443L6.11957 14.4884C6.13605 14.7546 5.93354 14.9836 5.66743 15.0001ZM8.49347 14.5182C8.49347 14.7848 8.27729 15.001 8.01056 15.001C7.74384 15.001 7.52765 14.7848 7.52765 14.5182V6.8241C7.52765 6.55737 7.74384 6.34119 8.01056 6.34119C8.27717 6.34119 8.49347 6.55737 8.49347 6.8241V14.5182ZM11.3297 6.85254L10.8762 14.5465C10.8611 14.8031 10.6483 15.001 10.3946 15.001C10.3851 15.001 10.3754 15.0007 10.3658 15.0002C10.0996 14.9845 9.89643 14.756 9.91217 14.4897L10.3655 6.79565C10.3812 6.52942 10.609 6.32629 10.8759 6.34204C11.1422 6.35767 11.3453 6.5863 11.3297 6.85254Z" fill="#FF0000"/>
<path d="M14.2077 3.75195L13.8906 2.80127C13.807 2.55066 13.5724 2.38159 13.3081 2.38159H2.70152C2.43736 2.38159 2.20262 2.55066 2.11912 2.80127L1.80199 3.75195C1.74083 3.9353 1.82042 4.12232 1.96898 4.21558C2.02952 4.25354 2.10118 4.27637 2.17992 4.27637H13.8298C13.9086 4.27637 13.9803 4.25354 14.0408 4.21546C14.1893 4.12219 14.2689 3.93518 14.2077 3.75195Z" fill="#FF0000"/>
</svg>
