<svg width="107" height="107" viewBox="0 0 107 107" fill="none" xmlns="http://www.w3.org/2000/svg">
<path d="M44.5863 6.45892H62.4692V9.46797H68.9273V6.03769C68.9281 2.70863 66.2211 0 62.8937 0H44.1618C40.8344 0 38.1274 2.70863 38.1274 6.03769V9.46797H44.5863V6.45892Z" fill="#FF0000"/>
<path d="M83.8486 35.0569H23.2203C21.559 35.0569 20.2512 36.4741 20.3851 38.1305L25.4538 100.806C25.7363 104.305 28.6547 107 32.1609 107H74.9072C78.4134 107 81.3318 104.305 81.6143 100.805L86.6829 38.1305C86.8176 36.4741 85.5099 35.0569 83.8486 35.0569ZM37.9006 100.315C37.8329 100.319 37.7651 100.321 37.6982 100.321C36.0051 100.321 34.5838 99.0029 34.4785 97.2902L31.3021 45.8368C31.1927 44.0563 32.547 42.524 34.3267 42.4146C36.1006 42.3069 37.6394 43.6579 37.7488 45.4392L40.9244 96.8926C41.0346 98.6731 39.6803 100.205 37.9006 100.315ZM56.7998 97.0918C56.7998 98.8747 55.3541 100.32 53.5704 100.32C51.7866 100.32 50.3409 98.8747 50.3409 97.0918V45.6376C50.3409 43.8539 51.7866 42.4081 53.5704 42.4081C55.3533 42.4081 56.7998 43.8539 56.7998 45.6376V97.0918ZM75.7668 45.8278L72.7341 97.2812C72.6336 98.9972 71.2099 100.32 69.5136 100.32C69.4499 100.32 69.3854 100.319 69.3209 100.316C67.5405 100.21 66.1821 98.6821 66.2874 96.9016L69.3193 45.4474C69.4238 43.6669 70.9471 42.3085 72.7324 42.4138C74.5129 42.5183 75.8713 44.0473 75.7668 45.8278Z" fill="#FF0000"/>
<path d="M95.0143 25.0898L92.8935 18.7321C92.3343 17.0561 90.7653 15.9255 88.9979 15.9255H18.0665C16.2999 15.9255 14.7301 17.0561 14.1717 18.7321L12.0508 25.0898C11.6418 26.3159 12.1741 27.5666 13.1676 28.1903C13.5725 28.4441 14.0517 28.5968 14.5782 28.5968H92.4869C93.0135 28.5968 93.4935 28.4441 93.8976 28.1895C94.8911 27.5658 95.4233 26.3151 95.0143 25.0898Z" fill="#FF0000"/>
</svg>
