<svg width="398" height="331" viewBox="0 0 398 331" fill="none" xmlns="http://www.w3.org/2000/svg">
<path d="M178.098 0.00211048L219.494 0.00211409C230.902 0.00211509 240.191 9.29124 240.191 20.6998L240.191 115.909L285.726 115.909C296.605 115.909 302.251 129.007 294.718 136.905L207.787 227.975C203.101 232.876 194.491 232.876 189.805 227.975L102.875 136.905C95.3406 129.007 100.987 115.909 111.866 115.909L157.401 115.909L157.401 20.6998C157.401 9.29123 166.69 0.00210948 178.098 0.00211048Z" fill="#6D3745"/>
<path d="M347.841 330.998H49.7936C22.4064 330.998 0.119141 308.711 0.119141 281.324V198.533C0.119141 171.146 22.4064 148.858 49.7936 148.858H74.6309C83.771 148.858 91.1891 156.276 91.1891 165.417C91.1891 174.557 83.771 181.975 74.6309 181.975H49.7936C40.6701 181.975 33.2355 189.409 33.2355 198.533V281.324C33.2355 290.447 40.6701 297.882 49.7936 297.882H347.841C356.964 297.882 364.399 290.447 364.399 281.324V198.533C364.399 189.409 356.964 181.975 347.841 181.975H323.003C313.863 181.975 306.445 174.557 306.445 165.417C306.445 156.276 313.863 148.858 323.003 148.858H347.841C375.228 148.858 397.515 171.146 397.515 198.533V281.324C397.515 308.711 375.228 330.998 347.841 330.998Z" fill="#6D3745"/>
</svg>
