<svg width="16" height="16" viewBox="0 0 16 16" fill="none" xmlns="http://www.w3.org/2000/svg">
<g clip-path="url(#clip0_290:2986)">
<path d="M7.16598 2.67333L8.83265 2.67333C9.29198 2.67333 9.66598 3.04733 9.66598 3.50667L9.66598 7.34L11.4993 7.34C11.9373 7.34 12.1646 7.86733 11.8613 8.18533L8.36131 11.852C8.17265 12.0493 7.82598 12.0493 7.63731 11.852L4.13731 8.18533C3.83398 7.86733 4.06131 7.34 4.49931 7.34L6.33265 7.34L6.33265 3.50667C6.33265 3.04733 6.70665 2.67333 7.16598 2.67333Z" fill="#6D3745"/>
<path d="M14 15.9998H2C0.897333 15.9998 0 15.1025 0 13.9998V10.6665C0 9.56384 0.897333 8.6665 2 8.6665H3C3.368 8.6665 3.66667 8.96517 3.66667 9.33317C3.66667 9.70117 3.368 9.99984 3 9.99984H2C1.63267 9.99984 1.33333 10.2992 1.33333 10.6665V13.9998C1.33333 14.3672 1.63267 14.6665 2 14.6665H14C14.3673 14.6665 14.6667 14.3672 14.6667 13.9998V10.6665C14.6667 10.2992 14.3673 9.99984 14 9.99984H13C12.632 9.99984 12.3333 9.70117 12.3333 9.33317C12.3333 8.96517 12.632 8.6665 13 8.6665H14C15.1027 8.6665 16 9.56384 16 10.6665V13.9998C16 15.1025 15.1027 15.9998 14 15.9998Z" fill="#6D3745"/>
</g>
<defs>
<clipPath id="clip0_290:2986">
<rect width="16" height="16" fill="white"/>
</clipPath>
</defs>
</svg>
