<svg width="42" height="33" viewBox="0 0 42 33" fill="none" xmlns="http://www.w3.org/2000/svg">
<path d="M12.7739 14.9032C15.1223 14.9032 17.0318 12.9935 17.0318 10.6451C17.0318 8.29684 15.1223 6.38708 12.7739 6.38708C10.4255 6.38708 8.51562 8.29684 8.51562 10.6451C8.51562 12.9935 10.4255 14.9032 12.7739 14.9032Z" fill="#E6E6E6"/>
<path d="M36.3264 0H5.18937C2.32919 0 0 2.31425 0 5.15646V27.8435C0 30.6857 2.32919 33 5.18937 33H36.3264C39.1869 33 41.5161 30.6857 41.5161 27.8435V5.15646C41.5161 2.31425 39.1869 0 36.3264 0ZM5.18937 4.12509H36.3264C36.8996 4.12509 37.3644 4.58696 37.3644 5.15646V19.798L30.8071 12.1955C30.1115 11.3851 29.1047 10.9519 28.0233 10.9274C26.948 10.9334 25.9393 11.4077 25.2502 12.2288L17.5404 21.4231L15.0288 18.9336C13.6091 17.5231 11.2986 17.5231 9.88083 18.9336L4.15173 24.6241V5.15646C4.15173 4.58696 4.61658 4.12509 5.18937 4.12509Z" fill="#E6E6E6"/>
</svg>
