<svg width="223" height="50" viewBox="0 0 223 50" fill="none" xmlns="http://www.w3.org/2000/svg">
<rect width="223" height="50" rx="15" fill="#6D3745"/>
<path d="M37 25C39.2094 25 41 23.2094 41 21C41 18.7906 39.2094 17 37 17C34.7906 17 33 18.7906 33 21C33 23.2094 34.7906 25 37 25ZM39.8 26H39.2781C38.5844 26.3187 37.8125 26.5 37 26.5C36.1875 26.5 35.4188 26.3187 34.7219 26H34.2C31.8813 26 30 27.8812 30 30.2V31.5C30 32.3281 30.6719 33 31.5 33H40.0906C40.0156 32.7875 39.9844 32.5625 40.0094 32.3344L40.2219 30.4312L40.2594 30.0844L40.5063 29.8375L42.9219 27.4219C42.1563 26.5562 41.0469 26 39.8 26V26ZM41.2156 30.5406L41.0031 32.4469C40.9688 32.7656 41.2375 33.0344 41.5531 32.9969L43.4563 32.7844L47.7656 28.475L45.525 26.2344L41.2156 30.5406V30.5406ZM49.7813 25.4031L48.5969 24.2188C48.3063 23.9281 47.8313 23.9281 47.5406 24.2188L46.3594 25.4L46.2313 25.5281L48.475 27.7688L49.7813 26.4625C50.0719 26.1687 50.0719 25.6969 49.7813 25.4031V25.4031Z" fill="white"/>
<path d="M66.56 29.488L66.552 31H59.368V19.48H66.552V20.992H61.248V24.464H65.488V25.928H61.248V29.488H66.56ZM73.2623 24.848C73.0223 24.5387 72.7583 24.3227 72.4703 24.2C72.1823 24.0773 71.8703 24.016 71.5343 24.016C70.8623 24.016 70.3369 24.264 69.9583 24.76C69.5796 25.2507 69.3903 25.9787 69.3903 26.944C69.3903 27.4453 69.4329 27.8747 69.5183 28.232C69.6036 28.584 69.7263 28.872 69.8863 29.096C70.0463 29.32 70.2409 29.4827 70.4703 29.584C70.6996 29.6853 70.9583 29.736 71.2463 29.736C71.6836 29.736 72.0596 29.6427 72.3743 29.456C72.6943 29.264 72.9903 28.9947 73.2623 28.648V24.848ZM74.9823 19.16V31H73.9423C73.7129 31 73.5663 30.8907 73.5023 30.672L73.3503 29.784C73.0089 30.184 72.6196 30.5067 72.1823 30.752C71.7503 30.9973 71.2463 31.12 70.6703 31.12C70.2116 31.12 69.7956 31.0293 69.4223 30.848C69.0489 30.6613 68.7289 30.392 68.4623 30.04C68.1956 29.688 67.9876 29.2533 67.8383 28.736C67.6943 28.2133 67.6223 27.616 67.6223 26.944C67.6223 26.336 67.7023 25.7733 67.8623 25.256C68.0276 24.7387 68.2623 24.2907 68.5663 23.912C68.8703 23.528 69.2383 23.2293 69.6703 23.016C70.1076 22.7973 70.5956 22.688 71.1343 22.688C71.6143 22.688 72.0223 22.7653 72.3583 22.92C72.6943 23.0693 72.9956 23.28 73.2623 23.552V19.16H74.9823ZM78.9775 22.84V31H77.2575V22.84H78.9775ZM79.2655 20.376C79.2655 20.5307 79.2335 20.6773 79.1695 20.816C79.1108 20.9547 79.0282 21.0773 78.9215 21.184C78.8148 21.2853 78.6895 21.368 78.5455 21.432C78.4068 21.4907 78.2575 21.52 78.0975 21.52C77.9428 21.52 77.7962 21.4907 77.6575 21.432C77.5242 21.368 77.4068 21.2853 77.3055 21.184C77.2042 21.0773 77.1215 20.9547 77.0575 20.816C76.9988 20.6773 76.9695 20.5307 76.9695 20.376C76.9695 20.216 76.9988 20.0667 77.0575 19.928C77.1215 19.7893 77.2042 19.6693 77.3055 19.568C77.4068 19.4613 77.5242 19.3787 77.6575 19.32C77.7962 19.256 77.9428 19.224 78.0975 19.224C78.2575 19.224 78.4068 19.256 78.5455 19.32C78.6895 19.3787 78.8148 19.4613 78.9215 19.568C79.0282 19.6693 79.1108 19.7893 79.1695 19.928C79.2335 20.0667 79.2655 20.216 79.2655 20.376ZM83.8546 31.128C83.1773 31.128 82.6546 30.9387 82.2866 30.56C81.924 30.176 81.7426 29.6373 81.7426 28.944V24.192H80.8466C80.7506 24.192 80.668 24.1627 80.5986 24.104C80.5293 24.04 80.4946 23.9467 80.4946 23.824V23.128L81.8146 22.936L82.1906 20.576C82.2173 20.4853 82.2626 20.4133 82.3266 20.36C82.3906 20.3013 82.476 20.272 82.5826 20.272H83.4626V22.952H85.7266V24.192H83.4626V28.824C83.4626 29.1173 83.5346 29.3413 83.6786 29.496C83.8226 29.6507 84.0146 29.728 84.2546 29.728C84.388 29.728 84.5026 29.712 84.5986 29.68C84.6946 29.6427 84.7773 29.6053 84.8466 29.568C84.916 29.5253 84.9746 29.488 85.0226 29.456C85.076 29.4187 85.1266 29.4 85.1746 29.4C85.2706 29.4 85.348 29.4533 85.4066 29.56L85.9186 30.4C85.652 30.6347 85.3373 30.816 84.9746 30.944C84.612 31.0667 84.2386 31.128 83.8546 31.128ZM95.1708 25.352C95.5868 25.352 95.9521 25.2987 96.2668 25.192C96.5868 25.0853 96.8508 24.936 97.0588 24.744C97.2721 24.5467 97.4321 24.3093 97.5388 24.032C97.6454 23.7547 97.6988 23.4453 97.6988 23.104C97.6988 22.768 97.6454 22.4667 97.5388 22.2C97.4374 21.9333 97.2828 21.7067 97.0748 21.52C96.8668 21.3333 96.6028 21.192 96.2828 21.096C95.9681 20.9947 95.5974 20.944 95.1708 20.944H93.4588V25.352H95.1708ZM95.1708 19.48C95.9228 19.48 96.5734 19.568 97.1228 19.744C97.6774 19.92 98.1334 20.168 98.4908 20.488C98.8534 20.8027 99.1228 21.184 99.2988 21.632C99.4748 22.0747 99.5628 22.5653 99.5628 23.104C99.5628 23.6533 99.4694 24.1573 99.2828 24.616C99.0961 25.0693 98.8188 25.4613 98.4508 25.792C98.0828 26.1173 97.6241 26.3733 97.0748 26.56C96.5308 26.7413 95.8961 26.832 95.1708 26.832H93.4588V31H91.5868V19.48H95.1708ZM105.242 27.432C104.629 27.4533 104.112 27.504 103.69 27.584C103.269 27.6587 102.928 27.7573 102.666 27.88C102.405 27.9973 102.216 28.1387 102.098 28.304C101.986 28.4693 101.93 28.6507 101.93 28.848C101.93 29.04 101.96 29.2053 102.018 29.344C102.082 29.4773 102.168 29.5893 102.274 29.68C102.386 29.7653 102.514 29.8293 102.658 29.872C102.808 29.9093 102.97 29.928 103.146 29.928C103.594 29.928 103.978 29.8453 104.298 29.68C104.624 29.5093 104.938 29.264 105.242 28.944V27.432ZM100.682 23.976C101.605 23.1173 102.704 22.688 103.978 22.688C104.448 22.688 104.864 22.7653 105.226 22.92C105.594 23.0693 105.901 23.2827 106.146 23.56C106.397 23.8373 106.586 24.168 106.714 24.552C106.848 24.9307 106.914 25.352 106.914 25.816V31H106.146C105.981 31 105.856 30.976 105.77 30.928C105.685 30.8747 105.613 30.7707 105.554 30.616L105.386 29.952C105.178 30.1387 104.973 30.3067 104.77 30.456C104.568 30.6 104.357 30.7227 104.138 30.824C103.925 30.9253 103.693 31 103.442 31.048C103.197 31.1013 102.925 31.128 102.626 31.128C102.296 31.128 101.986 31.0827 101.698 30.992C101.416 30.9013 101.17 30.7653 100.962 30.584C100.754 30.3973 100.589 30.168 100.466 29.896C100.349 29.624 100.29 29.304 100.29 28.936C100.29 28.6213 100.373 28.3147 100.538 28.016C100.709 27.7173 100.986 27.4507 101.37 27.216C101.76 26.976 102.269 26.7787 102.898 26.624C103.533 26.4693 104.314 26.3813 105.242 26.36V25.816C105.242 25.2293 105.117 24.792 104.866 24.504C104.616 24.216 104.248 24.072 103.762 24.072C103.432 24.072 103.154 24.1147 102.93 24.2C102.706 24.28 102.512 24.368 102.346 24.464C102.181 24.56 102.034 24.6507 101.906 24.736C101.778 24.816 101.642 24.856 101.498 24.856C101.381 24.856 101.28 24.8267 101.194 24.768C101.114 24.704 101.048 24.6267 100.994 24.536L100.682 23.976ZM116.84 31H115.12V24.192H111.144V28.824C111.144 29.1173 111.216 29.3413 111.36 29.496C111.504 29.6507 111.696 29.728 111.936 29.728C112.069 29.728 112.184 29.712 112.28 29.68C112.376 29.6427 112.459 29.6053 112.528 29.568C112.597 29.5253 112.656 29.488 112.704 29.456C112.757 29.4187 112.808 29.4 112.856 29.4C112.952 29.4 113.029 29.4533 113.088 29.56L113.6 30.4C113.333 30.6347 113.019 30.816 112.656 30.944C112.293 31.0667 111.92 31.128 111.536 31.128C110.859 31.128 110.336 30.9387 109.968 30.56C109.605 30.176 109.424 29.6373 109.424 28.944V24.192H108.528C108.432 24.192 108.349 24.1627 108.28 24.104C108.211 24.04 108.176 23.9467 108.176 23.824V23.128L109.496 22.936L109.872 20.576C109.899 20.4853 109.944 20.4133 110.008 20.36C110.072 20.3013 110.157 20.272 110.264 20.272H111.144V22.952H116.84V31ZM117.192 20.336C117.192 20.4907 117.16 20.6373 117.096 20.776C117.037 20.9093 116.955 21.0293 116.848 21.136C116.741 21.2373 116.616 21.32 116.472 21.384C116.333 21.4427 116.187 21.472 116.032 21.472C115.877 21.472 115.731 21.4427 115.592 21.384C115.459 21.32 115.339 21.2373 115.232 21.136C115.131 21.0293 115.048 20.9093 114.984 20.776C114.925 20.6373 114.896 20.4907 114.896 20.336C114.896 20.176 114.925 20.0267 114.984 19.888C115.048 19.744 115.131 19.6213 115.232 19.52C115.339 19.4133 115.459 19.3307 115.592 19.272C115.731 19.208 115.877 19.176 116.032 19.176C116.187 19.176 116.333 19.208 116.472 19.272C116.616 19.3307 116.741 19.4133 116.848 19.52C116.955 19.6213 117.037 19.744 117.096 19.888C117.16 20.0267 117.192 20.176 117.192 20.336ZM124.466 26C124.466 25.712 124.423 25.4453 124.338 25.2C124.258 24.9493 124.138 24.7333 123.978 24.552C123.818 24.3653 123.618 24.2213 123.378 24.12C123.143 24.0133 122.871 23.96 122.562 23.96C121.938 23.96 121.447 24.1387 121.09 24.496C120.732 24.8533 120.506 25.3547 120.41 26H124.466ZM120.362 27.056C120.383 27.52 120.455 27.9227 120.578 28.264C120.7 28.6 120.863 28.88 121.066 29.104C121.274 29.328 121.519 29.496 121.802 29.608C122.09 29.7147 122.41 29.768 122.762 29.768C123.098 29.768 123.388 29.7307 123.634 29.656C123.879 29.576 124.092 29.4907 124.274 29.4C124.455 29.304 124.61 29.2187 124.738 29.144C124.866 29.064 124.983 29.024 125.09 29.024C125.228 29.024 125.335 29.0773 125.41 29.184L125.898 29.816C125.695 30.056 125.466 30.2587 125.21 30.424C124.954 30.5893 124.682 30.7253 124.394 30.832C124.106 30.9333 123.81 31.0053 123.506 31.048C123.202 31.096 122.906 31.12 122.618 31.12C122.052 31.12 121.527 31.0267 121.042 30.84C120.562 30.648 120.143 30.368 119.786 30C119.434 29.632 119.156 29.176 118.954 28.632C118.756 28.088 118.658 27.4613 118.658 26.752C118.658 26.1867 118.746 25.6587 118.922 25.168C119.103 24.6773 119.359 24.2507 119.69 23.888C120.026 23.5253 120.431 23.24 120.906 23.032C121.386 22.8187 121.927 22.712 122.53 22.712C123.031 22.712 123.495 22.7947 123.922 22.96C124.348 23.12 124.716 23.3573 125.026 23.672C125.335 23.9867 125.575 24.3733 125.746 24.832C125.922 25.2853 126.01 25.8027 126.01 26.384C126.01 26.6507 125.98 26.8293 125.922 26.92C125.863 27.0107 125.756 27.056 125.602 27.056H120.362ZM129.322 23.92C129.498 23.7387 129.679 23.576 129.866 23.432C130.058 23.2827 130.26 23.1547 130.474 23.048C130.687 22.9413 130.914 22.8587 131.154 22.8C131.394 22.7413 131.655 22.712 131.938 22.712C132.386 22.712 132.778 22.7867 133.114 22.936C133.455 23.0853 133.74 23.296 133.97 23.568C134.204 23.84 134.38 24.168 134.498 24.552C134.615 24.9307 134.674 25.3493 134.674 25.808V31H132.962V25.808C132.962 25.2587 132.834 24.832 132.578 24.528C132.327 24.224 131.943 24.072 131.426 24.072C131.042 24.072 130.684 24.16 130.354 24.336C130.028 24.512 129.722 24.752 129.434 25.056V31H127.714V22.84H128.754C128.988 22.84 129.138 22.9493 129.202 23.168L129.322 23.92ZM139.289 31.128C138.612 31.128 138.089 30.9387 137.721 30.56C137.358 30.176 137.177 29.6373 137.177 28.944V24.192H136.281C136.185 24.192 136.102 24.1627 136.033 24.104C135.964 24.04 135.929 23.9467 135.929 23.824V23.128L137.249 22.936L137.625 20.576C137.652 20.4853 137.697 20.4133 137.761 20.36C137.825 20.3013 137.91 20.272 138.017 20.272H138.897V22.952H141.161V24.192H138.897V28.824C138.897 29.1173 138.969 29.3413 139.113 29.496C139.257 29.6507 139.449 29.728 139.689 29.728C139.822 29.728 139.937 29.712 140.033 29.68C140.129 29.6427 140.212 29.6053 140.281 29.568C140.35 29.5253 140.409 29.488 140.457 29.456C140.51 29.4187 140.561 29.4 140.609 29.4C140.705 29.4 140.782 29.4533 140.841 29.56L141.353 30.4C141.086 30.6347 140.772 30.816 140.409 30.944C140.046 31.0667 139.673 31.128 139.289 31.128ZM150.605 25.352C151.021 25.352 151.386 25.2987 151.701 25.192C152.021 25.0853 152.285 24.936 152.493 24.744C152.706 24.5467 152.866 24.3093 152.973 24.032C153.08 23.7547 153.133 23.4453 153.133 23.104C153.133 22.768 153.08 22.4667 152.973 22.2C152.872 21.9333 152.717 21.7067 152.509 21.52C152.301 21.3333 152.037 21.192 151.717 21.096C151.402 20.9947 151.032 20.944 150.605 20.944H148.893V25.352H150.605ZM150.605 19.48C151.357 19.48 152.008 19.568 152.557 19.744C153.112 19.92 153.568 20.168 153.925 20.488C154.288 20.8027 154.557 21.184 154.733 21.632C154.909 22.0747 154.997 22.5653 154.997 23.104C154.997 23.6533 154.904 24.1573 154.717 24.616C154.53 25.0693 154.253 25.4613 153.885 25.792C153.517 26.1173 153.058 26.3733 152.509 26.56C151.965 26.7413 151.33 26.832 150.605 26.832H148.893V31H147.021V19.48H150.605ZM158.05 24.352C158.306 23.8347 158.615 23.4293 158.978 23.136C159.341 22.8373 159.775 22.688 160.282 22.688C160.458 22.688 160.623 22.7093 160.778 22.752C160.933 22.7893 161.071 22.848 161.194 22.928L161.074 24.224C161.053 24.3147 161.018 24.3787 160.97 24.416C160.927 24.448 160.869 24.464 160.794 24.464C160.714 24.464 160.599 24.4507 160.45 24.424C160.301 24.392 160.143 24.376 159.978 24.376C159.738 24.376 159.525 24.4107 159.338 24.48C159.157 24.5493 158.991 24.6507 158.842 24.784C158.698 24.9173 158.57 25.08 158.458 25.272C158.346 25.464 158.242 25.6827 158.146 25.928V31H156.426V22.84H157.426C157.607 22.84 157.733 22.8747 157.802 22.944C157.871 23.008 157.919 23.1227 157.946 23.288L158.05 24.352ZM165.679 22.712C166.282 22.712 166.826 22.8107 167.311 23.008C167.802 23.2053 168.218 23.4853 168.559 23.848C168.906 24.2107 169.172 24.6507 169.359 25.168C169.546 25.6853 169.639 26.2667 169.639 26.912C169.639 27.5573 169.546 28.1387 169.359 28.656C169.172 29.1733 168.906 29.616 168.559 29.984C168.218 30.3467 167.802 30.6267 167.311 30.824C166.826 31.0213 166.282 31.12 165.679 31.12C165.071 31.12 164.522 31.0213 164.031 30.824C163.546 30.6267 163.13 30.3467 162.783 29.984C162.436 29.616 162.17 29.1733 161.983 28.656C161.796 28.1387 161.703 27.5573 161.703 26.912C161.703 26.2667 161.796 25.6853 161.983 25.168C162.17 24.6507 162.436 24.2107 162.783 23.848C163.13 23.4853 163.546 23.2053 164.031 23.008C164.522 22.8107 165.071 22.712 165.679 22.712ZM165.679 29.776C166.415 29.776 166.962 29.5307 167.319 29.04C167.682 28.544 167.863 27.8373 167.863 26.92C167.863 26.0027 167.682 25.296 167.319 24.8C166.962 24.2987 166.415 24.048 165.679 24.048C164.932 24.048 164.378 24.2987 164.015 24.8C163.652 25.296 163.471 26.0027 163.471 26.92C163.471 27.8373 163.652 28.544 164.015 29.04C164.378 29.5307 164.932 29.776 165.679 29.776ZM171.764 31V24.208L170.964 24.096C170.831 24.0693 170.722 24.0213 170.636 23.952C170.556 23.8827 170.516 23.784 170.516 23.656V22.952H171.764V22.608C171.764 22.1067 171.844 21.6453 172.004 21.224C172.164 20.8027 172.407 20.4373 172.732 20.128C173.058 19.8187 173.463 19.5787 173.948 19.408C174.439 19.232 175.012 19.144 175.668 19.144C175.882 19.144 176.1 19.1573 176.324 19.184C176.554 19.2107 176.748 19.2507 176.908 19.304L176.852 20.2C176.842 20.312 176.775 20.376 176.652 20.392C176.53 20.4027 176.367 20.408 176.164 20.408C175.668 20.408 175.247 20.456 174.9 20.552C174.554 20.6427 174.271 20.784 174.052 20.976C173.834 21.1627 173.674 21.3973 173.572 21.68C173.476 21.9573 173.428 22.2827 173.428 22.656V22.952H178.428V31H176.708V24.192H173.484V31H171.764ZM182.462 19.16V31H180.742V19.16H182.462ZM190.037 26C190.037 25.712 189.995 25.4453 189.909 25.2C189.829 24.9493 189.709 24.7333 189.549 24.552C189.389 24.3653 189.189 24.2213 188.949 24.12C188.715 24.0133 188.443 23.96 188.133 23.96C187.509 23.96 187.019 24.1387 186.661 24.496C186.304 24.8533 186.077 25.3547 185.981 26H190.037ZM185.933 27.056C185.955 27.52 186.027 27.9227 186.149 28.264C186.272 28.6 186.435 28.88 186.637 29.104C186.845 29.328 187.091 29.496 187.373 29.608C187.661 29.7147 187.981 29.768 188.333 29.768C188.669 29.768 188.96 29.7307 189.205 29.656C189.451 29.576 189.664 29.4907 189.845 29.4C190.027 29.304 190.181 29.2187 190.309 29.144C190.437 29.064 190.555 29.024 190.661 29.024C190.8 29.024 190.907 29.0773 190.981 29.184L191.469 29.816C191.267 30.056 191.037 30.2587 190.781 30.424C190.525 30.5893 190.253 30.7253 189.965 30.832C189.677 30.9333 189.381 31.0053 189.077 31.048C188.773 31.096 188.477 31.12 188.189 31.12C187.624 31.12 187.099 31.0267 186.613 30.84C186.133 30.648 185.715 30.368 185.357 30C185.005 29.632 184.728 29.176 184.525 28.632C184.328 28.088 184.229 27.4613 184.229 26.752C184.229 26.1867 184.317 25.6587 184.493 25.168C184.675 24.6773 184.931 24.2507 185.261 23.888C185.597 23.5253 186.003 23.24 186.477 23.032C186.957 22.8187 187.499 22.712 188.101 22.712C188.603 22.712 189.067 22.7947 189.493 22.96C189.92 23.12 190.288 23.3573 190.597 23.672C190.907 23.9867 191.147 24.3733 191.317 24.832C191.493 25.2853 191.581 25.8027 191.581 26.384C191.581 26.6507 191.552 26.8293 191.493 26.92C191.435 27.0107 191.328 27.056 191.173 27.056H185.933Z" fill="white"/>
</svg>
