<svg width="20" height="20" viewBox="0 0 20 20" fill="none" xmlns="http://www.w3.org/2000/svg">
<path d="M16.4283 10C16.0338 10 15.7141 10.3198 15.7141 10.7143V17.8571C15.7141 18.2516 15.3943 18.5713 14.9998 18.5713H2.14283C1.74833 18.5713 1.42854 18.2516 1.42854 17.8571V3.57154C1.42854 3.17704 1.74833 2.85725 2.14283 2.85725H10.7141C11.1086 2.85725 11.4284 2.53746 11.4284 2.14296C11.4284 1.74846 11.1086 1.42871 10.7141 1.42871H2.14283C0.959376 1.42871 0 2.38809 0 3.57154V17.8571C0 19.0405 0.959376 19.9999 2.14283 19.9999H14.9998C16.1833 19.9999 17.1426 19.0405 17.1426 17.8571V10.7143C17.1426 10.3198 16.8228 10 16.4283 10Z" fill="#6D3745"/>
<path d="M19.1994 0.801145C18.6866 0.288206 17.991 9.5443e-05 17.2656 0.000179147C16.5399 -0.00191346 15.8435 0.286699 15.3321 0.801606L5.92361 10.2093C5.84556 10.2879 5.78667 10.3835 5.75147 10.4886L4.32294 14.7742C4.19826 15.1485 4.40061 15.553 4.7749 15.6776C4.84751 15.7018 4.92356 15.7141 5.00006 15.7142C5.07673 15.7141 5.15295 15.7018 5.22577 15.6778L9.51143 14.2493C9.61669 14.2141 9.71232 14.1549 9.79071 14.0764L19.1991 4.66799C20.267 3.60026 20.2671 1.869 19.1994 0.801145Z" fill="#6D3745"/>
</svg>
