<svg width="23" height="23" viewBox="0 0 23 23" fill="none" xmlns="http://www.w3.org/2000/svg">
<g clip-path="url(#clip0)">
<path d="M5.98914 17.7591C4.45491 17.7591 3.0902 16.7768 2.59464 15.3143L2.56113 15.2041C2.44426 14.8168 2.3953 14.4912 2.3953 14.1653V7.6311L0.0703592 15.3919C-0.228659 16.5334 0.452731 17.7168 1.59599 18.0322L16.4151 22.0008C16.6001 22.0487 16.785 22.0717 16.9672 22.0717C17.9216 22.0717 18.7938 21.4382 19.0382 20.5047L19.9016 17.7591H5.98914Z" fill="#C1C1C1"/>
<path d="M8.62478 7.69609C9.68187 7.69609 10.5414 6.83641 10.5414 5.77932C10.5414 4.72223 9.68187 3.86255 8.62478 3.86255C7.56769 3.86255 6.70801 4.72223 6.70801 5.77932C6.70801 6.83641 7.56769 7.69609 8.62478 7.69609Z" fill="#C1C1C1"/>
<path d="M20.6042 0.987549H6.22884C4.90835 0.987549 3.83301 2.06289 3.83301 3.38356V13.9254C3.83301 15.246 4.90835 16.3214 6.22884 16.3214H20.6042C21.9249 16.3214 23.0002 15.246 23.0002 13.9254V3.38356C23.0002 2.06289 21.9249 0.987549 20.6042 0.987549ZM6.22884 2.90432H20.6042C20.8688 2.90432 21.0834 3.11893 21.0834 3.38356V10.1869L18.056 6.65434C17.7349 6.27776 17.2701 6.07648 16.7708 6.06507C16.2744 6.06788 15.8087 6.28828 15.4905 6.66978L11.9311 10.942L10.7715 9.78526C10.1161 9.12984 9.04934 9.12984 8.3948 9.78526L5.74978 12.4294V3.38356C5.74978 3.11893 5.96439 2.90432 6.22884 2.90432Z" fill="#C1C1C1"/>
</g>
<defs>
<clipPath id="clip0">
<rect width="23" height="23" fill="white"/>
</clipPath>
</defs>
</svg>
