<?xml version="1.0" encoding="UTF-8" standalone="no"?>
<svg
   xmlns:dc="http://purl.org/dc/elements/1.1/"
   xmlns:cc="http://creativecommons.org/ns#"
   xmlns:rdf="http://www.w3.org/1999/02/22-rdf-syntax-ns#"
   xmlns:svg="http://www.w3.org/2000/svg"
   xmlns="http://www.w3.org/2000/svg"
   id="svg906"
   version="1.1"
   viewBox="0 0 30 30"
   height="30mm"
   width="30mm">
  <defs
     id="defs900" />
  <metadata
     id="metadata903">
    <rdf:RDF>
      <cc:Work
         rdf:about="">
        <dc:format>image/svg+xml</dc:format>
        <dc:type
           rdf:resource="http://purl.org/dc/dcmitype/StillImage" />
        <dc:title></dc:title>
      </cc:Work>
    </rdf:RDF>
  </metadata>
  <g
     transform="translate(0,-267)"
     id="layer1">
    <path
       id="path819"
       style="fill:#d7b369;fill-rule:evenodd;stroke:#d7b369;stroke-width:0.1499923;stroke-linecap:butt;stroke-linejoin:miter;stroke-dasharray:none"
       d="m 12.549872,282.37182 c 0,0 -0.245428,-6.5851 6.585082,-7.36221 0,0 7.198624,-0.77714 7.81214,7.4849 0,0 0.501042,0.47038 0.879396,-0.0511 -0.409337,-10.88559 -15.842853,-11.1134 -16.176678,-0.0408 0,0 0.439685,0.40894 0.90006,-0.0308 z" />
    <path
       id="path821"
       style="fill:#844b3e;fill-rule:evenodd;stroke:#844b3e;stroke-width:0.1499923;stroke-linecap:butt;stroke-linejoin:miter;stroke-dasharray:none"
       d="m 4.6325334,282.90197 c 0,0 -0.245401,6.58511 6.5851086,7.36222 0,0 7.198598,0.77713 7.812114,-7.48491 0,0 0.501067,-0.47037 0.879422,0.0511 -0.409364,10.88559 -15.8428536,11.11343 -16.1766776,0.0408 0,0 0.439684,-0.40896 0.900033,0.0307 z" />
    <path
       id="path823"
       style="fill:#d7b369;fill-rule:evenodd;stroke:#d7b369;stroke-width:0.1499923;stroke-linecap:butt;stroke-linejoin:miter;stroke-dasharray:none"
       d="m 4.1826624,279.71879 a 1.0145977,1.0146506 0 0 1 1.014624,1.01465 1.0145977,1.0146506 0 1 1 -1.014624,-1.01465 z" />
    <path
       id="path825"
       style="fill:#d7b369;fill-rule:evenodd;stroke:#d7b369;stroke-width:0.1499923;stroke-linecap:butt;stroke-linejoin:miter;stroke-dasharray:none"
       d="m 19.461503,279.73139 a 1.0145977,1.0146506 0 0 1 1.014597,1.01465 1.0145977,1.0146506 0 1 1 -1.014597,-1.01465 z" />
  </g>
</svg>
