<svg width="14" height="18" viewBox="0 0 14 18" fill="none" xmlns="http://www.w3.org/2000/svg">
<path d="M1.64264 5.57184C1.40389 3.99934 2.51264 2.58684 4.20639 2.06934C4.50696 1.97744 4.83126 2.0036 5.11321 2.14249C5.39517 2.28138 5.61356 2.52254 5.72389 2.81684L6.26764 4.26684C6.35517 4.50011 6.371 4.75421 6.31309 4.99653C6.25518 5.23886 6.12618 5.45835 5.94264 5.62684L4.32514 7.10809C4.24541 7.18126 4.186 7.27383 4.1527 7.3768C4.1194 7.47976 4.11335 7.58959 4.13514 7.69559L4.15014 7.76059L4.18889 7.92309C4.39005 8.71265 4.69655 9.47154 5.10014 10.1793C5.53978 10.9315 6.08537 11.6164 6.72014 12.2131L6.77014 12.2581C6.85089 12.3298 6.94883 12.3793 7.05442 12.4019C7.16001 12.4244 7.26965 12.4193 7.37264 12.3868L9.46389 11.7281C9.70155 11.6535 9.95609 11.6516 10.1948 11.7226C10.4336 11.7937 10.6457 11.9344 10.8039 12.1268L11.7939 13.3281C12.2064 13.8281 12.1564 14.5631 11.6826 15.0043C10.3864 16.2131 8.60389 16.4606 7.36389 15.4643C5.84392 14.2383 4.56258 12.743 3.58389 11.0531C2.59725 9.36451 1.93822 7.50488 1.64139 5.57184H1.64264ZM5.44639 7.77809L6.78639 6.54809C7.15369 6.21126 7.41193 5.77234 7.52797 5.28768C7.64401 4.80302 7.61256 4.29474 7.43764 3.82809L6.89514 2.37809C6.67307 1.7859 6.23356 1.30067 5.66616 1.02126C5.09876 0.741862 4.44618 0.689319 3.84139 0.87434C1.73764 1.51809 0.048891 3.40434 0.406391 5.76059C0.656391 7.40559 1.23264 9.49809 2.50389 11.6831C3.55978 13.5052 4.94196 15.1175 6.58139 16.4393C8.44139 17.9331 10.9239 17.4231 12.5364 15.9206C13.4939 15.0281 13.5914 13.5456 12.7601 12.5356L11.7701 11.3331C11.4534 10.9487 11.0291 10.6677 10.5516 10.526C10.0741 10.3844 9.56523 10.3886 9.09014 10.5381L7.35389 11.0843C6.9056 10.6221 6.51293 10.1091 6.18389 9.55559C5.86604 8.99604 5.61834 8.39946 5.44639 7.77934V7.77809Z" fill="#6D3745"/>
</svg>
