<svg width="50" height="50" viewBox="0 0 50 50" fill="none" xmlns="http://www.w3.org/2000/svg">
<rect x="0.5" y="0.5" width="49" height="49" rx="24.5" fill="white" stroke="#6D3745"/>
<path d="M27.1362 34.7349L26.0522 35.8188C25.5933 36.2778 24.8511 36.2778 24.397 35.8188L14.9048 26.3315C14.4458 25.8726 14.4458 25.1304 14.9048 24.6763L24.397 15.1841C24.856 14.7251 25.5981 14.7251 26.0522 15.1841L27.1362 16.2681C27.6001 16.7319 27.5903 17.4888 27.1167 17.9429L21.2329 23.5483H35.2661C35.9155 23.5483 36.438 24.0708 36.438 24.7202V26.2827C36.438 26.9321 35.9155 27.4546 35.2661 27.4546H21.2329L27.1167 33.0601C27.5952 33.5142 27.605 34.271 27.1362 34.7349Z" fill="#6D3745"/>
</svg>
