<svg width="23" height="23" viewBox="0 0 23 23" fill="none" xmlns="http://www.w3.org/2000/svg">
<path d="M13.1362 20.7329L12.0522 21.8169C11.5933 22.2759 10.8511 22.2759 10.397 21.8169L0.904785 12.3296C0.445801 11.8706 0.445801 11.1284 0.904785 10.6743L10.397 1.18213C10.856 0.723145 11.5981 0.723145 12.0522 1.18213L13.1362 2.26611C13.6001 2.72998 13.5903 3.48682 13.1167 3.94092L7.23291 9.54639H21.2661C21.9155 9.54639 22.438 10.0688 22.438 10.7183V12.2808C22.438 12.9302 21.9155 13.4526 21.2661 13.4526H7.23291L13.1167 19.0581C13.5952 19.5122 13.605 20.269 13.1362 20.7329Z" fill="#6D3745"/>
</svg>
