<?xml version="1.0" encoding="UTF-8"?>
<!DOCTYPE svg PUBLIC "-//W3C//DTD SVG 1.1//EN" "http://www.w3.org/Graphics/SVG/1.1/DTD/svg11.dtd">
<!-- Creator: CorelDRAW 2021 (64-Bit Evaluation Version) -->
<svg xmlns="http://www.w3.org/2000/svg" xml:space="preserve" width="4.44306in" height="1.21823in" version="1.1" style="shape-rendering:geometricPrecision; text-rendering:geometricPrecision; image-rendering:optimizeQuality; fill-rule:evenodd; clip-rule:evenodd"
viewBox="0 0 1917.8 525.84"
 xmlns:xlink="http://www.w3.org/1999/xlink"
 xmlns:xodm="http://www.corel.com/coreldraw/odm/2003">
 <defs>
  <style type="text/css">
   <![CDATA[
    .str1 {stroke:#7C4B41;stroke-width:3.4;stroke-miterlimit:22.9256}
    .str0 {stroke:#D7B56D;stroke-width:3.4;stroke-miterlimit:22.9256}
    .fil1 {fill:#7C4B41}
    .fil0 {fill:#D7B56D}
    .fil2 {fill:#7C4B41;fill-rule:nonzero}
    .fil3 {fill:#D7B56D;fill-rule:nonzero}
   ]]>
  </style>
 </defs>
 <g id="Layer_x0020_1">
  <metadata id="CorelCorpID_0Corel-Layer"/>
  <path class="fil0 str0" d="M214.27 187.12c0,0 -5.56,-149.21 149.21,-166.81 0,0 163.11,-17.61 177.01,169.6 0,0 11.35,10.66 19.93,-1.16 -9.28,-246.65 -358.97,-251.81 -366.53,-0.92 0,0 9.96,9.27 20.39,-0.7z"/>
  <path class="fil1 str1" d="M34.88 199.13c0,0 -5.56,149.21 149.21,166.81 0,0 163.11,17.61 177.01,-169.6 0,0 11.35,-10.66 19.93,1.16 -9.28,246.65 -358.97,251.81 -366.53,0.92 0,0 9.96,-9.27 20.39,0.7z"/>
  <path class="fil0 str0" d="M24.69 127c12.7,0 22.99,10.29 22.99,22.99 0,12.7 -10.29,22.99 -22.99,22.99 -12.7,0 -22.99,-10.29 -22.99,-22.99 0,-12.7 10.29,-22.99 22.99,-22.99z"/>
  <path class="fil0 str0" d="M370.88 127.29c12.7,0 22.99,10.29 22.99,22.99 0,12.7 -10.29,22.99 -22.99,22.99 -12.7,0 -22.99,-10.29 -22.99,-22.99 0,-12.7 10.29,-22.99 22.99,-22.99z"/>
  <path class="fil2" d="M740.93 162.21c-7.86,0 -11.81,3.95 -11.81,11.81 0,7.86 3.95,11.81 11.81,11.81l106.26 0c31.47,0 47.23,-15.75 47.23,-47.23 0,-31.47 -15.75,-47.23 -47.23,-47.23l-70.84 0c-15.75,0 -23.61,-7.86 -23.61,-23.61 0,-15.72 7.86,-23.61 23.61,-23.61l106.26 0c7.86,0 11.81,-3.91 11.81,-11.81 0,-7.86 -3.95,-11.81 -11.81,-11.81l-106.26 0c-31.47,0 -47.23,15.75 -47.23,47.23 0,31.51 15.75,47.23 47.23,47.23l70.84 0c15.72,0 23.61,7.86 23.61,23.61 0,15.75 -7.9,23.61 -23.61,23.61l-106.26 0zm206.93 -100.09l0 111.9c0,7.86 -3.95,11.81 -11.81,11.81 -7.86,0 -11.81,-3.95 -11.81,-11.81l0 -141.68c0,-7.86 3.95,-11.81 11.81,-11.81 2.46,0 4.47,0.36 6.12,1.09l4.03 3.42 60.68 60.68 60.81 -60.68 3.87 -3.42c1.73,-0.73 3.79,-1.09 6.17,-1.09 7.86,0 11.81,3.95 11.81,11.81l0 141.68c0,7.86 -3.95,11.81 -11.81,11.81 -7.9,0 -11.81,-3.95 -11.81,-11.81l0 -111.9 -59.03 58.91 -59.03 -58.91zm171.51 -29.78c0,-7.86 3.95,-11.81 11.81,-11.81 7.86,0 11.81,3.95 11.81,11.81l0 141.68c0,7.86 -3.95,11.81 -11.81,11.81 -7.86,0 -11.81,-3.95 -11.81,-11.81l0 -141.68zm53.45 141.68l0 -141.68c0,-7.86 3.95,-11.81 11.81,-11.81 7.86,0 11.81,3.95 11.81,11.81l0 129.87 129.87 0c7.86,0 11.81,3.95 11.81,11.81 0,7.86 -3.95,11.81 -11.81,11.81l-141.68 0c-7.86,0 -11.81,-3.95 -11.81,-11.81zm195.13 -141.68c0,-7.86 3.95,-11.81 11.81,-11.81l141.68 0c7.86,0 11.81,3.95 11.81,11.81 0,7.9 -3.95,11.81 -11.81,11.81l-141.68 0c-7.86,0 -11.81,-3.91 -11.81,-11.81zm0 141.68c0,-7.86 3.95,-11.81 11.81,-11.81l141.68 0c7.86,0 11.81,3.95 11.81,11.81 0,7.86 -3.95,11.81 -11.81,11.81l-141.68 0c-7.86,0 -11.81,-3.95 -11.81,-11.81zm0 -70.84c0,-7.86 3.95,-11.81 11.81,-11.81l141.68 0c7.86,0 11.81,3.95 11.81,11.81 0,7.9 -3.95,11.81 -11.81,11.81l-141.68 0c-7.86,0 -11.81,-3.91 -11.81,-11.81z"/>
  <path class="fil1" d="M1377.67 21.46l0 0c5.93,0 10.77,4.85 10.77,10.77l0 142.82c0,5.93 -4.85,10.77 -10.77,10.77l-0 0c-5.93,0 -10.77,-4.85 -10.77,-10.77l0 -142.82c0,-5.93 4.85,-10.77 10.77,-10.77z"/>
  <path class="fil2" d="M552.7 382.58c-5.45,5.49 -10.94,5.49 -16.43,0 -5.53,-5.53 -5.53,-11.02 0,-16.47l136.66 -136.42c2.86,-3.58 6.56,-5.57 11.06,-5.97 7.48,0.08 11.25,3.86 11.33,11.33l0 1.95 0 138.21c0,7.75 -3.9,11.65 -11.65,11.65 -7.79,0 -11.65,-3.9 -11.65,-11.65l0 -111.76 -119.32 119.12zm174.09 -7.36l0 -139.84c0,-7.76 3.9,-11.65 11.65,-11.65 7.76,0 11.65,3.9 11.65,11.65l0 128.18 128.18 0c7.76,0 11.65,3.9 11.65,11.65 0,7.75 -3.9,11.65 -11.65,11.65l-139.84 0c-7.75,0 -11.65,-3.9 -11.65,-11.65zm194.62 -139.84c0,-7.76 3.9,-11.65 11.65,-11.65 7.76,0 11.65,3.9 11.65,11.65l0 139.84c0,7.75 -3.9,11.65 -11.65,11.65 -7.75,0 -11.65,-3.9 -11.65,-11.65l0 -139.84zm217.92 69.92c-1.27,24.46 -9.23,43.71 -23.9,57.67 -15.91,15.95 -35.16,23.9 -57.67,23.9 -22.55,0 -41.76,-7.95 -57.67,-23.9 -15.95,-15.91 -23.9,-35.12 -23.9,-57.67 0,-22.51 7.95,-41.76 23.9,-57.67 15.91,-15.91 35.12,-23.9 57.67,-23.9 22.51,0 42.16,7.84 58.94,23.43 6.09,6.17 10.3,12.37 12.73,18.65 3.62,7.76 1.55,13.44 -6.32,17.02 -7.2,1.63 -11.89,0.04 -14.08,-4.77 -1.79,-5.05 -5.13,-9.74 -10.02,-14 -11.41,-11.33 -25.18,-17.02 -41.24,-17.02 -16.11,0 -29.83,5.69 -41.2,17.1 -11.37,11.37 -17.06,25.1 -17.06,41.16 0,16.11 5.69,29.83 17.06,41.2 11.38,11.37 25.1,17.06 41.2,17.06 16.07,0 29.83,-5.73 41.24,-17.14 8.47,-8.47 13.96,-18.22 16.55,-29.23 0.08,-0.08 0.12,-0.16 0.12,-0.24l-57.91 0c-7.79,0 -11.65,-3.86 -11.65,-11.65 0,-7.76 3.86,-11.65 11.65,-11.65l69.92 0c7.76,0 11.65,3.9 11.65,11.65zm54.78 -40.53l0 110.45c0,7.75 -3.9,11.65 -11.65,11.65 -7.75,0 -11.65,-3.9 -11.65,-11.65l0 -139.84c0,-7.76 3.9,-11.65 11.65,-11.65 2.43,0 4.41,0.36 6.05,1.07l3.98 3.38 118.16 117.81 0 -110.61c0,-7.76 3.86,-11.65 11.65,-11.65 7.76,0 11.65,3.9 11.65,11.65l0 139.84c0,7.75 -3.9,11.65 -11.65,11.65 -2.19,0 -4.06,-0.32 -5.61,-0.91l-4.18 -3.26 -118.4 -117.93zm171.31 -29.39c0,-7.76 3.9,-11.65 11.65,-11.65l139.84 0c7.76,0 11.65,3.9 11.65,11.65 0,7.79 -3.9,11.65 -11.65,11.65l-139.84 0c-7.75,0 -11.65,-3.86 -11.65,-11.65zm0 139.84c0,-7.76 3.9,-11.65 11.65,-11.65l139.84 0c7.76,0 11.65,3.9 11.65,11.65 0,7.75 -3.9,11.65 -11.65,11.65l-139.84 0c-7.75,0 -11.65,-3.9 -11.65,-11.65zm0 -69.92c0,-7.76 3.9,-11.65 11.65,-11.65l139.84 0c7.76,0 11.65,3.9 11.65,11.65 0,7.79 -3.9,11.65 -11.65,11.65l-139.84 0c-7.75,0 -11.65,-3.86 -11.65,-11.65zm271.3 11.65l-53.37 0 0 58.27c0,7.75 -3.9,11.65 -11.65,11.65 -7.75,0 -11.65,-3.9 -11.65,-11.65l0 -139.84c0,-7.76 3.9,-11.65 11.65,-11.65l104.88 0c31.06,0 46.61,15.55 46.61,46.61 0,31.02 -15.55,46.53 -46.61,46.61l-7 0 49.52 49.4c5.53,5.45 5.53,10.94 0,16.43 -5.53,5.53 -10.98,5.53 -16.43,0l-65.94 -65.82zm39.85 -23.31c15.51,0 23.31,-7.76 23.31,-23.31 0,-15.51 -7.79,-23.31 -23.31,-23.31l-93.23 0 0 46.61 93.23 0zm89.74 69.92c-7.75,0 -11.65,3.9 -11.65,11.65 0,7.75 3.9,11.65 11.65,11.65l104.88 0c31.06,0 46.61,-15.55 46.61,-46.61 0,-31.06 -15.55,-46.61 -46.61,-46.61l-69.92 0c-15.55,0 -23.31,-7.76 -23.31,-23.31 0,-15.51 7.76,-23.31 23.31,-23.31l104.88 0c7.76,0 11.65,-3.86 11.65,-11.65 0,-7.76 -3.9,-11.65 -11.65,-11.65l-104.88 0c-31.06,0 -46.61,15.55 -46.61,46.61 0,31.1 15.55,46.61 46.61,46.61l69.92 0c15.51,0 23.31,7.76 23.31,23.31 0,15.55 -7.79,23.31 -23.31,23.31l-104.88 0z"/>
  <path class="fil1" d="M1375.1 223.49l0 0c5.93,0 10.77,4.85 10.77,10.77l0 140.85c0,5.92 -4.85,10.77 -10.77,10.77l-0 0c-5.93,0 -10.77,-4.85 -10.77,-10.77l0 -140.85c0,-5.93 4.85,-10.77 10.77,-10.77z"/>
  <path class="fil1" d="M638.24 324.74l55.6 0 0 24.33 -55.6 0c-6.63,0 -12.05,-5.42 -12.05,-12.05l0 -0.23c0,-6.63 5.42,-12.05 12.05,-12.05z"/>
  <path class="fil3" d="M682.31 464.47l0 9.3 -18.23 0 0 51.34 -11.28 0 0 -51.34 -18.32 0 0 -9.3 47.82 0zm79.62 60.69l-11.36 0 0 -26.49 -28.42 0 0 26.49 -11.36 0 0 -60.61 11.36 0 0 26.07 28.42 0 0 -26.07 11.36 0 0 60.61zm71.78 -60.61l0 8.97 -26.87 0 0 16.77 21.17 0 0 8.72 -21.17 0 0 17.1 26.87 0 0 9.05 -38.23 0 0 -60.61 38.23 0zm85.49 0l0 8.97 -26.87 0 0 16.77 21.17 0 0 8.72 -21.17 0 0 17.1 26.87 0 0 9.05 -38.23 0 0 -60.61 38.23 0zm45.63 29.42l-19.32 -29.42 11.23 0c0.78,0 1.36,0.1 1.7,0.31 0.35,0.21 0.66,0.56 0.94,1.03l13.79 22.26c0.14,-0.36 0.29,-0.73 0.46,-1.08 0.17,-0.35 0.36,-0.7 0.59,-1.06l12.62 -19.91c0.62,-1.03 1.41,-1.55 2.39,-1.55l10.81 0 -19.53 28.96 20.08 31.65 -11.27 0c-0.75,0 -1.36,-0.2 -1.82,-0.59 -0.46,-0.39 -0.85,-0.84 -1.16,-1.34l-14.04 -23.22c-0.11,0.34 -0.24,0.64 -0.38,0.94 -0.14,0.29 -0.28,0.57 -0.42,0.82l-13.45 21.46c-0.31,0.48 -0.68,0.91 -1.13,1.31 -0.45,0.41 -1.01,0.62 -1.68,0.62l-10.56 0 20.16 -31.18zm75.34 9.81l0 21.33 -11.28 0 0 -60.65 19.74 0c4.05,0 7.56,0.47 10.52,1.42 2.96,0.95 5.41,2.28 7.33,3.98 1.93,1.7 3.35,3.76 4.28,6.13 0.92,2.37 1.38,4.97 1.38,7.79 0,2.95 -0.49,5.63 -1.47,8.09 -0.98,2.44 -2.45,4.54 -4.4,6.31 -1.96,1.76 -4.4,3.13 -7.34,4.11 -2.93,0.98 -6.37,1.47 -10.31,1.47l-8.47 0zm0 -8.8l8.47 0c2.07,0 3.87,-0.27 5.41,-0.78 1.54,-0.52 2.81,-1.26 3.81,-2.22 1.01,-0.96 1.76,-2.14 2.26,-3.52 0.5,-1.4 0.75,-2.93 0.75,-4.65 0,-1.62 -0.25,-3.09 -0.75,-4.4 -0.5,-1.31 -1.26,-2.45 -2.26,-3.37 -1.01,-0.92 -2.28,-1.62 -3.81,-2.11 -1.54,-0.49 -3.34,-0.74 -5.41,-0.74l-8.47 0 0 21.8zm100.28 -30.43l0 8.97 -26.87 0 0 16.77 21.17 0 0 8.72 -21.17 0 0 17.1 26.87 0 0 9.05 -38.23 0 0 -60.61 38.23 0zm42.74 36.88l0 23.68 -11.28 0 0 -60.65 18.48 0c4.14,0 7.68,0.43 10.63,1.28 2.95,0.85 5.36,2.04 7.25,3.58 1.88,1.55 3.27,3.38 4.15,5.52 0.88,2.15 1.31,4.5 1.31,7.07 0,2.05 -0.29,3.98 -0.89,5.8 -0.6,1.82 -1.47,3.47 -2.6,4.95 -1.13,1.49 -2.53,2.79 -4.19,3.91 -1.66,1.12 -3.56,2.01 -5.69,2.68 1.43,0.81 2.65,1.97 3.69,3.48l15.17 22.38 -10.14 0c-0.98,0 -1.8,-0.2 -2.49,-0.59 -0.68,-0.39 -1.27,-0.95 -1.75,-1.68l-12.74 -19.41c-0.47,-0.73 -0.99,-1.24 -1.57,-1.55 -0.57,-0.31 -1.42,-0.46 -2.54,-0.46l-4.82 0zm0 -8.13l7.04 0c2.12,0 3.98,-0.27 5.56,-0.8 1.58,-0.53 2.88,-1.27 3.9,-2.21 1.02,-0.93 1.77,-2.04 2.28,-3.32 0.5,-1.29 0.75,-2.7 0.75,-4.23 0,-3.07 -1.01,-5.44 -3.03,-7.08 -2.03,-1.65 -5.13,-2.47 -9.29,-2.47l-7.21 0 0 20.12zm104.94 -28.84l0 9.3 -18.23 0 0 51.34 -11.28 0 0 -51.34 -18.32 0 0 -9.3 47.82 0zm35.32 -3.52c0.98,1.57 1.7,3.13 2.17,4.69 0.46,1.57 0.68,3.13 0.68,4.7 0,2.79 -0.7,5.46 -2.11,8.01 -1.41,2.54 -3.45,4.89 -6.11,7.04l-3.23 -1.97c-0.28,-0.17 -0.47,-0.38 -0.59,-0.62 -0.11,-0.24 -0.17,-0.46 -0.17,-0.68 0,-0.53 0.18,-0.98 0.55,-1.34 0.36,-0.42 0.75,-0.91 1.16,-1.45 0.41,-0.54 0.77,-1.15 1.1,-1.8 0.33,-0.66 0.61,-1.37 0.82,-2.15 0.21,-0.78 0.31,-1.62 0.31,-2.52 0,-0.95 -0.15,-1.97 -0.46,-3.05 -0.31,-1.08 -0.82,-2.21 -1.55,-3.41 -0.25,-0.36 -0.38,-0.74 -0.38,-1.13 0,-0.89 0.52,-1.52 1.55,-1.88l6.25 -2.43zm65.83 14.67c-0.31,0.61 -0.66,1.05 -1.06,1.3 -0.4,0.25 -0.89,0.38 -1.45,0.38 -0.56,0 -1.19,-0.22 -1.89,-0.66 -0.7,-0.43 -1.52,-0.91 -2.47,-1.44 -0.95,-0.53 -2.05,-1.02 -3.33,-1.45 -1.27,-0.43 -2.78,-0.64 -4.51,-0.64 -1.57,0 -2.92,0.18 -4.08,0.56 -1.16,0.38 -2.14,0.91 -2.93,1.58 -0.8,0.67 -1.4,1.47 -1.79,2.4 -0.39,0.94 -0.59,1.97 -0.59,3.09 0,1.41 0.4,2.6 1.2,3.55 0.8,0.95 1.84,1.76 3.16,2.43 1.31,0.67 2.81,1.27 4.48,1.8 1.68,0.53 3.4,1.1 5.14,1.7 1.75,0.59 3.45,1.28 5.13,2.08 1.68,0.8 3.17,1.8 4.48,3.02 1.31,1.22 2.38,2.71 3.17,4.46 0.8,1.76 1.19,3.9 1.19,6.41 0,2.74 -0.46,5.3 -1.4,7.68 -0.94,2.39 -2.31,4.47 -4.11,6.25 -1.8,1.77 -4.01,3.17 -6.61,4.19 -2.6,1.02 -5.57,1.52 -8.93,1.52 -1.93,0 -3.83,-0.2 -5.7,-0.57 -1.87,-0.38 -3.66,-0.91 -5.38,-1.61 -1.72,-0.7 -3.33,-1.54 -4.82,-2.52 -1.49,-0.98 -2.83,-2.07 -4.01,-3.27l3.27 -5.41c0.31,-0.39 0.68,-0.71 1.12,-0.98 0.43,-0.27 0.91,-0.4 1.44,-0.4 0.7,0 1.45,0.29 2.26,0.86 0.81,0.57 1.77,1.2 2.88,1.9 1.1,0.7 2.4,1.34 3.9,1.91 1.49,0.57 3.28,0.85 5.38,0.85 3.21,0 5.7,-0.77 7.46,-2.29 1.76,-1.52 2.64,-3.7 2.64,-6.55 0,-1.59 -0.39,-2.89 -1.19,-3.9 -0.8,-1.01 -1.86,-1.86 -3.17,-2.54 -1.31,-0.68 -2.81,-1.26 -4.48,-1.73 -1.68,-0.48 -3.38,-0.99 -5.11,-1.55 -1.73,-0.56 -3.44,-1.23 -5.11,-2.01 -1.68,-0.78 -3.17,-1.8 -4.48,-3.06 -1.31,-1.26 -2.36,-2.84 -3.16,-4.72 -0.8,-1.89 -1.2,-4.21 -1.2,-6.97 0,-2.21 0.45,-4.36 1.33,-6.45 0.88,-2.1 2.16,-3.95 3.86,-5.57 1.69,-1.62 3.76,-2.92 6.22,-3.9 2.46,-0.98 5.27,-1.47 8.43,-1.47 3.58,0 6.87,0.56 9.89,1.69 3.02,1.12 5.59,2.7 7.71,4.72l-2.77 5.32zm91.65 35.25c0.61,0 1.15,0.24 1.59,0.71l4.44 4.82c-2.46,3.05 -5.48,5.38 -9.07,7 -3.59,1.62 -7.91,2.43 -12.94,2.43 -4.5,0 -8.54,-0.77 -12.13,-2.31 -3.59,-1.54 -6.66,-3.67 -9.21,-6.41 -2.54,-2.74 -4.48,-6.01 -5.84,-9.81 -1.36,-3.8 -2.04,-7.95 -2.04,-12.45 0,-4.56 0.75,-8.73 2.26,-12.52 1.51,-3.79 3.63,-7.04 6.37,-9.78 2.74,-2.74 6.02,-4.88 9.84,-6.4 3.81,-1.52 8.02,-2.28 12.63,-2.28 4.5,0 8.44,0.73 11.81,2.16 3.37,1.45 6.25,3.37 8.65,5.76l-3.77 5.24c-0.22,0.33 -0.5,0.63 -0.85,0.88 -0.35,0.25 -0.84,0.38 -1.45,0.38 -0.64,0 -1.3,-0.25 -1.97,-0.75 -0.67,-0.5 -1.52,-1.05 -2.56,-1.63 -1.03,-0.59 -2.33,-1.13 -3.91,-1.63 -1.58,-0.5 -3.59,-0.75 -6.02,-0.75 -2.85,0 -5.46,0.49 -7.85,1.48 -2.39,0.99 -4.44,2.42 -6.16,4.26 -1.72,1.83 -3.06,4.08 -4.02,6.72 -0.96,2.63 -1.45,5.6 -1.45,8.89 0,3.41 0.49,6.44 1.45,9.1 0.96,2.65 2.26,4.88 3.91,6.69 1.65,1.82 3.59,3.21 5.83,4.18 2.24,0.97 4.64,1.44 7.21,1.44 1.54,0 2.93,-0.08 4.18,-0.25 1.24,-0.17 2.39,-0.43 3.44,-0.8 1.05,-0.36 2.04,-0.83 2.98,-1.4 0.93,-0.57 1.86,-1.28 2.78,-2.12 0.28,-0.25 0.57,-0.45 0.88,-0.6 0.31,-0.15 0.64,-0.24 1.01,-0.24zm87 14.29l-11.36 0 0 -26.49 -28.42 0 0 26.49 -11.36 0 0 -60.61 11.36 0 0 26.07 28.42 0 0 -26.07 11.36 0 0 60.61zm91.69 -30.3c0,4.44 -0.74,8.55 -2.22,12.34 -1.48,3.79 -3.56,7.07 -6.25,9.84 -2.68,2.77 -5.91,4.92 -9.68,6.47 -3.77,1.55 -7.95,2.33 -12.53,2.33 -4.58,0 -8.76,-0.78 -12.55,-2.33 -3.79,-1.55 -7.03,-3.7 -9.72,-6.47 -2.7,-2.77 -4.79,-6.05 -6.27,-9.84 -1.48,-3.79 -2.22,-7.89 -2.22,-12.34 0,-4.44 0.74,-8.56 2.22,-12.35 1.48,-3.79 3.58,-7.06 6.27,-9.82 2.7,-2.77 5.94,-4.93 9.72,-6.48 3.79,-1.55 7.96,-2.32 12.55,-2.32 4.58,0 8.76,0.78 12.53,2.35 3.77,1.57 7,3.72 9.68,6.47 2.68,2.75 4.77,6.02 6.25,9.81 1.48,3.79 2.22,7.91 2.22,12.35zm-11.57 0.01c0,-3.31 -0.43,-6.3 -1.31,-8.93 -0.88,-2.64 -2.15,-4.89 -3.8,-6.72 -1.65,-1.85 -3.65,-3.26 -6.01,-4.23 -2.36,-0.98 -5.03,-1.47 -7.99,-1.47 -2.96,0 -5.63,0.49 -8.01,1.47 -2.37,0.98 -4.39,2.39 -6.05,4.23 -1.66,1.83 -2.95,4.08 -3.84,6.72 -0.9,2.63 -1.34,5.62 -1.34,8.93 0,3.33 0.45,6.31 1.34,8.94 0.89,2.64 2.18,4.88 3.84,6.71 1.66,1.83 3.68,3.23 6.05,4.21 2.38,0.98 5.04,1.47 8.01,1.47 2.96,0 5.63,-0.49 7.99,-1.47 2.36,-0.98 4.36,-2.38 6.01,-4.21 1.65,-1.83 2.92,-4.07 3.8,-6.71 0.88,-2.63 1.31,-5.62 1.31,-8.94zm54.47 30.29l-11.32 0 0 -60.61 11.32 0 0 60.61zm76.6 -14.29c0.61,0 1.15,0.24 1.59,0.71l4.44 4.82c-2.46,3.05 -5.48,5.38 -9.07,7 -3.59,1.62 -7.91,2.43 -12.94,2.43 -4.5,0 -8.54,-0.77 -12.13,-2.31 -3.59,-1.54 -6.66,-3.67 -9.21,-6.41 -2.54,-2.74 -4.48,-6.01 -5.84,-9.81 -1.36,-3.8 -2.04,-7.95 -2.04,-12.45 0,-4.56 0.75,-8.73 2.26,-12.52 1.51,-3.79 3.63,-7.04 6.37,-9.78 2.74,-2.74 6.02,-4.88 9.84,-6.4 3.81,-1.52 8.02,-2.28 12.63,-2.28 4.5,0 8.44,0.73 11.81,2.16 3.37,1.45 6.25,3.37 8.65,5.76l-3.77 5.24c-0.22,0.33 -0.5,0.63 -0.85,0.88 -0.35,0.25 -0.84,0.38 -1.45,0.38 -0.64,0 -1.3,-0.25 -1.97,-0.75 -0.67,-0.5 -1.52,-1.05 -2.56,-1.63 -1.03,-0.59 -2.33,-1.13 -3.91,-1.63 -1.58,-0.5 -3.59,-0.75 -6.02,-0.75 -2.85,0 -5.46,0.49 -7.85,1.48 -2.39,0.99 -4.44,2.42 -6.16,4.26 -1.72,1.83 -3.06,4.08 -4.02,6.72 -0.96,2.63 -1.45,5.6 -1.45,8.89 0,3.41 0.49,6.44 1.45,9.1 0.96,2.65 2.26,4.88 3.91,6.69 1.65,1.82 3.59,3.21 5.83,4.18 2.24,0.97 4.64,1.44 7.21,1.44 1.54,0 2.93,-0.08 4.18,-0.25 1.24,-0.17 2.39,-0.43 3.44,-0.8 1.05,-0.36 2.04,-0.83 2.98,-1.4 0.93,-0.57 1.86,-1.28 2.78,-2.12 0.28,-0.25 0.57,-0.45 0.88,-0.6 0.31,-0.15 0.64,-0.24 1.01,-0.24zm74.09 -46.31l0 8.97 -26.87 0 0 16.77 21.17 0 0 8.72 -21.17 0 0 17.1 26.87 0 0 9.05 -38.23 0 0 -60.61 38.23 0z"/>
 </g>
</svg>
