<?xml version="1.0" encoding="UTF-8" standalone="no"?>
<svg
   xmlns:dc="http://purl.org/dc/elements/1.1/"
   xmlns:cc="http://creativecommons.org/ns#"
   xmlns:rdf="http://www.w3.org/1999/02/22-rdf-syntax-ns#"
   xmlns:svg="http://www.w3.org/2000/svg"
   xmlns="http://www.w3.org/2000/svg"
   id="svg1489"
   version="1.1"
   viewBox="0 0 80 30"
   height="30mm"
   width="80mm">
  <defs
     id="defs1483" />
  <metadata
     id="metadata1486">
    <rdf:RDF>
      <cc:Work
         rdf:about="">
        <dc:format>image/svg+xml</dc:format>
        <dc:type
           rdf:resource="http://purl.org/dc/dcmitype/StillImage" />
        <dc:title></dc:title>
      </cc:Work>
    </rdf:RDF>
  </metadata>
  <g
     transform="translate(0,-267)"
     id="layer1">
    <path
       id="path819"
       style="fill:#d7b369;fill-rule:evenodd;stroke:#d7b369;stroke-width:0.14999229;stroke-linecap:butt;stroke-linejoin:miter;stroke-dasharray:none"
       d="m 10.613795,279.2635 c 0,0 -0.245427,-6.5851 6.585083,-7.36221 0,0 7.198624,-0.77714 7.81214,7.4849 0,0 0.501042,0.47038 0.879396,-0.0511 -0.409337,-10.88559 -15.842854,-11.11339 -16.1766778,-0.0408 0,0 0.4396838,0.40894 0.9000588,-0.0308 z" />
    <path
       id="path821"
       style="fill:#844b3e;fill-rule:evenodd;stroke:#844b3e;stroke-width:0.14999229;stroke-linecap:butt;stroke-linejoin:miter;stroke-dasharray:none"
       d="m 2.6964562,279.79365 c 0,0 -0.245401,6.58511 6.585109,7.36222 0,0 7.1985988,0.77713 7.8121138,-7.48491 0,0 0.501068,-0.47037 0.879422,0.0511 -0.409363,10.88559 -15.8428528,11.11343 -16.1766778,0.0408 0,0 0.439685,-0.40897 0.900033,0.0307 z" />
    <path
       id="path823"
       style="fill:#d7b369;fill-rule:evenodd;stroke:#d7b369;stroke-width:0.14999229;stroke-linecap:butt;stroke-linejoin:miter;stroke-dasharray:none"
       d="m 2.2465852,276.61047 a 1.0145977,1.0146506 0 0 1 1.014624,1.01466 1.0145977,1.0146506 0 1 1 -1.014624,-1.01466 z" />
    <path
       id="path825"
       style="fill:#d7b369;fill-rule:evenodd;stroke:#d7b369;stroke-width:0.14999229;stroke-linecap:butt;stroke-linejoin:miter;stroke-dasharray:none"
       d="m 17.525426,276.62307 a 1.0145977,1.0146506 0 0 1 1.014598,1.01465 1.0145977,1.0146506 0 1 1 -1.014598,-1.01465 z" />
    <text
       style="font-size:3.17499995px;stroke-width:0.26458332"
       id="text829"
       y="279.20654"
       x="33.336052">
      <tspan
         id="tspan827"
         font-size="40.5000"
         style="font-size:10.71562481px;font-family:'Vermin Vibes 2 Soft';fill:#844b3e;stroke-width:0.26458332">SMILE</tspan>
    </text>
    <text
       style="font-size:3.17499995px;stroke-width:0.26458332"
       id="text835"
       y="288.14301"
       x="24.58078">
      <tspan
         id="tspan833"
         font-size="40.0000"
         style="font-size:10.58333302px;font-family:'Vermin Vibes 2 Soft';fill:#844b3e;stroke-width:0.26458332">ALIGNERS</tspan>
    </text>
    <text
       style="font-size:3.17499995px;stroke-width:0.26458332"
       id="text847"
       y="294.21268"
       x="29.159687">
      <tspan
         id="tspan841"
         font-size="14.0000"
         style="font-size:3.70416665px;font-family:Lato;fill:#d7b369;stroke-width:0.26458332">THE EXPERT</tspan>
      <tspan
         id="tspan843"
         font-size="14.0000"
         style="font-size:3.70416665px;font-family:Lato;fill:#d7b369;stroke-width:0.26458332">’</tspan>
      <tspan
         id="tspan845"
         font-size="14.0000"
         style="font-size:3.70416665px;font-family:Lato;fill:#d7b369;stroke-width:0.26458332">S CHOICE</tspan>
    </text>
  </g>
</svg>
