<svg width="103" height="37" viewBox="0 0 103 37" fill="none" xmlns="http://www.w3.org/2000/svg">
<path d="M0 18.5C0 8.28273 8.28273 0 18.5 0H84.5C94.7173 0 103 8.28273 103 18.5C103 28.7173 94.7173 37 84.5 37H18.5C8.28273 37 0 28.7173 0 18.5Z" fill="#385EE5" fill-opacity="0.2"/>
<circle cx="21" cy="17.5" r="5" fill="#385EE5"/>
<path d="M43.032 19.856C43.1067 19.984 43.1707 20.12 43.224 20.264C43.2827 20.4027 43.3387 20.544 43.392 20.688C43.4453 20.5387 43.5013 20.3973 43.56 20.264C43.6187 20.1253 43.6853 19.9867 43.76 19.848L47.64 12.8C47.7093 12.6773 47.7813 12.6027 47.856 12.576C47.9307 12.5493 48.0373 12.536 48.176 12.536H49.32V24H47.96V15.576C47.96 15.464 47.9627 15.344 47.968 15.216C47.9733 15.088 47.9813 14.9573 47.992 14.824L44.064 21.992C43.9307 22.232 43.744 22.352 43.504 22.352H43.28C43.04 22.352 42.8533 22.232 42.72 21.992L38.704 14.8C38.72 14.9387 38.7307 15.0747 38.736 15.208C38.7467 15.3413 38.752 15.464 38.752 15.576V24H37.392V12.536H38.536C38.6747 12.536 38.7813 12.5493 38.856 12.576C38.9307 12.6027 39.0027 12.6773 39.072 12.8L43.032 19.856ZM55.1668 15.768C55.7588 15.768 56.2921 15.8667 56.7668 16.064C57.2468 16.2613 57.6521 16.5413 57.9828 16.904C58.3188 17.2667 58.5748 17.7067 58.7508 18.224C58.9321 18.736 59.0228 19.3093 59.0228 19.944C59.0228 20.584 58.9321 21.16 58.7508 21.672C58.5748 22.184 58.3188 22.6213 57.9828 22.984C57.6521 23.3467 57.2468 23.6267 56.7668 23.824C56.2921 24.016 55.7588 24.112 55.1668 24.112C54.5748 24.112 54.0388 24.016 53.5588 23.824C53.0841 23.6267 52.6788 23.3467 52.3428 22.984C52.0068 22.6213 51.7481 22.184 51.5668 21.672C51.3854 21.16 51.2948 20.584 51.2948 19.944C51.2948 19.3093 51.3854 18.736 51.5668 18.224C51.7481 17.7067 52.0068 17.2667 52.3428 16.904C52.6788 16.5413 53.0841 16.2613 53.5588 16.064C54.0388 15.8667 54.5748 15.768 55.1668 15.768ZM55.1668 23C55.9668 23 56.5641 22.7333 56.9588 22.2C57.3534 21.6613 57.5508 20.912 57.5508 19.952C57.5508 18.9867 57.3534 18.2347 56.9588 17.696C56.5641 17.1573 55.9668 16.888 55.1668 16.888C54.7614 16.888 54.4094 16.9573 54.1108 17.096C53.8121 17.2347 53.5614 17.4347 53.3588 17.696C53.1614 17.9573 53.0121 18.28 52.9108 18.664C52.8148 19.0427 52.7668 19.472 52.7668 19.952C52.7668 20.432 52.8148 20.8613 52.9108 21.24C53.0121 21.6187 53.1614 21.9387 53.3588 22.2C53.5614 22.456 53.8121 22.6533 54.1108 22.792C54.4094 22.9307 54.7614 23 55.1668 23ZM66.4814 24C66.2787 24 66.1507 23.9013 66.0974 23.704L65.9694 22.72C65.6227 23.1413 65.2254 23.48 64.7774 23.736C64.3347 23.9867 63.8254 24.112 63.2494 24.112C62.7854 24.112 62.364 24.024 61.9854 23.848C61.6067 23.6667 61.284 23.4027 61.0174 23.056C60.7507 22.7093 60.5454 22.2773 60.4014 21.76C60.2574 21.2427 60.1854 20.648 60.1854 19.976C60.1854 19.3787 60.2654 18.824 60.4254 18.312C60.5854 17.7947 60.8147 17.3467 61.1134 16.968C61.4174 16.5893 61.7854 16.2933 62.2174 16.08C62.6494 15.8613 63.14 15.752 63.6894 15.752C64.1854 15.752 64.6094 15.8373 64.9614 16.008C65.3134 16.1733 65.628 16.408 65.9054 16.712V12.216H67.3294V24H66.4814ZM63.7214 22.96C64.1854 22.96 64.5907 22.8533 64.9374 22.64C65.2894 22.4267 65.612 22.1253 65.9054 21.736V17.816C65.644 17.464 65.356 17.2187 65.0414 17.08C64.732 16.936 64.388 16.864 64.0094 16.864C63.252 16.864 62.6707 17.1333 62.2654 17.672C61.86 18.2107 61.6574 18.9787 61.6574 19.976C61.6574 20.504 61.7027 20.9573 61.7934 21.336C61.884 21.7093 62.0174 22.0187 62.1934 22.264C62.3694 22.504 62.5854 22.68 62.8414 22.792C63.0974 22.904 63.3907 22.96 63.7214 22.96ZM71.2989 15.896V24H69.8749V15.896H71.2989ZM71.6189 13.352C71.6189 13.4907 71.5895 13.6213 71.5309 13.744C71.4775 13.8613 71.4029 13.968 71.3069 14.064C71.2162 14.1547 71.1095 14.2267 70.9869 14.28C70.8642 14.3333 70.7335 14.36 70.5949 14.36C70.4562 14.36 70.3255 14.3333 70.2029 14.28C70.0855 14.2267 69.9789 14.1547 69.8829 14.064C69.7922 13.968 69.7202 13.8613 69.6669 13.744C69.6135 13.6213 69.5869 13.4907 69.5869 13.352C69.5869 13.2133 69.6135 13.0827 69.6669 12.96C69.7202 12.832 69.7922 12.7227 69.8829 12.632C69.9789 12.536 70.0855 12.4613 70.2029 12.408C70.3255 12.3547 70.4562 12.328 70.5949 12.328C70.7335 12.328 70.8642 12.3547 70.9869 12.408C71.1095 12.4613 71.2162 12.536 71.3069 12.632C71.4029 12.7227 71.4775 12.832 71.5309 12.96C71.5895 13.0827 71.6189 13.2133 71.6189 13.352ZM74.1286 24V17.112L73.2326 17.008C73.1206 16.9813 73.0273 16.9413 72.9526 16.888C72.8833 16.8293 72.8486 16.7467 72.8486 16.64V16.056H74.1286V15.272C74.1286 14.808 74.1926 14.3973 74.3206 14.04C74.454 13.6773 74.6406 13.3733 74.8806 13.128C75.126 12.8773 75.4193 12.688 75.7606 12.56C76.102 12.432 76.486 12.368 76.9126 12.368C77.2753 12.368 77.6113 12.4213 77.9206 12.528L77.8886 13.24C77.8833 13.3467 77.838 13.4107 77.7526 13.432C77.6673 13.4533 77.5473 13.464 77.3926 13.464H77.1446C76.8993 13.464 76.6753 13.496 76.4726 13.56C76.2753 13.624 76.1046 13.728 75.9606 13.872C75.8166 14.016 75.7046 14.2053 75.6246 14.44C75.55 14.6747 75.5126 14.9653 75.5126 15.312V16.056H77.8566V17.088H75.5606V24H74.1286ZM81.5753 26.392C81.5273 26.4987 81.4659 26.584 81.3913 26.648C81.3219 26.712 81.2126 26.744 81.0633 26.744H80.0073L81.4873 23.528L78.1433 15.896H79.3753C79.4979 15.896 79.5939 15.928 79.6633 15.992C79.7326 16.0507 79.7833 16.1173 79.8153 16.192L81.9833 21.296C82.0313 21.4133 82.0713 21.5307 82.1033 21.648C82.1406 21.7653 82.1726 21.8853 82.1993 22.008C82.2366 21.8853 82.2739 21.7653 82.3113 21.648C82.3486 21.5307 82.3913 21.4107 82.4392 21.288L84.5433 16.192C84.5753 16.1067 84.6286 16.0373 84.7033 15.984C84.7833 15.9253 84.8686 15.896 84.9593 15.896H86.0953L81.5753 26.392Z" fill="#385EE5"/>
</svg>
