<svg width="20" height="20" viewBox="0 0 20 20" fill="none" xmlns="http://www.w3.org/2000/svg">
<path d="M9.16179 1.668C9.16179 2.588 8.41579 3.336 7.49379 3.336C6.57179 3.336 5.82579 2.59 5.82579 1.668C5.82579 0.746 6.57579 0 7.49579 0C8.41579 0 9.16179 0.748 9.16179 1.668ZM14.2418 15.32C13.9198 15.166 13.5358 15.302 13.3818 15.624C12.4858 17.496 10.5658 18.706 8.48979 18.706C5.50179 18.706 3.07179 16.276 3.07179 13.288C3.07179 11.592 3.84379 10.024 5.19179 8.988C5.47579 8.77 5.52779 8.366 5.30979 8.082C5.09379 7.8 4.68779 7.748 4.40579 7.964C2.73579 9.248 1.77979 11.188 1.77979 13.29C1.77979 16.988 4.78979 20 8.48979 20C11.0578 20 13.4358 18.5 14.5458 16.182C14.6998 15.86 14.5618 15.474 14.2418 15.32ZM18.1278 15.818L14.6518 10.242C14.4858 9.974 14.1578 9.912 13.8058 9.926H9.42979C9.25179 9.926 9.10779 9.906 9.10779 9.884L9.11179 9.844V9.134C9.11179 8.956 9.13979 8.818 9.17579 8.82C9.19579 8.822 9.21779 8.824 9.24179 8.824H13.0598C13.4898 8.824 13.8398 8.476 13.8398 8.044C13.8398 7.614 13.4918 7.264 13.0598 7.264H9.24179C9.21779 7.264 9.19779 7.266 9.17579 7.27C9.13979 7.272 9.11179 7.134 9.11179 6.956V5.132C9.11179 4.438 8.54779 3.876 7.85579 3.876H7.50779C6.81579 3.876 6.25379 4.438 6.25379 5.132V11.442C6.25379 12.134 6.81579 12.698 7.50779 12.698H13.5178C13.6958 12.698 13.9178 12.818 14.0178 12.966C14.6218 13.878 16.5558 16.8 16.5558 16.8C16.7878 17.174 17.3318 17.26 17.7658 16.988C18.1998 16.718 18.3618 16.194 18.1278 15.818Z" fill="#020202"/>
</svg>
