<svg width="21" height="21" viewBox="0 0 21 21" fill="none" xmlns="http://www.w3.org/2000/svg">
<path d="M5.25 0C4.52812 0 3.9375 0.590625 3.9375 1.3125V19.6875C3.9375 20.4094 4.52812 21 5.25 21H18.375C19.0969 21 19.6875 20.4094 19.6875 19.6875V5.25L14.4375 0H5.25Z" fill="#E2E5E7"/>
<path d="M15.75 5.25H19.6875L14.4375 0V3.9375C14.4375 4.65938 15.0281 5.25 15.75 5.25Z" fill="#B0B7BD"/>
<path d="M19.6875 9.1875L15.75 5.25H19.6875V9.1875Z" fill="#CAD1D8"/>
<path d="M17.0625 17.0625C17.0625 17.4234 16.7672 17.7188 16.4062 17.7188H1.96875C1.60781 17.7188 1.3125 17.4234 1.3125 17.0625V10.5C1.3125 10.1391 1.60781 9.84375 1.96875 9.84375H16.4062C16.7672 9.84375 17.0625 10.1391 17.0625 10.5V17.0625Z" fill="#6D3745"/>
<path d="M16.4062 17.7188H3.9375V18.375H16.4062C16.7672 18.375 17.0625 18.0797 17.0625 17.7188V17.0625C17.0625 17.4234 16.7672 17.7188 16.4062 17.7188Z" fill="#CAD1D8"/>
<path d="M4.398 13.672V12.616H4.956C5.364 12.616 5.538 12.82 5.538 13.144C5.538 13.468 5.364 13.672 4.956 13.672H4.398ZM6.582 13.144C6.582 12.37 6.066 11.788 5.034 11.788H3.372V16H4.398V14.488H5.034C6.108 14.488 6.582 13.84 6.582 13.144ZM9.79414 11.788H8.21614V16H9.79414C11.1381 16 12.0021 15.142 12.0021 13.894C12.0021 12.64 11.1381 11.788 9.79414 11.788ZM9.24214 15.112V12.664H9.72814C10.5021 12.664 10.9581 13.12 10.9581 13.894C10.9581 14.668 10.5021 15.112 9.72814 15.112H9.24214ZM13.6755 16H14.7015V14.296H15.9855V13.498H14.7015V12.61H16.4175V11.788H13.6755V16Z" fill="white"/>
</svg>
