<svg width="28" height="28" viewBox="0 0 28 28" fill="none" xmlns="http://www.w3.org/2000/svg">
<path d="M7 0C6.0375 0 5.25 0.7875 5.25 1.75V26.25C5.25 27.2125 6.0375 28 7 28H24.5C25.4625 28 26.25 27.2125 26.25 26.25V7L19.25 0H7Z" fill="#E2E5E7"/>
<path d="M21 7H26.25L19.25 0V5.25C19.25 6.2125 20.0375 7 21 7Z" fill="#B0B7BD"/>
<path d="M26.25 12.25L21 7H26.25V12.25Z" fill="#CAD1D8"/>
<path d="M22.75 22.75C22.75 23.2312 22.3563 23.625 21.875 23.625H2.625C2.14375 23.625 1.75 23.2312 1.75 22.75V14C1.75 13.5187 2.14375 13.125 2.625 13.125H21.875C22.3563 13.125 22.75 13.5187 22.75 14V22.75Z" fill="#6D3745"/>
<path d="M21.875 23.625H5.25V24.5H21.875C22.3563 24.5 22.75 24.1063 22.75 23.625V22.75C22.75 23.2313 22.3563 23.625 21.875 23.625Z" fill="#CAD1D8"/>
<path d="M6.01244 17.896V16.488H6.75644C7.30044 16.488 7.53244 16.76 7.53244 17.192C7.53244 17.624 7.30044 17.896 6.75644 17.896H6.01244ZM8.92444 17.192C8.92444 16.16 8.23644 15.384 6.86044 15.384H4.64444V21H6.01244V18.984H6.86044C8.29244 18.984 8.92444 18.12 8.92444 17.192ZM12.8406 15.384H10.7366V21H12.8406C14.6326 21 15.7846 19.856 15.7846 18.192C15.7846 16.52 14.6326 15.384 12.8406 15.384ZM12.1046 19.816V16.552H12.7526C13.7846 16.552 14.3926 17.16 14.3926 18.192C14.3926 19.224 13.7846 19.816 12.7526 19.816H12.1046ZM17.6491 21H19.0171V18.728H20.7291V17.664H19.0171V16.48H21.3051V15.384H17.6491V21Z" fill="white"/>
</svg>
