<svg width="109" height="37" viewBox="0 0 109 37" fill="none" xmlns="http://www.w3.org/2000/svg">
<path d="M0 18.5C0 8.28273 8.28273 0 18.5 0H90.5C100.717 0 109 8.28273 109 18.5C109 28.7173 100.717 37 90.5 37H18.5C8.28273 37 0 28.7173 0 18.5Z" fill="#FFA827" fill-opacity="0.2"/>
<circle cx="21" cy="17.5" r="5" fill="#FFA827"/>
<path d="M40.848 18.48C41.2907 18.48 41.68 18.4213 42.016 18.304C42.3573 18.1867 42.6427 18.024 42.872 17.816C43.1067 17.6027 43.2827 17.3493 43.4 17.056C43.5173 16.7627 43.576 16.44 43.576 16.088C43.576 15.3573 43.3493 14.7867 42.896 14.376C42.448 13.9653 41.7653 13.76 40.848 13.76H39.008V18.48H40.848ZM40.848 12.536C41.5733 12.536 42.2027 12.6213 42.736 12.792C43.2747 12.9573 43.72 13.1947 44.072 13.504C44.424 13.8133 44.6853 14.1867 44.856 14.624C45.032 15.0613 45.12 15.5493 45.12 16.088C45.12 16.6213 45.0267 17.1093 44.84 17.552C44.6533 17.9947 44.3787 18.376 44.016 18.696C43.6587 19.016 43.2133 19.2667 42.68 19.448C42.152 19.624 41.5413 19.712 40.848 19.712H39.008V24H37.464V12.536H40.848ZM51.7395 19.064C51.7395 18.7333 51.6915 18.432 51.5955 18.16C51.5048 17.8827 51.3688 17.6453 51.1875 17.448C51.0115 17.2453 50.7955 17.0907 50.5395 16.984C50.2835 16.872 49.9928 16.816 49.6675 16.816C48.9848 16.816 48.4435 17.016 48.0435 17.416C47.6488 17.8107 47.4035 18.36 47.3075 19.064H51.7395ZM52.8915 22.864C52.7155 23.0773 52.5048 23.264 52.2595 23.424C52.0142 23.5787 51.7502 23.7067 51.4675 23.808C51.1902 23.9093 50.9022 23.984 50.6035 24.032C50.3048 24.0853 50.0088 24.112 49.7155 24.112C49.1555 24.112 48.6382 24.0187 48.1635 23.832C47.6942 23.64 47.2862 23.3627 46.9395 23C46.5982 22.632 46.3315 22.1787 46.1395 21.64C45.9475 21.1013 45.8515 20.4827 45.8515 19.784C45.8515 19.2187 45.9368 18.6907 46.1075 18.2C46.2835 17.7093 46.5342 17.2853 46.8595 16.928C47.1848 16.5653 47.5822 16.2827 48.0515 16.08C48.5208 15.872 49.0488 15.768 49.6355 15.768C50.1208 15.768 50.5688 15.8507 50.9795 16.016C51.3955 16.176 51.7528 16.4107 52.0515 16.72C52.3555 17.024 52.5928 17.4027 52.7635 17.856C52.9342 18.304 53.0195 18.816 53.0195 19.392C53.0195 19.616 52.9955 19.7653 52.9475 19.84C52.8995 19.9147 52.8088 19.952 52.6755 19.952H47.2595C47.2755 20.464 47.3448 20.9093 47.4675 21.288C47.5955 21.6667 47.7715 21.984 47.9955 22.24C48.2195 22.4907 48.4862 22.68 48.7955 22.808C49.1048 22.9307 49.4515 22.992 49.8355 22.992C50.1928 22.992 50.4995 22.952 50.7555 22.872C51.0168 22.7867 51.2408 22.696 51.4275 22.6C51.6142 22.504 51.7688 22.416 51.8915 22.336C52.0195 22.2507 52.1288 22.208 52.2195 22.208C52.3368 22.208 52.4275 22.2533 52.4915 22.344L52.8915 22.864ZM56.1126 17.072C56.2886 16.8747 56.4753 16.696 56.6726 16.536C56.87 16.376 57.078 16.24 57.2966 16.128C57.5206 16.0107 57.7553 15.9227 58.0006 15.864C58.2513 15.8 58.5206 15.768 58.8086 15.768C59.2513 15.768 59.6406 15.8427 59.9766 15.992C60.318 16.136 60.6006 16.344 60.8246 16.616C61.054 16.8827 61.2273 17.2053 61.3446 17.584C61.462 17.9627 61.5206 18.3813 61.5206 18.84V24H60.0886V18.84C60.0886 18.2267 59.9473 17.752 59.6646 17.416C59.3873 17.0747 58.9633 16.904 58.3926 16.904C57.9713 16.904 57.5766 17.0053 57.2086 17.208C56.846 17.4107 56.51 17.6853 56.2006 18.032V24H54.7686V15.896H55.6246C55.8273 15.896 55.9526 15.9947 56.0006 16.192L56.1126 17.072ZM68.9705 17.824C68.7038 17.4667 68.4158 17.2187 68.1065 17.08C67.7972 16.936 67.4505 16.864 67.0665 16.864C66.3145 16.864 65.7358 17.1333 65.3305 17.672C64.9252 18.2107 64.7225 18.9787 64.7225 19.976C64.7225 20.504 64.7678 20.9573 64.8585 21.336C64.9492 21.7093 65.0825 22.0187 65.2585 22.264C65.4345 22.504 65.6505 22.68 65.9065 22.792C66.1625 22.904 66.4532 22.96 66.7785 22.96C67.2478 22.96 67.6558 22.8533 68.0025 22.64C68.3545 22.4267 68.6772 22.1253 68.9705 21.736V17.824ZM70.3945 12.216V24H69.5465C69.3438 24 69.2158 23.9013 69.1625 23.704L69.0345 22.72C68.6878 23.136 68.2932 23.472 67.8505 23.728C67.4078 23.984 66.8958 24.112 66.3145 24.112C65.8505 24.112 65.4292 24.024 65.0505 23.848C64.6718 23.6667 64.3492 23.4027 64.0825 23.056C63.8158 22.7093 63.6105 22.2773 63.4665 21.76C63.3225 21.2427 63.2505 20.648 63.2505 19.976C63.2505 19.3787 63.3305 18.824 63.4905 18.312C63.6505 17.7947 63.8798 17.3467 64.1785 16.968C64.4772 16.5893 64.8425 16.2933 65.2745 16.08C65.7118 15.8613 66.2025 15.752 66.7465 15.752C67.2425 15.752 67.6665 15.8373 68.0185 16.008C68.3758 16.1733 68.6932 16.4053 68.9705 16.704V12.216H70.3945ZM74.1476 15.896V24H72.7236V15.896H74.1476ZM74.4516 13.352C74.4516 13.4907 74.4223 13.6213 74.3636 13.744C74.3103 13.8613 74.2356 13.968 74.1396 14.064C74.049 14.1547 73.9396 14.2267 73.8116 14.28C73.689 14.3333 73.5583 14.36 73.4196 14.36C73.281 14.36 73.1503 14.3333 73.0276 14.28C72.9103 14.2267 72.8063 14.1547 72.7156 14.064C72.625 13.968 72.553 13.8613 72.4996 13.744C72.4463 13.6213 72.4196 13.4907 72.4196 13.352C72.4196 13.2133 72.4463 13.0827 72.4996 12.96C72.553 12.832 72.625 12.7227 72.7156 12.632C72.8063 12.536 72.9103 12.4613 73.0276 12.408C73.1503 12.3547 73.281 12.328 73.4196 12.328C73.5583 12.328 73.689 12.3547 73.8116 12.408C73.9396 12.4613 74.049 12.536 74.1396 12.632C74.2356 12.7227 74.3103 12.832 74.3636 12.96C74.4223 13.0827 74.4516 13.2133 74.4516 13.352ZM77.8314 17.072C78.0074 16.8747 78.194 16.696 78.3914 16.536C78.5887 16.376 78.7967 16.24 79.0154 16.128C79.2394 16.0107 79.474 15.9227 79.7194 15.864C79.97 15.8 80.2394 15.768 80.5274 15.768C80.97 15.768 81.3594 15.8427 81.6954 15.992C82.0367 16.136 82.3194 16.344 82.5434 16.616C82.7727 16.8827 82.946 17.2053 83.0634 17.584C83.1807 17.9627 83.2394 18.3813 83.2394 18.84V24H81.8074V18.84C81.8074 18.2267 81.666 17.752 81.3834 17.416C81.106 17.0747 80.682 16.904 80.1114 16.904C79.69 16.904 79.2954 17.0053 78.9274 17.208C78.5647 17.4107 78.2287 17.6853 77.9194 18.032V24H76.4874V15.896H77.3434C77.546 15.896 77.6714 15.9947 77.7194 16.192L77.8314 17.072ZM88.2333 20.04C88.5213 20.04 88.7746 20 88.9933 19.92C89.2119 19.84 89.3959 19.728 89.5453 19.584C89.6946 19.44 89.8066 19.2693 89.8813 19.072C89.9559 18.8693 89.9933 18.648 89.9933 18.408C89.9933 17.912 89.8413 17.5173 89.5373 17.224C89.2386 16.9307 88.8039 16.784 88.2333 16.784C87.6573 16.784 87.2173 16.9307 86.9133 17.224C86.6146 17.5173 86.4653 17.912 86.4653 18.408C86.4653 18.648 86.5026 18.8693 86.5773 19.072C86.6573 19.2693 86.7719 19.44 86.9213 19.584C87.0706 19.728 87.2546 19.84 87.4733 19.92C87.6919 20 87.9453 20.04 88.2333 20.04ZM90.8013 24.44C90.8013 24.2427 90.7453 24.0827 90.6333 23.96C90.5213 23.8373 90.3693 23.7413 90.1773 23.672C89.9906 23.6027 89.7719 23.5547 89.5213 23.528C89.2706 23.496 89.0039 23.472 88.7213 23.456C88.4439 23.44 88.1613 23.424 87.8733 23.408C87.5853 23.392 87.3079 23.3653 87.0413 23.328C86.7426 23.4667 86.4973 23.6427 86.3053 23.856C86.1186 24.064 86.0253 24.3093 86.0253 24.592C86.0253 24.7733 86.0706 24.9413 86.1613 25.096C86.2573 25.256 86.4013 25.392 86.5933 25.504C86.7853 25.6213 87.0253 25.712 87.3133 25.776C87.6066 25.8453 87.9506 25.88 88.3453 25.88C88.7293 25.88 89.0733 25.8453 89.3773 25.776C89.6813 25.7067 89.9373 25.608 90.1453 25.48C90.3586 25.352 90.5213 25.2 90.6333 25.024C90.7453 24.848 90.8013 24.6533 90.8013 24.44ZM92.2493 16.216V16.744C92.2493 16.92 92.1373 17.032 91.9133 17.08L90.9933 17.2C91.1746 17.552 91.2653 17.9413 91.2653 18.368C91.2653 18.7627 91.1879 19.1227 91.0333 19.448C90.8839 19.768 90.6759 20.0427 90.4093 20.272C90.1426 20.5013 89.8226 20.6773 89.4493 20.8C89.0759 20.9227 88.6706 20.984 88.2333 20.984C87.8546 20.984 87.4973 20.9387 87.1613 20.848C86.9906 20.9547 86.8599 21.0693 86.7693 21.192C86.6786 21.3093 86.6332 21.4293 86.6332 21.552C86.6332 21.744 86.7106 21.8907 86.8653 21.992C87.0253 22.088 87.2333 22.1573 87.4893 22.2C87.7453 22.2427 88.0359 22.2693 88.3613 22.28C88.6919 22.2907 89.0279 22.3093 89.3693 22.336C89.7159 22.3573 90.0519 22.3973 90.3773 22.456C90.7079 22.5147 91.0013 22.6107 91.2573 22.744C91.5133 22.8773 91.7186 23.0613 91.8733 23.296C92.0333 23.5307 92.1133 23.8347 92.1133 24.208C92.1133 24.5547 92.0253 24.8907 91.8493 25.216C91.6786 25.5413 91.4306 25.8293 91.1053 26.08C90.7799 26.336 90.3799 26.5387 89.9053 26.688C89.4359 26.8427 88.9053 26.92 88.3133 26.92C87.7213 26.92 87.2039 26.8613 86.7613 26.744C86.3186 26.6267 85.9506 26.4693 85.6573 26.272C85.3639 26.0747 85.1426 25.8453 84.9933 25.584C84.8493 25.328 84.7773 25.0587 84.7773 24.776C84.7773 24.376 84.9026 24.0373 85.1533 23.76C85.4039 23.4827 85.7479 23.2613 86.1853 23.096C85.9453 22.9893 85.7533 22.848 85.6093 22.672C85.4706 22.4907 85.4013 22.248 85.4013 21.944C85.4013 21.8267 85.4226 21.7067 85.4653 21.584C85.5079 21.456 85.5719 21.3307 85.6573 21.208C85.7479 21.08 85.8573 20.96 85.9853 20.848C86.1133 20.736 86.2626 20.6373 86.4333 20.552C86.0333 20.328 85.7213 20.032 85.4973 19.664C85.2733 19.2907 85.1613 18.8587 85.1613 18.368C85.1613 17.9733 85.2359 17.616 85.3853 17.296C85.5399 16.9707 85.7533 16.696 86.0253 16.472C86.2973 16.2427 86.6199 16.0667 86.9933 15.944C87.3719 15.8213 87.7853 15.76 88.2333 15.76C88.5853 15.76 88.9133 15.8 89.2173 15.88C89.5213 15.9547 89.7986 16.0667 90.0493 16.216H92.2493Z" fill="#FFA827"/>
</svg>
