<svg width="119" height="37" viewBox="0 0 119 37" fill="none" xmlns="http://www.w3.org/2000/svg">
<path d="M0 18.5C0 8.28273 8.28273 0 18.5 0H100.5C110.717 0 119 8.28273 119 18.5C119 28.7173 110.717 37 100.5 37H18.5C8.28273 37 0 28.7173 0 18.5Z" fill="#FFC2C2"/>
<path d="M30.5 10.5H17.5C16.6719 10.5 16 11.1719 16 12V23C16 23.8281 16.6719 24.5 17.5 24.5H30.5C31.3281 24.5 32 23.8281 32 23V12C32 11.1719 31.3281 10.5 30.5 10.5ZM27.8875 19.5781C28.0375 19.7281 28.0375 19.9719 27.8875 20.1219L26.6219 21.3875C26.4719 21.5375 26.2281 21.5375 26.0781 21.3875L24 19.2906L21.9219 21.3875C21.7719 21.5375 21.5281 21.5375 21.3781 21.3875L20.1125 20.1219C19.9625 19.9719 19.9625 19.7281 20.1125 19.5781L22.2094 17.5L20.1125 15.4219C19.9625 15.2719 19.9625 15.0281 20.1125 14.8781L21.3781 13.6125C21.5281 13.4625 21.7719 13.4625 21.9219 13.6125L24 15.7094L26.0781 13.6125C26.2281 13.4625 26.4719 13.4625 26.6219 13.6125L27.8875 14.8781C28.0375 15.0281 28.0375 15.2719 27.8875 15.4219L25.7906 17.5L27.8875 19.5781Z" fill="#FF0000"/>
<path d="M46.64 18.088C47.088 18.088 47.4827 18.0347 47.824 17.928C48.1707 17.816 48.4587 17.6613 48.688 17.464C48.9227 17.2613 49.0987 17.0213 49.216 16.744C49.3333 16.4667 49.392 16.16 49.392 15.824C49.392 15.1413 49.168 14.6267 48.72 14.28C48.272 13.9333 47.6 13.76 46.704 13.76H45.008V18.088H46.64ZM51.936 24H50.56C50.2773 24 50.0693 23.8907 49.936 23.672L46.96 19.576C46.8693 19.448 46.7707 19.3573 46.664 19.304C46.5627 19.2453 46.4027 19.216 46.184 19.216H45.008V24H43.464V12.536H46.704C47.4293 12.536 48.056 12.6107 48.584 12.76C49.112 12.904 49.5467 13.1147 49.888 13.392C50.2347 13.6693 50.4907 14.0053 50.656 14.4C50.8213 14.7893 50.904 15.2267 50.904 15.712C50.904 16.1173 50.84 16.496 50.712 16.848C50.584 17.2 50.3973 17.5173 50.152 17.8C49.912 18.0773 49.616 18.3147 49.264 18.512C48.9173 18.7093 48.5227 18.8587 48.08 18.96C48.2773 19.072 48.448 19.2347 48.592 19.448L51.936 24ZM58.0676 19.064C58.0676 18.7333 58.0196 18.432 57.9236 18.16C57.833 17.8827 57.697 17.6453 57.5156 17.448C57.3396 17.2453 57.1236 17.0907 56.8676 16.984C56.6116 16.872 56.321 16.816 55.9956 16.816C55.313 16.816 54.7716 17.016 54.3716 17.416C53.977 17.8107 53.7316 18.36 53.6356 19.064H58.0676ZM59.2196 22.864C59.0436 23.0773 58.833 23.264 58.5876 23.424C58.3423 23.5787 58.0783 23.7067 57.7956 23.808C57.5183 23.9093 57.2303 23.984 56.9316 24.032C56.633 24.0853 56.337 24.112 56.0436 24.112C55.4836 24.112 54.9663 24.0187 54.4916 23.832C54.0223 23.64 53.6143 23.3627 53.2676 23C52.9263 22.632 52.6596 22.1787 52.4676 21.64C52.2756 21.1013 52.1796 20.4827 52.1796 19.784C52.1796 19.2187 52.265 18.6907 52.4356 18.2C52.6116 17.7093 52.8623 17.2853 53.1876 16.928C53.513 16.5653 53.9103 16.2827 54.3796 16.08C54.849 15.872 55.377 15.768 55.9636 15.768C56.449 15.768 56.897 15.8507 57.3076 16.016C57.7236 16.176 58.081 16.4107 58.3796 16.72C58.6836 17.024 58.921 17.4027 59.0916 17.856C59.2623 18.304 59.3476 18.816 59.3476 19.392C59.3476 19.616 59.3236 19.7653 59.2756 19.84C59.2276 19.9147 59.137 19.952 59.0036 19.952H53.5876C53.6036 20.464 53.673 20.9093 53.7956 21.288C53.9236 21.6667 54.0996 21.984 54.3236 22.24C54.5476 22.4907 54.8143 22.68 55.1236 22.808C55.433 22.9307 55.7796 22.992 56.1636 22.992C56.521 22.992 56.8276 22.952 57.0836 22.872C57.345 22.7867 57.569 22.696 57.7556 22.6C57.9423 22.504 58.097 22.416 58.2196 22.336C58.3476 22.2507 58.457 22.208 58.5476 22.208C58.665 22.208 58.7556 22.2533 58.8196 22.344L59.2196 22.864ZM62.6008 15.896V24.6C62.6008 24.9253 62.5581 25.2267 62.4728 25.504C62.3874 25.7867 62.2514 26.032 62.0648 26.24C61.8781 26.448 61.6381 26.6107 61.3448 26.728C61.0568 26.8507 60.7101 26.912 60.3048 26.912C60.1341 26.912 59.9768 26.8987 59.8327 26.872C59.6887 26.8453 59.5447 26.8053 59.4007 26.752L59.4567 25.984C59.4674 25.936 59.4861 25.8987 59.5127 25.872C59.5341 25.8507 59.5661 25.8373 59.6087 25.832C59.6514 25.8267 59.7074 25.824 59.7767 25.824C59.8407 25.8293 59.9234 25.832 60.0248 25.832C60.4408 25.832 60.7368 25.7333 60.9128 25.536C61.0888 25.344 61.1768 25.032 61.1768 24.6V15.896H62.6008ZM62.8968 13.352C62.8968 13.4907 62.8674 13.6213 62.8088 13.744C62.7554 13.8613 62.6808 13.968 62.5848 14.064C62.4941 14.1547 62.3874 14.2267 62.2648 14.28C62.1421 14.3333 62.0114 14.36 61.8728 14.36C61.7341 14.36 61.6034 14.3333 61.4808 14.28C61.3634 14.2267 61.2594 14.1547 61.1688 14.064C61.0781 13.968 61.0061 13.8613 60.9528 13.744C60.8994 13.6213 60.8728 13.4907 60.8728 13.352C60.8728 13.2133 60.8994 13.0827 60.9528 12.96C61.0061 12.832 61.0781 12.7227 61.1688 12.632C61.2594 12.536 61.3634 12.4613 61.4808 12.408C61.6034 12.3547 61.7341 12.328 61.8728 12.328C62.0114 12.328 62.1421 12.3547 62.2648 12.408C62.3874 12.4613 62.4941 12.536 62.5848 12.632C62.6808 12.7227 62.7554 12.832 62.8088 12.96C62.8674 13.0827 62.8968 13.2133 62.8968 13.352ZM70.3645 19.064C70.3645 18.7333 70.3165 18.432 70.2205 18.16C70.1298 17.8827 69.9938 17.6453 69.8125 17.448C69.6365 17.2453 69.4205 17.0907 69.1645 16.984C68.9085 16.872 68.6178 16.816 68.2925 16.816C67.6098 16.816 67.0685 17.016 66.6685 17.416C66.2738 17.8107 66.0285 18.36 65.9325 19.064H70.3645ZM71.5165 22.864C71.3405 23.0773 71.1298 23.264 70.8845 23.424C70.6392 23.5787 70.3752 23.7067 70.0925 23.808C69.8152 23.9093 69.5272 23.984 69.2285 24.032C68.9298 24.0853 68.6338 24.112 68.3405 24.112C67.7805 24.112 67.2632 24.0187 66.7885 23.832C66.3192 23.64 65.9112 23.3627 65.5645 23C65.2232 22.632 64.9565 22.1787 64.7645 21.64C64.5725 21.1013 64.4765 20.4827 64.4765 19.784C64.4765 19.2187 64.5618 18.6907 64.7325 18.2C64.9085 17.7093 65.1592 17.2853 65.4845 16.928C65.8098 16.5653 66.2072 16.2827 66.6765 16.08C67.1458 15.872 67.6738 15.768 68.2605 15.768C68.7458 15.768 69.1938 15.8507 69.6045 16.016C70.0205 16.176 70.3778 16.4107 70.6765 16.72C70.9805 17.024 71.2178 17.4027 71.3885 17.856C71.5592 18.304 71.6445 18.816 71.6445 19.392C71.6445 19.616 71.6205 19.7653 71.5725 19.84C71.5245 19.9147 71.4338 19.952 71.3005 19.952H65.8845C65.9005 20.464 65.9698 20.9093 66.0925 21.288C66.2205 21.6667 66.3965 21.984 66.6205 22.24C66.8445 22.4907 67.1112 22.68 67.4205 22.808C67.7298 22.9307 68.0765 22.992 68.4605 22.992C68.8178 22.992 69.1245 22.952 69.3805 22.872C69.6418 22.7867 69.8658 22.696 70.0525 22.6C70.2392 22.504 70.3938 22.416 70.5165 22.336C70.6445 22.2507 70.7538 22.208 70.8445 22.208C70.9618 22.208 71.0525 22.2533 71.1165 22.344L71.5165 22.864ZM79.0336 17.336C78.991 17.3947 78.9483 17.44 78.9056 17.472C78.863 17.504 78.8043 17.52 78.7296 17.52C78.6496 17.52 78.5616 17.488 78.4656 17.424C78.3696 17.3547 78.2496 17.28 78.1056 17.2C77.967 17.12 77.7936 17.048 77.5856 16.984C77.383 16.9147 77.1323 16.88 76.8336 16.88C76.4336 16.88 76.0816 16.952 75.7776 17.096C75.4736 17.2347 75.2176 17.4373 75.0096 17.704C74.807 17.9707 74.6523 18.2933 74.5456 18.672C74.4443 19.0507 74.3936 19.4747 74.3936 19.944C74.3936 20.4347 74.4496 20.872 74.5616 21.256C74.6736 21.6347 74.831 21.9547 75.0336 22.216C75.2416 22.472 75.4896 22.6693 75.7776 22.808C76.071 22.9413 76.399 23.008 76.7616 23.008C77.1083 23.008 77.3936 22.968 77.6176 22.888C77.8416 22.8027 78.0256 22.7093 78.1696 22.608C78.319 22.5067 78.4416 22.416 78.5376 22.336C78.639 22.2507 78.7376 22.208 78.8336 22.208C78.951 22.208 79.0416 22.2533 79.1056 22.344L79.5056 22.864C79.3296 23.0827 79.1296 23.2693 78.9056 23.424C78.6816 23.5787 78.439 23.7093 78.1776 23.816C77.9216 23.9173 77.6523 23.992 77.3696 24.04C77.087 24.088 76.799 24.112 76.5056 24.112C75.999 24.112 75.527 24.0187 75.0896 23.832C74.6576 23.6453 74.2816 23.376 73.9616 23.024C73.6416 22.6667 73.391 22.2293 73.2096 21.712C73.0283 21.1947 72.9376 20.6053 72.9376 19.944C72.9376 19.3413 73.0203 18.784 73.1856 18.272C73.3563 17.76 73.6016 17.32 73.9216 16.952C74.247 16.5787 74.6443 16.288 75.1136 16.08C75.5883 15.872 76.1323 15.768 76.7456 15.768C77.3163 15.768 77.8176 15.8613 78.2496 16.048C78.687 16.2293 79.0736 16.488 79.4096 16.824L79.0336 17.336ZM83.5223 24.128C82.8823 24.128 82.3889 23.9493 82.0423 23.592C81.7009 23.2347 81.5303 22.72 81.5303 22.048V17.088H80.5543C80.4689 17.088 80.3969 17.064 80.3383 17.016C80.2796 16.9627 80.2503 16.8827 80.2503 16.776V16.208L81.5783 16.04L81.9062 13.536C81.9223 13.456 81.9569 13.392 82.0103 13.344C82.0689 13.2907 82.1436 13.264 82.2343 13.264H82.9543V16.056H85.2983V17.088H82.9543V21.952C82.9543 22.2933 83.0369 22.5467 83.2023 22.712C83.3676 22.8773 83.5809 22.96 83.8423 22.96C83.9916 22.96 84.1196 22.9413 84.2263 22.904C84.3383 22.8613 84.4343 22.816 84.5143 22.768C84.5943 22.72 84.6609 22.6773 84.7143 22.64C84.7729 22.5973 84.8236 22.576 84.8663 22.576C84.9409 22.576 85.0076 22.6213 85.0663 22.712L85.4823 23.392C85.2369 23.6213 84.9409 23.8027 84.5943 23.936C84.2476 24.064 83.8903 24.128 83.5223 24.128ZM92.1458 19.064C92.1458 18.7333 92.0978 18.432 92.0018 18.16C91.9111 17.8827 91.7751 17.6453 91.5938 17.448C91.4178 17.2453 91.2018 17.0907 90.9458 16.984C90.6898 16.872 90.3991 16.816 90.0738 16.816C89.3911 16.816 88.8498 17.016 88.4498 17.416C88.0551 17.8107 87.8098 18.36 87.7138 19.064H92.1458ZM93.2978 22.864C93.1218 23.0773 92.9111 23.264 92.6658 23.424C92.4204 23.5787 92.1564 23.7067 91.8738 23.808C91.5964 23.9093 91.3084 23.984 91.0098 24.032C90.7111 24.0853 90.4151 24.112 90.1218 24.112C89.5618 24.112 89.0444 24.0187 88.5698 23.832C88.1004 23.64 87.6924 23.3627 87.3458 23C87.0044 22.632 86.7378 22.1787 86.5458 21.64C86.3538 21.1013 86.2578 20.4827 86.2578 19.784C86.2578 19.2187 86.3431 18.6907 86.5138 18.2C86.6898 17.7093 86.9404 17.2853 87.2658 16.928C87.5911 16.5653 87.9884 16.2827 88.4578 16.08C88.9271 15.872 89.4551 15.768 90.0418 15.768C90.5271 15.768 90.9751 15.8507 91.3858 16.016C91.8018 16.176 92.1591 16.4107 92.4578 16.72C92.7618 17.024 92.9991 17.4027 93.1698 17.856C93.3404 18.304 93.4258 18.816 93.4258 19.392C93.4258 19.616 93.4018 19.7653 93.3538 19.84C93.3058 19.9147 93.2151 19.952 93.0818 19.952H87.6658C87.6818 20.464 87.7511 20.9093 87.8738 21.288C88.0018 21.6667 88.1778 21.984 88.4018 22.24C88.6258 22.4907 88.8924 22.68 89.2018 22.808C89.5111 22.9307 89.8578 22.992 90.2418 22.992C90.5991 22.992 90.9058 22.952 91.1618 22.872C91.4231 22.7867 91.6471 22.696 91.8338 22.6C92.0204 22.504 92.1751 22.416 92.2978 22.336C92.4258 22.2507 92.5351 22.208 92.6258 22.208C92.7431 22.208 92.8338 22.2533 92.8978 22.344L93.2978 22.864ZM100.455 17.824C100.188 17.4667 99.9002 17.2187 99.5909 17.08C99.2815 16.936 98.9349 16.864 98.5509 16.864C97.7989 16.864 97.2202 17.1333 96.8149 17.672C96.4095 18.2107 96.2069 18.9787 96.2069 19.976C96.2069 20.504 96.2522 20.9573 96.3429 21.336C96.4335 21.7093 96.5669 22.0187 96.7429 22.264C96.9189 22.504 97.1349 22.68 97.3909 22.792C97.6469 22.904 97.9375 22.96 98.2629 22.96C98.7322 22.96 99.1402 22.8533 99.4869 22.64C99.8389 22.4267 100.162 22.1253 100.455 21.736V17.824ZM101.879 12.216V24H101.031C100.828 24 100.7 23.9013 100.647 23.704L100.519 22.72C100.172 23.136 99.7775 23.472 99.3349 23.728C98.8922 23.984 98.3802 24.112 97.7989 24.112C97.3349 24.112 96.9135 24.024 96.5349 23.848C96.1562 23.6667 95.8335 23.4027 95.5669 23.056C95.3002 22.7093 95.0949 22.2773 94.9509 21.76C94.8069 21.2427 94.7349 20.648 94.7349 19.976C94.7349 19.3787 94.8149 18.824 94.9749 18.312C95.1349 17.7947 95.3642 17.3467 95.6629 16.968C95.9615 16.5893 96.3269 16.2933 96.7589 16.08C97.1962 15.8613 97.6869 15.752 98.2309 15.752C98.7269 15.752 99.1509 15.8373 99.5029 16.008C99.8602 16.1733 100.178 16.4053 100.455 16.704V12.216H101.879Z" fill="#FF0000"/>
</svg>
