<svg width="113" height="37" viewBox="0 0 113 37" fill="none" xmlns="http://www.w3.org/2000/svg">
<path d="M0 18.5C0 8.28273 8.28273 0 18.5 0H94.5C104.717 0 113 8.28273 113 18.5C113 28.7173 104.717 37 94.5 37H18.5C8.28273 37 0 28.7173 0 18.5Z" fill="#FFC2C2"/>
<circle cx="21" cy="17.5" r="5" fill="#FF0000"/>
<path d="M40.64 18.088C41.088 18.088 41.4827 18.0347 41.824 17.928C42.1707 17.816 42.4587 17.6613 42.688 17.464C42.9227 17.2613 43.0987 17.0213 43.216 16.744C43.3333 16.4667 43.392 16.16 43.392 15.824C43.392 15.1413 43.168 14.6267 42.72 14.28C42.272 13.9333 41.6 13.76 40.704 13.76H39.008V18.088H40.64ZM45.936 24H44.56C44.2773 24 44.0693 23.8907 43.936 23.672L40.96 19.576C40.8693 19.448 40.7707 19.3573 40.664 19.304C40.5627 19.2453 40.4027 19.216 40.184 19.216H39.008V24H37.464V12.536H40.704C41.4293 12.536 42.056 12.6107 42.584 12.76C43.112 12.904 43.5467 13.1147 43.888 13.392C44.2347 13.6693 44.4907 14.0053 44.656 14.4C44.8213 14.7893 44.904 15.2267 44.904 15.712C44.904 16.1173 44.84 16.496 44.712 16.848C44.584 17.2 44.3973 17.5173 44.152 17.8C43.912 18.0773 43.616 18.3147 43.264 18.512C42.9173 18.7093 42.5227 18.8587 42.08 18.96C42.2773 19.072 42.448 19.2347 42.592 19.448L45.936 24ZM52.0676 19.064C52.0676 18.7333 52.0196 18.432 51.9236 18.16C51.833 17.8827 51.697 17.6453 51.5156 17.448C51.3396 17.2453 51.1236 17.0907 50.8676 16.984C50.6116 16.872 50.321 16.816 49.9956 16.816C49.313 16.816 48.7716 17.016 48.3716 17.416C47.977 17.8107 47.7316 18.36 47.6356 19.064H52.0676ZM53.2196 22.864C53.0436 23.0773 52.833 23.264 52.5876 23.424C52.3423 23.5787 52.0783 23.7067 51.7956 23.808C51.5183 23.9093 51.2303 23.984 50.9316 24.032C50.633 24.0853 50.337 24.112 50.0436 24.112C49.4836 24.112 48.9663 24.0187 48.4916 23.832C48.0223 23.64 47.6143 23.3627 47.2676 23C46.9263 22.632 46.6596 22.1787 46.4676 21.64C46.2756 21.1013 46.1796 20.4827 46.1796 19.784C46.1796 19.2187 46.265 18.6907 46.4356 18.2C46.6116 17.7093 46.8623 17.2853 47.1876 16.928C47.513 16.5653 47.9103 16.2827 48.3796 16.08C48.849 15.872 49.377 15.768 49.9636 15.768C50.449 15.768 50.897 15.8507 51.3076 16.016C51.7236 16.176 52.081 16.4107 52.3796 16.72C52.6836 17.024 52.921 17.4027 53.0916 17.856C53.2623 18.304 53.3476 18.816 53.3476 19.392C53.3476 19.616 53.3236 19.7653 53.2756 19.84C53.2276 19.9147 53.137 19.952 53.0036 19.952H47.5876C47.6036 20.464 47.673 20.9093 47.7956 21.288C47.9236 21.6667 48.0996 21.984 48.3236 22.24C48.5476 22.4907 48.8143 22.68 49.1236 22.808C49.433 22.9307 49.7796 22.992 50.1636 22.992C50.521 22.992 50.8276 22.952 51.0836 22.872C51.345 22.7867 51.569 22.696 51.7556 22.6C51.9423 22.504 52.097 22.416 52.2196 22.336C52.3476 22.2507 52.457 22.208 52.5476 22.208C52.665 22.208 52.7556 22.2533 52.8196 22.344L53.2196 22.864ZM56.6008 15.896V24.6C56.6008 24.9253 56.5581 25.2267 56.4728 25.504C56.3874 25.7867 56.2514 26.032 56.0648 26.24C55.8781 26.448 55.6381 26.6107 55.3448 26.728C55.0568 26.8507 54.7101 26.912 54.3048 26.912C54.1341 26.912 53.9768 26.8987 53.8327 26.872C53.6887 26.8453 53.5447 26.8053 53.4007 26.752L53.4567 25.984C53.4674 25.936 53.4861 25.8987 53.5127 25.872C53.5341 25.8507 53.5661 25.8373 53.6087 25.832C53.6514 25.8267 53.7074 25.824 53.7767 25.824C53.8407 25.8293 53.9234 25.832 54.0248 25.832C54.4408 25.832 54.7368 25.7333 54.9128 25.536C55.0888 25.344 55.1768 25.032 55.1768 24.6V15.896H56.6008ZM56.8968 13.352C56.8968 13.4907 56.8674 13.6213 56.8088 13.744C56.7554 13.8613 56.6808 13.968 56.5848 14.064C56.4941 14.1547 56.3874 14.2267 56.2648 14.28C56.1421 14.3333 56.0114 14.36 55.8728 14.36C55.7341 14.36 55.6034 14.3333 55.4808 14.28C55.3634 14.2267 55.2594 14.1547 55.1688 14.064C55.0781 13.968 55.0061 13.8613 54.9528 13.744C54.8994 13.6213 54.8728 13.4907 54.8728 13.352C54.8728 13.2133 54.8994 13.0827 54.9528 12.96C55.0061 12.832 55.0781 12.7227 55.1688 12.632C55.2594 12.536 55.3634 12.4613 55.4808 12.408C55.6034 12.3547 55.7341 12.328 55.8728 12.328C56.0114 12.328 56.1421 12.3547 56.2648 12.408C56.3874 12.4613 56.4941 12.536 56.5848 12.632C56.6808 12.7227 56.7554 12.832 56.8088 12.96C56.8674 13.0827 56.8968 13.2133 56.8968 13.352ZM64.3645 19.064C64.3645 18.7333 64.3165 18.432 64.2205 18.16C64.1298 17.8827 63.9938 17.6453 63.8125 17.448C63.6365 17.2453 63.4205 17.0907 63.1645 16.984C62.9085 16.872 62.6178 16.816 62.2925 16.816C61.6098 16.816 61.0685 17.016 60.6685 17.416C60.2738 17.8107 60.0285 18.36 59.9325 19.064H64.3645ZM65.5165 22.864C65.3405 23.0773 65.1298 23.264 64.8845 23.424C64.6392 23.5787 64.3752 23.7067 64.0925 23.808C63.8152 23.9093 63.5272 23.984 63.2285 24.032C62.9298 24.0853 62.6338 24.112 62.3405 24.112C61.7805 24.112 61.2632 24.0187 60.7885 23.832C60.3192 23.64 59.9112 23.3627 59.5645 23C59.2232 22.632 58.9565 22.1787 58.7645 21.64C58.5725 21.1013 58.4765 20.4827 58.4765 19.784C58.4765 19.2187 58.5618 18.6907 58.7325 18.2C58.9085 17.7093 59.1592 17.2853 59.4845 16.928C59.8098 16.5653 60.2072 16.2827 60.6765 16.08C61.1458 15.872 61.6738 15.768 62.2605 15.768C62.7458 15.768 63.1938 15.8507 63.6045 16.016C64.0205 16.176 64.3778 16.4107 64.6765 16.72C64.9805 17.024 65.2178 17.4027 65.3885 17.856C65.5592 18.304 65.6445 18.816 65.6445 19.392C65.6445 19.616 65.6205 19.7653 65.5725 19.84C65.5245 19.9147 65.4338 19.952 65.3005 19.952H59.8845C59.9005 20.464 59.9698 20.9093 60.0925 21.288C60.2205 21.6667 60.3965 21.984 60.6205 22.24C60.8445 22.4907 61.1112 22.68 61.4205 22.808C61.7298 22.9307 62.0765 22.992 62.4605 22.992C62.8178 22.992 63.1245 22.952 63.3805 22.872C63.6418 22.7867 63.8658 22.696 64.0525 22.6C64.2392 22.504 64.3938 22.416 64.5165 22.336C64.6445 22.2507 64.7538 22.208 64.8445 22.208C64.9618 22.208 65.0525 22.2533 65.1165 22.344L65.5165 22.864ZM73.0336 17.336C72.991 17.3947 72.9483 17.44 72.9056 17.472C72.863 17.504 72.8043 17.52 72.7296 17.52C72.6496 17.52 72.5616 17.488 72.4656 17.424C72.3696 17.3547 72.2496 17.28 72.1056 17.2C71.967 17.12 71.7936 17.048 71.5856 16.984C71.383 16.9147 71.1323 16.88 70.8336 16.88C70.4336 16.88 70.0816 16.952 69.7776 17.096C69.4736 17.2347 69.2176 17.4373 69.0096 17.704C68.807 17.9707 68.6523 18.2933 68.5456 18.672C68.4443 19.0507 68.3936 19.4747 68.3936 19.944C68.3936 20.4347 68.4496 20.872 68.5616 21.256C68.6736 21.6347 68.831 21.9547 69.0336 22.216C69.2416 22.472 69.4896 22.6693 69.7776 22.808C70.071 22.9413 70.399 23.008 70.7616 23.008C71.1083 23.008 71.3936 22.968 71.6176 22.888C71.8416 22.8027 72.0256 22.7093 72.1696 22.608C72.319 22.5067 72.4416 22.416 72.5376 22.336C72.639 22.2507 72.7376 22.208 72.8336 22.208C72.951 22.208 73.0416 22.2533 73.1056 22.344L73.5056 22.864C73.3296 23.0827 73.1296 23.2693 72.9056 23.424C72.6816 23.5787 72.439 23.7093 72.1776 23.816C71.9216 23.9173 71.6523 23.992 71.3696 24.04C71.087 24.088 70.799 24.112 70.5056 24.112C69.999 24.112 69.527 24.0187 69.0896 23.832C68.6576 23.6453 68.2816 23.376 67.9616 23.024C67.6416 22.6667 67.391 22.2293 67.2096 21.712C67.0283 21.1947 66.9376 20.6053 66.9376 19.944C66.9376 19.3413 67.0203 18.784 67.1856 18.272C67.3563 17.76 67.6016 17.32 67.9216 16.952C68.247 16.5787 68.6443 16.288 69.1136 16.08C69.5883 15.872 70.1323 15.768 70.7456 15.768C71.3163 15.768 71.8176 15.8613 72.2496 16.048C72.687 16.2293 73.0736 16.488 73.4096 16.824L73.0336 17.336ZM77.5223 24.128C76.8823 24.128 76.3889 23.9493 76.0423 23.592C75.7009 23.2347 75.5303 22.72 75.5303 22.048V17.088H74.5543C74.4689 17.088 74.3969 17.064 74.3383 17.016C74.2796 16.9627 74.2503 16.8827 74.2503 16.776V16.208L75.5783 16.04L75.9062 13.536C75.9223 13.456 75.9569 13.392 76.0103 13.344C76.0689 13.2907 76.1436 13.264 76.2343 13.264H76.9543V16.056H79.2983V17.088H76.9543V21.952C76.9543 22.2933 77.0369 22.5467 77.2023 22.712C77.3676 22.8773 77.5809 22.96 77.8423 22.96C77.9916 22.96 78.1196 22.9413 78.2263 22.904C78.3383 22.8613 78.4343 22.816 78.5143 22.768C78.5943 22.72 78.6609 22.6773 78.7143 22.64C78.7729 22.5973 78.8236 22.576 78.8663 22.576C78.9409 22.576 79.0076 22.6213 79.0663 22.712L79.4823 23.392C79.2369 23.6213 78.9409 23.8027 78.5943 23.936C78.2476 24.064 77.8903 24.128 77.5223 24.128ZM86.1458 19.064C86.1458 18.7333 86.0978 18.432 86.0018 18.16C85.9111 17.8827 85.7751 17.6453 85.5938 17.448C85.4178 17.2453 85.2018 17.0907 84.9458 16.984C84.6898 16.872 84.3991 16.816 84.0738 16.816C83.3911 16.816 82.8498 17.016 82.4498 17.416C82.0551 17.8107 81.8098 18.36 81.7138 19.064H86.1458ZM87.2978 22.864C87.1218 23.0773 86.9111 23.264 86.6658 23.424C86.4204 23.5787 86.1564 23.7067 85.8738 23.808C85.5964 23.9093 85.3084 23.984 85.0098 24.032C84.7111 24.0853 84.4151 24.112 84.1218 24.112C83.5618 24.112 83.0444 24.0187 82.5698 23.832C82.1004 23.64 81.6924 23.3627 81.3458 23C81.0044 22.632 80.7378 22.1787 80.5458 21.64C80.3538 21.1013 80.2578 20.4827 80.2578 19.784C80.2578 19.2187 80.3431 18.6907 80.5138 18.2C80.6898 17.7093 80.9404 17.2853 81.2658 16.928C81.5911 16.5653 81.9884 16.2827 82.4578 16.08C82.9271 15.872 83.4551 15.768 84.0418 15.768C84.5271 15.768 84.9751 15.8507 85.3858 16.016C85.8018 16.176 86.1591 16.4107 86.4578 16.72C86.7618 17.024 86.9991 17.4027 87.1698 17.856C87.3404 18.304 87.4258 18.816 87.4258 19.392C87.4258 19.616 87.4018 19.7653 87.3538 19.84C87.3058 19.9147 87.2151 19.952 87.0818 19.952H81.6658C81.6818 20.464 81.7511 20.9093 81.8738 21.288C82.0018 21.6667 82.1778 21.984 82.4018 22.24C82.6258 22.4907 82.8924 22.68 83.2018 22.808C83.5111 22.9307 83.8578 22.992 84.2418 22.992C84.5991 22.992 84.9058 22.952 85.1618 22.872C85.4231 22.7867 85.6471 22.696 85.8338 22.6C86.0204 22.504 86.1751 22.416 86.2978 22.336C86.4258 22.2507 86.5351 22.208 86.6258 22.208C86.7431 22.208 86.8338 22.2533 86.8978 22.344L87.2978 22.864ZM94.4549 17.824C94.1882 17.4667 93.9002 17.2187 93.5909 17.08C93.2815 16.936 92.9349 16.864 92.5509 16.864C91.7989 16.864 91.2202 17.1333 90.8149 17.672C90.4095 18.2107 90.2069 18.9787 90.2069 19.976C90.2069 20.504 90.2522 20.9573 90.3429 21.336C90.4335 21.7093 90.5669 22.0187 90.7429 22.264C90.9189 22.504 91.1349 22.68 91.3909 22.792C91.6469 22.904 91.9375 22.96 92.2629 22.96C92.7322 22.96 93.1402 22.8533 93.4869 22.64C93.8389 22.4267 94.1615 22.1253 94.4549 21.736V17.824ZM95.8789 12.216V24H95.0309C94.8282 24 94.7002 23.9013 94.6469 23.704L94.5189 22.72C94.1722 23.136 93.7775 23.472 93.3349 23.728C92.8922 23.984 92.3802 24.112 91.7989 24.112C91.3349 24.112 90.9135 24.024 90.5349 23.848C90.1562 23.6667 89.8335 23.4027 89.5669 23.056C89.3002 22.7093 89.0949 22.2773 88.9509 21.76C88.8069 21.2427 88.7349 20.648 88.7349 19.976C88.7349 19.3787 88.8149 18.824 88.9749 18.312C89.1349 17.7947 89.3642 17.3467 89.6629 16.968C89.9615 16.5893 90.3269 16.2933 90.7589 16.08C91.1962 15.8613 91.6869 15.752 92.2309 15.752C92.7269 15.752 93.1509 15.8373 93.5029 16.008C93.8602 16.1733 94.1775 16.4053 94.4549 16.704V12.216H95.8789Z" fill="#FF0000"/>
</svg>
