<svg width="16" height="17" viewBox="0 0 16 17" fill="none" xmlns="http://www.w3.org/2000/svg">
<path d="M14.5 1.5H1.5C0.671875 1.5 0 2.17188 0 3V14C0 14.8281 0.671875 15.5 1.5 15.5H14.5C15.3281 15.5 16 14.8281 16 14V3C16 2.17188 15.3281 1.5 14.5 1.5ZM11.8875 10.5781C12.0375 10.7281 12.0375 10.9719 11.8875 11.1219L10.6219 12.3875C10.4719 12.5375 10.2281 12.5375 10.0781 12.3875L8 10.2906L5.92188 12.3875C5.77187 12.5375 5.52813 12.5375 5.37813 12.3875L4.1125 11.1219C3.9625 10.9719 3.9625 10.7281 4.1125 10.5781L6.20937 8.5L4.1125 6.42188C3.9625 6.27187 3.9625 6.02813 4.1125 5.87813L5.37813 4.6125C5.52813 4.4625 5.77187 4.4625 5.92188 4.6125L8 6.70937L10.0781 4.6125C10.2281 4.4625 10.4719 4.4625 10.6219 4.6125L11.8875 5.87813C12.0375 6.02813 12.0375 6.27187 11.8875 6.42188L9.79062 8.5L11.8875 10.5781Z" fill="#FF0000"/>
</svg>
