<svg width="126" height="25" viewBox="0 0 126 25" fill="none" xmlns="http://www.w3.org/2000/svg">
<path d="M0.5 12.5C0.5 5.87258 5.87258 0.5 12.5 0.5H113.5C120.127 0.5 125.5 5.87258 125.5 12.5C125.5 19.1274 120.127 24.5 113.5 24.5H12.5C5.87258 24.5 0.5 19.1274 0.5 12.5Z" fill="white" stroke="#E5E5E5"/>
<path d="M12.48 12.566C12.816 12.566 13.112 12.526 13.368 12.446C13.628 12.362 13.844 12.246 14.016 12.098C14.192 11.946 14.324 11.766 14.412 11.558C14.5 11.35 14.544 11.12 14.544 10.868C14.544 10.356 14.376 9.97 14.04 9.71C13.704 9.45 13.2 9.32 12.528 9.32H11.256V12.566H12.48ZM16.452 17H15.42C15.208 17 15.052 16.918 14.952 16.754L12.72 13.682C12.652 13.586 12.578 13.518 12.498 13.478C12.422 13.434 12.302 13.412 12.138 13.412H11.256V17H10.098V8.402H12.528C13.072 8.402 13.542 8.458 13.938 8.57C14.334 8.678 14.66 8.836 14.916 9.044C15.176 9.252 15.368 9.504 15.492 9.8C15.616 10.092 15.678 10.42 15.678 10.784C15.678 11.088 15.63 11.372 15.534 11.636C15.438 11.9 15.298 12.138 15.114 12.35C14.934 12.558 14.712 12.736 14.448 12.884C14.188 13.032 13.892 13.144 13.56 13.22C13.708 13.304 13.836 13.426 13.944 13.586L16.452 17ZM21.1507 13.298C21.1507 13.05 21.1147 12.824 21.0427 12.62C20.9747 12.412 20.8727 12.234 20.7367 12.086C20.6047 11.934 20.4427 11.818 20.2507 11.738C20.0587 11.654 19.8407 11.612 19.5967 11.612C19.0847 11.612 18.6787 11.762 18.3787 12.062C18.0827 12.358 17.8987 12.77 17.8267 13.298H21.1507ZM22.0147 16.148C21.8827 16.308 21.7247 16.448 21.5407 16.568C21.3567 16.684 21.1587 16.78 20.9467 16.856C20.7387 16.932 20.5227 16.988 20.2987 17.024C20.0747 17.064 19.8527 17.084 19.6327 17.084C19.2127 17.084 18.8247 17.014 18.4687 16.874C18.1167 16.73 17.8107 16.522 17.5507 16.25C17.2947 15.974 17.0947 15.634 16.9507 15.23C16.8067 14.826 16.7347 14.362 16.7347 13.838C16.7347 13.414 16.7987 13.018 16.9267 12.65C17.0587 12.282 17.2467 11.964 17.4907 11.696C17.7347 11.424 18.0327 11.212 18.3847 11.06C18.7367 10.904 19.1327 10.826 19.5727 10.826C19.9367 10.826 20.2727 10.888 20.5807 11.012C20.8927 11.132 21.1607 11.308 21.3847 11.54C21.6127 11.768 21.7907 12.052 21.9187 12.392C22.0467 12.728 22.1107 13.112 22.1107 13.544C22.1107 13.712 22.0927 13.824 22.0567 13.88C22.0207 13.936 21.9527 13.964 21.8527 13.964H17.7907C17.8027 14.348 17.8547 14.682 17.9467 14.966C18.0427 15.25 18.1747 15.488 18.3427 15.68C18.5107 15.868 18.7107 16.01 18.9427 16.106C19.1747 16.198 19.4347 16.244 19.7227 16.244C19.9907 16.244 20.2207 16.214 20.4127 16.154C20.6087 16.09 20.7767 16.022 20.9167 15.95C21.0567 15.878 21.1727 15.812 21.2647 15.752C21.3607 15.688 21.4427 15.656 21.5107 15.656C21.5987 15.656 21.6667 15.69 21.7147 15.758L22.0147 16.148ZM27.0626 11.924C27.0146 12.012 26.9406 12.056 26.8406 12.056C26.7806 12.056 26.7126 12.034 26.6366 11.99C26.5606 11.946 26.4666 11.898 26.3546 11.846C26.2466 11.79 26.1166 11.74 25.9646 11.696C25.8126 11.648 25.6326 11.624 25.4246 11.624C25.2446 11.624 25.0826 11.648 24.9386 11.696C24.7946 11.74 24.6706 11.802 24.5666 11.882C24.4666 11.962 24.3886 12.056 24.3326 12.164C24.2806 12.268 24.2546 12.382 24.2546 12.506C24.2546 12.662 24.2986 12.792 24.3866 12.896C24.4786 13 24.5986 13.09 24.7466 13.166C24.8946 13.242 25.0626 13.31 25.2506 13.37C25.4386 13.426 25.6306 13.488 25.8266 13.556C26.0266 13.62 26.2206 13.692 26.4086 13.772C26.5966 13.852 26.7646 13.952 26.9126 14.072C27.0606 14.192 27.1786 14.34 27.2666 14.516C27.3586 14.688 27.4046 14.896 27.4046 15.14C27.4046 15.42 27.3546 15.68 27.2546 15.92C27.1546 16.156 27.0066 16.362 26.8106 16.538C26.6146 16.71 26.3746 16.846 26.0906 16.946C25.8066 17.046 25.4786 17.096 25.1066 17.096C24.6826 17.096 24.2986 17.028 23.9546 16.892C23.6106 16.752 23.3186 16.574 23.0786 16.358L23.3306 15.95C23.3626 15.898 23.4006 15.858 23.4446 15.83C23.4886 15.802 23.5446 15.788 23.6126 15.788C23.6846 15.788 23.7606 15.816 23.8406 15.872C23.9206 15.928 24.0166 15.99 24.1286 16.058C24.2446 16.126 24.3846 16.188 24.5486 16.244C24.7126 16.3 24.9166 16.328 25.1606 16.328C25.3686 16.328 25.5506 16.302 25.7066 16.25C25.8626 16.194 25.9926 16.12 26.0966 16.028C26.2006 15.936 26.2766 15.83 26.3246 15.71C26.3766 15.59 26.4026 15.462 26.4026 15.326C26.4026 15.158 26.3566 15.02 26.2646 14.912C26.1766 14.8 26.0586 14.706 25.9106 14.63C25.7626 14.55 25.5926 14.482 25.4006 14.426C25.2126 14.366 25.0186 14.304 24.8186 14.24C24.6226 14.176 24.4286 14.104 24.2366 14.024C24.0486 13.94 23.8806 13.836 23.7326 13.712C23.5846 13.588 23.4646 13.436 23.3726 13.256C23.2846 13.072 23.2406 12.85 23.2406 12.59C23.2406 12.358 23.2886 12.136 23.3846 11.924C23.4806 11.708 23.6206 11.52 23.8046 11.36C23.9886 11.196 24.2146 11.066 24.4826 10.97C24.7506 10.874 25.0566 10.826 25.4006 10.826C25.8006 10.826 26.1586 10.89 26.4746 11.018C26.7946 11.142 27.0706 11.314 27.3026 11.534L27.0626 11.924ZM32.882 13.298C32.882 13.05 32.846 12.824 32.774 12.62C32.706 12.412 32.604 12.234 32.468 12.086C32.336 11.934 32.174 11.818 31.982 11.738C31.79 11.654 31.572 11.612 31.328 11.612C30.816 11.612 30.41 11.762 30.11 12.062C29.814 12.358 29.63 12.77 29.558 13.298H32.882ZM33.746 16.148C33.614 16.308 33.456 16.448 33.272 16.568C33.088 16.684 32.89 16.78 32.678 16.856C32.47 16.932 32.254 16.988 32.03 17.024C31.806 17.064 31.584 17.084 31.364 17.084C30.944 17.084 30.556 17.014 30.2 16.874C29.848 16.73 29.542 16.522 29.282 16.25C29.026 15.974 28.826 15.634 28.682 15.23C28.538 14.826 28.466 14.362 28.466 13.838C28.466 13.414 28.53 13.018 28.658 12.65C28.79 12.282 28.978 11.964 29.222 11.696C29.466 11.424 29.764 11.212 30.116 11.06C30.468 10.904 30.864 10.826 31.304 10.826C31.668 10.826 32.004 10.888 32.312 11.012C32.624 11.132 32.892 11.308 33.116 11.54C33.344 11.768 33.522 12.052 33.65 12.392C33.778 12.728 33.842 13.112 33.842 13.544C33.842 13.712 33.824 13.824 33.788 13.88C33.752 13.936 33.684 13.964 33.584 13.964H29.522C29.534 14.348 29.586 14.682 29.678 14.966C29.774 15.25 29.906 15.488 30.074 15.68C30.242 15.868 30.442 16.01 30.674 16.106C30.906 16.198 31.166 16.244 31.454 16.244C31.722 16.244 31.952 16.214 32.144 16.154C32.34 16.09 32.508 16.022 32.648 15.95C32.788 15.878 32.904 15.812 32.996 15.752C33.092 15.688 33.174 15.656 33.242 15.656C33.33 15.656 33.398 15.69 33.446 15.758L33.746 16.148ZM37.0729 17.096C36.5929 17.096 36.2229 16.962 35.9629 16.694C35.7069 16.426 35.5789 16.04 35.5789 15.536V11.816H34.8469C34.7829 11.816 34.7289 11.798 34.6849 11.762C34.6409 11.722 34.6189 11.662 34.6189 11.582V11.156L35.6149 11.03L35.8609 9.152C35.8729 9.092 35.8989 9.044 35.9389 9.008C35.9829 8.968 36.0389 8.948 36.1069 8.948H36.6469V11.042H38.4049V11.816H36.6469V15.464C36.6469 15.72 36.7089 15.91 36.8329 16.034C36.9569 16.158 37.1169 16.22 37.3129 16.22C37.4249 16.22 37.5209 16.206 37.6009 16.178C37.6849 16.146 37.7569 16.112 37.8169 16.076C37.8769 16.04 37.9269 16.008 37.9669 15.98C38.0109 15.948 38.0489 15.932 38.0809 15.932C38.1369 15.932 38.1869 15.966 38.2309 16.034L38.5429 16.544C38.3589 16.716 38.1369 16.852 37.8769 16.952C37.6169 17.048 37.3489 17.096 37.0729 17.096ZM44.644 17.096C44.164 17.096 43.794 16.962 43.534 16.694C43.278 16.426 43.15 16.04 43.15 15.536V11.816H42.418C42.354 11.816 42.3 11.798 42.256 11.762C42.212 11.722 42.19 11.662 42.19 11.582V11.156L43.186 11.03L43.432 9.152C43.444 9.092 43.47 9.044 43.51 9.008C43.554 8.968 43.61 8.948 43.678 8.948H44.218V11.042H45.976V11.816H44.218V15.464C44.218 15.72 44.28 15.91 44.404 16.034C44.528 16.158 44.688 16.22 44.884 16.22C44.996 16.22 45.092 16.206 45.172 16.178C45.256 16.146 45.328 16.112 45.388 16.076C45.448 16.04 45.498 16.008 45.538 15.98C45.582 15.948 45.62 15.932 45.652 15.932C45.708 15.932 45.758 15.966 45.802 16.034L46.114 16.544C45.93 16.716 45.708 16.852 45.448 16.952C45.188 17.048 44.92 17.096 44.644 17.096ZM49.7057 10.826C50.1497 10.826 50.5497 10.9 50.9057 11.048C51.2617 11.196 51.5657 11.406 51.8177 11.678C52.0697 11.95 52.2617 12.28 52.3937 12.668C52.5297 13.052 52.5977 13.482 52.5977 13.958C52.5977 14.438 52.5297 14.87 52.3937 15.254C52.2617 15.638 52.0697 15.966 51.8177 16.238C51.5657 16.51 51.2617 16.72 50.9057 16.868C50.5497 17.012 50.1497 17.084 49.7057 17.084C49.2577 17.084 48.8537 17.012 48.4937 16.868C48.1377 16.72 47.8337 16.51 47.5817 16.238C47.3297 15.966 47.1357 15.638 46.9997 15.254C46.8677 14.87 46.8017 14.438 46.8017 13.958C46.8017 13.482 46.8677 13.052 46.9997 12.668C47.1357 12.28 47.3297 11.95 47.5817 11.678C47.8337 11.406 48.1377 11.196 48.4937 11.048C48.8537 10.9 49.2577 10.826 49.7057 10.826ZM49.7057 16.25C50.3057 16.25 50.7537 16.05 51.0497 15.65C51.3457 15.246 51.4937 14.684 51.4937 13.964C51.4937 13.24 51.3457 12.676 51.0497 12.272C50.7537 11.868 50.3057 11.666 49.7057 11.666C49.4017 11.666 49.1357 11.718 48.9077 11.822C48.6837 11.926 48.4957 12.076 48.3437 12.272C48.1957 12.468 48.0837 12.71 48.0077 12.998C47.9357 13.282 47.8997 13.604 47.8997 13.964C47.8997 14.684 48.0477 15.246 48.3437 15.65C48.6437 16.05 49.0977 16.25 49.7057 16.25ZM64.9266 12.704C64.9266 13.348 64.8246 13.934 64.6206 14.462C64.4166 14.99 64.1286 15.442 63.7566 15.818C63.3846 16.194 62.9366 16.486 62.4126 16.694C61.8926 16.898 61.3166 17 60.6846 17H57.4746V8.402H60.6846C61.3166 8.402 61.8926 8.506 62.4126 8.714C62.9366 8.918 63.3846 9.21 63.7566 9.59C64.1286 9.966 64.4166 10.418 64.6206 10.946C64.8246 11.474 64.9266 12.06 64.9266 12.704ZM63.7326 12.704C63.7326 12.176 63.6606 11.704 63.5166 11.288C63.3726 10.872 63.1686 10.52 62.9046 10.232C62.6406 9.944 62.3206 9.724 61.9446 9.572C61.5686 9.42 61.1486 9.344 60.6846 9.344H58.6386V16.058H60.6846C61.1486 16.058 61.5686 15.982 61.9446 15.83C62.3206 15.678 62.6406 15.46 62.9046 15.176C63.1686 14.888 63.3726 14.536 63.5166 14.12C63.6606 13.704 63.7326 13.232 63.7326 12.704ZM70.4374 13.298C70.4374 13.05 70.4014 12.824 70.3294 12.62C70.2614 12.412 70.1594 12.234 70.0234 12.086C69.8914 11.934 69.7294 11.818 69.5374 11.738C69.3454 11.654 69.1274 11.612 68.8834 11.612C68.3714 11.612 67.9654 11.762 67.6654 12.062C67.3694 12.358 67.1854 12.77 67.1134 13.298H70.4374ZM71.3014 16.148C71.1694 16.308 71.0114 16.448 70.8274 16.568C70.6434 16.684 70.4454 16.78 70.2334 16.856C70.0254 16.932 69.8094 16.988 69.5854 17.024C69.3614 17.064 69.1394 17.084 68.9194 17.084C68.4994 17.084 68.1114 17.014 67.7554 16.874C67.4034 16.73 67.0974 16.522 66.8374 16.25C66.5814 15.974 66.3814 15.634 66.2374 15.23C66.0934 14.826 66.0214 14.362 66.0214 13.838C66.0214 13.414 66.0854 13.018 66.2134 12.65C66.3454 12.282 66.5334 11.964 66.7774 11.696C67.0214 11.424 67.3194 11.212 67.6714 11.06C68.0234 10.904 68.4194 10.826 68.8594 10.826C69.2234 10.826 69.5594 10.888 69.8674 11.012C70.1794 11.132 70.4474 11.308 70.6714 11.54C70.8994 11.768 71.0774 12.052 71.2054 12.392C71.3334 12.728 71.3974 13.112 71.3974 13.544C71.3974 13.712 71.3794 13.824 71.3434 13.88C71.3074 13.936 71.2394 13.964 71.1394 13.964H67.0774C67.0894 14.348 67.1414 14.682 67.2334 14.966C67.3294 15.25 67.4614 15.488 67.6294 15.68C67.7974 15.868 67.9974 16.01 68.2294 16.106C68.4614 16.198 68.7214 16.244 69.0094 16.244C69.2774 16.244 69.5074 16.214 69.6994 16.154C69.8954 16.09 70.0634 16.022 70.2034 15.95C70.3434 15.878 70.4594 15.812 70.5514 15.752C70.6474 15.688 70.7294 15.656 70.7974 15.656C70.8854 15.656 70.9534 15.69 71.0014 15.758L71.3014 16.148ZM73.1467 17V11.834L72.4747 11.756C72.3907 11.736 72.3207 11.706 72.2647 11.666C72.2127 11.622 72.1867 11.56 72.1867 11.48V11.042H73.1467V10.454C73.1467 10.106 73.1947 9.798 73.2907 9.53C73.3907 9.258 73.5307 9.03 73.7107 8.846C73.8947 8.658 74.1147 8.516 74.3707 8.42C74.6267 8.324 74.9147 8.276 75.2347 8.276C75.5067 8.276 75.7567 8.316 75.9847 8.396L75.9607 8.93C75.9527 9.026 75.8987 9.078 75.7987 9.086C75.7027 9.094 75.5727 9.098 75.4087 9.098C75.2247 9.098 75.0567 9.122 74.9047 9.17C74.7567 9.218 74.6287 9.296 74.5207 9.404C74.4127 9.512 74.3287 9.654 74.2687 9.83C74.2127 10.006 74.1847 10.224 74.1847 10.484V11.042H75.9367V11.816H74.2207V17H73.1467ZM80.3166 14.264C79.8246 14.28 79.4046 14.32 79.0566 14.384C78.7126 14.444 78.4306 14.524 78.2106 14.624C77.9946 14.724 77.8366 14.842 77.7366 14.978C77.6406 15.114 77.5926 15.266 77.5926 15.434C77.5926 15.594 77.6186 15.732 77.6706 15.848C77.7226 15.964 77.7926 16.06 77.8806 16.136C77.9726 16.208 78.0786 16.262 78.1986 16.298C78.3226 16.33 78.4546 16.346 78.5946 16.346C78.7826 16.346 78.9546 16.328 79.1106 16.292C79.2666 16.252 79.4126 16.196 79.5486 16.124C79.6886 16.052 79.8206 15.966 79.9446 15.866C80.0726 15.766 80.1966 15.652 80.3166 15.524V14.264ZM76.8666 11.78C77.2026 11.456 77.5646 11.214 77.9526 11.054C78.3406 10.894 78.7706 10.814 79.2426 10.814C79.5826 10.814 79.8846 10.87 80.1486 10.982C80.4126 11.094 80.6346 11.25 80.8146 11.45C80.9946 11.65 81.1306 11.892 81.2226 12.176C81.3146 12.46 81.3606 12.772 81.3606 13.112V17H80.8866C80.7826 17 80.7026 16.984 80.6466 16.952C80.5906 16.916 80.5466 16.848 80.5146 16.748L80.3946 16.172C80.2346 16.32 80.0786 16.452 79.9266 16.568C79.7746 16.68 79.6146 16.776 79.4466 16.856C79.2786 16.932 79.0986 16.99 78.9066 17.03C78.7186 17.074 78.5086 17.096 78.2766 17.096C78.0406 17.096 77.8186 17.064 77.6106 17C77.4026 16.932 77.2206 16.832 77.0646 16.7C76.9126 16.568 76.7906 16.402 76.6986 16.202C76.6106 15.998 76.5666 15.758 76.5666 15.482C76.5666 15.242 76.6326 15.012 76.7646 14.792C76.8966 14.568 77.1106 14.37 77.4066 14.198C77.7026 14.026 78.0886 13.886 78.5646 13.778C79.0406 13.666 79.6246 13.602 80.3166 13.586V13.112C80.3166 12.64 80.2146 12.284 80.0106 12.044C79.8066 11.8 79.5086 11.678 79.1166 11.678C78.8526 11.678 78.6306 11.712 78.4506 11.78C78.2746 11.844 78.1206 11.918 77.9886 12.002C77.8606 12.082 77.7486 12.156 77.6526 12.224C77.5606 12.288 77.4686 12.32 77.3766 12.32C77.3046 12.32 77.2426 12.302 77.1906 12.266C77.1386 12.226 77.0946 12.178 77.0586 12.122L76.8666 11.78ZM88.0854 10.922V17H87.4494C87.2974 17 87.2014 16.926 87.1614 16.778L87.0774 16.124C86.8134 16.416 86.5174 16.652 86.1894 16.832C85.8614 17.008 85.4854 17.096 85.0614 17.096C84.7294 17.096 84.4354 17.042 84.1794 16.934C83.9274 16.822 83.7154 16.666 83.5434 16.466C83.3714 16.266 83.2414 16.024 83.1534 15.74C83.0694 15.456 83.0274 15.142 83.0274 14.798V10.922H84.0954V14.798C84.0954 15.258 84.1994 15.614 84.4074 15.866C84.6194 16.118 84.9414 16.244 85.3734 16.244C85.6894 16.244 85.9834 16.17 86.2554 16.022C86.5314 15.87 86.7854 15.662 87.0174 15.398V10.922H88.0854ZM90.9828 8.162V17H89.9148V8.162H90.9828ZM94.6808 17.096C94.2008 17.096 93.8308 16.962 93.5708 16.694C93.3148 16.426 93.1868 16.04 93.1868 15.536V11.816H92.4548C92.3908 11.816 92.3368 11.798 92.2928 11.762C92.2488 11.722 92.2268 11.662 92.2268 11.582V11.156L93.2228 11.03L93.4688 9.152C93.4808 9.092 93.5068 9.044 93.5468 9.008C93.5908 8.968 93.6468 8.948 93.7148 8.948H94.2548V11.042H96.0128V11.816H94.2548V15.464C94.2548 15.72 94.3168 15.91 94.4408 16.034C94.5648 16.158 94.7248 16.22 94.9208 16.22C95.0328 16.22 95.1288 16.206 95.2088 16.178C95.2928 16.146 95.3648 16.112 95.4248 16.076C95.4848 16.04 95.5348 16.008 95.5748 15.98C95.6188 15.948 95.6568 15.932 95.6888 15.932C95.7448 15.932 95.7948 15.966 95.8388 16.034L96.1508 16.544C95.9668 16.716 95.7448 16.852 95.4848 16.952C95.2248 17.048 94.9568 17.096 94.6808 17.096Z" fill="#6D3745"/>
<path d="M102.333 13C102.333 14.5913 102.966 16.1174 104.091 17.2426C105.216 18.3679 106.742 19 108.333 19C109.927 19 111.453 18.3733 112.6 17.2667L111.6 16.2667C111.18 16.711 110.674 17.0644 110.112 17.3052C109.55 17.546 108.945 17.669 108.333 17.6667C104.173 17.6667 102.093 12.64 105.033 9.7C107.973 6.76 113 8.84667 113 13H111L113.667 15.6667H113.733L116.333 13H114.333C114.333 11.4087 113.701 9.88258 112.576 8.75736C111.451 7.63214 109.925 7 108.333 7C106.742 7 105.216 7.63214 104.091 8.75736C102.966 9.88258 102.333 11.4087 102.333 13Z" fill="#6D3745"/>
</svg>
