<svg width="23" height="23" viewBox="0 0 23 23" fill="none" xmlns="http://www.w3.org/2000/svg">
<g clip-path="url(#clip0_1252_5445)">
<path d="M15.548 5.799L15.5429 5.80099L2.19137 11.3239C2.07877 11.3701 1.97936 11.4434 1.90205 11.5374C1.82473 11.6314 1.77192 11.7431 1.74832 11.8624C1.72228 11.9875 1.72774 12.117 1.76419 12.2394C1.80064 12.3618 1.86694 12.4732 1.95714 12.5636L4.46052 15.067C4.58401 15.1904 4.74667 15.2668 4.92049 15.2832C5.0943 15.2995 5.26836 15.2547 5.41268 15.1565L11.5115 10.9611C11.5355 10.9447 11.5646 10.9372 11.5935 10.94C11.6225 10.9427 11.6497 10.9554 11.6702 10.976C11.6908 10.9966 11.7036 11.0237 11.7063 11.0527C11.709 11.0817 11.7016 11.1107 11.6852 11.1348L7.49003 17.2334C7.39177 17.3776 7.34688 17.5516 7.3631 17.7253C7.37931 17.8991 7.45561 18.0617 7.57886 18.1853L10.0827 20.6891C10.1688 20.7754 10.2751 20.839 10.3919 20.874C10.5087 20.9091 10.6323 20.9147 10.7518 20.8902C10.8959 20.8612 11.0282 20.7903 11.1323 20.6865C11.2045 20.6141 11.2615 20.5281 11.3 20.4335L16.8451 7.1045L16.8473 7.09831C16.9197 6.91669 16.9373 6.71782 16.8979 6.5263C16.8585 6.33477 16.7638 6.15901 16.6255 6.02075C16.4873 5.88248 16.3115 5.78779 16.12 5.74838C15.9284 5.70896 15.7296 5.72657 15.548 5.799Z" fill="white"/>
</g>
<defs>
<clipPath id="clip0_1252_5445">
<rect width="16" height="16" fill="white" transform="translate(0 11.3135) rotate(-45)"/>
</clipPath>
</defs>
</svg>
