<svg width="11" height="11" viewBox="0 0 11 11" fill="none" xmlns="http://www.w3.org/2000/svg">
<path d="M8.8022 7.74147C8.7219 7.66117 8.7109 7.52257 8.7725 7.42687C9.2565 6.68217 9.5403 5.79557 9.5403 4.84297C9.5403 2.21177 7.3997 0.0722656 4.7707 0.0722656C2.1395 0.0722656 0 2.21177 0 4.84297C0 7.47307 2.1395 9.61257 4.7707 9.61257C5.7948 9.61257 6.743 9.28367 7.5218 8.73147C7.6131 8.66547 7.7506 8.67427 7.8309 8.75347L9.5359 10.4585C9.5469 10.4695 9.559 10.4805 9.5711 10.4893C9.5909 10.5058 9.6734 10.5828 9.7526 10.6631L9.955 10.8644C10.0353 10.9436 10.1651 10.9436 10.2443 10.8644L10.9395 10.1692C11.0198 10.0889 11.0198 9.95907 10.9406 9.87877L8.8022 7.74147ZM7.656 7.06497C7.4987 7.26957 7.3216 7.45657 7.1258 7.62267C6.49 8.16277 5.6683 8.49057 4.7707 8.49057C2.7588 8.49057 1.122 6.85377 1.122 4.84297C1.122 2.83217 2.7588 1.19427 4.7707 1.19427C6.7815 1.19427 8.4183 2.83107 8.4183 4.84297C8.4183 5.67897 8.1312 6.44897 7.656 7.06497Z" fill="#6D3745"/>
</svg>
