<svg width="21" height="21" viewBox="0 0 21 21" fill="none" xmlns="http://www.w3.org/2000/svg">
<path d="M5.25 0C4.52812 0 3.9375 0.590625 3.9375 1.3125V19.6875C3.9375 20.4094 4.52812 21 5.25 21H18.375C19.0969 21 19.6875 20.4094 19.6875 19.6875V5.25L14.4375 0H5.25Z" fill="#E2E5E7"/>
<path d="M15.75 5.25H19.6875L14.4375 0V3.9375C14.4375 4.65938 15.0281 5.25 15.75 5.25Z" fill="#B0B7BD"/>
<path d="M19.6875 9.1875L15.75 5.25H19.6875V9.1875Z" fill="#CAD1D8"/>
<path d="M17.0625 17.0625C17.0625 17.4234 16.7672 17.7188 16.4062 17.7188H1.96875C1.60781 17.7188 1.3125 17.4234 1.3125 17.0625V10.5C1.3125 10.1391 1.60781 9.84375 1.96875 9.84375H16.4062C16.7672 9.84375 17.0625 10.1391 17.0625 10.5V17.0625Z" fill="#6D3745"/>
<path d="M16.4062 17.7188H3.9375V18.375H16.4062C16.7672 18.375 17.0625 18.0797 17.0625 17.7188V17.0625C17.0625 17.4234 16.7672 17.7188 16.4062 17.7188Z" fill="#CAD1D8"/>
<path d="M6.54333 14.746C6.54333 13.336 4.46133 13.666 4.46133 12.934C4.46133 12.67 4.64733 12.544 4.89333 12.55C5.16933 12.556 5.36133 12.718 5.37933 12.988H6.48933C6.44733 12.184 5.82933 11.728 4.91133 11.728C4.02933 11.728 3.37533 12.172 3.37533 12.97C3.36333 14.464 5.46933 14.044 5.46933 14.824C5.46933 15.07 5.27733 15.22 4.97733 15.22C4.68933 15.22 4.48533 15.064 4.45533 14.74H3.36333C3.39333 15.592 4.10133 16.042 5.00733 16.042C5.99133 16.042 6.54333 15.454 6.54333 14.746ZM8.04673 12.61H9.16273V16H10.1887V12.61H11.3047V11.788H8.04673V12.61ZM12.9197 11.788V16H15.2897V15.208H13.9457V11.788H12.9197Z" fill="white"/>
</svg>
