<svg width="20" height="20" viewBox="0 0 20 20" fill="none" xmlns="http://www.w3.org/2000/svg">
<path d="M9.9996 19.9964C6.72007 19.9964 3.44019 19.9976 0.159958 20C0.0308457 20 -0.00195312 19.9802 -0.00195312 19.8438C0.0022118 13.2835 0.0022118 6.72498 -0.00195312 0.168172C-0.000391277 0.0177023 0.0396962 0 0.172974 0C6.72441 0.00381815 13.276 0.00381815 19.8278 0C19.9632 0 20.0001 0.0208263 19.9996 0.167131C19.9947 6.71977 19.9947 13.2721 19.9996 19.824C19.9996 19.9766 19.958 20 19.8169 20C16.5443 19.9955 13.2719 19.9943 9.9996 19.9964ZM5.34738 16.56H1.03772C0.628513 16.56 0.638925 16.56 0.621224 16.9713C0.614456 17.1525 0.669121 17.1895 0.842486 17.189C4.90919 17.1838 8.9759 17.1826 13.0426 17.1853C13.9079 17.1853 14.7737 17.1911 15.6389 17.1853C16.0774 17.1814 16.5046 17.0455 16.8648 16.7953C17.225 16.5451 17.5016 16.1923 17.6584 15.7827C17.7188 15.6291 17.6896 15.3995 17.8229 15.3318C17.9562 15.2641 18.166 15.3136 18.3435 15.313C18.9891 15.313 19.3697 14.9293 19.3697 14.279C19.3697 13.2054 19.3671 12.1318 19.3728 11.0582C19.3756 10.9778 19.361 10.8978 19.33 10.8236C19.299 10.7493 19.2523 10.6827 19.1932 10.6282C17.9479 9.38832 16.7055 8.14603 15.4661 6.90131C15.3613 6.79021 15.2344 6.70242 15.0935 6.64367C14.9525 6.58491 14.8008 6.55649 14.6482 6.56028C13.0478 6.56549 11.4469 6.56028 9.84654 6.56028C9.36393 6.56028 9.37018 6.56028 9.3707 7.04605C9.3707 7.17934 9.42276 7.18871 9.52689 7.18767C9.93661 7.18246 10.3469 7.19184 10.7566 7.18194C10.8987 7.1783 10.9393 7.20902 10.9388 7.35949C10.932 8.71944 10.9346 10.0794 10.9346 11.4394C10.9346 11.872 10.9346 11.8637 11.3621 11.8757C11.5214 11.8798 11.5651 11.8439 11.5641 11.6778C11.5562 10.2398 11.5594 8.80171 11.5599 7.36365C11.5599 7.2715 11.5261 7.17934 11.6942 7.1809C12.6964 7.19027 13.6986 7.18559 14.7008 7.18455C14.7747 7.18455 14.8528 7.18871 14.9038 7.23661C15.0918 7.41676 15.2714 7.60576 15.4713 7.80934C14.9892 7.80934 14.5342 7.80673 14.0802 7.80934C13.7022 7.81246 13.4367 8.06966 13.4352 8.44402C13.4313 9.37495 13.4313 10.3055 13.4352 11.2358C13.4333 11.319 13.4483 11.4018 13.4792 11.4791C13.51 11.5565 13.5562 11.6268 13.6148 11.6859C13.6735 11.745 13.7435 11.7916 13.8205 11.8231C13.8976 11.8545 13.9803 11.8701 14.0635 11.8689C14.2655 11.8731 14.467 11.8689 14.669 11.8689C15.9702 11.8689 17.2717 11.8689 18.5736 11.8689C18.6424 11.8689 18.748 11.8168 18.747 11.9699C18.7423 12.7702 18.747 13.5704 18.7418 14.3712C18.7418 14.5534 18.6142 14.6685 18.4294 14.6768C18.2732 14.6836 18.1171 14.6695 17.9609 14.681C17.8286 14.6914 17.7797 14.6549 17.7479 14.5149C17.6415 14.0299 17.3724 13.5958 16.9853 13.2848C16.5983 12.9738 16.1165 12.8044 15.62 12.8048C15.1235 12.8053 14.642 12.9754 14.2555 13.2871C13.869 13.5988 13.6007 14.0333 13.495 14.5185C13.4622 14.6648 13.405 14.6815 13.2795 14.681C11.9457 14.6768 10.6117 14.6768 9.27751 14.681C9.10675 14.681 9.02918 14.6539 8.9844 14.4628C8.8767 14.0154 8.6287 13.6143 8.27668 13.318C7.92466 13.0217 7.48708 12.8457 7.02793 12.816C6.56052 12.786 6.09576 12.9062 5.70153 13.1591C5.3073 13.412 5.00425 13.7844 4.83665 14.2217C4.77678 14.3743 4.8101 14.6029 4.67058 14.6685C4.53105 14.7341 4.32645 14.6867 4.14996 14.6862C3.8605 14.6862 3.75533 14.5779 3.75481 14.2827C3.75481 13.5343 3.75481 12.7859 3.75481 12.0376C3.75481 11.543 3.75481 11.5471 3.25294 11.5591C3.14465 11.5617 3.12747 11.5976 3.12799 11.6929C3.13111 12.5911 3.12799 13.4892 3.13164 14.3873C3.13406 14.6301 3.23141 14.8623 3.40284 15.0343C3.57428 15.2062 3.80619 15.3042 4.04896 15.3073C4.23066 15.312 4.41339 15.311 4.59509 15.3073C4.6763 15.3073 4.71795 15.3177 4.73617 15.4156C4.81531 15.8436 5.01314 16.2117 5.34738 16.56ZM0.628513 6.87996C0.624348 9.09744 2.4465 10.9291 4.66433 10.9369C6.89621 10.9453 8.74023 9.13701 8.74961 6.92786C8.7595 4.63072 6.95556 2.8178 4.65548 2.81467C2.45015 2.81155 0.633719 4.64478 0.628513 6.87996ZM1.40944 14.3733H1.72181C2.20286 14.3733 2.19921 14.3733 2.19349 13.8859C2.19349 13.7761 2.16433 13.7433 2.05396 13.7459C1.74159 13.7537 1.42922 13.7485 1.11685 13.7485C0.603523 13.7485 0.606647 13.7485 0.625389 14.2561C0.629034 14.3488 0.65142 14.3785 0.745652 14.3753C0.966914 14.3701 1.18818 14.3733 1.40944 14.3733ZM13.1108 13.1237H13.267C13.7637 13.1237 13.7585 13.1237 13.7517 12.6291C13.7517 12.5083 13.7054 12.4937 13.6044 12.4973C13.3961 12.5036 13.1879 12.4973 12.9796 12.4973C12.4829 12.4973 12.4855 12.4973 12.496 12.9925C12.496 13.0883 12.5137 13.1315 12.6225 13.1247C12.7849 13.1164 12.9479 13.1237 13.1108 13.1237ZM1.71244 13.1237C2.20702 13.1237 2.20702 13.1237 2.19036 12.6259C2.18983 12.6193 2.18983 12.6127 2.19036 12.6061C2.2039 12.5202 2.16693 12.4952 2.08207 12.4973C1.86081 12.5025 1.63903 12.5083 1.41881 12.4973C1.28032 12.4895 1.24753 12.5307 1.24909 12.6671C1.25638 13.1237 1.24909 13.1237 1.71244 13.1237ZM2.19036 11.5659C2.19036 11.2493 2.19036 11.2493 1.88216 11.2493C1.56562 11.2493 1.56562 11.2493 1.56562 11.5581C1.56562 11.8668 1.56562 11.8741 1.87435 11.8741C2.18307 11.8741 2.19036 11.8741 2.19036 11.5659Z" fill="#FEFEFE"/>
<path d="M5.34764 16.5588C5.0134 16.2105 4.81557 15.8424 4.73748 15.4165C4.71925 15.3186 4.6776 15.3066 4.59639 15.3082C4.41469 15.3118 4.23196 15.3129 4.05026 15.3082C3.80668 15.3056 3.57386 15.2074 3.4019 15.0349C3.22995 14.8623 3.13261 14.6292 3.13085 14.3856C3.12461 13.4874 3.13085 12.5893 3.12721 11.6912C3.12721 11.5959 3.14387 11.56 3.25216 11.5573C3.75403 11.5454 3.75403 11.5412 3.75403 12.0358C3.75403 12.7842 3.75403 13.5325 3.75403 14.2809C3.75403 14.5761 3.85815 14.6829 4.14918 14.6844C4.32515 14.6844 4.52506 14.7365 4.6698 14.6667C4.81453 14.5969 4.77392 14.3725 4.83587 14.22C5.00347 13.7826 5.30652 13.4103 5.70075 13.1573C6.09498 12.9044 6.55974 12.7842 7.02715 12.8142C7.48796 12.8438 7.92708 13.0207 8.27986 13.3186C8.63264 13.6166 8.88043 14.02 8.98675 14.4694C9.03152 14.6605 9.10909 14.6886 9.27985 14.6875C10.614 14.6813 11.948 14.6813 13.2818 14.6875C13.4073 14.6875 13.4646 14.6714 13.4974 14.5251C13.603 14.0399 13.8714 13.6054 14.2579 13.2937C14.6444 12.982 15.1258 12.8118 15.6224 12.8114C16.1189 12.811 16.6006 12.9803 16.9877 13.2914C17.3747 13.6024 17.6438 14.0364 17.7503 14.5215C17.782 14.6615 17.831 14.698 17.9632 14.6875C18.1194 14.6761 18.2756 14.6901 18.4318 14.6834C18.6176 14.675 18.7441 14.56 18.7441 14.3778C18.7499 13.577 18.7441 12.7767 18.7493 11.9765C18.7493 11.8203 18.6452 11.876 18.576 11.8755C17.2748 11.873 15.9732 11.873 14.6714 11.8755C14.4694 11.8755 14.2679 11.8786 14.0659 11.8755C13.9826 11.8767 13.9 11.8611 13.8229 11.8296C13.7458 11.7982 13.6758 11.7515 13.6172 11.6924C13.5585 11.6333 13.5124 11.563 13.4815 11.4857C13.4506 11.4084 13.4357 11.3256 13.4375 11.2423C13.4337 10.3121 13.4337 9.38152 13.4375 8.45058C13.4375 8.07727 13.7046 7.81903 14.0825 7.8159C14.537 7.81226 14.9915 7.8159 15.4736 7.8159C15.2737 7.61285 15.0941 7.42385 14.9062 7.24318C14.8541 7.19424 14.777 7.19111 14.7031 7.19111C13.7009 7.19111 12.6987 7.19684 11.6966 7.18747C11.5284 7.18747 11.5622 7.27806 11.5622 7.37022C11.5622 8.80828 11.5586 10.2463 11.5664 11.6844C11.5664 11.8505 11.5237 11.8864 11.3644 11.8822C10.9375 11.8703 10.937 11.8786 10.937 11.4459C10.937 10.086 10.9344 8.72601 10.9411 7.36605C10.9411 7.21558 10.9011 7.18486 10.7589 7.18851C10.3492 7.1984 9.93896 7.18851 9.52923 7.19424C9.42198 7.19424 9.37304 7.18591 9.37304 7.05262C9.37304 6.56684 9.36628 6.56684 9.84889 6.56684C11.4493 6.56684 13.0502 6.56997 14.6505 6.56684C14.8031 6.56251 14.9549 6.59036 15.096 6.64858C15.2371 6.7068 15.3643 6.79409 15.4695 6.90475C16.7085 8.15016 17.9509 9.39245 19.1966 10.6316C19.2557 10.6861 19.3024 10.7528 19.3334 10.827C19.3644 10.9012 19.379 10.9813 19.3762 11.0617C19.3704 12.1353 19.3736 13.2089 19.373 14.2825C19.373 14.9328 18.9925 15.3149 18.3469 15.3165C18.1709 15.3165 17.9679 15.2644 17.8263 15.3352C17.6847 15.406 17.7222 15.6325 17.6618 15.7861C17.5036 16.1942 17.2264 16.5454 16.8662 16.794C16.506 17.0426 16.0794 17.1773 15.6418 17.1805C14.7765 17.1883 13.9107 17.1805 13.0455 17.1805C8.97877 17.1805 4.91206 17.1817 0.845347 17.1841C0.671982 17.1841 0.617317 17.1476 0.624085 16.9665C0.639183 16.5557 0.628771 16.5551 1.04058 16.5551H5.35024L5.34764 16.5588ZM16.4034 11.2481C17.1193 11.2481 17.8346 11.2481 18.5505 11.2481C18.6145 11.2481 18.7067 11.2892 18.7395 11.2122C18.7775 11.1221 18.7275 11.0445 18.6562 10.9737C17.8395 10.1622 17.0252 9.34785 16.2134 8.53076C16.1829 8.49848 16.1456 8.47333 16.1042 8.45713C16.0628 8.44093 16.0183 8.43407 15.9739 8.43705C15.3882 8.44069 14.8026 8.44277 14.2174 8.43705C14.0893 8.43705 14.057 8.46933 14.0581 8.59637C14.064 9.42942 14.064 10.2625 14.0581 11.0955C14.0581 11.2231 14.0904 11.2559 14.2174 11.2548C14.9462 11.245 15.6751 11.2481 16.4034 11.2481ZM6.88033 13.4348C6.57136 13.4339 6.26906 13.5247 6.01167 13.6956C5.75428 13.8665 5.55336 14.11 5.43434 14.3951C5.31532 14.6802 5.28354 14.9943 5.34302 15.2975C5.4025 15.6007 5.55057 15.8795 5.7685 16.0985C5.98643 16.3176 6.26442 16.467 6.56731 16.528C6.8702 16.589 7.18438 16.5588 7.47009 16.4412C7.75581 16.3236 8.00023 16.1239 8.17243 15.8674C8.34463 15.6108 8.43688 15.3089 8.4375 14.9999C8.43819 14.586 8.27459 14.1888 7.98262 13.8954C7.69065 13.6021 7.2942 13.4366 6.88033 13.4354V13.4348ZM15.6184 13.4348C15.3095 13.4357 15.0078 13.5281 14.7515 13.7003C14.4951 13.8726 14.2956 14.117 14.1781 14.4027C14.0606 14.6883 14.0304 15.0024 14.0914 15.3052C14.1524 15.608 14.3018 15.886 14.5207 16.1039C14.7396 16.3218 15.0182 16.4699 15.3213 16.5294C15.6243 16.589 15.9383 16.5574 16.2233 16.4386C16.5084 16.3198 16.7519 16.1191 16.923 15.8619C17.094 15.6047 17.185 15.3026 17.1844 14.9937C17.1839 14.7885 17.143 14.5855 17.064 14.3961C16.9851 14.2067 16.8696 14.0348 16.7242 13.8901C16.5787 13.7454 16.4062 13.6307 16.2165 13.5527C16.0268 13.4747 15.8235 13.4348 15.6184 13.4354V13.4348ZM8.41459 16.5499H14.0805C13.7587 16.2032 13.5484 15.8236 13.4755 15.3779C13.4599 15.2853 13.3943 15.3102 13.3422 15.3102C11.9449 15.3102 10.5474 15.3102 9.1497 15.3102C9.08046 15.3102 9.03516 15.3129 9.01851 15.4055C8.94093 15.8366 8.73946 16.2094 8.41459 16.5499Z" fill="#020202"/>
<path d="M0.628913 6.87923C0.63412 4.64405 2.45107 2.81029 4.65588 2.81446C6.95596 2.81915 8.7599 4.63208 8.75001 6.92765C8.74064 9.13472 6.89661 10.943 4.66473 10.9367C2.44691 10.9284 0.624748 9.09671 0.628913 6.87923ZM4.67671 10.3083C5.12943 10.3099 5.57799 10.2219 5.99663 10.0496C6.41528 9.87726 6.79573 9.62388 7.11615 9.30402C7.43656 8.98417 7.69061 8.60414 7.8637 8.18578C8.03679 7.76742 8.1255 7.31897 8.12475 6.86621C8.12787 4.97831 6.58476 3.44081 4.68347 3.43717C2.80613 3.4356 1.25365 4.98508 1.25417 6.86205C1.25417 8.76349 2.78947 10.3083 4.67671 10.3083Z" fill="#040404"/>
<path d="M1.4094 14.3738C1.18813 14.3738 0.966873 14.3696 0.746132 14.3738C0.6519 14.3769 0.629513 14.3472 0.625869 14.2545C0.607127 13.7469 0.604003 13.7469 1.11733 13.7469C1.4297 13.7469 1.74207 13.7521 2.05444 13.7443C2.16481 13.7417 2.19292 13.7745 2.19397 13.8843C2.19969 14.3717 2.20334 14.3717 1.72229 14.3717L1.4094 14.3738Z" fill="black"/>
<path d="M13.1106 13.1233C12.9476 13.1233 12.7847 13.116 12.6227 13.1259C12.5139 13.1327 12.4983 13.0895 12.4962 12.9937C12.4858 12.4985 12.4832 12.4985 12.9799 12.4985C13.1881 12.4985 13.3964 12.5032 13.6046 12.4985C13.7056 12.4949 13.7504 12.5095 13.752 12.6303C13.7587 13.1254 13.7639 13.1249 13.2673 13.1249L13.1106 13.1233Z" fill="black"/>
<path d="M1.71283 13.123C1.25052 13.123 1.25677 13.123 1.25 12.6648C1.25 12.5284 1.28124 12.4872 1.41972 12.4951C1.63994 12.5075 1.86172 12.5018 2.08299 12.4951C2.16785 12.4951 2.20481 12.518 2.19127 12.6039C2.19075 12.6105 2.19075 12.6171 2.19127 12.6237C2.20741 13.123 2.20741 13.123 1.71283 13.123Z" fill="black"/>
<path d="M2.19018 11.5646C2.19018 11.8729 2.19018 11.8729 1.87417 11.8729C1.55816 11.8729 1.56544 11.8729 1.56544 11.5568C1.56544 11.2408 1.56544 11.2481 1.88198 11.2481C2.19018 11.2481 2.19018 11.2481 2.19018 11.5646Z" fill="black"/>
<path d="M16.4035 11.2509C15.6747 11.2509 14.9458 11.2478 14.2169 11.254C14.0899 11.254 14.0566 11.2223 14.0576 11.0947C14.0635 10.2616 14.0635 9.4286 14.0576 8.59554C14.0576 8.4685 14.0889 8.43466 14.2169 8.43622C14.8021 8.44299 15.3878 8.44091 15.9735 8.43622C16.0179 8.43325 16.0623 8.44011 16.1037 8.45631C16.1451 8.47251 16.1824 8.49765 16.213 8.52994C17.0245 9.34668 17.8387 10.161 18.6557 10.9729C18.727 11.0437 18.777 11.1213 18.739 11.2113C18.7067 11.2884 18.6141 11.2473 18.55 11.2473C17.8347 11.2519 17.1194 11.2509 16.4035 11.2509Z" fill="#FEFEFE"/>
<path d="M6.88014 13.4356C7.18992 13.4363 7.49248 13.5292 7.74934 13.7024C8.00621 13.8755 8.20578 14.1212 8.32268 14.4081C8.43958 14.695 8.46853 15.0102 8.40584 15.3136C8.34315 15.617 8.19167 15.8949 7.97064 16.112C7.74962 16.329 7.46904 16.4755 7.16458 16.5327C6.86012 16.5898 6.54553 16.5552 6.26082 16.4331C5.9761 16.311 5.73412 16.107 5.56564 15.847C5.39716 15.587 5.30979 15.2828 5.31464 14.9731C5.32108 14.5624 5.48896 14.1708 5.78196 13.8831C6.07495 13.5953 6.46948 13.4345 6.88014 13.4356ZM7.18834 14.9975C7.18834 14.6851 7.18834 14.6851 6.87597 14.6851C6.5636 14.6851 6.5636 14.6851 6.5636 14.9975C6.5636 15.3099 6.5636 15.3099 6.87597 15.3099C7.18834 15.3099 7.18834 15.3094 7.18834 14.998V14.9975Z" fill="#FCFCFC"/>
<path d="M15.6177 13.4356C15.9267 13.4346 16.229 13.5254 16.4864 13.6963C16.7438 13.8672 16.9447 14.1107 17.0637 14.3958C17.1827 14.681 17.2145 14.995 17.155 15.2982C17.0956 15.6014 16.9475 15.8802 16.7296 16.0992C16.5116 16.3183 16.2336 16.4677 15.9307 16.5288C15.6279 16.5898 15.3137 16.5595 15.028 16.4419C14.7422 16.3243 14.4978 16.1246 14.3256 15.8681C14.1534 15.6115 14.0612 15.3096 14.0606 15.0007C14.0597 14.5867 14.2233 14.1893 14.5152 13.8958C14.8072 13.6023 15.2038 13.4368 15.6177 13.4356ZM15.6057 15.3099C15.9343 15.3099 15.9342 15.3099 15.9342 14.9751C15.9342 14.6857 15.9343 14.6857 15.6385 14.6857C15.31 14.6857 15.31 14.6857 15.31 15.0199C15.31 15.3094 15.31 15.3094 15.6057 15.3094V15.3099Z" fill="#FCFCFC"/>
<path d="M8.41455 16.5504C8.73942 16.2099 8.94089 15.8371 9.01847 15.405C9.03513 15.3123 9.08042 15.3097 9.14966 15.3097C10.547 15.3097 11.9445 15.3097 13.3422 15.3097C13.3942 15.3097 13.4598 15.2847 13.4755 15.3774C13.5483 15.8231 13.7587 16.2026 14.0804 16.5494L8.41455 16.5504Z" fill="#FEFEFE"/>
<path d="M4.67644 10.3085C2.7892 10.3085 1.25391 8.76161 1.25391 6.86017C1.25339 4.98529 2.80586 3.43581 4.68529 3.43946C6.58658 3.4431 8.12969 4.9806 8.12656 6.8685C8.12705 7.32126 8.03806 7.76965 7.86472 8.18791C7.69138 8.60616 7.4371 8.98604 7.11649 9.3057C6.79588 9.62537 6.41527 9.87852 5.99652 10.0506C5.57778 10.2227 5.12916 10.3103 4.67644 10.3085ZM4.68893 4.0606C4.33361 4.05898 3.98333 4.14477 3.66897 4.31042C3.35461 4.47607 3.08581 4.7165 2.88624 5.01052C2.68668 5.30454 2.56248 5.64313 2.52458 5.99646C2.48669 6.34979 2.53627 6.70702 2.66894 7.03668C3.06201 8.02593 3.73777 8.82617 4.46455 9.58477C4.60043 9.72691 4.77223 9.72118 4.91644 9.58477C5.03879 9.46867 5.15124 9.34214 5.26317 9.2151C5.84054 8.56012 6.37573 7.87545 6.70372 7.05438C6.83866 6.72441 6.8902 6.36626 6.85377 6.01163C6.81734 5.65699 6.69407 5.31681 6.49486 5.02117C6.29565 4.72553 6.02666 4.48355 5.71167 4.31664C5.39667 4.14974 5.0454 4.06305 4.68893 4.06425V4.0606Z" fill="#FCFCFC"/>
<path d="M7.18822 14.9999C7.18822 15.3123 7.18822 15.3123 6.87585 15.3123C6.56348 15.3123 6.56348 15.3123 6.56348 14.9999C6.56348 14.6875 6.56348 14.6875 6.87585 14.6875C7.18822 14.6875 7.18822 14.687 7.18822 14.9999Z" fill="black"/>
<path d="M15.6063 15.3098C15.3105 15.3098 15.3105 15.3098 15.3105 15.0198C15.3105 14.6855 15.3105 14.6855 15.6391 14.6855C15.9348 14.6855 15.9348 14.6855 15.9348 14.975C15.9348 15.3098 15.9348 15.3098 15.6063 15.3098Z" fill="black"/>
<path d="M4.6887 4.06447C5.04557 4.06306 5.39727 4.14974 5.71262 4.31681C6.02796 4.48388 6.29722 4.7262 6.4965 5.02226C6.69578 5.31832 6.81894 5.65899 6.85505 6.01406C6.89115 6.36912 6.8391 6.72761 6.70349 7.05773C6.3755 7.87881 5.84031 8.56347 5.26294 9.21846C5.15101 9.3455 5.03856 9.47202 4.91621 9.58812C4.772 9.72506 4.6002 9.73078 4.46432 9.58812C3.73546 8.82953 3.06178 8.03084 2.66871 7.04003C2.53615 6.7104 2.48666 6.35323 2.5246 5.99997C2.56255 5.64671 2.68677 5.3082 2.88632 5.01425C3.08587 4.7203 3.35463 4.47993 3.66894 4.3143C3.98324 4.14868 4.33344 4.06289 4.6887 4.06447ZM4.7064 4.68926C3.65892 4.6726 2.75357 5.7613 3.29293 6.92809C3.58448 7.55912 3.99472 8.10842 4.43829 8.63584C4.68714 8.93053 4.69287 8.93157 4.94224 8.6322C5.42069 8.05947 5.88664 7.47269 6.14487 6.75783C6.22964 6.52577 6.25735 6.27671 6.22564 6.03169C6.19393 5.78666 6.10375 5.55286 5.9627 5.35002C5.82164 5.14719 5.63387 4.98126 5.41521 4.86626C5.19656 4.75125 4.95345 4.69055 4.7064 4.68926Z" fill="#040404"/>
<path d="M4.70681 4.68769C4.95415 4.68877 5.19759 4.74942 5.41654 4.8645C5.63548 4.97958 5.82349 5.14571 5.96465 5.34884C6.10581 5.55196 6.19596 5.7861 6.2275 6.03145C6.25903 6.27679 6.231 6.52612 6.14579 6.75834C5.88548 7.47216 5.42162 8.05738 4.94317 8.6327C4.6938 8.93208 4.68807 8.93104 4.43921 8.63635C3.99513 8.10892 3.58488 7.55963 3.29386 6.9286C2.75398 5.75972 3.65933 4.67103 4.70681 4.68769ZM5.62622 6.26215C5.6289 6.07624 5.57623 5.89374 5.47491 5.73785C5.37358 5.58196 5.22818 5.45973 5.0572 5.38672C4.88622 5.31371 4.69739 5.29321 4.51473 5.32782C4.33206 5.36244 4.16382 5.45061 4.03141 5.58113C3.899 5.71164 3.80839 5.87859 3.77112 6.06075C3.73385 6.2429 3.7516 6.43203 3.82212 6.60406C3.89263 6.7761 4.01271 6.92328 4.1671 7.02687C4.32149 7.13046 4.50319 7.18578 4.68911 7.1858C4.93532 7.18583 5.17165 7.08895 5.34701 6.91611C5.52236 6.74327 5.62266 6.50836 5.62622 6.26215Z" fill="#FBFBFB"/>
<path d="M5.6261 6.2631C5.62384 6.44811 5.56687 6.6283 5.46237 6.78098C5.35788 6.93367 5.21053 7.052 5.03889 7.12107C4.86726 7.19014 4.67903 7.20686 4.49791 7.16911C4.31679 7.13137 4.1509 7.04086 4.02113 6.90899C3.89137 6.77711 3.80354 6.60977 3.76871 6.42806C3.73388 6.24635 3.75361 6.05839 3.82542 5.88787C3.89723 5.71736 4.0179 5.57192 4.17223 5.46987C4.32656 5.36783 4.50763 5.31375 4.69264 5.31446C4.81626 5.31528 4.93851 5.34048 5.05238 5.38863C5.16625 5.43678 5.2695 5.50692 5.35622 5.59505C5.44293 5.68317 5.51141 5.78754 5.55772 5.90218C5.60403 6.01682 5.62727 6.13946 5.6261 6.2631ZM4.68899 5.93769C4.62706 5.93769 4.56652 5.95611 4.51508 5.9906C4.46363 6.02509 4.4236 6.07409 4.40007 6.13139C4.37654 6.18869 4.37057 6.25168 4.38292 6.31238C4.39527 6.37308 4.42538 6.42873 4.46944 6.47227C4.51349 6.51581 4.56949 6.54527 4.63032 6.55691C4.69115 6.56855 4.75407 6.56184 4.81108 6.53764C4.86809 6.51343 4.91662 6.47283 4.9505 6.42098C4.98438 6.36913 5.00209 6.30837 5.00136 6.24644C5.00041 6.16449 4.96729 6.0862 4.90915 6.02844C4.85101 5.97068 4.7725 5.93809 4.69055 5.93769H4.68899Z" fill="#030303"/>
<path d="M4.69036 5.93945C4.75241 5.93947 4.81304 5.95796 4.86454 5.99257C4.91603 6.02718 4.95606 6.07634 4.97951 6.13379C5.00295 6.19124 5.00876 6.25437 4.9962 6.31513C4.98363 6.37589 4.95325 6.43154 4.90894 6.47497C4.86463 6.5184 4.80838 6.54765 4.74738 6.55898C4.68638 6.57032 4.62339 6.56324 4.56643 6.53863C4.50947 6.51403 4.46113 6.47302 4.42757 6.42083C4.39401 6.36864 4.37675 6.30764 4.37799 6.2456C4.37963 6.16384 4.41326 6.08597 4.47166 6.02873C4.53007 5.97149 4.60859 5.93944 4.69036 5.93945Z" fill="#F3F3F3"/>
</svg>
