<svg width="156" height="37" viewBox="0 0 156 37" fill="none" xmlns="http://www.w3.org/2000/svg">
<rect width="156" height="37" rx="2" fill="#56BB6D"/>
<path d="M35.4416 14.285H32.2986V23H30.6676V14.285H27.5176V12.92H35.4416V14.285ZM36.6089 17.183C36.8329 16.7303 37.1036 16.3757 37.4209 16.119C37.7382 15.8577 38.1186 15.727 38.5619 15.727C38.7159 15.727 38.8606 15.7457 38.9959 15.783C39.1312 15.8157 39.2526 15.867 39.3599 15.937L39.2549 17.071C39.2362 17.1503 39.2059 17.2063 39.1639 17.239C39.1266 17.267 39.0752 17.281 39.0099 17.281C38.9399 17.281 38.8396 17.2693 38.7089 17.246C38.5782 17.218 38.4406 17.204 38.2959 17.204C38.0859 17.204 37.8992 17.2343 37.7359 17.295C37.5772 17.3557 37.4326 17.4443 37.3019 17.561C37.1759 17.6777 37.0639 17.82 36.9659 17.988C36.8679 18.156 36.7769 18.3473 36.6929 18.562V23H35.1879V15.86H36.0629C36.2216 15.86 36.3312 15.8903 36.3919 15.951C36.4526 16.007 36.4946 16.1073 36.5179 16.252L36.6089 17.183ZM44.1615 19.878C43.6248 19.8967 43.1722 19.941 42.8035 20.011C42.4348 20.0763 42.1362 20.1627 41.9075 20.27C41.6788 20.3727 41.5132 20.4963 41.4105 20.641C41.3125 20.7857 41.2635 20.9443 41.2635 21.117C41.2635 21.285 41.2892 21.4297 41.3405 21.551C41.3965 21.6677 41.4712 21.7657 41.5645 21.845C41.6625 21.9197 41.7745 21.9757 41.9005 22.013C42.0312 22.0457 42.1735 22.062 42.3275 22.062C42.7195 22.062 43.0555 21.9897 43.3355 21.845C43.6202 21.6957 43.8955 21.481 44.1615 21.201V19.878ZM40.1715 16.854C40.9788 16.1027 41.9402 15.727 43.0555 15.727C43.4662 15.727 43.8302 15.7947 44.1475 15.93C44.4695 16.0607 44.7378 16.2473 44.9525 16.49C45.1718 16.7327 45.3375 17.022 45.4495 17.358C45.5662 17.6893 45.6245 18.058 45.6245 18.464V23H44.9525C44.8078 23 44.6982 22.979 44.6235 22.937C44.5488 22.8903 44.4858 22.7993 44.4345 22.664L44.2875 22.083C44.1055 22.2463 43.9258 22.3933 43.7485 22.524C43.5712 22.65 43.3868 22.7573 43.1955 22.846C43.0088 22.9347 42.8058 23 42.5865 23.042C42.3718 23.0887 42.1338 23.112 41.8725 23.112C41.5832 23.112 41.3125 23.0723 41.0605 22.993C40.8132 22.9137 40.5985 22.7947 40.4165 22.636C40.2345 22.4727 40.0898 22.272 39.9825 22.034C39.8798 21.796 39.8285 21.516 39.8285 21.194C39.8285 20.9187 39.9008 20.6503 40.0455 20.389C40.1948 20.1277 40.4375 19.8943 40.7735 19.689C41.1142 19.479 41.5598 19.3063 42.1105 19.171C42.6658 19.0357 43.3495 18.9587 44.1615 18.94V18.464C44.1615 17.9507 44.0518 17.568 43.8325 17.316C43.6132 17.064 43.2912 16.938 42.8665 16.938C42.5772 16.938 42.3345 16.9753 42.1385 17.05C41.9425 17.12 41.7722 17.197 41.6275 17.281C41.4828 17.365 41.3545 17.4443 41.2425 17.519C41.1305 17.589 41.0115 17.624 40.8855 17.624C40.7828 17.624 40.6942 17.5983 40.6195 17.547C40.5495 17.491 40.4912 17.4233 40.4445 17.344L40.1715 16.854ZM52.5345 17.26C52.4878 17.3207 52.4435 17.3673 52.4015 17.4C52.3595 17.4327 52.2988 17.449 52.2195 17.449C52.1402 17.449 52.0562 17.421 51.9675 17.365C51.8835 17.309 51.7808 17.2483 51.6595 17.183C51.5428 17.113 51.4005 17.05 51.2325 16.994C51.0645 16.938 50.8545 16.91 50.6025 16.91C50.2758 16.91 49.9888 16.9683 49.7415 17.085C49.4988 17.2017 49.2935 17.3697 49.1255 17.589C48.9622 17.8037 48.8385 18.0673 48.7545 18.38C48.6752 18.688 48.6355 19.0357 48.6355 19.423C48.6355 19.8243 48.6798 20.1813 48.7685 20.494C48.8572 20.8067 48.9832 21.0703 49.1465 21.285C49.3145 21.4997 49.5152 21.663 49.7485 21.775C49.9865 21.887 50.2525 21.943 50.5465 21.943C50.8358 21.943 51.0715 21.908 51.2535 21.838C51.4355 21.768 51.5872 21.691 51.7085 21.607C51.8298 21.523 51.9325 21.446 52.0165 21.376C52.1052 21.306 52.1985 21.271 52.2965 21.271C52.4178 21.271 52.5112 21.3177 52.5765 21.411L53.0035 21.964C52.8308 22.174 52.6395 22.3513 52.4295 22.496C52.2195 22.6407 51.9978 22.7597 51.7645 22.853C51.5312 22.9417 51.2885 23.0047 51.0365 23.042C50.7845 23.084 50.5302 23.105 50.2735 23.105C49.8302 23.105 49.4148 23.0233 49.0275 22.86C48.6448 22.692 48.3088 22.4517 48.0195 22.139C47.7348 21.8217 47.5085 21.4367 47.3405 20.984C47.1772 20.5267 47.0955 20.0063 47.0955 19.423C47.0955 18.8957 47.1702 18.408 47.3195 17.96C47.4688 17.5073 47.6858 17.1177 47.9705 16.791C48.2598 16.4643 48.6168 16.21 49.0415 16.028C49.4662 15.8413 49.9562 15.748 50.5115 15.748C51.0295 15.748 51.4845 15.832 51.8765 16C52.2732 16.168 52.6255 16.406 52.9335 16.714L52.5345 17.26ZM55.8191 12.64V18.646H56.1411C56.2437 18.646 56.3277 18.632 56.3931 18.604C56.4584 18.576 56.5261 18.5177 56.5961 18.429L58.5981 16.14C58.6681 16.0467 58.7451 15.9767 58.8291 15.93C58.9131 15.8833 59.0204 15.86 59.1511 15.86H60.5161L58.1081 18.576C57.9681 18.758 57.8141 18.9027 57.6461 19.01C57.7394 19.0753 57.8211 19.15 57.8911 19.234C57.9611 19.3133 58.0287 19.4043 58.0941 19.507L60.6631 23H59.3191C59.1977 23 59.0927 22.9813 59.0041 22.944C58.9201 22.902 58.8454 22.8273 58.7801 22.72L56.7151 19.92C56.6451 19.8127 56.5751 19.745 56.5051 19.717C56.4351 19.6843 56.3301 19.668 56.1901 19.668H55.8191V23H54.3141V12.64H55.8191ZM71.2944 15.86L67.3604 25.03C67.309 25.1373 67.246 25.2213 67.1714 25.282C67.1014 25.3427 66.9917 25.373 66.8424 25.373H65.7294L67.0454 22.517L64.1334 15.86H65.4424C65.5684 15.86 65.664 15.8903 65.7294 15.951C65.7994 16.007 65.8507 16.0747 65.8834 16.154L67.5844 20.207C67.6264 20.3237 67.6637 20.4403 67.6964 20.557C67.7337 20.669 67.7687 20.7857 67.8014 20.907C67.8387 20.7857 67.876 20.6667 67.9134 20.55C67.9507 20.4333 67.9927 20.3167 68.0394 20.2L69.6704 16.154C69.703 16.07 69.7567 16 69.8314 15.944C69.9107 15.888 69.997 15.86 70.0904 15.86H71.2944ZM75.2558 15.748C75.7831 15.748 76.2591 15.8343 76.6838 16.007C77.1131 16.1797 77.4771 16.4247 77.7758 16.742C78.0791 17.0593 78.3124 17.4443 78.4758 17.897C78.6391 18.3497 78.7208 18.8583 78.7208 19.423C78.7208 19.9877 78.6391 20.4963 78.4758 20.949C78.3124 21.4017 78.0791 21.789 77.7758 22.111C77.4771 22.4283 77.1131 22.6733 76.6838 22.846C76.2591 23.0187 75.7831 23.105 75.2558 23.105C74.7238 23.105 74.2431 23.0187 73.8138 22.846C73.3891 22.6733 73.0251 22.4283 72.7218 22.111C72.4184 21.789 72.1851 21.4017 72.0218 20.949C71.8584 20.4963 71.7768 19.9877 71.7768 19.423C71.7768 18.8583 71.8584 18.3497 72.0218 17.897C72.1851 17.4443 72.4184 17.0593 72.7218 16.742C73.0251 16.4247 73.3891 16.1797 73.8138 16.007C74.2431 15.8343 74.7238 15.748 75.2558 15.748ZM75.2558 21.929C75.8998 21.929 76.3781 21.7143 76.6908 21.285C77.0081 20.851 77.1668 20.2327 77.1668 19.43C77.1668 18.6273 77.0081 18.009 76.6908 17.575C76.3781 17.1363 75.8998 16.917 75.2558 16.917C74.6024 16.917 74.1171 17.1363 73.7998 17.575C73.4824 18.009 73.3238 18.6273 73.3238 19.43C73.3238 20.2327 73.4824 20.851 73.7998 21.285C74.1171 21.7143 74.6024 21.929 75.2558 21.929ZM86.2868 15.86V23H85.3768C85.1761 23 85.0478 22.9043 84.9918 22.713L84.8798 22.048C84.7305 22.2067 84.5718 22.3513 84.4038 22.482C84.2405 22.6127 84.0655 22.7247 83.8788 22.818C83.6921 22.9113 83.4915 22.9837 83.2768 23.035C83.0668 23.0863 82.8405 23.112 82.5978 23.112C82.2058 23.112 81.8605 23.0467 81.5618 22.916C81.2631 22.7853 81.0111 22.601 80.8058 22.363C80.6051 22.125 80.4535 21.8403 80.3508 21.509C80.2481 21.173 80.1968 20.8043 80.1968 20.403V15.86H81.7018V20.403C81.7018 20.8837 81.8115 21.257 82.0308 21.523C82.2548 21.789 82.5931 21.922 83.0458 21.922C83.3771 21.922 83.6851 21.8473 83.9698 21.698C84.2591 21.544 84.5298 21.334 84.7818 21.068V15.86H86.2868ZM89.6355 17.183C89.8595 16.7303 90.1301 16.3757 90.4475 16.119C90.7648 15.8577 91.1451 15.727 91.5885 15.727C91.7425 15.727 91.8871 15.7457 92.0225 15.783C92.1578 15.8157 92.2791 15.867 92.3865 15.937L92.2815 17.071C92.2628 17.1503 92.2325 17.2063 92.1905 17.239C92.1531 17.267 92.1018 17.281 92.0365 17.281C91.9665 17.281 91.8661 17.2693 91.7355 17.246C91.6048 17.218 91.4671 17.204 91.3225 17.204C91.1125 17.204 90.9258 17.2343 90.7625 17.295C90.6038 17.3557 90.4591 17.4443 90.3285 17.561C90.2025 17.6777 90.0905 17.82 89.9925 17.988C89.8945 18.156 89.8035 18.3473 89.7195 18.562V23H88.2145V15.86H89.0895C89.2481 15.86 89.3578 15.8903 89.4185 15.951C89.4791 16.007 89.5211 16.1073 89.5445 16.252L89.6355 17.183ZM99.855 15.748C100.382 15.748 100.858 15.8343 101.283 16.007C101.712 16.1797 102.076 16.4247 102.375 16.742C102.678 17.0593 102.912 17.4443 103.075 17.897C103.238 18.3497 103.32 18.8583 103.32 19.423C103.32 19.9877 103.238 20.4963 103.075 20.949C102.912 21.4017 102.678 21.789 102.375 22.111C102.076 22.4283 101.712 22.6733 101.283 22.846C100.858 23.0187 100.382 23.105 99.855 23.105C99.323 23.105 98.8423 23.0187 98.413 22.846C97.9883 22.6733 97.6243 22.4283 97.321 22.111C97.0176 21.789 96.7843 21.4017 96.621 20.949C96.4576 20.4963 96.376 19.9877 96.376 19.423C96.376 18.8583 96.4576 18.3497 96.621 17.897C96.7843 17.4443 97.0176 17.0593 97.321 16.742C97.6243 16.4247 97.9883 16.1797 98.413 16.007C98.8423 15.8343 99.323 15.748 99.855 15.748ZM99.855 21.929C100.499 21.929 100.977 21.7143 101.29 21.285C101.607 20.851 101.766 20.2327 101.766 19.43C101.766 18.6273 101.607 18.009 101.29 17.575C100.977 17.1363 100.499 16.917 99.855 16.917C99.2016 16.917 98.7163 17.1363 98.399 17.575C98.0816 18.009 97.923 18.6273 97.923 19.43C97.923 20.2327 98.0816 20.851 98.399 21.285C98.7163 21.7143 99.2016 21.929 99.855 21.929ZM106.287 17.183C106.511 16.7303 106.782 16.3757 107.099 16.119C107.416 15.8577 107.797 15.727 108.24 15.727C108.394 15.727 108.539 15.7457 108.674 15.783C108.809 15.8157 108.931 15.867 109.038 15.937L108.933 17.071C108.914 17.1503 108.884 17.2063 108.842 17.239C108.805 17.267 108.753 17.281 108.688 17.281C108.618 17.281 108.518 17.2693 108.387 17.246C108.256 17.218 108.119 17.204 107.974 17.204C107.764 17.204 107.577 17.2343 107.414 17.295C107.255 17.3557 107.111 17.4443 106.98 17.561C106.854 17.6777 106.742 17.82 106.644 17.988C106.546 18.156 106.455 18.3473 106.371 18.562V23H104.866V15.86H105.741C105.9 15.86 106.009 15.8903 106.07 15.951C106.131 16.007 106.173 16.1073 106.196 16.252L106.287 17.183ZM114.459 17.617C114.249 17.3463 114.018 17.1573 113.766 17.05C113.514 16.9427 113.241 16.889 112.947 16.889C112.359 16.889 111.899 17.106 111.568 17.54C111.236 17.9693 111.071 18.6063 111.071 19.451C111.071 19.8897 111.108 20.2653 111.183 20.578C111.257 20.886 111.365 21.138 111.505 21.334C111.645 21.53 111.815 21.6723 112.016 21.761C112.216 21.8497 112.443 21.894 112.695 21.894C113.077 21.894 113.406 21.8123 113.682 21.649C113.962 21.481 114.221 21.2453 114.459 20.942V17.617ZM115.964 12.64V23H115.054C114.853 23 114.725 22.9043 114.669 22.713L114.536 21.936C114.237 22.286 113.896 22.5683 113.514 22.783C113.136 22.9977 112.695 23.105 112.191 23.105C111.789 23.105 111.425 23.0257 111.099 22.867C110.772 22.7037 110.492 22.468 110.259 22.16C110.025 21.852 109.843 21.4717 109.713 21.019C109.587 20.5617 109.524 20.039 109.524 19.451C109.524 18.919 109.594 18.4267 109.734 17.974C109.878 17.5213 110.084 17.1293 110.35 16.798C110.616 16.462 110.938 16.2007 111.316 16.014C111.698 15.8227 112.125 15.727 112.597 15.727C113.017 15.727 113.374 15.7947 113.668 15.93C113.962 16.0607 114.225 16.245 114.459 16.483V12.64H115.964ZM122.587 18.625C122.587 18.373 122.55 18.1397 122.475 17.925C122.405 17.7057 122.3 17.5167 122.16 17.358C122.02 17.1947 121.845 17.0687 121.635 16.98C121.43 16.8867 121.192 16.84 120.921 16.84C120.375 16.84 119.946 16.9963 119.633 17.309C119.32 17.6217 119.122 18.0603 119.038 18.625H122.587ZM118.996 19.549C119.015 19.955 119.078 20.3073 119.185 20.606C119.292 20.9 119.435 21.145 119.612 21.341C119.794 21.537 120.009 21.684 120.256 21.782C120.508 21.8753 120.788 21.922 121.096 21.922C121.39 21.922 121.644 21.8893 121.859 21.824C122.074 21.754 122.26 21.6793 122.419 21.6C122.578 21.516 122.713 21.4413 122.825 21.376C122.937 21.306 123.04 21.271 123.133 21.271C123.254 21.271 123.348 21.3177 123.413 21.411L123.84 21.964C123.663 22.174 123.462 22.3513 123.238 22.496C123.014 22.6407 122.776 22.7597 122.524 22.853C122.272 22.9417 122.013 23.0047 121.747 23.042C121.481 23.084 121.222 23.105 120.97 23.105C120.475 23.105 120.016 23.0233 119.591 22.86C119.171 22.692 118.805 22.447 118.492 22.125C118.184 21.803 117.941 21.404 117.764 20.928C117.591 20.452 117.505 19.9037 117.505 19.283C117.505 18.7883 117.582 18.3263 117.736 17.897C117.895 17.4677 118.119 17.0943 118.408 16.777C118.702 16.4597 119.057 16.21 119.472 16.028C119.892 15.8413 120.366 15.748 120.893 15.748C121.332 15.748 121.738 15.8203 122.111 15.965C122.484 16.105 122.806 16.3127 123.077 16.588C123.348 16.8633 123.558 17.2017 123.707 17.603C123.861 17.9997 123.938 18.4523 123.938 18.961C123.938 19.1943 123.912 19.3507 123.861 19.43C123.81 19.5093 123.716 19.549 123.581 19.549H118.996ZM126.862 17.183C127.086 16.7303 127.357 16.3757 127.674 16.119C127.992 15.8577 128.372 15.727 128.815 15.727C128.969 15.727 129.114 15.7457 129.249 15.783C129.385 15.8157 129.506 15.867 129.613 15.937L129.508 17.071C129.49 17.1503 129.459 17.2063 129.417 17.239C129.38 17.267 129.329 17.281 129.263 17.281C129.193 17.281 129.093 17.2693 128.962 17.246C128.832 17.218 128.694 17.204 128.549 17.204C128.339 17.204 128.153 17.2343 127.989 17.295C127.831 17.3557 127.686 17.4443 127.555 17.561C127.429 17.6777 127.317 17.82 127.219 17.988C127.121 18.156 127.03 18.3473 126.946 18.562V23H125.441V15.86H126.316C126.475 15.86 126.585 15.8903 126.645 15.951C126.706 16.007 126.748 16.1073 126.771 16.252L126.862 17.183Z" fill="white"/>
</svg>
