<svg width="26" height="26" viewBox="0 0 26 26" fill="none" xmlns="http://www.w3.org/2000/svg">
<g clip-path="url(#clip0)">
<path d="M14.3553 19.5001H11.6469C10.9005 19.5001 10.2928 18.8923 10.2928 18.1459V11.9167H7.31362C6.60187 11.9167 6.23245 11.0598 6.72537 10.5431L12.4129 4.58474C12.7194 4.26407 13.2828 4.26407 13.5894 4.58474L19.2769 10.5431C19.7698 11.0598 19.4004 11.9167 18.6886 11.9167H15.7094V18.1459C15.7094 18.8923 15.1017 19.5001 14.3553 19.5001Z" fill="#6D3745"/>
<path d="M22.75 25.9997H3.25C1.45817 25.9997 0 24.5415 0 22.7497V17.333C0 15.5412 1.45817 14.083 3.25 14.083H4.875C5.473 14.083 5.95833 14.5683 5.95833 15.1663C5.95833 15.7643 5.473 16.2497 4.875 16.2497H3.25C2.65308 16.2497 2.16667 16.7361 2.16667 17.333V22.7497C2.16667 23.3466 2.65308 23.833 3.25 23.833H22.75C23.3469 23.833 23.8333 23.3466 23.8333 22.7497V17.333C23.8333 16.7361 23.3469 16.2497 22.75 16.2497H21.125C20.527 16.2497 20.0417 15.7643 20.0417 15.1663C20.0417 14.5683 20.527 14.083 21.125 14.083H22.75C24.5418 14.083 26 15.5412 26 17.333V22.7497C26 24.5415 24.5418 25.9997 22.75 25.9997Z" fill="#6D3745"/>
</g>
<defs>
<clipPath id="clip0">
<rect width="26" height="26" fill="white"/>
</clipPath>
</defs>
</svg>
