<svg width="172" height="129" viewBox="0 0 172 129" fill="none" xmlns="http://www.w3.org/2000/svg">
<path d="M80.125 52.875H91.875V29.375H109.5L86 5.875L62.5 29.375H80.125V52.875ZM97.75 39.6562V48.7155L124.652 58.75L86 73.1614L47.3484 58.75L74.25 48.7155V39.6562L39 52.875V76.375L86 94L133 76.375V52.875L97.75 39.6562Z" fill="#848484"/>
<path d="M10.3332 118.988C10.3332 119.739 10.2142 120.423 9.9762 121.039C9.7382 121.655 9.4022 122.182 8.9682 122.621C8.5342 123.06 8.01153 123.4 7.4002 123.643C6.79353 123.881 6.12153 124 5.3842 124H1.6392V113.969H5.3842C6.12153 113.969 6.79353 114.09 7.4002 114.333C8.01153 114.571 8.5342 114.912 8.9682 115.355C9.4022 115.794 9.7382 116.321 9.9762 116.937C10.2142 117.553 10.3332 118.237 10.3332 118.988ZM8.9402 118.988C8.9402 118.372 8.8562 117.821 8.6882 117.336C8.5202 116.851 8.2822 116.44 7.9742 116.104C7.6662 115.768 7.29287 115.511 6.8542 115.334C6.41553 115.157 5.92553 115.068 5.3842 115.068H2.9972V122.901H5.3842C5.92553 122.901 6.41553 122.812 6.8542 122.635C7.29287 122.458 7.6662 122.203 7.9742 121.872C8.2822 121.536 8.5202 121.125 8.6882 120.64C8.8562 120.155 8.9402 119.604 8.9402 118.988ZM13.1282 118.33C13.3522 117.845 13.6275 117.467 13.9542 117.196C14.2809 116.921 14.6799 116.783 15.1512 116.783C15.3005 116.783 15.4429 116.799 15.5782 116.832C15.7182 116.865 15.8419 116.916 15.9492 116.986L15.8582 117.917C15.8302 118.034 15.7602 118.092 15.6482 118.092C15.5829 118.092 15.4872 118.078 15.3612 118.05C15.2352 118.022 15.0929 118.008 14.9342 118.008C14.7102 118.008 14.5095 118.041 14.3322 118.106C14.1595 118.171 14.0032 118.269 13.8632 118.4C13.7279 118.526 13.6042 118.685 13.4922 118.876C13.3849 119.063 13.2869 119.277 13.1982 119.52V124H11.9452V116.909H12.6592C12.7945 116.909 12.8879 116.935 12.9392 116.986C12.9905 117.037 13.0255 117.126 13.0442 117.252L13.1282 118.33ZM20.8784 120.808C20.3044 120.827 19.8144 120.873 19.4084 120.948C19.0071 121.018 18.6781 121.111 18.4214 121.228C18.1694 121.345 17.9851 121.482 17.8684 121.641C17.7564 121.8 17.7004 121.977 17.7004 122.173C17.7004 122.36 17.7308 122.521 17.7914 122.656C17.8521 122.791 17.9338 122.903 18.0364 122.992C18.1438 123.076 18.2674 123.139 18.4074 123.181C18.5521 123.218 18.7061 123.237 18.8694 123.237C19.0888 123.237 19.2894 123.216 19.4714 123.174C19.6534 123.127 19.8238 123.062 19.9824 122.978C20.1458 122.894 20.2998 122.794 20.4444 122.677C20.5938 122.56 20.7384 122.427 20.8784 122.278V120.808ZM16.8534 117.91C17.2454 117.532 17.6678 117.25 18.1204 117.063C18.5731 116.876 19.0748 116.783 19.6254 116.783C20.0221 116.783 20.3744 116.848 20.6824 116.979C20.9904 117.11 21.2494 117.292 21.4594 117.525C21.6694 117.758 21.8281 118.041 21.9354 118.372C22.0428 118.703 22.0964 119.067 22.0964 119.464V124H21.5434C21.4221 124 21.3288 123.981 21.2634 123.944C21.1981 123.902 21.1468 123.823 21.1094 123.706L20.9694 123.034C20.7828 123.207 20.6008 123.361 20.4234 123.496C20.2461 123.627 20.0594 123.739 19.8634 123.832C19.6674 123.921 19.4574 123.988 19.2334 124.035C19.0141 124.086 18.7691 124.112 18.4984 124.112C18.2231 124.112 17.9641 124.075 17.7214 124C17.4788 123.921 17.2664 123.804 17.0844 123.65C16.9071 123.496 16.7648 123.302 16.6574 123.069C16.5548 122.831 16.5034 122.551 16.5034 122.229C16.5034 121.949 16.5804 121.681 16.7344 121.424C16.8884 121.163 17.1381 120.932 17.4834 120.731C17.8288 120.53 18.2791 120.367 18.8344 120.241C19.3898 120.11 20.0711 120.036 20.8784 120.017V119.464C20.8784 118.913 20.7594 118.498 20.5214 118.218C20.2834 117.933 19.9358 117.791 19.4784 117.791C19.1704 117.791 18.9114 117.831 18.7014 117.91C18.4961 117.985 18.3164 118.071 18.1624 118.169C18.0131 118.262 17.8824 118.349 17.7704 118.428C17.6631 118.503 17.5558 118.54 17.4484 118.54C17.3644 118.54 17.2921 118.519 17.2314 118.477C17.1708 118.43 17.1194 118.374 17.0774 118.309L16.8534 117.91ZM26.5654 120.535C26.8174 120.535 27.0391 120.5 27.2304 120.43C27.4218 120.36 27.5828 120.262 27.7134 120.136C27.8441 120.01 27.9421 119.861 28.0074 119.688C28.0728 119.511 28.1054 119.317 28.1054 119.107C28.1054 118.673 27.9724 118.328 27.7064 118.071C27.4451 117.814 27.0648 117.686 26.5654 117.686C26.0614 117.686 25.6764 117.814 25.4104 118.071C25.1491 118.328 25.0184 118.673 25.0184 119.107C25.0184 119.317 25.0511 119.511 25.1164 119.688C25.1864 119.861 25.2868 120.01 25.4174 120.136C25.5481 120.262 25.7091 120.36 25.9004 120.43C26.0918 120.5 26.3134 120.535 26.5654 120.535ZM28.8124 124.385C28.8124 124.212 28.7634 124.072 28.6654 123.965C28.5674 123.858 28.4344 123.774 28.2664 123.713C28.1031 123.652 27.9118 123.61 27.6924 123.587C27.4731 123.559 27.2398 123.538 26.9924 123.524C26.7498 123.51 26.5024 123.496 26.2504 123.482C25.9984 123.468 25.7558 123.445 25.5224 123.412C25.2611 123.533 25.0464 123.687 24.8784 123.874C24.7151 124.056 24.6334 124.271 24.6334 124.518C24.6334 124.677 24.6731 124.824 24.7524 124.959C24.8364 125.099 24.9624 125.218 25.1304 125.316C25.2984 125.419 25.5084 125.498 25.7604 125.554C26.0171 125.615 26.3181 125.645 26.6634 125.645C26.9994 125.645 27.3004 125.615 27.5664 125.554C27.8324 125.493 28.0564 125.407 28.2384 125.295C28.4251 125.183 28.5674 125.05 28.6654 124.896C28.7634 124.742 28.8124 124.572 28.8124 124.385ZM30.0794 117.189V117.651C30.0794 117.805 29.9814 117.903 29.7854 117.945L28.9804 118.05C29.1391 118.358 29.2184 118.699 29.2184 119.072C29.2184 119.417 29.1508 119.732 29.0154 120.017C28.8848 120.297 28.7028 120.537 28.4694 120.738C28.2361 120.939 27.9561 121.093 27.6294 121.2C27.3028 121.307 26.9481 121.361 26.5654 121.361C26.2341 121.361 25.9214 121.321 25.6274 121.242C25.4781 121.335 25.3638 121.436 25.2844 121.543C25.2051 121.646 25.1654 121.751 25.1654 121.858C25.1654 122.026 25.2331 122.154 25.3684 122.243C25.5084 122.327 25.6904 122.388 25.9144 122.425C26.1384 122.462 26.3928 122.486 26.6774 122.495C26.9668 122.504 27.2608 122.521 27.5594 122.544C27.8628 122.563 28.1568 122.598 28.4414 122.649C28.7308 122.7 28.9874 122.784 29.2114 122.901C29.4354 123.018 29.6151 123.179 29.7504 123.384C29.8904 123.589 29.9604 123.855 29.9604 124.182C29.9604 124.485 29.8834 124.779 29.7294 125.064C29.5801 125.349 29.3631 125.601 29.0784 125.82C28.7938 126.044 28.4438 126.221 28.0284 126.352C27.6178 126.487 27.1534 126.555 26.6354 126.555C26.1174 126.555 25.6648 126.504 25.2774 126.401C24.8901 126.298 24.5681 126.161 24.3114 125.988C24.0548 125.815 23.8611 125.615 23.7304 125.386C23.6044 125.162 23.5414 124.926 23.5414 124.679C23.5414 124.329 23.6511 124.033 23.8704 123.79C24.0898 123.547 24.3908 123.354 24.7734 123.209C24.5634 123.116 24.3954 122.992 24.2694 122.838C24.1481 122.679 24.0874 122.467 24.0874 122.201C24.0874 122.098 24.1061 121.993 24.1434 121.886C24.1808 121.774 24.2368 121.664 24.3114 121.557C24.3908 121.445 24.4864 121.34 24.5984 121.242C24.7104 121.144 24.8411 121.058 24.9904 120.983C24.6404 120.787 24.3674 120.528 24.1714 120.206C23.9754 119.879 23.8774 119.501 23.8774 119.072C23.8774 118.727 23.9428 118.414 24.0734 118.134C24.2088 117.849 24.3954 117.609 24.6334 117.413C24.8714 117.212 25.1538 117.058 25.4804 116.951C25.8118 116.844 26.1734 116.79 26.5654 116.79C26.8734 116.79 27.1604 116.825 27.4264 116.895C27.6924 116.96 27.9351 117.058 28.1544 117.189H30.0794ZM37.5439 119.058C37.0492 119.319 36.6759 119.637 36.4239 120.01C36.1766 120.383 36.0529 120.789 36.0529 121.228C36.0529 121.531 36.1089 121.8 36.2209 122.033C36.3329 122.262 36.4799 122.455 36.6619 122.614C36.8439 122.773 37.0516 122.894 37.2849 122.978C37.5182 123.057 37.7562 123.097 37.9989 123.097C38.5216 123.097 38.9906 123.001 39.4059 122.81C39.8259 122.619 40.1922 122.362 40.5049 122.04L37.5439 119.058ZM44.0119 124H42.8009C42.6656 124 42.5559 123.984 42.4719 123.951C42.3879 123.918 42.2969 123.851 42.1989 123.748L41.1839 122.726C40.7452 123.151 40.2389 123.489 39.6649 123.741C39.0956 123.988 38.4679 124.112 37.7819 124.112C37.4086 124.112 37.0422 124.049 36.6829 123.923C36.3282 123.797 36.0086 123.615 35.7239 123.377C35.4392 123.134 35.2106 122.84 35.0379 122.495C34.8652 122.15 34.7789 121.76 34.7789 121.326C34.7789 120.999 34.8326 120.691 34.9399 120.402C35.0519 120.108 35.2059 119.837 35.4019 119.59C35.5979 119.343 35.8289 119.121 36.0949 118.925C36.3609 118.729 36.6526 118.561 36.9699 118.421C36.6852 118.057 36.4752 117.707 36.3399 117.371C36.2046 117.03 36.1369 116.678 36.1369 116.314C36.1369 115.973 36.1976 115.654 36.3189 115.355C36.4449 115.056 36.6246 114.797 36.8579 114.578C37.0912 114.354 37.3736 114.179 37.7049 114.053C38.0409 113.922 38.4166 113.857 38.8319 113.857C39.2006 113.857 39.5366 113.918 39.8399 114.039C40.1432 114.156 40.4046 114.312 40.6239 114.508C40.8432 114.704 41.0159 114.933 41.1419 115.194C41.2726 115.451 41.3472 115.719 41.3659 115.999L40.5889 116.153C40.4349 116.19 40.3206 116.118 40.2459 115.936C40.2132 115.815 40.1596 115.689 40.0849 115.558C40.0149 115.427 39.9216 115.308 39.8049 115.201C39.6929 115.094 39.5552 115.005 39.3919 114.935C39.2332 114.865 39.0466 114.83 38.8319 114.83C38.5986 114.83 38.3862 114.867 38.1949 114.942C38.0082 115.017 37.8472 115.122 37.7119 115.257C37.5812 115.388 37.4809 115.544 37.4109 115.726C37.3409 115.903 37.3059 116.097 37.3059 116.307C37.3059 116.47 37.3246 116.627 37.3619 116.776C37.3992 116.925 37.4576 117.077 37.5369 117.231C37.6209 117.385 37.7259 117.541 37.8519 117.7C37.9779 117.859 38.1296 118.027 38.3069 118.204L41.1909 121.137C41.3682 120.82 41.5106 120.491 41.6179 120.15C41.7252 119.805 41.7952 119.462 41.8279 119.121C41.8372 119.032 41.8652 118.962 41.9119 118.911C41.9586 118.86 42.0239 118.834 42.1079 118.834H42.8709C42.8662 119.371 42.7822 119.898 42.6189 120.416C42.4556 120.929 42.2199 121.412 41.9119 121.865L44.0119 124ZM53.5187 118.596C53.2854 118.283 53.0334 118.066 52.7627 117.945C52.4921 117.819 52.1887 117.756 51.8527 117.756C51.1947 117.756 50.6884 117.992 50.3337 118.463C49.979 118.934 49.8017 119.606 49.8017 120.479C49.8017 120.941 49.8414 121.338 49.9207 121.669C50 121.996 50.1167 122.266 50.2707 122.481C50.4247 122.691 50.6137 122.845 50.8377 122.943C51.0617 123.041 51.316 123.09 51.6007 123.09C52.0114 123.09 52.3684 122.997 52.6717 122.81C52.9797 122.623 53.2621 122.36 53.5187 122.019V118.596ZM54.7647 113.689V124H54.0227C53.8454 124 53.7334 123.914 53.6867 123.741L53.5747 122.88C53.2714 123.244 52.926 123.538 52.5387 123.762C52.1514 123.986 51.7034 124.098 51.1947 124.098C50.7887 124.098 50.42 124.021 50.0887 123.867C49.7574 123.708 49.475 123.477 49.2417 123.174C49.0084 122.871 48.8287 122.493 48.7027 122.04C48.5767 121.587 48.5137 121.067 48.5137 120.479C48.5137 119.956 48.5837 119.471 48.7237 119.023C48.8637 118.57 49.0644 118.178 49.3257 117.847C49.587 117.516 49.9067 117.257 50.2847 117.07C50.6674 116.879 51.0967 116.783 51.5727 116.783C52.0067 116.783 52.3777 116.858 52.6857 117.007C52.9984 117.152 53.276 117.355 53.5187 117.616V113.689H54.7647ZM58.0157 118.33C58.2397 117.845 58.515 117.467 58.8417 117.196C59.1684 116.921 59.5674 116.783 60.0387 116.783C60.188 116.783 60.3304 116.799 60.4657 116.832C60.6057 116.865 60.7294 116.916 60.8367 116.986L60.7457 117.917C60.7177 118.034 60.6477 118.092 60.5357 118.092C60.4704 118.092 60.3747 118.078 60.2487 118.05C60.1227 118.022 59.9804 118.008 59.8217 118.008C59.5977 118.008 59.397 118.041 59.2197 118.106C59.047 118.171 58.8907 118.269 58.7507 118.4C58.6154 118.526 58.4917 118.685 58.3797 118.876C58.2724 119.063 58.1744 119.277 58.0857 119.52V124H56.8327V116.909H57.5467C57.682 116.909 57.7754 116.935 57.8267 116.986C57.878 117.037 57.913 117.126 57.9317 117.252L58.0157 118.33ZM64.7342 116.797C65.2522 116.797 65.7189 116.883 66.1342 117.056C66.5495 117.229 66.9042 117.474 67.1982 117.791C67.4922 118.108 67.7162 118.493 67.8702 118.946C68.0289 119.394 68.1082 119.896 68.1082 120.451C68.1082 121.011 68.0289 121.515 67.8702 121.963C67.7162 122.411 67.4922 122.794 67.1982 123.111C66.9042 123.428 66.5495 123.673 66.1342 123.846C65.7189 124.014 65.2522 124.098 64.7342 124.098C64.2115 124.098 63.7402 124.014 63.3202 123.846C62.9049 123.673 62.5502 123.428 62.2562 123.111C61.9622 122.794 61.7359 122.411 61.5772 121.963C61.4232 121.515 61.3462 121.011 61.3462 120.451C61.3462 119.896 61.4232 119.394 61.5772 118.946C61.7359 118.493 61.9622 118.108 62.2562 117.791C62.5502 117.474 62.9049 117.229 63.3202 117.056C63.7402 116.883 64.2115 116.797 64.7342 116.797ZM64.7342 123.125C65.4342 123.125 65.9569 122.892 66.3022 122.425C66.6475 121.954 66.8202 121.298 66.8202 120.458C66.8202 119.613 66.6475 118.955 66.3022 118.484C65.9569 118.013 65.4342 117.777 64.7342 117.777C64.3795 117.777 64.0692 117.838 63.8032 117.959C63.5419 118.08 63.3225 118.255 63.1452 118.484C62.9725 118.713 62.8419 118.995 62.7532 119.331C62.6692 119.662 62.6272 120.038 62.6272 120.458C62.6272 121.298 62.7999 121.954 63.1452 122.425C63.4952 122.892 64.0249 123.125 64.7342 123.125ZM71.0416 122.292C71.2702 122.6 71.5199 122.817 71.7906 122.943C72.0612 123.069 72.3646 123.132 72.7006 123.132C73.3632 123.132 73.8719 122.896 74.2266 122.425C74.5812 121.954 74.7586 121.282 74.7586 120.409C74.7586 119.947 74.7166 119.55 74.6326 119.219C74.5532 118.888 74.4366 118.617 74.2826 118.407C74.1286 118.192 73.9396 118.036 73.7156 117.938C73.4916 117.84 73.2372 117.791 72.9526 117.791C72.5466 117.791 72.1896 117.884 71.8816 118.071C71.5782 118.258 71.2982 118.521 71.0416 118.862V122.292ZM70.9786 118.008C71.2772 117.639 71.6226 117.343 72.0146 117.119C72.4066 116.895 72.8546 116.783 73.3586 116.783C73.7692 116.783 74.1402 116.862 74.4716 117.021C74.8029 117.175 75.0852 117.406 75.3186 117.714C75.5519 118.017 75.7316 118.395 75.8576 118.848C75.9836 119.301 76.0466 119.821 76.0466 120.409C76.0466 120.932 75.9766 121.419 75.8366 121.872C75.6966 122.32 75.4936 122.71 75.2276 123.041C74.9662 123.368 74.6442 123.627 74.2616 123.818C73.8836 124.005 73.4566 124.098 72.9806 124.098C72.5466 124.098 72.1732 124.026 71.8606 123.881C71.5526 123.732 71.2796 123.526 71.0416 123.265V126.401H69.7886V116.909H70.5376C70.7149 116.909 70.8246 116.995 70.8666 117.168L70.9786 118.008ZM87.1808 116.909L83.2258 126.093C83.1838 126.186 83.1301 126.261 83.0648 126.317C83.0041 126.373 82.9084 126.401 82.7778 126.401H81.8538L83.1488 123.587L80.2228 116.909H81.3008C81.4081 116.909 81.4921 116.937 81.5528 116.993C81.6181 117.044 81.6624 117.103 81.6858 117.168L83.5828 121.634C83.6574 121.83 83.7204 122.035 83.7718 122.25C83.8371 122.031 83.9071 121.823 83.9818 121.627L85.8228 117.168C85.8508 117.093 85.8974 117.033 85.9628 116.986C86.0328 116.935 86.1098 116.909 86.1938 116.909H87.1808ZM91.1791 116.797C91.6971 116.797 92.1638 116.883 92.5791 117.056C92.9945 117.229 93.3491 117.474 93.6431 117.791C93.9371 118.108 94.1611 118.493 94.3151 118.946C94.4738 119.394 94.5531 119.896 94.5531 120.451C94.5531 121.011 94.4738 121.515 94.3151 121.963C94.1611 122.411 93.9371 122.794 93.6431 123.111C93.3491 123.428 92.9945 123.673 92.5791 123.846C92.1638 124.014 91.6971 124.098 91.1791 124.098C90.6565 124.098 90.1851 124.014 89.7651 123.846C89.3498 123.673 88.9951 123.428 88.7011 123.111C88.4071 122.794 88.1808 122.411 88.0221 121.963C87.8681 121.515 87.7911 121.011 87.7911 120.451C87.7911 119.896 87.8681 119.394 88.0221 118.946C88.1808 118.493 88.4071 118.108 88.7011 117.791C88.9951 117.474 89.3498 117.229 89.7651 117.056C90.1851 116.883 90.6565 116.797 91.1791 116.797ZM91.1791 123.125C91.8791 123.125 92.4018 122.892 92.7471 122.425C93.0925 121.954 93.2651 121.298 93.2651 120.458C93.2651 119.613 93.0925 118.955 92.7471 118.484C92.4018 118.013 91.8791 117.777 91.1791 117.777C90.8245 117.777 90.5141 117.838 90.2481 117.959C89.9868 118.08 89.7675 118.255 89.5901 118.484C89.4175 118.713 89.2868 118.995 89.1981 119.331C89.1141 119.662 89.0721 120.038 89.0721 120.458C89.0721 121.298 89.2448 121.954 89.5901 122.425C89.9401 122.892 90.4698 123.125 91.1791 123.125ZM102.064 116.909V124H101.322C101.145 124 101.033 123.914 100.986 123.741L100.888 122.978C100.58 123.319 100.235 123.594 99.8525 123.804C99.4698 124.009 99.0311 124.112 98.5365 124.112C98.1491 124.112 97.8061 124.049 97.5075 123.923C97.2135 123.792 96.9661 123.61 96.7655 123.377C96.5648 123.144 96.4131 122.861 96.3105 122.53C96.2125 122.199 96.1635 121.832 96.1635 121.431V116.909H97.4095V121.431C97.4095 121.968 97.5308 122.383 97.7735 122.677C98.0208 122.971 98.3965 123.118 98.9005 123.118C99.2691 123.118 99.6121 123.032 99.9295 122.859C100.251 122.682 100.548 122.439 100.818 122.131V116.909H102.064ZM105.323 118.33C105.547 117.845 105.822 117.467 106.149 117.196C106.476 116.921 106.875 116.783 107.346 116.783C107.495 116.783 107.638 116.799 107.773 116.832C107.913 116.865 108.037 116.916 108.144 116.986L108.053 117.917C108.025 118.034 107.955 118.092 107.843 118.092C107.778 118.092 107.682 118.078 107.556 118.05C107.43 118.022 107.288 118.008 107.129 118.008C106.905 118.008 106.704 118.041 106.527 118.106C106.354 118.171 106.198 118.269 106.058 118.4C105.923 118.526 105.799 118.685 105.687 118.876C105.58 119.063 105.482 119.277 105.393 119.52V124H104.14V116.909H104.854C104.989 116.909 105.083 116.935 105.134 116.986C105.185 117.037 105.22 117.126 105.239 117.252L105.323 118.33ZM114.373 115.075V118.582H118.496V119.688H114.373V124H113.015V113.969H119.196V115.075H114.373ZM122.026 116.909V124H120.78V116.909H122.026ZM122.292 114.683C122.292 114.804 122.266 114.919 122.215 115.026C122.168 115.129 122.103 115.222 122.019 115.306C121.939 115.385 121.844 115.448 121.732 115.495C121.624 115.542 121.51 115.565 121.389 115.565C121.267 115.565 121.153 115.542 121.046 115.495C120.943 115.448 120.852 115.385 120.773 115.306C120.693 115.222 120.63 115.129 120.584 115.026C120.537 114.919 120.514 114.804 120.514 114.683C120.514 114.562 120.537 114.447 120.584 114.34C120.63 114.228 120.693 114.132 120.773 114.053C120.852 113.969 120.943 113.904 121.046 113.857C121.153 113.81 121.267 113.787 121.389 113.787C121.51 113.787 121.624 113.81 121.732 113.857C121.844 113.904 121.939 113.969 122.019 114.053C122.103 114.132 122.168 114.228 122.215 114.34C122.266 114.447 122.292 114.562 122.292 114.683ZM125.461 113.689V124H124.215V113.689H125.461ZM132.328 119.681C132.328 119.392 132.286 119.128 132.202 118.89C132.122 118.647 132.003 118.44 131.845 118.267C131.691 118.09 131.502 117.954 131.278 117.861C131.054 117.763 130.799 117.714 130.515 117.714C129.917 117.714 129.444 117.889 129.094 118.239C128.748 118.584 128.534 119.065 128.45 119.681H132.328ZM133.336 123.006C133.182 123.193 132.997 123.356 132.783 123.496C132.568 123.631 132.337 123.743 132.09 123.832C131.847 123.921 131.595 123.986 131.334 124.028C131.072 124.075 130.813 124.098 130.557 124.098C130.067 124.098 129.614 124.016 129.199 123.853C128.788 123.685 128.431 123.442 128.128 123.125C127.829 122.803 127.596 122.406 127.428 121.935C127.26 121.464 127.176 120.922 127.176 120.311C127.176 119.816 127.25 119.354 127.4 118.925C127.554 118.496 127.773 118.125 128.058 117.812C128.342 117.495 128.69 117.247 129.101 117.07C129.511 116.888 129.973 116.797 130.487 116.797C130.911 116.797 131.303 116.869 131.663 117.014C132.027 117.154 132.339 117.359 132.601 117.63C132.867 117.896 133.074 118.227 133.224 118.624C133.373 119.016 133.448 119.464 133.448 119.968C133.448 120.164 133.427 120.295 133.385 120.36C133.343 120.425 133.263 120.458 133.147 120.458H128.408C128.422 120.906 128.482 121.296 128.59 121.627C128.702 121.958 128.856 122.236 129.052 122.46C129.248 122.679 129.481 122.845 129.752 122.957C130.022 123.064 130.326 123.118 130.662 123.118C130.974 123.118 131.243 123.083 131.467 123.013C131.695 122.938 131.891 122.859 132.055 122.775C132.218 122.691 132.353 122.614 132.461 122.544C132.573 122.469 132.668 122.432 132.748 122.432C132.85 122.432 132.93 122.472 132.986 122.551L133.336 123.006ZM139.208 118.078C139.152 118.181 139.066 118.232 138.949 118.232C138.879 118.232 138.8 118.206 138.711 118.155C138.622 118.104 138.513 118.048 138.382 117.987C138.256 117.922 138.104 117.863 137.927 117.812C137.75 117.756 137.54 117.728 137.297 117.728C137.087 117.728 136.898 117.756 136.73 117.812C136.562 117.863 136.417 117.936 136.296 118.029C136.179 118.122 136.088 118.232 136.023 118.358C135.962 118.479 135.932 118.612 135.932 118.757C135.932 118.939 135.983 119.091 136.086 119.212C136.193 119.333 136.333 119.438 136.506 119.527C136.679 119.616 136.875 119.695 137.094 119.765C137.313 119.83 137.537 119.903 137.766 119.982C137.999 120.057 138.226 120.141 138.445 120.234C138.664 120.327 138.86 120.444 139.033 120.584C139.206 120.724 139.343 120.897 139.446 121.102C139.553 121.303 139.607 121.545 139.607 121.83C139.607 122.157 139.549 122.46 139.432 122.74C139.315 123.015 139.143 123.256 138.914 123.461C138.685 123.662 138.405 123.82 138.074 123.937C137.743 124.054 137.36 124.112 136.926 124.112C136.431 124.112 135.983 124.033 135.582 123.874C135.181 123.711 134.84 123.503 134.56 123.251L134.854 122.775C134.891 122.714 134.936 122.668 134.987 122.635C135.038 122.602 135.104 122.586 135.183 122.586C135.267 122.586 135.356 122.619 135.449 122.684C135.542 122.749 135.654 122.822 135.785 122.901C135.92 122.98 136.084 123.053 136.275 123.118C136.466 123.183 136.704 123.216 136.989 123.216C137.232 123.216 137.444 123.186 137.626 123.125C137.808 123.06 137.96 122.973 138.081 122.866C138.202 122.759 138.291 122.635 138.347 122.495C138.408 122.355 138.438 122.206 138.438 122.047C138.438 121.851 138.384 121.69 138.277 121.564C138.174 121.433 138.037 121.324 137.864 121.235C137.691 121.142 137.493 121.062 137.269 120.997C137.05 120.927 136.823 120.855 136.59 120.78C136.361 120.705 136.135 120.621 135.911 120.528C135.692 120.43 135.496 120.309 135.323 120.164C135.15 120.019 135.01 119.842 134.903 119.632C134.8 119.417 134.749 119.158 134.749 118.855C134.749 118.584 134.805 118.325 134.917 118.078C135.029 117.826 135.192 117.607 135.407 117.42C135.622 117.229 135.885 117.077 136.198 116.965C136.511 116.853 136.868 116.797 137.269 116.797C137.736 116.797 138.153 116.872 138.522 117.021C138.895 117.166 139.217 117.366 139.488 117.623L139.208 118.078ZM146.17 117.854C146.473 117.532 146.809 117.275 147.178 117.084C147.546 116.893 147.971 116.797 148.452 116.797C148.839 116.797 149.18 116.862 149.474 116.993C149.772 117.119 150.02 117.301 150.216 117.539C150.416 117.772 150.568 118.055 150.671 118.386C150.773 118.717 150.825 119.084 150.825 119.485V124H149.572V119.485C149.572 118.948 149.448 118.533 149.201 118.239C148.958 117.94 148.587 117.791 148.088 117.791C147.719 117.791 147.374 117.88 147.052 118.057C146.734 118.234 146.44 118.475 146.17 118.778V124H144.917V113.689H146.17V117.854ZM157.569 119.681C157.569 119.392 157.527 119.128 157.443 118.89C157.364 118.647 157.245 118.44 157.086 118.267C156.932 118.09 156.743 117.954 156.519 117.861C156.295 117.763 156.041 117.714 155.756 117.714C155.159 117.714 154.685 117.889 154.335 118.239C153.99 118.584 153.775 119.065 153.691 119.681H157.569ZM158.577 123.006C158.423 123.193 158.239 123.356 158.024 123.496C157.81 123.631 157.579 123.743 157.331 123.832C157.089 123.921 156.837 123.986 156.575 124.028C156.314 124.075 156.055 124.098 155.798 124.098C155.308 124.098 154.856 124.016 154.44 123.853C154.03 123.685 153.673 123.442 153.369 123.125C153.071 122.803 152.837 122.406 152.669 121.935C152.501 121.464 152.417 120.922 152.417 120.311C152.417 119.816 152.492 119.354 152.641 118.925C152.795 118.496 153.015 118.125 153.299 117.812C153.584 117.495 153.932 117.247 154.342 117.07C154.753 116.888 155.215 116.797 155.728 116.797C156.153 116.797 156.545 116.869 156.904 117.014C157.268 117.154 157.581 117.359 157.842 117.63C158.108 117.896 158.316 118.227 158.465 118.624C158.615 119.016 158.689 119.464 158.689 119.968C158.689 120.164 158.668 120.295 158.626 120.36C158.584 120.425 158.505 120.458 158.388 120.458H153.649C153.663 120.906 153.724 121.296 153.831 121.627C153.943 121.958 154.097 122.236 154.293 122.46C154.489 122.679 154.723 122.845 154.993 122.957C155.264 123.064 155.567 123.118 155.903 123.118C156.216 123.118 156.484 123.083 156.708 123.013C156.937 122.938 157.133 122.859 157.296 122.775C157.46 122.691 157.595 122.614 157.702 122.544C157.814 122.469 157.91 122.432 157.989 122.432C158.092 122.432 158.171 122.472 158.227 122.551L158.577 123.006ZM161.503 118.33C161.727 117.845 162.002 117.467 162.329 117.196C162.655 116.921 163.054 116.783 163.526 116.783C163.675 116.783 163.817 116.799 163.953 116.832C164.093 116.865 164.216 116.916 164.324 116.986L164.233 117.917C164.205 118.034 164.135 118.092 164.023 118.092C163.957 118.092 163.862 118.078 163.736 118.05C163.61 118.022 163.467 118.008 163.309 118.008C163.085 118.008 162.884 118.041 162.707 118.106C162.534 118.171 162.378 118.269 162.238 118.4C162.102 118.526 161.979 118.685 161.867 118.876C161.759 119.063 161.661 119.277 161.573 119.52V124H160.32V116.909H161.034C161.169 116.909 161.262 116.935 161.314 116.986C161.365 117.037 161.4 117.126 161.419 117.252L161.503 118.33ZM169.978 119.681C169.978 119.392 169.936 119.128 169.852 118.89C169.773 118.647 169.654 118.44 169.495 118.267C169.341 118.09 169.152 117.954 168.928 117.861C168.704 117.763 168.45 117.714 168.165 117.714C167.568 117.714 167.094 117.889 166.744 118.239C166.399 118.584 166.184 119.065 166.1 119.681H169.978ZM170.986 123.006C170.832 123.193 170.648 123.356 170.433 123.496C170.219 123.631 169.988 123.743 169.74 123.832C169.498 123.921 169.246 123.986 168.984 124.028C168.723 124.075 168.464 124.098 168.207 124.098C167.717 124.098 167.265 124.016 166.849 123.853C166.439 123.685 166.082 123.442 165.778 123.125C165.48 122.803 165.246 122.406 165.078 121.935C164.91 121.464 164.826 120.922 164.826 120.311C164.826 119.816 164.901 119.354 165.05 118.925C165.204 118.496 165.424 118.125 165.708 117.812C165.993 117.495 166.341 117.247 166.751 117.07C167.162 116.888 167.624 116.797 168.137 116.797C168.562 116.797 168.954 116.869 169.313 117.014C169.677 117.154 169.99 117.359 170.251 117.63C170.517 117.896 170.725 118.227 170.874 118.624C171.024 119.016 171.098 119.464 171.098 119.968C171.098 120.164 171.077 120.295 171.035 120.36C170.993 120.425 170.914 120.458 170.797 120.458H166.058C166.072 120.906 166.133 121.296 166.24 121.627C166.352 121.958 166.506 122.236 166.702 122.46C166.898 122.679 167.132 122.845 167.402 122.957C167.673 123.064 167.976 123.118 168.312 123.118C168.625 123.118 168.893 123.083 169.117 123.013C169.346 122.938 169.542 122.859 169.705 122.775C169.869 122.691 170.004 122.614 170.111 122.544C170.223 122.469 170.319 122.432 170.398 122.432C170.501 122.432 170.58 122.472 170.636 122.551L170.986 123.006Z" fill="#52575C"/>
</svg>
