<svg width="25" height="31" viewBox="0 0 25 31" fill="none" xmlns="http://www.w3.org/2000/svg">
<path d="M25 25.6517C25 27.1183 24.5931 28.3763 23.7793 29.4258C22.9655 30.4753 21.9857 31 20.8398 31H4.16016C3.01432 31 2.03451 30.4753 1.2207 29.4258C0.406901 28.3763 0 27.1183 0 25.6517C0 24.508 0.0553385 23.4283 0.166016 22.4124C0.276693 21.3966 0.481771 20.374 0.78125 19.3447C1.08073 18.3154 1.46159 17.4341 1.92383 16.7008C2.38607 15.9676 2.99805 15.3688 3.75977 14.9046C4.52148 14.4404 5.39714 14.2083 6.38672 14.2083C8.09245 15.9306 10.1302 16.7917 12.5 16.7917C14.8698 16.7917 16.9076 15.9306 18.6133 14.2083C19.6029 14.2083 20.4785 14.4404 21.2402 14.9046C22.002 15.3688 22.6139 15.9676 23.0762 16.7008C23.5384 17.4341 23.9193 18.3154 24.2188 19.3447C24.5182 20.374 24.7233 21.3966 24.834 22.4124C24.9447 23.4283 25 24.508 25 25.6517ZM20 7.75C20 9.88932 19.2676 11.7158 17.8027 13.2295C16.3379 14.7432 14.5703 15.5 12.5 15.5C10.4297 15.5 8.66211 14.7432 7.19727 13.2295C5.73242 11.7158 5 9.88932 5 7.75C5 5.61068 5.73242 3.78418 7.19727 2.27051C8.66211 0.756836 10.4297 0 12.5 0C14.5703 0 16.3379 0.756836 17.8027 2.27051C19.2676 3.78418 20 5.61068 20 7.75Z" fill="#DCDCDC"/>
</svg>
