<svg width="17" height="19" viewBox="0 0 17 19" fill="none" xmlns="http://www.w3.org/2000/svg">
<path d="M12.6563 0.0184179C12.5826 0.0184179 5.53125 0 5.53125 0C4.27486 0 3.15626 1.15248 3.15626 2.37501L2.46988 2.39104C1.21409 2.39104 0.1875 3.52746 0.1875 4.75V16.625C0.1875 17.8475 1.30613 19 2.56251 19H11.4688C12.7251 19 13.8438 17.8475 13.8438 16.625H14.4375C15.6939 16.625 16.8125 15.4726 16.8125 14.25V4.76426L12.6563 0.0184179ZM11.4688 17.8125H2.56251C1.93908 17.8125 1.37502 17.2301 1.37502 16.625V4.75C1.37502 3.86651 2.10177 3.56251 3.15626 3.56251V14.25C3.15626 15.4726 4.27486 16.625 5.53125 16.625C5.53125 16.625 11.9687 16.6185 12.6616 16.6185C12.6616 17.3393 12.189 17.8125 11.4688 17.8125ZM12.6563 12.4753H7.31251C6.98477 12.4753 6.71877 12.2099 6.71877 11.8821C6.71877 11.5544 6.98477 11.289 7.31251 11.289H12.6563C12.984 11.289 13.25 11.5544 13.25 11.8821C13.25 12.2099 12.984 12.4753 12.6563 12.4753ZM12.6563 9.50951H7.31251C6.98477 9.50951 6.71877 9.24408 6.71877 8.91636C6.71877 8.58861 6.98477 8.32321 7.31251 8.32321H12.6563C12.984 8.32321 13.25 8.58861 13.25 8.91636C13.25 9.24351 12.984 9.50951 12.6563 9.50951ZM13.8438 4.75C13.2114 4.75 12.6563 4.17943 12.6563 3.56251C12.6563 3.56251 12.6563 2.35956 12.6563 1.20591V1.20472L15.625 4.75H13.8438Z" fill="#6D3745"/>
</svg>
