<svg width="32" height="22" viewBox="0 0 32 22" fill="none" xmlns="http://www.w3.org/2000/svg">
<path d="M24.4417 6.1084C23.6189 4.57349 22.4238 3.2688 20.9565 2.3103C19.2686 1.20776 17.3066 0.625 15.2825 0.625C10.2505 0.625 5.98608 4.21167 5.07373 9.08252C2.17407 9.62012 0 12.1682 0 15.1897C0 18.6152 2.78687 21.4021 6.2124 21.4021H15.0625V13.5381L13.0762 15.5244C12.71 15.8904 12.1165 15.8904 11.7502 15.5244C11.384 15.1582 11.384 14.5647 11.7502 14.1985L15.3372 10.6118C15.7031 10.2456 16.2966 10.2456 16.6628 10.6118L20.2498 14.1985C20.616 14.5647 20.616 15.1582 20.2498 15.5244C20.0667 15.7075 19.8267 15.7991 19.5869 15.7991C19.3469 15.7991 19.1069 15.7075 18.9238 15.5244L16.9375 13.5381V21.4021H24.3528C28.5696 21.4021 32 17.9717 32 13.7549C32 9.56787 28.6177 6.15601 24.4417 6.1084Z" fill="#6D3745"/>
</svg>
