<svg width="42" height="30" viewBox="0 0 42 30" fill="none" xmlns="http://www.w3.org/2000/svg">
<path d="M42 4.50078V1.97868C42.0003 1.75826 41.9571 1.53995 41.8728 1.33625C41.7886 1.13255 41.665 0.947474 41.5092 0.791612C41.3533 0.635749 41.1682 0.512166 40.9645 0.427942C40.7608 0.343718 40.5425 0.300506 40.3221 0.300783H1.6821C1.46148 0.300507 1.24297 0.343688 1.03903 0.427861C0.8351 0.512034 0.649744 0.63555 0.493546 0.791358C0.337349 0.947165 0.21337 1.13221 0.128687 1.33593C0.0440044 1.53966 0.000276918 1.75806 1.31426e-06 1.97868V4.50078H4.2V8.70078H1.31426e-06V12.9008H4.2V17.1008H1.31426e-06V21.3008H4.2V25.5008H1.31426e-06V28.0187C-0.000275077 28.2397 0.0430451 28.4585 0.127481 28.6627C0.211916 28.8669 0.335808 29.0525 0.492061 29.2087C0.648313 29.365 0.833856 29.4889 1.03806 29.5733C1.24227 29.6577 1.46113 29.7011 1.6821 29.7008H40.3221C40.5427 29.7005 40.7611 29.6568 40.9648 29.5721C41.1686 29.4874 41.3536 29.3634 41.5094 29.2072C41.6652 29.051 41.7887 28.8657 41.8729 28.6617C41.9571 28.4578 42.0003 28.2393 42 28.0187V25.5008H37.8V21.3008H42V17.1008H37.8V12.9008H42V8.70078H37.8V4.50078H42ZM16.8 21.3008V8.70078L27.3 15.0008L16.8 21.3008Z" fill="#6D3745"/>
</svg>
