<svg width="183" height="39" viewBox="0 0 183 39" fill="none" xmlns="http://www.w3.org/2000/svg">
<path d="M1 19.5C1 9.28273 9.28273 1 19.5 1H163.5C173.717 1 182 9.28273 182 19.5V19.5C182 29.7173 173.717 38 163.5 38H19.5C9.28273 38 1 29.7173 1 19.5V19.5Z" fill="#F2E6CC"/>
<path d="M32.9033 18.0938C31.397 15.1546 28.4147 13.166 25 13.166C21.5853 13.166 18.6022 15.156 17.0967 18.0941C17.0331 18.2198 17 18.3587 17 18.4995C17 18.6403 17.0331 18.7792 17.0967 18.9049C18.603 21.8441 21.5853 23.8327 25 23.8327C28.4147 23.8327 31.3978 21.8427 32.9033 18.9046C32.9669 18.7789 33 18.6401 33 18.4992C33 18.3584 32.9669 18.2195 32.9033 18.0938V18.0938ZM25 22.4994C24.2089 22.4994 23.4355 22.2648 22.7777 21.8252C22.1199 21.3857 21.6072 20.761 21.3045 20.0301C21.0017 19.2992 20.9225 18.4949 21.0769 17.719C21.2312 16.9431 21.6122 16.2303 22.1716 15.6709C22.731 15.1115 23.4437 14.7306 24.2196 14.5762C24.9956 14.4219 25.7998 14.5011 26.5307 14.8038C27.2616 15.1066 27.8864 15.6193 28.3259 16.2771C28.7654 16.9349 29 17.7082 29 18.4994C29.0003 19.0247 28.897 19.545 28.696 20.0304C28.4951 20.5158 28.2005 20.9569 27.829 21.3284C27.4575 21.6998 27.0165 21.9945 26.531 22.1954C26.0456 22.3963 25.5254 22.4996 25 22.4994V22.4994ZM25 15.8327C24.762 15.836 24.5255 15.8714 24.2969 15.938C24.4853 16.194 24.5757 16.509 24.5518 16.826C24.5278 17.143 24.391 17.4408 24.1662 17.6656C23.9415 17.8904 23.6436 18.0271 23.3266 18.0511C23.0097 18.0751 22.6946 17.9847 22.4386 17.7963C22.2928 18.3334 22.3191 18.9027 22.5139 19.4241C22.7086 19.9455 23.0619 20.3926 23.5241 20.7027C23.9862 21.0127 24.534 21.17 25.0903 21.1525C25.6465 21.1349 26.1833 20.9433 26.625 20.6047C27.0667 20.2661 27.391 19.7975 27.5525 19.2649C27.7139 18.7323 27.7042 18.1625 27.5248 17.6356C27.3454 17.1088 27.0053 16.6515 26.5524 16.3281C26.0995 16.0046 25.5565 15.8314 25 15.8327V15.8327Z" fill="#6D3745"/>
<path d="M43.064 13.536H44.304C44.4427 13.536 44.5547 13.5707 44.64 13.64C44.7253 13.7093 44.7893 13.7973 44.832 13.904L48.072 21.992C48.1467 22.1733 48.2133 22.3707 48.272 22.584C48.336 22.7973 48.3973 23.0187 48.456 23.248C48.504 23.0187 48.5547 22.7973 48.608 22.584C48.6667 22.3707 48.7333 22.1733 48.808 21.992L52.032 13.904C52.0693 13.8133 52.1333 13.7307 52.224 13.656C52.3147 13.576 52.4267 13.536 52.56 13.536H53.808L49.136 25H47.736L43.064 13.536ZM56.627 16.896V25H55.203V16.896H56.627ZM56.947 14.352C56.947 14.4907 56.9177 14.6213 56.859 14.744C56.8057 14.8613 56.731 14.968 56.635 15.064C56.5443 15.1547 56.4377 15.2267 56.315 15.28C56.1923 15.3333 56.0617 15.36 55.923 15.36C55.7843 15.36 55.6537 15.3333 55.531 15.28C55.4137 15.2267 55.307 15.1547 55.211 15.064C55.1203 14.968 55.0483 14.8613 54.995 14.744C54.9417 14.6213 54.915 14.4907 54.915 14.352C54.915 14.2133 54.9417 14.0827 54.995 13.96C55.0483 13.832 55.1203 13.7227 55.211 13.632C55.307 13.536 55.4137 13.4613 55.531 13.408C55.6537 13.3547 55.7843 13.328 55.923 13.328C56.0617 13.328 56.1923 13.3547 56.315 13.408C56.4377 13.4613 56.5443 13.536 56.635 13.632C56.731 13.7227 56.8057 13.832 56.859 13.96C56.9177 14.0827 56.947 14.2133 56.947 14.352ZM62.3448 16.768C62.8301 16.768 63.2781 16.8507 63.6888 17.016C64.0994 17.176 64.4541 17.4107 64.7528 17.72C65.0514 18.024 65.2834 18.4027 65.4488 18.856C65.6194 19.304 65.7048 19.816 65.7048 20.392C65.7048 20.616 65.6808 20.7653 65.6328 20.84C65.5848 20.9147 65.4941 20.952 65.3608 20.952H59.9688C59.9794 21.464 60.0488 21.9093 60.1768 22.288C60.3048 22.6667 60.4808 22.984 60.7048 23.24C60.9288 23.4907 61.1954 23.68 61.5048 23.808C61.8141 23.9307 62.1608 23.992 62.5448 23.992C62.9021 23.992 63.2088 23.952 63.4648 23.872C63.7261 23.7867 63.9501 23.696 64.1368 23.6C64.3234 23.504 64.4781 23.416 64.6008 23.336C64.7288 23.2507 64.8381 23.208 64.9288 23.208C65.0461 23.208 65.1368 23.2533 65.2008 23.344L65.6008 23.864C65.4248 24.0773 65.2141 24.264 64.9688 24.424C64.7234 24.5787 64.4594 24.7067 64.1768 24.808C63.8994 24.9093 63.6114 24.984 63.3128 25.032C63.0141 25.0853 62.7181 25.112 62.4248 25.112C61.8648 25.112 61.3474 25.0187 60.8728 24.832C60.4034 24.64 59.9954 24.3627 59.6488 24C59.3074 23.632 59.0408 23.1787 58.8488 22.64C58.6568 22.1013 58.5608 21.4827 58.5608 20.784C58.5608 20.2187 58.6461 19.6907 58.8168 19.2C58.9928 18.7093 59.2434 18.2853 59.5688 17.928C59.8941 17.5653 60.2914 17.2827 60.7608 17.08C61.2301 16.872 61.7581 16.768 62.3448 16.768ZM62.3767 17.816C61.6888 17.816 61.1474 18.016 60.7528 18.416C60.3581 18.8107 60.1128 19.36 60.0168 20.064H64.4248C64.4248 19.7333 64.3794 19.432 64.2888 19.16C64.1981 18.8827 64.0648 18.6453 63.8888 18.448C63.7128 18.2453 63.4968 18.0907 63.2408 17.984C62.9901 17.872 62.7021 17.816 62.3767 17.816ZM66.4714 16.896H67.5914C67.7087 16.896 67.8047 16.9253 67.8794 16.984C67.954 17.0427 68.0047 17.112 68.0314 17.192L69.5834 22.408C69.626 22.6 69.666 22.7867 69.7034 22.968C69.7407 23.144 69.7727 23.3227 69.7994 23.504C69.842 23.3227 69.89 23.144 69.9434 22.968C69.9967 22.7867 70.0527 22.6 70.1114 22.408L71.8234 17.16C71.85 17.08 71.8954 17.0133 71.9594 16.96C72.0287 16.9067 72.114 16.88 72.2154 16.88H72.8314C72.938 16.88 73.026 16.9067 73.0954 16.96C73.1647 17.0133 73.2127 17.08 73.2394 17.16L74.9114 22.408C74.97 22.5947 75.0207 22.7787 75.0634 22.96C75.1114 23.1413 75.1567 23.32 75.1994 23.496C75.226 23.32 75.2607 23.136 75.3034 22.944C75.346 22.752 75.3914 22.5733 75.4394 22.408L77.0234 17.192C77.05 17.1067 77.1007 17.0373 77.1754 16.984C77.25 16.9253 77.338 16.896 77.4394 16.896H78.5114L75.8874 25H74.7594C74.6207 25 74.5247 24.9093 74.4714 24.728L72.6794 19.232C72.6367 19.1093 72.602 18.9867 72.5754 18.864C72.5487 18.736 72.522 18.6107 72.4954 18.488C72.4687 18.6107 72.442 18.736 72.4154 18.864C72.3887 18.992 72.354 19.1173 72.3114 19.24L70.4954 24.728C70.4367 24.9093 70.3274 25 70.1674 25H69.0954L66.4714 16.896ZM84.7991 20.712V25H83.2551V13.536H86.6391C87.3645 13.536 87.9938 13.6213 88.5271 13.792C89.0658 13.9573 89.5111 14.1947 89.8631 14.504C90.2151 14.8133 90.4765 15.1867 90.6471 15.624C90.8231 16.0613 90.9111 16.5493 90.9111 17.088C90.9111 17.6213 90.8178 18.1093 90.6311 18.552C90.4445 18.9947 90.1698 19.376 89.8071 19.696C89.4498 20.016 89.0045 20.2667 88.4711 20.448C87.9378 20.624 87.3271 20.712 86.6391 20.712H84.7991ZM84.7991 19.48H86.6391C87.0818 19.48 87.4711 19.4213 87.8071 19.304C88.1485 19.1867 88.4338 19.024 88.6631 18.816C88.8925 18.6027 89.0658 18.3493 89.1831 18.056C89.3005 17.7627 89.3591 17.44 89.3591 17.088C89.3591 16.3573 89.1325 15.7867 88.6791 15.376C88.2311 14.9653 87.5511 14.76 86.6391 14.76H84.7991V19.48ZM94.2364 13.216V25H92.8124V13.216H94.2364ZM102.698 25H102.066C101.927 25 101.815 24.9787 101.73 24.936C101.645 24.8933 101.589 24.8027 101.562 24.664L101.402 23.912C101.189 24.104 100.981 24.2773 100.778 24.432C100.575 24.5813 100.362 24.7093 100.138 24.816C99.9141 24.9173 99.6741 24.9947 99.4181 25.048C99.1675 25.1013 98.8875 25.128 98.5781 25.128C98.2635 25.128 97.9675 25.0853 97.6901 25C97.4181 24.9093 97.1808 24.776 96.9781 24.6C96.7755 24.424 96.6128 24.2027 96.4901 23.936C96.3728 23.664 96.3141 23.344 96.3141 22.976C96.3141 22.656 96.4021 22.3493 96.5781 22.056C96.7541 21.7573 97.0368 21.4933 97.4261 21.264C97.8208 21.0347 98.3355 20.848 98.9701 20.704C99.6048 20.5547 100.381 20.4693 101.298 20.448V19.816C101.298 19.1867 101.162 18.712 100.89 18.392C100.623 18.0667 100.226 17.904 99.6981 17.904C99.3515 17.904 99.0581 17.9493 98.8181 18.04C98.5835 18.1253 98.3781 18.224 98.2021 18.336C98.0315 18.4427 97.8821 18.5413 97.7541 18.632C97.6315 18.7173 97.5088 18.76 97.3861 18.76C97.2901 18.76 97.2048 18.736 97.1301 18.688C97.0608 18.6347 97.0048 18.5707 96.9621 18.496L96.7061 18.04C97.1541 17.608 97.6368 17.2853 98.1541 17.072C98.6715 16.8587 99.2448 16.752 99.8741 16.752C100.327 16.752 100.73 16.8267 101.082 16.976C101.434 17.1253 101.73 17.3333 101.97 17.6C102.21 17.8667 102.391 18.1893 102.514 18.568C102.637 18.9467 102.698 19.3627 102.698 19.816V25ZM99.0021 24.128C99.2528 24.128 99.4821 24.104 99.6901 24.056C99.8981 24.0027 100.093 23.9307 100.274 23.84C100.461 23.744 100.637 23.6293 100.802 23.496C100.973 23.3627 101.138 23.2107 101.298 23.04V21.352C100.642 21.3733 100.085 21.4267 99.6261 21.512C99.1675 21.592 98.7941 21.6987 98.5061 21.832C98.2181 21.9653 98.0075 22.1227 97.8741 22.304C97.7461 22.4853 97.6821 22.688 97.6821 22.912C97.6821 23.1253 97.7168 23.3093 97.7861 23.464C97.8555 23.6187 97.9488 23.7467 98.0661 23.848C98.1835 23.944 98.3221 24.016 98.4821 24.064C98.6421 24.1067 98.8155 24.128 99.0021 24.128ZM104.856 25V16.896H105.704C105.906 16.896 106.034 16.9947 106.088 17.192L106.2 18.072C106.552 17.6827 106.944 17.368 107.376 17.128C107.813 16.888 108.317 16.768 108.888 16.768C109.33 16.768 109.72 16.8427 110.056 16.992C110.397 17.136 110.68 17.344 110.904 17.616C111.133 17.8827 111.306 18.2053 111.424 18.584C111.541 18.9627 111.6 19.3813 111.6 19.84V25H110.176V19.84C110.176 19.2267 110.034 18.752 109.752 18.416C109.474 18.0747 109.048 17.904 108.472 17.904C108.05 17.904 107.656 18.0053 107.288 18.208C106.925 18.4107 106.589 18.6853 106.28 19.032V25H104.856ZM127 19.272C127 20.1307 126.864 20.912 126.592 21.616C126.32 22.32 125.936 22.9227 125.44 23.424C124.944 23.9253 124.349 24.3147 123.656 24.592C122.963 24.864 122.195 25 121.352 25H117.064V13.536H121.352C122.195 13.536 122.963 13.6747 123.656 13.952C124.349 14.224 124.944 14.6133 125.44 15.12C125.936 15.6213 126.32 16.224 126.592 16.928C126.864 17.632 127 18.4133 127 19.272ZM125.408 19.272C125.408 18.568 125.312 17.9387 125.12 17.384C124.928 16.8293 124.656 16.36 124.304 15.976C123.952 15.592 123.525 15.2987 123.024 15.096C122.523 14.8933 121.965 14.792 121.352 14.792H118.624V23.744H121.352C121.965 23.744 122.523 23.6427 123.024 23.44C123.525 23.2373 123.952 22.9467 124.304 22.568C124.656 22.184 124.928 21.7147 125.12 21.16C125.312 20.6053 125.408 19.976 125.408 19.272ZM132.095 16.768C132.58 16.768 133.028 16.8507 133.439 17.016C133.849 17.176 134.204 17.4107 134.503 17.72C134.801 18.024 135.033 18.4027 135.199 18.856C135.369 19.304 135.455 19.816 135.455 20.392C135.455 20.616 135.431 20.7653 135.383 20.84C135.335 20.9147 135.244 20.952 135.111 20.952H129.719C129.729 21.464 129.799 21.9093 129.927 22.288C130.055 22.6667 130.231 22.984 130.455 23.24C130.679 23.4907 130.945 23.68 131.255 23.808C131.564 23.9307 131.911 23.992 132.295 23.992C132.652 23.992 132.959 23.952 133.215 23.872C133.476 23.7867 133.7 23.696 133.887 23.6C134.073 23.504 134.228 23.416 134.351 23.336C134.479 23.2507 134.588 23.208 134.679 23.208C134.796 23.208 134.887 23.2533 134.951 23.344L135.351 23.864C135.175 24.0773 134.964 24.264 134.719 24.424C134.473 24.5787 134.209 24.7067 133.927 24.808C133.649 24.9093 133.361 24.984 133.063 25.032C132.764 25.0853 132.468 25.112 132.175 25.112C131.615 25.112 131.097 25.0187 130.623 24.832C130.153 24.64 129.745 24.3627 129.399 24C129.057 23.632 128.791 23.1787 128.599 22.64C128.407 22.1013 128.311 21.4827 128.311 20.784C128.311 20.2187 128.396 19.6907 128.567 19.2C128.743 18.7093 128.993 18.2853 129.319 17.928C129.644 17.5653 130.041 17.2827 130.511 17.08C130.98 16.872 131.508 16.768 132.095 16.768ZM132.127 17.816C131.439 17.816 130.897 18.016 130.503 18.416C130.108 18.8107 129.863 19.36 129.767 20.064H134.175C134.175 19.7333 134.129 19.432 134.039 19.16C133.948 18.8827 133.815 18.6453 133.639 18.448C133.463 18.2453 133.247 18.0907 132.991 17.984C132.74 17.872 132.452 17.816 132.127 17.816ZM139.733 25.128C139.093 25.128 138.6 24.9493 138.253 24.592C137.912 24.2347 137.741 23.72 137.741 23.048V18.088H136.765C136.68 18.088 136.608 18.064 136.549 18.016C136.491 17.9627 136.461 17.8827 136.461 17.776V17.208L137.789 17.04L138.117 14.536C138.128 14.456 138.163 14.392 138.221 14.344C138.28 14.2907 138.355 14.264 138.445 14.264H139.165V17.056H141.485V18.088H139.165V22.952C139.165 23.2933 139.248 23.5467 139.413 23.712C139.579 23.8773 139.792 23.96 140.053 23.96C140.203 23.96 140.331 23.9413 140.437 23.904C140.549 23.8613 140.645 23.816 140.725 23.768C140.805 23.72 140.872 23.6773 140.925 23.64C140.984 23.5973 141.035 23.576 141.077 23.576C141.152 23.576 141.219 23.6213 141.277 23.712L141.693 24.392C141.448 24.6213 141.152 24.8027 140.805 24.936C140.459 25.064 140.101 25.128 139.733 25.128ZM149.198 25H148.566C148.427 25 148.315 24.9787 148.23 24.936C148.145 24.8933 148.089 24.8027 148.062 24.664L147.902 23.912C147.689 24.104 147.481 24.2773 147.278 24.432C147.075 24.5813 146.862 24.7093 146.638 24.816C146.414 24.9173 146.174 24.9947 145.918 25.048C145.667 25.1013 145.387 25.128 145.078 25.128C144.763 25.128 144.467 25.0853 144.19 25C143.918 24.9093 143.681 24.776 143.478 24.6C143.275 24.424 143.113 24.2027 142.99 23.936C142.873 23.664 142.814 23.344 142.814 22.976C142.814 22.656 142.902 22.3493 143.078 22.056C143.254 21.7573 143.537 21.4933 143.926 21.264C144.321 21.0347 144.835 20.848 145.47 20.704C146.105 20.5547 146.881 20.4693 147.798 20.448V19.816C147.798 19.1867 147.662 18.712 147.39 18.392C147.123 18.0667 146.726 17.904 146.198 17.904C145.851 17.904 145.558 17.9493 145.318 18.04C145.083 18.1253 144.878 18.224 144.702 18.336C144.531 18.4427 144.382 18.5413 144.254 18.632C144.131 18.7173 144.009 18.76 143.886 18.76C143.79 18.76 143.705 18.736 143.63 18.688C143.561 18.6347 143.505 18.5707 143.462 18.496L143.206 18.04C143.654 17.608 144.137 17.2853 144.654 17.072C145.171 16.8587 145.745 16.752 146.374 16.752C146.827 16.752 147.23 16.8267 147.582 16.976C147.934 17.1253 148.23 17.3333 148.47 17.6C148.71 17.8667 148.891 18.1893 149.014 18.568C149.137 18.9467 149.198 19.3627 149.198 19.816V25ZM145.502 24.128C145.753 24.128 145.982 24.104 146.19 24.056C146.398 24.0027 146.593 23.9307 146.774 23.84C146.961 23.744 147.137 23.6293 147.302 23.496C147.473 23.3627 147.638 23.2107 147.798 23.04V21.352C147.142 21.3733 146.585 21.4267 146.126 21.512C145.667 21.592 145.294 21.6987 145.006 21.832C144.718 21.9653 144.507 22.1227 144.374 22.304C144.246 22.4853 144.182 22.688 144.182 22.912C144.182 23.1253 144.217 23.3093 144.286 23.464C144.355 23.6187 144.449 23.7467 144.566 23.848C144.683 23.944 144.822 24.016 144.982 24.064C145.142 24.1067 145.315 24.128 145.502 24.128ZM152.94 16.896V25H151.516V16.896H152.94ZM153.26 14.352C153.26 14.4907 153.23 14.6213 153.172 14.744C153.118 14.8613 153.044 14.968 152.948 15.064C152.857 15.1547 152.75 15.2267 152.628 15.28C152.505 15.3333 152.374 15.36 152.236 15.36C152.097 15.36 151.966 15.3333 151.844 15.28C151.726 15.2267 151.62 15.1547 151.524 15.064C151.433 14.968 151.361 14.8613 151.308 14.744C151.254 14.6213 151.228 14.4907 151.228 14.352C151.228 14.2133 151.254 14.0827 151.308 13.96C151.361 13.832 151.433 13.7227 151.524 13.632C151.62 13.536 151.726 13.4613 151.844 13.408C151.966 13.3547 152.097 13.328 152.236 13.328C152.374 13.328 152.505 13.3547 152.628 13.408C152.75 13.4613 152.857 13.536 152.948 13.632C153.044 13.7227 153.118 13.832 153.172 13.96C153.23 14.0827 153.26 14.2133 153.26 14.352ZM157.033 13.216V25H155.609V13.216H157.033ZM164.183 18.232C164.119 18.3493 164.02 18.408 163.887 18.408C163.807 18.408 163.716 18.3787 163.615 18.32C163.514 18.2613 163.388 18.1973 163.239 18.128C163.095 18.0533 162.922 17.9867 162.719 17.928C162.516 17.864 162.276 17.832 161.999 17.832C161.759 17.832 161.543 17.864 161.351 17.928C161.159 17.9867 160.994 18.0693 160.855 18.176C160.722 18.2827 160.618 18.408 160.543 18.552C160.474 18.6907 160.439 18.8427 160.439 19.008C160.439 19.216 160.498 19.3893 160.615 19.528C160.738 19.6667 160.898 19.7867 161.095 19.888C161.292 19.9893 161.516 20.08 161.767 20.16C162.018 20.2347 162.274 20.3173 162.535 20.408C162.802 20.4933 163.06 20.5893 163.311 20.696C163.562 20.8027 163.786 20.936 163.983 21.096C164.18 21.256 164.338 21.4533 164.455 21.688C164.578 21.9173 164.639 22.1947 164.639 22.52C164.639 22.8933 164.572 23.24 164.439 23.56C164.306 23.8747 164.108 24.1493 163.847 24.384C163.586 24.6133 163.266 24.7947 162.887 24.928C162.508 25.0613 162.071 25.128 161.575 25.128C161.01 25.128 160.498 25.0373 160.039 24.856C159.58 24.6693 159.191 24.432 158.871 24.144L159.207 23.6C159.25 23.5307 159.3 23.4773 159.359 23.44C159.418 23.4027 159.495 23.384 159.591 23.384C159.687 23.384 159.788 23.4213 159.895 23.496C160.002 23.5707 160.13 23.6533 160.279 23.744C160.434 23.8347 160.618 23.9173 160.831 23.992C161.05 24.0667 161.322 24.104 161.647 24.104C161.924 24.104 162.167 24.0693 162.375 24C162.583 23.9253 162.756 23.8267 162.895 23.704C163.034 23.5813 163.135 23.44 163.199 23.28C163.268 23.12 163.303 22.9493 163.303 22.768C163.303 22.544 163.242 22.36 163.119 22.216C163.002 22.0667 162.844 21.9413 162.647 21.84C162.45 21.7333 162.223 21.6427 161.967 21.568C161.716 21.488 161.458 21.4053 161.191 21.32C160.93 21.2347 160.671 21.1387 160.415 21.032C160.164 20.92 159.94 20.7813 159.743 20.616C159.546 20.4507 159.386 20.248 159.263 20.008C159.146 19.7627 159.087 19.4667 159.087 19.12C159.087 18.8107 159.151 18.5147 159.279 18.232C159.407 17.944 159.594 17.6933 159.839 17.48C160.084 17.2613 160.386 17.088 160.743 16.96C161.1 16.832 161.508 16.768 161.967 16.768C162.5 16.768 162.978 16.8533 163.399 17.024C163.826 17.1893 164.194 17.4187 164.503 17.712L164.183 18.232Z" fill="#6D3745"/>
<path d="M19.5 1.5H163.5V0.5H19.5V1.5ZM163.5 37.5H19.5V38.5H163.5V37.5ZM19.5 37.5C9.55887 37.5 1.5 29.4411 1.5 19.5H0.5C0.5 29.9934 9.00659 38.5 19.5 38.5V37.5ZM181.5 19.5C181.5 29.4411 173.441 37.5 163.5 37.5V38.5C173.993 38.5 182.5 29.9934 182.5 19.5H181.5ZM163.5 1.5C173.441 1.5 181.5 9.55888 181.5 19.5H182.5C182.5 9.00659 173.993 0.5 163.5 0.5V1.5ZM19.5 0.5C9.00659 0.5 0.5 9.00659 0.5 19.5H1.5C1.5 9.55888 9.55888 1.5 19.5 1.5V0.5Z" fill="#6D3745"/>
</svg>
