<svg width="286" height="76" viewBox="0 0 286 76" fill="none" xmlns="http://www.w3.org/2000/svg">
<g filter="url(#filter0_d_1055_2450)">
<rect x="13" y="9" width="260" height="50" rx="15" fill="white"/>
<rect x="13.5" y="9.5" width="259" height="49" rx="14.5" stroke="#6D3745"/>
</g>
<path d="M93.3783 28.48L88.7063 40H87.0183L82.3463 28.48H83.8423C84.0076 28.48 84.141 28.5227 84.2423 28.608C84.3436 28.688 84.421 28.7893 84.4743 28.912L87.4423 36.424C87.6023 36.8453 87.749 37.3307 87.8823 37.88C87.941 37.608 88.0023 37.3493 88.0663 37.104C88.1356 36.8587 88.2103 36.632 88.2903 36.424L91.2503 28.912C91.293 28.8053 91.3676 28.7067 91.4743 28.616C91.581 28.5253 91.7143 28.48 91.8743 28.48H93.3783ZM96.2947 31.84V40H94.5747V31.84H96.2947ZM96.5827 29.376C96.5827 29.5307 96.5507 29.6773 96.4867 29.816C96.428 29.9547 96.3454 30.0773 96.2387 30.184C96.132 30.2853 96.0067 30.368 95.8627 30.432C95.724 30.4907 95.5747 30.52 95.4147 30.52C95.26 30.52 95.1134 30.4907 94.9747 30.432C94.8414 30.368 94.724 30.2853 94.6227 30.184C94.5214 30.0773 94.4387 29.9547 94.3747 29.816C94.316 29.6773 94.2867 29.5307 94.2867 29.376C94.2867 29.216 94.316 29.0667 94.3747 28.928C94.4387 28.7893 94.5214 28.6693 94.6227 28.568C94.724 28.4613 94.8414 28.3787 94.9747 28.32C95.1134 28.256 95.26 28.224 95.4147 28.224C95.5747 28.224 95.724 28.256 95.8627 28.32C96.0067 28.3787 96.132 28.4613 96.2387 28.568C96.3454 28.6693 96.428 28.7893 96.4867 28.928C96.5507 29.0667 96.5827 29.216 96.5827 29.376ZM103.908 35C103.908 34.712 103.865 34.4453 103.78 34.2C103.7 33.9493 103.58 33.7333 103.42 33.552C103.26 33.3653 103.06 33.2213 102.82 33.12C102.585 33.0133 102.313 32.96 102.004 32.96C101.38 32.96 100.889 33.1387 100.532 33.496C100.174 33.8533 99.9478 34.3547 99.8518 35H103.908ZM99.8038 36.056C99.8251 36.52 99.8971 36.9227 100.02 37.264C100.142 37.6 100.305 37.88 100.508 38.104C100.716 38.328 100.961 38.496 101.244 38.608C101.532 38.7147 101.852 38.768 102.204 38.768C102.54 38.768 102.83 38.7307 103.076 38.656C103.321 38.576 103.534 38.4907 103.716 38.4C103.897 38.304 104.052 38.2187 104.18 38.144C104.308 38.064 104.425 38.024 104.532 38.024C104.67 38.024 104.777 38.0773 104.852 38.184L105.34 38.816C105.137 39.056 104.908 39.2587 104.652 39.424C104.396 39.5893 104.124 39.7253 103.836 39.832C103.548 39.9333 103.252 40.0053 102.948 40.048C102.644 40.096 102.348 40.12 102.06 40.12C101.494 40.12 100.969 40.0267 100.484 39.84C100.004 39.648 99.5851 39.368 99.2278 39C98.8758 38.632 98.5985 38.176 98.3958 37.632C98.1985 37.088 98.0998 36.4613 98.0998 35.752C98.0998 35.1867 98.1878 34.6587 98.3638 34.168C98.5451 33.6773 98.8011 33.2507 99.1318 32.888C99.4678 32.5253 99.8731 32.24 100.348 32.032C100.828 31.8187 101.369 31.712 101.972 31.712C102.473 31.712 102.937 31.7947 103.364 31.96C103.79 32.12 104.158 32.3573 104.468 32.672C104.777 32.9867 105.017 33.3733 105.188 33.832C105.364 34.2853 105.452 34.8027 105.452 35.384C105.452 35.6507 105.422 35.8293 105.364 35.92C105.305 36.0107 105.198 36.056 105.044 36.056H99.8038ZM118.526 31.84L115.91 40H114.542C114.382 40 114.27 39.896 114.206 39.688L112.582 34.608C112.539 34.464 112.499 34.32 112.462 34.176C112.43 34.032 112.401 33.8907 112.374 33.752C112.315 34.04 112.243 34.328 112.158 34.616L110.51 39.688C110.451 39.896 110.326 40 110.134 40H108.83L106.214 31.84H107.574C107.707 31.84 107.817 31.8747 107.902 31.944C107.993 32.008 108.051 32.0853 108.078 32.176L109.438 36.928C109.491 37.1467 109.537 37.36 109.574 37.568C109.617 37.7707 109.654 37.9733 109.686 38.176C109.739 37.9733 109.795 37.7707 109.854 37.568C109.913 37.36 109.974 37.1467 110.038 36.928L111.566 32.152C111.593 32.056 111.646 31.9787 111.726 31.92C111.811 31.856 111.913 31.824 112.03 31.824H112.782C112.905 31.824 113.009 31.856 113.094 31.92C113.179 31.9787 113.235 32.056 113.262 32.152L114.75 36.928C114.814 37.1467 114.873 37.36 114.926 37.568C114.985 37.776 115.038 37.984 115.086 38.192C115.123 37.9893 115.163 37.784 115.206 37.576C115.249 37.368 115.299 37.152 115.358 36.928L116.742 32.176C116.774 32.08 116.833 32 116.918 31.936C117.003 31.872 117.107 31.84 117.23 31.84H118.526ZM131.401 30.04H127.809V40H125.945V30.04H122.345V28.48H131.401V30.04ZM132.72 33.352C132.976 32.8347 133.286 32.4293 133.648 32.136C134.011 31.8373 134.446 31.688 134.952 31.688C135.128 31.688 135.294 31.7093 135.448 31.752C135.603 31.7893 135.742 31.848 135.864 31.928L135.744 33.224C135.723 33.3147 135.688 33.3787 135.64 33.416C135.598 33.448 135.539 33.464 135.464 33.464C135.384 33.464 135.27 33.4507 135.12 33.424C134.971 33.392 134.814 33.376 134.648 33.376C134.408 33.376 134.195 33.4107 134.008 33.48C133.827 33.5493 133.662 33.6507 133.512 33.784C133.368 33.9173 133.24 34.08 133.128 34.272C133.016 34.464 132.912 34.6827 132.816 34.928V40H131.096V31.84H132.096C132.278 31.84 132.403 31.8747 132.472 31.944C132.542 32.008 132.59 32.1227 132.616 32.288L132.72 33.352ZM142.173 35C142.173 34.712 142.131 34.4453 142.045 34.2C141.965 33.9493 141.845 33.7333 141.685 33.552C141.525 33.3653 141.325 33.2213 141.085 33.12C140.851 33.0133 140.579 32.96 140.269 32.96C139.645 32.96 139.155 33.1387 138.797 33.496C138.44 33.8533 138.213 34.3547 138.117 35H142.173ZM138.069 36.056C138.091 36.52 138.163 36.9227 138.285 37.264C138.408 37.6 138.571 37.88 138.773 38.104C138.981 38.328 139.227 38.496 139.509 38.608C139.797 38.7147 140.117 38.768 140.469 38.768C140.805 38.768 141.096 38.7307 141.341 38.656C141.587 38.576 141.8 38.4907 141.981 38.4C142.163 38.304 142.317 38.2187 142.445 38.144C142.573 38.064 142.691 38.024 142.797 38.024C142.936 38.024 143.043 38.0773 143.117 38.184L143.605 38.816C143.403 39.056 143.173 39.2587 142.917 39.424C142.661 39.5893 142.389 39.7253 142.101 39.832C141.813 39.9333 141.517 40.0053 141.213 40.048C140.909 40.096 140.613 40.12 140.325 40.12C139.76 40.12 139.235 40.0267 138.749 39.84C138.269 39.648 137.851 39.368 137.493 39C137.141 38.632 136.864 38.176 136.661 37.632C136.464 37.088 136.365 36.4613 136.365 35.752C136.365 35.1867 136.453 34.6587 136.629 34.168C136.811 33.6773 137.067 33.2507 137.397 32.888C137.733 32.5253 138.139 32.24 138.613 32.032C139.093 31.8187 139.635 31.712 140.237 31.712C140.739 31.712 141.203 31.7947 141.629 31.96C142.056 32.12 142.424 32.3573 142.733 32.672C143.043 32.9867 143.283 33.3733 143.453 33.832C143.629 34.2853 143.717 34.8027 143.717 35.384C143.717 35.6507 143.688 35.8293 143.629 35.92C143.571 36.0107 143.464 36.056 143.309 36.056H138.069ZM149.781 36.432C149.168 36.4533 148.651 36.504 148.229 36.584C147.808 36.6587 147.467 36.7573 147.205 36.88C146.944 36.9973 146.755 37.1387 146.637 37.304C146.525 37.4693 146.469 37.6507 146.469 37.848C146.469 38.04 146.499 38.2053 146.557 38.344C146.621 38.4773 146.707 38.5893 146.813 38.68C146.925 38.7653 147.053 38.8293 147.197 38.872C147.347 38.9093 147.509 38.928 147.685 38.928C148.133 38.928 148.517 38.8453 148.837 38.68C149.163 38.5093 149.477 38.264 149.781 37.944V36.432ZM145.221 32.976C146.144 32.1173 147.243 31.688 148.517 31.688C148.987 31.688 149.403 31.7653 149.765 31.92C150.133 32.0693 150.44 32.2827 150.685 32.56C150.936 32.8373 151.125 33.168 151.253 33.552C151.387 33.9307 151.453 34.352 151.453 34.816V40H150.685C150.52 40 150.395 39.976 150.309 39.928C150.224 39.8747 150.152 39.7707 150.093 39.616L149.925 38.952C149.717 39.1387 149.512 39.3067 149.309 39.456C149.107 39.6 148.896 39.7227 148.677 39.824C148.464 39.9253 148.232 40 147.981 40.048C147.736 40.1013 147.464 40.128 147.165 40.128C146.835 40.128 146.525 40.0827 146.237 39.992C145.955 39.9013 145.709 39.7653 145.501 39.584C145.293 39.3973 145.128 39.168 145.005 38.896C144.888 38.624 144.829 38.304 144.829 37.936C144.829 37.6213 144.912 37.3147 145.077 37.016C145.248 36.7173 145.525 36.4507 145.909 36.216C146.299 35.976 146.808 35.7787 147.437 35.624C148.072 35.4693 148.853 35.3813 149.781 35.36V34.816C149.781 34.2293 149.656 33.792 149.405 33.504C149.155 33.216 148.787 33.072 148.301 33.072C147.971 33.072 147.693 33.1147 147.469 33.2C147.245 33.28 147.051 33.368 146.885 33.464C146.72 33.56 146.573 33.6507 146.445 33.736C146.317 33.816 146.181 33.856 146.037 33.856C145.92 33.856 145.819 33.8267 145.733 33.768C145.653 33.704 145.587 33.6267 145.533 33.536L145.221 32.976ZM156.075 40.128C155.398 40.128 154.875 39.9387 154.507 39.56C154.144 39.176 153.963 38.6373 153.963 37.944V33.192H153.067C152.971 33.192 152.888 33.1627 152.819 33.104C152.75 33.04 152.715 32.9467 152.715 32.824V32.128L154.035 31.936L154.411 29.576C154.438 29.4853 154.483 29.4133 154.547 29.36C154.611 29.3013 154.696 29.272 154.803 29.272H155.683V31.952H157.947V33.192H155.683V37.824C155.683 38.1173 155.755 38.3413 155.899 38.496C156.043 38.6507 156.235 38.728 156.475 38.728C156.608 38.728 156.723 38.712 156.819 38.68C156.915 38.6427 156.998 38.6053 157.067 38.568C157.136 38.5253 157.195 38.488 157.243 38.456C157.296 38.4187 157.347 38.4 157.395 38.4C157.491 38.4 157.568 38.4533 157.627 38.56L158.139 39.4C157.872 39.6347 157.558 39.816 157.195 39.944C156.832 40.0667 156.459 40.128 156.075 40.128ZM159.403 40V31.84H160.443C160.677 31.84 160.827 31.9493 160.891 32.168L161.003 32.88C161.152 32.7093 161.307 32.5547 161.467 32.416C161.627 32.272 161.797 32.1493 161.979 32.048C162.165 31.9413 162.363 31.8587 162.571 31.8C162.784 31.7413 163.013 31.712 163.259 31.712C163.52 31.712 163.76 31.7493 163.979 31.824C164.197 31.8987 164.389 32.0053 164.555 32.144C164.725 32.2827 164.872 32.4507 164.995 32.648C165.117 32.8453 165.219 33.0667 165.299 33.312C165.421 33.0293 165.576 32.7867 165.763 32.584C165.949 32.3813 166.157 32.216 166.387 32.088C166.616 31.96 166.859 31.8667 167.115 31.808C167.376 31.744 167.64 31.712 167.907 31.712C168.344 31.712 168.733 31.7813 169.075 31.92C169.421 32.0587 169.712 32.2613 169.947 32.528C170.187 32.7893 170.368 33.112 170.491 33.496C170.613 33.88 170.675 34.3173 170.675 34.808V40H168.955V34.808C168.955 34.232 168.829 33.8 168.579 33.512C168.333 33.2187 167.968 33.072 167.483 33.072C167.264 33.072 167.059 33.1093 166.867 33.184C166.675 33.2587 166.507 33.368 166.363 33.512C166.219 33.656 166.104 33.8373 166.019 34.056C165.939 34.2693 165.899 34.52 165.899 34.808V40H164.179V34.808C164.179 34.2107 164.059 33.7733 163.819 33.496C163.579 33.2133 163.227 33.072 162.763 33.072C162.443 33.072 162.147 33.1547 161.875 33.32C161.603 33.48 161.352 33.7013 161.123 33.984V40H159.403ZM178.136 35C178.136 34.712 178.093 34.4453 178.008 34.2C177.928 33.9493 177.808 33.7333 177.648 33.552C177.488 33.3653 177.288 33.2213 177.048 33.12C176.813 33.0133 176.541 32.96 176.232 32.96C175.608 32.96 175.117 33.1387 174.76 33.496C174.403 33.8533 174.176 34.3547 174.08 35H178.136ZM174.032 36.056C174.053 36.52 174.125 36.9227 174.248 37.264C174.371 37.6 174.533 37.88 174.736 38.104C174.944 38.328 175.189 38.496 175.472 38.608C175.76 38.7147 176.08 38.768 176.432 38.768C176.768 38.768 177.059 38.7307 177.304 38.656C177.549 38.576 177.763 38.4907 177.944 38.4C178.125 38.304 178.28 38.2187 178.408 38.144C178.536 38.064 178.653 38.024 178.76 38.024C178.899 38.024 179.005 38.0773 179.08 38.184L179.568 38.816C179.365 39.056 179.136 39.2587 178.88 39.424C178.624 39.5893 178.352 39.7253 178.064 39.832C177.776 39.9333 177.48 40.0053 177.176 40.048C176.872 40.096 176.576 40.12 176.288 40.12C175.723 40.12 175.197 40.0267 174.712 39.84C174.232 39.648 173.813 39.368 173.456 39C173.104 38.632 172.827 38.176 172.624 37.632C172.427 37.088 172.328 36.4613 172.328 35.752C172.328 35.1867 172.416 34.6587 172.592 34.168C172.773 33.6773 173.029 33.2507 173.36 32.888C173.696 32.5253 174.101 32.24 174.576 32.032C175.056 31.8187 175.597 31.712 176.2 31.712C176.701 31.712 177.165 31.7947 177.592 31.96C178.019 32.12 178.387 32.3573 178.696 32.672C179.005 32.9867 179.245 33.3733 179.416 33.832C179.592 34.2853 179.68 34.8027 179.68 35.384C179.68 35.6507 179.651 35.8293 179.592 35.92C179.533 36.0107 179.427 36.056 179.272 36.056H174.032ZM182.992 32.92C183.168 32.7387 183.349 32.576 183.536 32.432C183.728 32.2827 183.931 32.1547 184.144 32.048C184.357 31.9413 184.584 31.8587 184.824 31.8C185.064 31.7413 185.325 31.712 185.608 31.712C186.056 31.712 186.448 31.7867 186.784 31.936C187.125 32.0853 187.411 32.296 187.64 32.568C187.875 32.84 188.051 33.168 188.168 33.552C188.285 33.9307 188.344 34.3493 188.344 34.808V40H186.632V34.808C186.632 34.2587 186.504 33.832 186.248 33.528C185.997 33.224 185.613 33.072 185.096 33.072C184.712 33.072 184.355 33.16 184.024 33.336C183.699 33.512 183.392 33.752 183.104 34.056V40H181.384V31.84H182.424C182.659 31.84 182.808 31.9493 182.872 32.168L182.992 32.92ZM192.959 40.128C192.282 40.128 191.759 39.9387 191.391 39.56C191.029 39.176 190.847 38.6373 190.847 37.944V33.192H189.951C189.855 33.192 189.773 33.1627 189.703 33.104C189.634 33.04 189.599 32.9467 189.599 32.824V32.128L190.919 31.936L191.295 29.576C191.322 29.4853 191.367 29.4133 191.431 29.36C191.495 29.3013 191.581 29.272 191.687 29.272H192.567V31.952H194.831V33.192H192.567V37.824C192.567 38.1173 192.639 38.3413 192.783 38.496C192.927 38.6507 193.119 38.728 193.359 38.728C193.493 38.728 193.607 38.712 193.703 38.68C193.799 38.6427 193.882 38.6053 193.951 38.568C194.021 38.5253 194.079 38.488 194.127 38.456C194.181 38.4187 194.231 38.4 194.279 38.4C194.375 38.4 194.453 38.4533 194.511 38.56L195.023 39.4C194.757 39.6347 194.442 39.816 194.079 39.944C193.717 40.0667 193.343 40.128 192.959 40.128ZM202.091 37.952C202.331 38.2613 202.593 38.48 202.875 38.608C203.163 38.7307 203.481 38.792 203.827 38.792C204.499 38.792 205.022 38.5467 205.395 38.056C205.774 37.5653 205.963 36.8347 205.963 35.864C205.963 35.3627 205.921 34.936 205.835 34.584C205.75 34.2267 205.627 33.936 205.467 33.712C205.307 33.488 205.113 33.3253 204.883 33.224C204.654 33.1227 204.395 33.072 204.107 33.072C203.67 33.072 203.291 33.168 202.971 33.36C202.657 33.5467 202.363 33.816 202.091 34.168V37.952ZM202.003 33.024C202.345 32.624 202.731 32.3013 203.163 32.056C203.601 31.8107 204.107 31.688 204.683 31.688C205.142 31.688 205.558 31.7813 205.931 31.968C206.305 32.1493 206.625 32.416 206.891 32.768C207.158 33.12 207.363 33.5573 207.507 34.08C207.657 34.5973 207.731 35.192 207.731 35.864C207.731 36.4667 207.649 37.0293 207.483 37.552C207.323 38.0693 207.091 38.52 206.787 38.904C206.483 39.2827 206.115 39.5813 205.683 39.8C205.251 40.0133 204.763 40.12 204.219 40.12C203.739 40.12 203.331 40.0427 202.995 39.888C202.665 39.7333 202.363 39.52 202.091 39.248V42.712H200.371V31.84H201.411C201.646 31.84 201.795 31.9493 201.859 32.168L202.003 33.024ZM211.255 28.16V40H209.535V28.16H211.255ZM217.838 36.432C217.224 36.4533 216.707 36.504 216.286 36.584C215.864 36.6587 215.523 36.7573 215.262 36.88C215 36.9973 214.811 37.1387 214.694 37.304C214.582 37.4693 214.526 37.6507 214.526 37.848C214.526 38.04 214.555 38.2053 214.614 38.344C214.678 38.4773 214.763 38.5893 214.87 38.68C214.982 38.7653 215.11 38.8293 215.254 38.872C215.403 38.9093 215.566 38.928 215.742 38.928C216.19 38.928 216.574 38.8453 216.894 38.68C217.219 38.5093 217.534 38.264 217.838 37.944V36.432ZM213.278 32.976C214.2 32.1173 215.299 31.688 216.574 31.688C217.043 31.688 217.459 31.7653 217.822 31.92C218.19 32.0693 218.496 32.2827 218.742 32.56C218.992 32.8373 219.182 33.168 219.31 33.552C219.443 33.9307 219.51 34.352 219.51 34.816V40H218.742C218.576 40 218.451 39.976 218.366 39.928C218.28 39.8747 218.208 39.7707 218.15 39.616L217.982 38.952C217.774 39.1387 217.568 39.3067 217.366 39.456C217.163 39.6 216.952 39.7227 216.734 39.824C216.52 39.9253 216.288 40 216.038 40.048C215.792 40.1013 215.52 40.128 215.222 40.128C214.891 40.128 214.582 40.0827 214.294 39.992C214.011 39.9013 213.766 39.7653 213.558 39.584C213.35 39.3973 213.184 39.168 213.062 38.896C212.944 38.624 212.886 38.304 212.886 37.936C212.886 37.6213 212.968 37.3147 213.134 37.016C213.304 36.7173 213.582 36.4507 213.966 36.216C214.355 35.976 214.864 35.7787 215.494 35.624C216.128 35.4693 216.91 35.3813 217.838 35.36V34.816C217.838 34.2293 217.712 33.792 217.462 33.504C217.211 33.216 216.843 33.072 216.358 33.072C216.027 33.072 215.75 33.1147 215.526 33.2C215.302 33.28 215.107 33.368 214.942 33.464C214.776 33.56 214.63 33.6507 214.502 33.736C214.374 33.816 214.238 33.856 214.094 33.856C213.976 33.856 213.875 33.8267 213.79 33.768C213.71 33.704 213.643 33.6267 213.59 33.536L213.278 32.976ZM223.233 32.92C223.409 32.7387 223.59 32.576 223.777 32.432C223.969 32.2827 224.171 32.1547 224.385 32.048C224.598 31.9413 224.825 31.8587 225.065 31.8C225.305 31.7413 225.566 31.712 225.849 31.712C226.297 31.712 226.689 31.7867 227.025 31.936C227.366 32.0853 227.651 32.296 227.881 32.568C228.115 32.84 228.291 33.168 228.409 33.552C228.526 33.9307 228.585 34.3493 228.585 34.808V40H226.873V34.808C226.873 34.2587 226.745 33.832 226.489 33.528C226.238 33.224 225.854 33.072 225.337 33.072C224.953 33.072 224.595 33.16 224.265 33.336C223.939 33.512 223.633 33.752 223.345 34.056V40H221.625V31.84H222.665C222.899 31.84 223.049 31.9493 223.113 32.168L223.233 32.92ZM235.565 33.32C235.523 33.3947 235.475 33.448 235.421 33.48C235.368 33.512 235.301 33.528 235.221 33.528C235.131 33.528 235.032 33.5013 234.925 33.448C234.819 33.3893 234.693 33.3253 234.549 33.256C234.405 33.1867 234.235 33.1253 234.037 33.072C233.845 33.0133 233.619 32.984 233.357 32.984C233.144 32.984 232.949 33.0107 232.773 33.064C232.603 33.112 232.456 33.184 232.333 33.28C232.216 33.3707 232.125 33.48 232.061 33.608C231.997 33.7307 231.965 33.864 231.965 34.008C231.965 34.2 232.024 34.36 232.141 34.488C232.259 34.616 232.413 34.728 232.605 34.824C232.797 34.9147 233.016 34.9973 233.261 35.072C233.507 35.1467 233.757 35.2267 234.013 35.312C234.269 35.3973 234.52 35.496 234.765 35.608C235.011 35.72 235.229 35.8587 235.421 36.024C235.613 36.184 235.768 36.3813 235.885 36.616C236.003 36.8453 236.061 37.1253 236.061 37.456C236.061 37.84 235.992 38.1947 235.853 38.52C235.715 38.8453 235.512 39.128 235.245 39.368C234.979 39.608 234.645 39.7947 234.245 39.928C233.851 40.0613 233.397 40.128 232.885 40.128C232.603 40.128 232.328 40.1013 232.061 40.048C231.8 40 231.549 39.9333 231.309 39.848C231.075 39.7573 230.853 39.6507 230.645 39.528C230.443 39.4053 230.261 39.272 230.101 39.128L230.501 38.472C230.549 38.392 230.608 38.3307 230.677 38.288C230.752 38.24 230.843 38.216 230.949 38.216C231.061 38.216 231.171 38.2533 231.277 38.328C231.389 38.3973 231.517 38.4747 231.661 38.56C231.811 38.6453 231.989 38.7253 232.197 38.8C232.405 38.8693 232.664 38.904 232.973 38.904C233.229 38.904 233.451 38.8747 233.637 38.816C233.824 38.752 233.979 38.6667 234.101 38.56C234.224 38.4533 234.315 38.3333 234.373 38.2C234.432 38.0613 234.461 37.9147 234.461 37.76C234.461 37.552 234.403 37.3813 234.285 37.248C234.168 37.1147 234.011 37 233.813 36.904C233.621 36.808 233.4 36.7227 233.149 36.648C232.904 36.5733 232.653 36.4933 232.397 36.408C232.141 36.3227 231.888 36.224 231.637 36.112C231.392 36 231.171 35.8587 230.973 35.688C230.781 35.512 230.627 35.3013 230.509 35.056C230.392 34.8053 230.333 34.5013 230.333 34.144C230.333 33.8187 230.397 33.5093 230.525 33.216C230.659 32.9227 230.851 32.664 231.101 32.44C231.357 32.216 231.669 32.04 232.037 31.912C232.411 31.7787 232.84 31.712 233.325 31.712C233.875 31.712 234.373 31.8 234.821 31.976C235.269 32.152 235.645 32.392 235.949 32.696L235.565 33.32Z" fill="#6D3745"/>
<path d="M69.8792 35.1597C67.9962 31.4858 64.2684 29 60 29C55.7316 29 52.0028 31.4875 50.1208 35.1601C50.0414 35.3172 50 35.4908 50 35.6669C50 35.8429 50.0414 36.0165 50.1208 36.1736C52.0038 39.8476 55.7316 42.3334 60 42.3334C64.2684 42.3334 67.9972 39.8459 69.8792 36.1733C69.9586 36.0162 70 35.8426 70 35.6665C70 35.4904 69.9586 35.3169 69.8792 35.1597ZM60 40.6667C59.0111 40.6667 58.0444 40.3734 57.2221 39.824C56.3999 39.2746 55.759 38.4937 55.3806 37.5801C55.0022 36.6665 54.9031 35.6611 55.0961 34.6912C55.289 33.7213 55.7652 32.8304 56.4645 32.1311C57.1637 31.4319 58.0546 30.9557 59.0245 30.7627C59.9945 30.5698 60.9998 30.6688 61.9134 31.0473C62.8271 31.4257 63.6079 32.0666 64.1574 32.8888C64.7068 33.7111 65 34.6778 65 35.6667C65.0003 36.3234 64.8712 36.9737 64.6201 37.5805C64.3689 38.1873 64.0006 38.7386 63.5363 39.2029C63.0719 39.6673 62.5206 40.0356 61.9138 40.2867C61.307 40.5379 60.6567 40.667 60 40.6667ZM60 32.3333C59.7025 32.3375 59.4069 32.3818 59.1212 32.4649C59.3567 32.785 59.4697 33.1788 59.4397 33.575C59.4097 33.9712 59.2388 34.3435 58.9578 34.6245C58.6769 34.9054 58.3045 35.0764 57.9083 35.1064C57.5121 35.1364 57.1183 35.0234 56.7983 34.7879C56.616 35.4592 56.6489 36.1709 56.8923 36.8226C57.1357 37.4743 57.5773 38.0333 58.1551 38.4208C58.7328 38.8084 59.4175 39.005 60.1128 38.9831C60.8082 38.9611 61.4791 38.7216 62.0312 38.2984C62.5833 37.8751 62.9888 37.2894 63.1906 36.6236C63.3923 35.9578 63.3803 35.2456 63.156 34.587C62.9318 33.9285 62.5066 33.3568 61.9405 32.9525C61.3744 32.5483 60.6957 32.3317 60 32.3333Z" fill="#6D3745"/>
<defs>
<filter id="filter0_d_1055_2450" x="0" y="0" width="286" height="76" filterUnits="userSpaceOnUse" color-interpolation-filters="sRGB">
<feFlood flood-opacity="0" result="BackgroundImageFix"/>
<feColorMatrix in="SourceAlpha" type="matrix" values="0 0 0 0 0 0 0 0 0 0 0 0 0 0 0 0 0 0 127 0" result="hardAlpha"/>
<feMorphology radius="3" operator="dilate" in="SourceAlpha" result="effect1_dropShadow_1055_2450"/>
<feOffset dy="4"/>
<feGaussianBlur stdDeviation="5"/>
<feColorMatrix type="matrix" values="0 0 0 0 0.427451 0 0 0 0 0.215686 0 0 0 0 0.270588 0 0 0 0.3 0"/>
<feBlend mode="normal" in2="BackgroundImageFix" result="effect1_dropShadow_1055_2450"/>
<feBlend mode="normal" in="SourceGraphic" in2="effect1_dropShadow_1055_2450" result="shape"/>
</filter>
</defs>
</svg>
