<svg width="167" height="39" viewBox="0 0 167 39" fill="none" xmlns="http://www.w3.org/2000/svg">
<path d="M1 19.5C1 9.28273 9.28273 1 19.5 1H147.5C157.717 1 166 9.28273 166 19.5C166 29.7173 157.717 38 147.5 38H19.5C9.28273 38 1 29.7173 1 19.5Z" fill="#F2E6CC"/>
<path d="M32.9033 18.0948C31.397 15.1556 28.4147 13.167 25 13.167C21.5853 13.167 18.6022 15.157 17.0967 18.0951C17.0331 18.2208 17 18.3596 17 18.5005C17 18.6413 17.0331 18.7802 17.0967 18.9059C18.603 21.8451 21.5853 23.8337 25 23.8337C28.4147 23.8337 31.3978 21.8437 32.9033 18.9056C32.9669 18.7799 33 18.641 33 18.5002C33 18.3594 32.9669 18.2205 32.9033 18.0948ZM25 22.5003C24.2089 22.5003 23.4355 22.2657 22.7777 21.8262C22.1199 21.3867 21.6072 20.762 21.3045 20.0311C21.0017 19.3002 20.9225 18.4959 21.0769 17.72C21.2312 16.944 21.6122 16.2313 22.1716 15.6719C22.731 15.1125 23.4437 14.7315 24.2196 14.5772C24.9956 14.4228 25.7998 14.5021 26.5307 14.8048C27.2616 15.1076 27.8864 15.6203 28.3259 16.2781C28.7654 16.9358 29 17.7092 29 18.5003C29.0003 19.0257 28.897 19.546 28.696 20.0314C28.4951 20.5168 28.2005 20.9579 27.829 21.3293C27.4575 21.7008 27.0165 21.9955 26.531 22.1964C26.0456 22.3973 25.5254 22.5006 25 22.5003ZM25 15.8337C24.762 15.837 24.5255 15.8724 24.2969 15.9389C24.4853 16.195 24.5757 16.51 24.5518 16.827C24.5278 17.1439 24.391 17.4418 24.1662 17.6666C23.9415 17.8913 23.6436 18.0281 23.3266 18.0521C23.0097 18.0761 22.6946 17.9857 22.4386 17.7973C22.2928 18.3344 22.3191 18.9037 22.5139 19.4251C22.7086 19.9464 23.0619 20.3936 23.5241 20.7037C23.9862 21.0137 24.534 21.171 25.0903 21.1535C25.6465 21.1359 26.1833 20.9443 26.625 20.6057C27.0667 20.2671 27.391 19.7985 27.5525 19.2659C27.7139 18.7333 27.7042 18.1634 27.5248 17.6366C27.3454 17.1098 27.0053 16.6525 26.5524 16.329C26.0995 16.0056 25.5565 15.8324 25 15.8337Z" fill="#6D3745"/>
<path d="M53.784 13.536L49.112 25H47.72L43.048 13.536H44.288C44.4267 13.536 44.5387 13.5707 44.624 13.64C44.7093 13.7093 44.7733 13.7973 44.816 13.904L48.048 21.992C48.1173 22.1733 48.184 22.3707 48.248 22.584C48.3173 22.7973 48.3787 23.0213 48.432 23.256C48.4853 23.0213 48.5413 22.7973 48.6 22.584C48.6587 22.3707 48.7227 22.1733 48.792 21.992L52.016 13.904C52.048 13.8133 52.1093 13.7307 52.2 13.656C52.296 13.576 52.4107 13.536 52.544 13.536H53.784ZM56.4601 16.896V25H55.0361V16.896H56.4601ZM56.7641 14.352C56.7641 14.4907 56.7348 14.6213 56.6761 14.744C56.6228 14.8613 56.5481 14.968 56.4521 15.064C56.3615 15.1547 56.2521 15.2267 56.1241 15.28C56.0015 15.3333 55.8708 15.36 55.7321 15.36C55.5935 15.36 55.4628 15.3333 55.3401 15.28C55.2228 15.2267 55.1188 15.1547 55.0281 15.064C54.9375 14.968 54.8655 14.8613 54.8121 14.744C54.7588 14.6213 54.7321 14.4907 54.7321 14.352C54.7321 14.2133 54.7588 14.0827 54.8121 13.96C54.8655 13.832 54.9375 13.7227 55.0281 13.632C55.1188 13.536 55.2228 13.4613 55.3401 13.408C55.4628 13.3547 55.5935 13.328 55.7321 13.328C55.8708 13.328 56.0015 13.3547 56.1241 13.408C56.2521 13.4613 56.3615 13.536 56.4521 13.632C56.5481 13.7227 56.6228 13.832 56.6761 13.96C56.7348 14.0827 56.7641 14.2133 56.7641 14.352ZM64.2239 20.064C64.2239 19.7333 64.1759 19.432 64.0799 19.16C63.9892 18.8827 63.8532 18.6453 63.6719 18.448C63.4959 18.2453 63.2799 18.0907 63.0239 17.984C62.7679 17.872 62.4772 17.816 62.1519 17.816C61.4692 17.816 60.9279 18.016 60.5279 18.416C60.1332 18.8107 59.8879 19.36 59.7919 20.064H64.2239ZM65.3759 23.864C65.1999 24.0773 64.9892 24.264 64.7439 24.424C64.4985 24.5787 64.2345 24.7067 63.9519 24.808C63.6745 24.9093 63.3865 24.984 63.0879 25.032C62.7892 25.0853 62.4932 25.112 62.1999 25.112C61.6399 25.112 61.1225 25.0187 60.6479 24.832C60.1785 24.64 59.7705 24.3627 59.4239 24C59.0825 23.632 58.8159 23.1787 58.6239 22.64C58.4319 22.1013 58.3359 21.4827 58.3359 20.784C58.3359 20.2187 58.4212 19.6907 58.5919 19.2C58.7679 18.7093 59.0185 18.2853 59.3439 17.928C59.6692 17.5653 60.0665 17.2827 60.5359 17.08C61.0052 16.872 61.5332 16.768 62.1199 16.768C62.6052 16.768 63.0532 16.8507 63.4639 17.016C63.8799 17.176 64.2372 17.4107 64.5359 17.72C64.8399 18.024 65.0772 18.4027 65.2479 18.856C65.4185 19.304 65.5039 19.816 65.5039 20.392C65.5039 20.616 65.4799 20.7653 65.4319 20.84C65.3839 20.9147 65.2932 20.952 65.1599 20.952H59.7439C59.7599 21.464 59.8292 21.9093 59.9519 22.288C60.0799 22.6667 60.2559 22.984 60.4799 23.24C60.7039 23.4907 60.9705 23.68 61.2799 23.808C61.5892 23.9307 61.9359 23.992 62.3199 23.992C62.6772 23.992 62.9839 23.952 63.2399 23.872C63.5012 23.7867 63.7252 23.696 63.9119 23.6C64.0985 23.504 64.2532 23.416 64.3759 23.336C64.5039 23.2507 64.6132 23.208 64.7039 23.208C64.8212 23.208 64.9119 23.2533 64.9759 23.344L65.3759 23.864ZM78.3509 16.896L75.7269 25H74.5989C74.4602 25 74.3642 24.9093 74.3109 24.728L72.5189 19.232C72.4762 19.1093 72.4415 18.9867 72.4149 18.864C72.3882 18.736 72.3615 18.6107 72.3349 18.488C72.3082 18.6107 72.2815 18.736 72.2549 18.864C72.2282 18.9867 72.1935 19.112 72.1509 19.24L70.3269 24.728C70.2789 24.9093 70.1722 25 70.0069 25H68.9349L66.3109 16.896H67.4309C67.5429 16.896 67.6362 16.9253 67.7109 16.984C67.7909 17.0427 67.8442 17.112 67.8709 17.192L69.4229 22.408C69.5135 22.792 69.5855 23.1547 69.6389 23.496C69.6869 23.32 69.7349 23.1413 69.7829 22.96C69.8362 22.7787 69.8922 22.5947 69.9509 22.408L71.6629 17.16C71.6895 17.08 71.7349 17.0133 71.7989 16.96C71.8682 16.9067 71.9509 16.88 72.0469 16.88H72.6709C72.7775 16.88 72.8655 16.9067 72.9349 16.96C73.0042 17.0133 73.0522 17.08 73.0789 17.16L74.7509 22.408C74.8095 22.5947 74.8629 22.7787 74.9109 22.96C74.9589 23.1413 75.0042 23.32 75.0469 23.496C75.0735 23.32 75.1055 23.144 75.1429 22.968C75.1855 22.7867 75.2309 22.6 75.2789 22.408L76.8629 17.192C76.8895 17.1067 76.9402 17.0373 77.0149 16.984C77.0895 16.9253 77.1775 16.896 77.2789 16.896H78.3509ZM85.391 14.8V18.808H90.103V20.072H85.391V25H83.839V13.536H90.903V14.8H85.391ZM97.2708 20.064C97.2708 19.7333 97.2228 19.432 97.1268 19.16C97.0361 18.8827 96.9001 18.6453 96.7188 18.448C96.5428 18.2453 96.3268 18.0907 96.0708 17.984C95.8148 17.872 95.5241 17.816 95.1988 17.816C94.5161 17.816 93.9748 18.016 93.5748 18.416C93.1801 18.8107 92.9348 19.36 92.8388 20.064H97.2708ZM98.4228 23.864C98.2468 24.0773 98.0361 24.264 97.7908 24.424C97.5454 24.5787 97.2814 24.7067 96.9988 24.808C96.7214 24.9093 96.4334 24.984 96.1348 25.032C95.8361 25.0853 95.5401 25.112 95.2468 25.112C94.6868 25.112 94.1694 25.0187 93.6948 24.832C93.2254 24.64 92.8174 24.3627 92.4708 24C92.1294 23.632 91.8628 23.1787 91.6708 22.64C91.4788 22.1013 91.3828 21.4827 91.3828 20.784C91.3828 20.2187 91.4681 19.6907 91.6388 19.2C91.8148 18.7093 92.0654 18.2853 92.3908 17.928C92.7161 17.5653 93.1134 17.2827 93.5828 17.08C94.0521 16.872 94.5801 16.768 95.1668 16.768C95.6521 16.768 96.1001 16.8507 96.5108 17.016C96.9268 17.176 97.2841 17.4107 97.5828 17.72C97.8868 18.024 98.1241 18.4027 98.2948 18.856C98.4654 19.304 98.5508 19.816 98.5508 20.392C98.5508 20.616 98.5268 20.7653 98.4788 20.84C98.4308 20.9147 98.3401 20.952 98.2068 20.952H92.7908C92.8068 21.464 92.8761 21.9093 92.9988 22.288C93.1268 22.6667 93.3028 22.984 93.5268 23.24C93.7508 23.4907 94.0174 23.68 94.3268 23.808C94.6361 23.9307 94.9828 23.992 95.3668 23.992C95.7241 23.992 96.0308 23.952 96.2868 23.872C96.5481 23.7867 96.7721 23.696 96.9588 23.6C97.1454 23.504 97.3001 23.416 97.4228 23.336C97.5508 23.2507 97.6601 23.208 97.7508 23.208C97.8681 23.208 97.9588 23.2533 98.0228 23.344L98.4228 23.864ZM105.724 20.064C105.724 19.7333 105.676 19.432 105.58 19.16C105.489 18.8827 105.353 18.6453 105.172 18.448C104.996 18.2453 104.78 18.0907 104.524 17.984C104.268 17.872 103.977 17.816 103.652 17.816C102.969 17.816 102.428 18.016 102.028 18.416C101.633 18.8107 101.388 19.36 101.292 20.064H105.724ZM106.876 23.864C106.7 24.0773 106.489 24.264 106.244 24.424C105.999 24.5787 105.735 24.7067 105.452 24.808C105.175 24.9093 104.887 24.984 104.588 25.032C104.289 25.0853 103.993 25.112 103.7 25.112C103.14 25.112 102.623 25.0187 102.148 24.832C101.679 24.64 101.271 24.3627 100.924 24C100.583 23.632 100.316 23.1787 100.124 22.64C99.9319 22.1013 99.8359 21.4827 99.8359 20.784C99.8359 20.2187 99.9212 19.6907 100.092 19.2C100.268 18.7093 100.519 18.2853 100.844 17.928C101.169 17.5653 101.567 17.2827 102.036 17.08C102.505 16.872 103.033 16.768 103.62 16.768C104.105 16.768 104.553 16.8507 104.964 17.016C105.38 17.176 105.737 17.4107 106.036 17.72C106.34 18.024 106.577 18.4027 106.748 18.856C106.919 19.304 107.004 19.816 107.004 20.392C107.004 20.616 106.98 20.7653 106.932 20.84C106.884 20.9147 106.793 20.952 106.66 20.952H101.244C101.26 21.464 101.329 21.9093 101.452 22.288C101.58 22.6667 101.756 22.984 101.98 23.24C102.204 23.4907 102.471 23.68 102.78 23.808C103.089 23.9307 103.436 23.992 103.82 23.992C104.177 23.992 104.484 23.952 104.74 23.872C105.001 23.7867 105.225 23.696 105.412 23.6C105.599 23.504 105.753 23.416 105.876 23.336C106.004 23.2507 106.113 23.208 106.204 23.208C106.321 23.208 106.412 23.2533 106.476 23.344L106.876 23.864ZM114.033 18.824C113.766 18.4667 113.478 18.2187 113.169 18.08C112.86 17.936 112.513 17.864 112.129 17.864C111.377 17.864 110.798 18.1333 110.393 18.672C109.988 19.2107 109.785 19.9787 109.785 20.976C109.785 21.504 109.83 21.9573 109.921 22.336C110.012 22.7093 110.145 23.0187 110.321 23.264C110.497 23.504 110.713 23.68 110.969 23.792C111.225 23.904 111.516 23.96 111.841 23.96C112.31 23.96 112.718 23.8533 113.065 23.64C113.417 23.4267 113.74 23.1253 114.033 22.736V18.824ZM115.457 13.216V25H114.609C114.406 25 114.278 24.9013 114.225 24.704L114.097 23.72C113.75 24.136 113.356 24.472 112.913 24.728C112.47 24.984 111.958 25.112 111.377 25.112C110.913 25.112 110.492 25.024 110.113 24.848C109.734 24.6667 109.412 24.4027 109.145 24.056C108.878 23.7093 108.673 23.2773 108.529 22.76C108.385 22.2427 108.313 21.648 108.313 20.976C108.313 20.3787 108.393 19.824 108.553 19.312C108.713 18.7947 108.942 18.3467 109.241 17.968C109.54 17.5893 109.905 17.2933 110.337 17.08C110.774 16.8613 111.265 16.752 111.809 16.752C112.305 16.752 112.729 16.8373 113.081 17.008C113.438 17.1733 113.756 17.4053 114.033 17.704V13.216H115.457ZM119.138 23.048C119.399 23.4 119.685 23.648 119.994 23.792C120.309 23.936 120.653 24.008 121.026 24.008C121.789 24.008 122.373 23.7387 122.778 23.2C123.183 22.6613 123.386 21.8587 123.386 20.792C123.386 19.8 123.205 19.072 122.842 18.608C122.485 18.1387 121.973 17.904 121.306 17.904C120.842 17.904 120.437 18.0107 120.09 18.224C119.749 18.4373 119.431 18.7387 119.138 19.128V23.048ZM119.138 18.064C119.479 17.6693 119.863 17.3547 120.29 17.12C120.722 16.8853 121.218 16.768 121.778 16.768C122.253 16.768 122.679 16.8587 123.058 17.04C123.442 17.2213 123.767 17.4853 124.034 17.832C124.301 18.1733 124.503 18.5893 124.642 19.08C124.786 19.5707 124.858 20.1227 124.858 20.736C124.858 21.392 124.778 21.9893 124.618 22.528C124.458 23.0667 124.226 23.528 123.922 23.912C123.623 24.2907 123.258 24.5867 122.826 24.8C122.394 25.008 121.909 25.112 121.37 25.112C120.837 25.112 120.386 25.0133 120.018 24.816C119.655 24.6133 119.338 24.328 119.066 23.96L118.994 24.696C118.951 24.8987 118.829 25 118.626 25H117.706V13.216H119.138V18.064ZM131.051 21.352C130.395 21.3733 129.835 21.4267 129.371 21.512C128.913 21.592 128.537 21.6987 128.243 21.832C127.955 21.9653 127.745 22.1227 127.611 22.304C127.483 22.4853 127.419 22.688 127.419 22.912C127.419 23.1253 127.454 23.3093 127.523 23.464C127.593 23.6187 127.686 23.7467 127.803 23.848C127.926 23.944 128.067 24.016 128.227 24.064C128.393 24.1067 128.569 24.128 128.755 24.128C129.006 24.128 129.235 24.104 129.443 24.056C129.651 24.0027 129.846 23.928 130.027 23.832C130.214 23.736 130.39 23.6213 130.555 23.488C130.726 23.3547 130.891 23.2027 131.051 23.032V21.352ZM126.451 18.04C126.899 17.608 127.382 17.2853 127.899 17.072C128.417 16.8587 128.99 16.752 129.619 16.752C130.073 16.752 130.475 16.8267 130.827 16.976C131.179 17.1253 131.475 17.3333 131.715 17.6C131.955 17.8667 132.137 18.1893 132.259 18.568C132.382 18.9467 132.443 19.3627 132.443 19.816V25H131.811C131.673 25 131.566 24.9787 131.491 24.936C131.417 24.888 131.358 24.7973 131.315 24.664L131.155 23.896C130.942 24.0933 130.734 24.2693 130.531 24.424C130.329 24.5733 130.115 24.7013 129.891 24.808C129.667 24.9093 129.427 24.9867 129.171 25.04C128.921 25.0987 128.641 25.128 128.331 25.128C128.017 25.128 127.721 25.0853 127.443 25C127.166 24.9093 126.923 24.776 126.715 24.6C126.513 24.424 126.35 24.2027 126.227 23.936C126.11 23.664 126.051 23.344 126.051 22.976C126.051 22.656 126.139 22.3493 126.315 22.056C126.491 21.7573 126.777 21.4933 127.171 21.264C127.566 21.0347 128.081 20.848 128.715 20.704C129.35 20.5547 130.129 20.4693 131.051 20.448V19.816C131.051 19.1867 130.915 18.712 130.643 18.392C130.371 18.0667 129.974 17.904 129.451 17.904C129.099 17.904 128.803 17.9493 128.563 18.04C128.329 18.1253 128.123 18.224 127.947 18.336C127.777 18.4427 127.627 18.5413 127.499 18.632C127.377 18.7173 127.254 18.76 127.131 18.76C127.035 18.76 126.953 18.736 126.883 18.688C126.814 18.6347 126.755 18.5707 126.707 18.496L126.451 18.04ZM140.252 18.336C140.21 18.3947 140.167 18.44 140.124 18.472C140.082 18.504 140.023 18.52 139.948 18.52C139.868 18.52 139.78 18.488 139.684 18.424C139.588 18.3547 139.468 18.28 139.324 18.2C139.186 18.12 139.012 18.048 138.804 17.984C138.602 17.9147 138.351 17.88 138.052 17.88C137.652 17.88 137.3 17.952 136.996 18.096C136.692 18.2347 136.436 18.4373 136.228 18.704C136.026 18.9707 135.871 19.2933 135.764 19.672C135.663 20.0507 135.612 20.4747 135.612 20.944C135.612 21.4347 135.668 21.872 135.78 22.256C135.892 22.6347 136.05 22.9547 136.252 23.216C136.46 23.472 136.708 23.6693 136.996 23.808C137.29 23.9413 137.618 24.008 137.98 24.008C138.327 24.008 138.612 23.968 138.836 23.888C139.06 23.8027 139.244 23.7093 139.388 23.608C139.538 23.5067 139.66 23.416 139.756 23.336C139.858 23.2507 139.956 23.208 140.052 23.208C140.17 23.208 140.26 23.2533 140.324 23.344L140.724 23.864C140.548 24.0827 140.348 24.2693 140.124 24.424C139.9 24.5787 139.658 24.7093 139.396 24.816C139.14 24.9173 138.871 24.992 138.588 25.04C138.306 25.088 138.018 25.112 137.724 25.112C137.218 25.112 136.746 25.0187 136.308 24.832C135.876 24.6453 135.5 24.376 135.18 24.024C134.86 23.6667 134.61 23.2293 134.428 22.712C134.247 22.1947 134.156 21.6053 134.156 20.944C134.156 20.3413 134.239 19.784 134.404 19.272C134.575 18.76 134.82 18.32 135.14 17.952C135.466 17.5787 135.863 17.288 136.332 17.08C136.807 16.872 137.351 16.768 137.964 16.768C138.535 16.768 139.036 16.8613 139.468 17.048C139.906 17.2293 140.292 17.488 140.628 17.824L140.252 18.336ZM143.685 13.216V20.152H144.053C144.16 20.152 144.248 20.1387 144.317 20.112C144.392 20.08 144.469 20.0187 144.549 19.928L147.109 17.184C147.184 17.0933 147.261 17.024 147.341 16.976C147.426 16.9227 147.538 16.896 147.677 16.896H148.965L145.981 20.072C145.837 20.2533 145.682 20.3947 145.517 20.496C145.613 20.56 145.698 20.6347 145.773 20.72C145.853 20.8 145.928 20.8933 145.997 21L149.165 25H147.893C147.77 25 147.664 24.9813 147.573 24.944C147.488 24.9013 147.413 24.8267 147.349 24.72L144.685 21.4C144.605 21.288 144.525 21.216 144.445 21.184C144.37 21.1467 144.253 21.128 144.093 21.128H143.685V25H142.253V13.216H143.685Z" fill="#6D3745"/>
<path d="M19.5 1.5H147.5V0.5H19.5V1.5ZM147.5 37.5H19.5V38.5H147.5V37.5ZM19.5 37.5C9.55888 37.5 1.5 29.4411 1.5 19.5H0.5C0.5 29.9934 9.00659 38.5 19.5 38.5V37.5ZM165.5 19.5C165.5 29.4411 157.441 37.5 147.5 37.5V38.5C157.993 38.5 166.5 29.9934 166.5 19.5H165.5ZM147.5 1.5C157.441 1.5 165.5 9.55888 165.5 19.5H166.5C166.5 9.00659 157.993 0.5 147.5 0.5V1.5ZM19.5 0.5C9.00659 0.5 0.5 9.00659 0.5 19.5H1.5C1.5 9.55888 9.55887 1.5 19.5 1.5V0.5Z" fill="#6D3745"/>
</svg>
