<svg width="223" height="50" viewBox="0 0 223 50" fill="none" xmlns="http://www.w3.org/2000/svg">
<rect x="0.5" y="0.5" width="222" height="49" rx="14.5" fill="white" stroke="#6D3745"/>
<path d="M59.3783 19.48L54.7063 31H53.0183L48.3463 19.48H49.8423C50.0076 19.48 50.141 19.5227 50.2423 19.608C50.3436 19.688 50.421 19.7893 50.4743 19.912L53.4423 27.424C53.6023 27.8453 53.749 28.3307 53.8823 28.88C53.941 28.608 54.0023 28.3493 54.0663 28.104C54.1356 27.8587 54.2103 27.632 54.2903 27.424L57.2503 19.912C57.293 19.8053 57.3676 19.7067 57.4743 19.616C57.581 19.5253 57.7143 19.48 57.8743 19.48H59.3783ZM62.2947 22.84V31H60.5747V22.84H62.2947ZM62.5827 20.376C62.5827 20.5307 62.5507 20.6773 62.4867 20.816C62.428 20.9547 62.3454 21.0773 62.2387 21.184C62.132 21.2853 62.0067 21.368 61.8627 21.432C61.724 21.4907 61.5747 21.52 61.4147 21.52C61.26 21.52 61.1134 21.4907 60.9747 21.432C60.8414 21.368 60.724 21.2853 60.6227 21.184C60.5214 21.0773 60.4387 20.9547 60.3747 20.816C60.316 20.6773 60.2867 20.5307 60.2867 20.376C60.2867 20.216 60.316 20.0667 60.3747 19.928C60.4387 19.7893 60.5214 19.6693 60.6227 19.568C60.724 19.4613 60.8414 19.3787 60.9747 19.32C61.1134 19.256 61.26 19.224 61.4147 19.224C61.5747 19.224 61.724 19.256 61.8627 19.32C62.0067 19.3787 62.132 19.4613 62.2387 19.568C62.3454 19.6693 62.428 19.7893 62.4867 19.928C62.5507 20.0667 62.5827 20.216 62.5827 20.376ZM69.9078 26C69.9078 25.712 69.8651 25.4453 69.7798 25.2C69.6998 24.9493 69.5798 24.7333 69.4198 24.552C69.2598 24.3653 69.0598 24.2213 68.8198 24.12C68.5851 24.0133 68.3131 23.96 68.0038 23.96C67.3798 23.96 66.8891 24.1387 66.5318 24.496C66.1745 24.8533 65.9478 25.3547 65.8518 26H69.9078ZM65.8038 27.056C65.8251 27.52 65.8971 27.9227 66.0198 28.264C66.1425 28.6 66.3051 28.88 66.5078 29.104C66.7158 29.328 66.9611 29.496 67.2438 29.608C67.5318 29.7147 67.8518 29.768 68.2038 29.768C68.5398 29.768 68.8305 29.7307 69.0758 29.656C69.3211 29.576 69.5345 29.4907 69.7158 29.4C69.8971 29.304 70.0518 29.2187 70.1798 29.144C70.3078 29.064 70.4251 29.024 70.5318 29.024C70.6705 29.024 70.7771 29.0773 70.8518 29.184L71.3398 29.816C71.1371 30.056 70.9078 30.2587 70.6518 30.424C70.3958 30.5893 70.1238 30.7253 69.8358 30.832C69.5478 30.9333 69.2518 31.0053 68.9478 31.048C68.6438 31.096 68.3478 31.12 68.0598 31.12C67.4945 31.12 66.9691 31.0267 66.4838 30.84C66.0038 30.648 65.5851 30.368 65.2278 30C64.8758 29.632 64.5985 29.176 64.3958 28.632C64.1985 28.088 64.0998 27.4613 64.0998 26.752C64.0998 26.1867 64.1878 25.6587 64.3638 25.168C64.5451 24.6773 64.8011 24.2507 65.1318 23.888C65.4678 23.5253 65.8731 23.24 66.3478 23.032C66.8278 22.8187 67.3691 22.712 67.9718 22.712C68.4731 22.712 68.9371 22.7947 69.3638 22.96C69.7905 23.12 70.1585 23.3573 70.4678 23.672C70.7771 23.9867 71.0171 24.3733 71.1878 24.832C71.3638 25.2853 71.4518 25.8027 71.4518 26.384C71.4518 26.6507 71.4225 26.8293 71.3638 26.92C71.3051 27.0107 71.1985 27.056 71.0438 27.056H65.8038ZM84.5261 22.84L81.9101 31H80.5421C80.3821 31 80.2701 30.896 80.2061 30.688L78.5821 25.608C78.5394 25.464 78.4994 25.32 78.4621 25.176C78.4301 25.032 78.4007 24.8907 78.3741 24.752C78.3154 25.04 78.2434 25.328 78.1581 25.616L76.5101 30.688C76.4514 30.896 76.3261 31 76.1341 31H74.8301L72.2141 22.84H73.5741C73.7074 22.84 73.8167 22.8747 73.9021 22.944C73.9927 23.008 74.0514 23.0853 74.0781 23.176L75.4381 27.928C75.4914 28.1467 75.5367 28.36 75.5741 28.568C75.6167 28.7707 75.6541 28.9733 75.6861 29.176C75.7394 28.9733 75.7954 28.7707 75.8541 28.568C75.9127 28.36 75.9741 28.1467 76.0381 27.928L77.5661 23.152C77.5927 23.056 77.6461 22.9787 77.7261 22.92C77.8114 22.856 77.9127 22.824 78.0301 22.824H78.7821C78.9047 22.824 79.0087 22.856 79.0941 22.92C79.1794 22.9787 79.2354 23.056 79.2621 23.152L80.7501 27.928C80.8141 28.1467 80.8727 28.36 80.9261 28.568C80.9847 28.776 81.0381 28.984 81.0861 29.192C81.1234 28.9893 81.1634 28.784 81.2061 28.576C81.2487 28.368 81.2994 28.152 81.3581 27.928L82.7421 23.176C82.7741 23.08 82.8327 23 82.9181 22.936C83.0034 22.872 83.1074 22.84 83.2301 22.84H84.5261ZM97.4007 21.04H93.8087V31H91.9447V21.04H88.3447V19.48H97.4007V21.04ZM98.7204 24.352C98.9764 23.8347 99.2858 23.4293 99.6484 23.136C100.011 22.8373 100.446 22.688 100.952 22.688C101.128 22.688 101.294 22.7093 101.448 22.752C101.603 22.7893 101.742 22.848 101.864 22.928L101.744 24.224C101.723 24.3147 101.688 24.3787 101.64 24.416C101.598 24.448 101.539 24.464 101.464 24.464C101.384 24.464 101.27 24.4507 101.12 24.424C100.971 24.392 100.814 24.376 100.648 24.376C100.408 24.376 100.195 24.4107 100.008 24.48C99.8271 24.5493 99.6618 24.6507 99.5124 24.784C99.3684 24.9173 99.2404 25.08 99.1284 25.272C99.0164 25.464 98.9124 25.6827 98.8164 25.928V31H97.0964V22.84H98.0964C98.2778 22.84 98.4031 22.8747 98.4724 22.944C98.5418 23.008 98.5898 23.1227 98.6164 23.288L98.7204 24.352ZM108.173 26C108.173 25.712 108.131 25.4453 108.045 25.2C107.965 24.9493 107.845 24.7333 107.685 24.552C107.525 24.3653 107.325 24.2213 107.085 24.12C106.851 24.0133 106.579 23.96 106.269 23.96C105.645 23.96 105.155 24.1387 104.797 24.496C104.44 24.8533 104.213 25.3547 104.117 26H108.173ZM104.069 27.056C104.091 27.52 104.163 27.9227 104.285 28.264C104.408 28.6 104.571 28.88 104.773 29.104C104.981 29.328 105.227 29.496 105.509 29.608C105.797 29.7147 106.117 29.768 106.469 29.768C106.805 29.768 107.096 29.7307 107.341 29.656C107.587 29.576 107.8 29.4907 107.981 29.4C108.163 29.304 108.317 29.2187 108.445 29.144C108.573 29.064 108.691 29.024 108.797 29.024C108.936 29.024 109.043 29.0773 109.117 29.184L109.605 29.816C109.403 30.056 109.173 30.2587 108.917 30.424C108.661 30.5893 108.389 30.7253 108.101 30.832C107.813 30.9333 107.517 31.0053 107.213 31.048C106.909 31.096 106.613 31.12 106.325 31.12C105.76 31.12 105.235 31.0267 104.749 30.84C104.269 30.648 103.851 30.368 103.493 30C103.141 29.632 102.864 29.176 102.661 28.632C102.464 28.088 102.365 27.4613 102.365 26.752C102.365 26.1867 102.453 25.6587 102.629 25.168C102.811 24.6773 103.067 24.2507 103.397 23.888C103.733 23.5253 104.139 23.24 104.613 23.032C105.093 22.8187 105.635 22.712 106.237 22.712C106.739 22.712 107.203 22.7947 107.629 22.96C108.056 23.12 108.424 23.3573 108.733 23.672C109.043 23.9867 109.283 24.3733 109.453 24.832C109.629 25.2853 109.717 25.8027 109.717 26.384C109.717 26.6507 109.688 26.8293 109.629 26.92C109.571 27.0107 109.464 27.056 109.309 27.056H104.069ZM115.781 27.432C115.168 27.4533 114.651 27.504 114.229 27.584C113.808 27.6587 113.467 27.7573 113.205 27.88C112.944 27.9973 112.755 28.1387 112.637 28.304C112.525 28.4693 112.469 28.6507 112.469 28.848C112.469 29.04 112.499 29.2053 112.557 29.344C112.621 29.4773 112.707 29.5893 112.813 29.68C112.925 29.7653 113.053 29.8293 113.197 29.872C113.347 29.9093 113.509 29.928 113.685 29.928C114.133 29.928 114.517 29.8453 114.837 29.68C115.163 29.5093 115.477 29.264 115.781 28.944V27.432ZM111.221 23.976C112.144 23.1173 113.243 22.688 114.517 22.688C114.987 22.688 115.403 22.7653 115.765 22.92C116.133 23.0693 116.44 23.2827 116.685 23.56C116.936 23.8373 117.125 24.168 117.253 24.552C117.387 24.9307 117.453 25.352 117.453 25.816V31H116.685C116.52 31 116.395 30.976 116.309 30.928C116.224 30.8747 116.152 30.7707 116.093 30.616L115.925 29.952C115.717 30.1387 115.512 30.3067 115.309 30.456C115.107 30.6 114.896 30.7227 114.677 30.824C114.464 30.9253 114.232 31 113.981 31.048C113.736 31.1013 113.464 31.128 113.165 31.128C112.835 31.128 112.525 31.0827 112.237 30.992C111.955 30.9013 111.709 30.7653 111.501 30.584C111.293 30.3973 111.128 30.168 111.005 29.896C110.888 29.624 110.829 29.304 110.829 28.936C110.829 28.6213 110.912 28.3147 111.077 28.016C111.248 27.7173 111.525 27.4507 111.909 27.216C112.299 26.976 112.808 26.7787 113.437 26.624C114.072 26.4693 114.853 26.3813 115.781 26.36V25.816C115.781 25.2293 115.656 24.792 115.405 24.504C115.155 24.216 114.787 24.072 114.301 24.072C113.971 24.072 113.693 24.1147 113.469 24.2C113.245 24.28 113.051 24.368 112.885 24.464C112.72 24.56 112.573 24.6507 112.445 24.736C112.317 24.816 112.181 24.856 112.037 24.856C111.92 24.856 111.819 24.8267 111.733 24.768C111.653 24.704 111.587 24.6267 111.533 24.536L111.221 23.976ZM122.075 31.128C121.398 31.128 120.875 30.9387 120.507 30.56C120.144 30.176 119.963 29.6373 119.963 28.944V24.192H119.067C118.971 24.192 118.888 24.1627 118.819 24.104C118.75 24.04 118.715 23.9467 118.715 23.824V23.128L120.035 22.936L120.411 20.576C120.438 20.4853 120.483 20.4133 120.547 20.36C120.611 20.3013 120.696 20.272 120.803 20.272H121.683V22.952H123.947V24.192H121.683V28.824C121.683 29.1173 121.755 29.3413 121.899 29.496C122.043 29.6507 122.235 29.728 122.475 29.728C122.608 29.728 122.723 29.712 122.819 29.68C122.915 29.6427 122.998 29.6053 123.067 29.568C123.136 29.5253 123.195 29.488 123.243 29.456C123.296 29.4187 123.347 29.4 123.395 29.4C123.491 29.4 123.568 29.4533 123.627 29.56L124.139 30.4C123.872 30.6347 123.558 30.816 123.195 30.944C122.832 31.0667 122.459 31.128 122.075 31.128ZM125.403 31V22.84H126.443C126.677 22.84 126.827 22.9493 126.891 23.168L127.003 23.88C127.152 23.7093 127.307 23.5547 127.467 23.416C127.627 23.272 127.797 23.1493 127.979 23.048C128.165 22.9413 128.363 22.8587 128.571 22.8C128.784 22.7413 129.013 22.712 129.259 22.712C129.52 22.712 129.76 22.7493 129.979 22.824C130.197 22.8987 130.389 23.0053 130.555 23.144C130.725 23.2827 130.872 23.4507 130.995 23.648C131.117 23.8453 131.219 24.0667 131.299 24.312C131.421 24.0293 131.576 23.7867 131.763 23.584C131.949 23.3813 132.157 23.216 132.387 23.088C132.616 22.96 132.859 22.8667 133.115 22.808C133.376 22.744 133.64 22.712 133.907 22.712C134.344 22.712 134.733 22.7813 135.075 22.92C135.421 23.0587 135.712 23.2613 135.947 23.528C136.187 23.7893 136.368 24.112 136.491 24.496C136.613 24.88 136.675 25.3173 136.675 25.808V31H134.955V25.808C134.955 25.232 134.829 24.8 134.579 24.512C134.333 24.2187 133.968 24.072 133.483 24.072C133.264 24.072 133.059 24.1093 132.867 24.184C132.675 24.2587 132.507 24.368 132.363 24.512C132.219 24.656 132.104 24.8373 132.019 25.056C131.939 25.2693 131.899 25.52 131.899 25.808V31H130.179V25.808C130.179 25.2107 130.059 24.7733 129.819 24.496C129.579 24.2133 129.227 24.072 128.763 24.072C128.443 24.072 128.147 24.1547 127.875 24.32C127.603 24.48 127.352 24.7013 127.123 24.984V31H125.403ZM144.136 26C144.136 25.712 144.093 25.4453 144.008 25.2C143.928 24.9493 143.808 24.7333 143.648 24.552C143.488 24.3653 143.288 24.2213 143.048 24.12C142.813 24.0133 142.541 23.96 142.232 23.96C141.608 23.96 141.117 24.1387 140.76 24.496C140.403 24.8533 140.176 25.3547 140.08 26H144.136ZM140.032 27.056C140.053 27.52 140.125 27.9227 140.248 28.264C140.371 28.6 140.533 28.88 140.736 29.104C140.944 29.328 141.189 29.496 141.472 29.608C141.76 29.7147 142.08 29.768 142.432 29.768C142.768 29.768 143.059 29.7307 143.304 29.656C143.549 29.576 143.763 29.4907 143.944 29.4C144.125 29.304 144.28 29.2187 144.408 29.144C144.536 29.064 144.653 29.024 144.76 29.024C144.899 29.024 145.005 29.0773 145.08 29.184L145.568 29.816C145.365 30.056 145.136 30.2587 144.88 30.424C144.624 30.5893 144.352 30.7253 144.064 30.832C143.776 30.9333 143.48 31.0053 143.176 31.048C142.872 31.096 142.576 31.12 142.288 31.12C141.723 31.12 141.197 31.0267 140.712 30.84C140.232 30.648 139.813 30.368 139.456 30C139.104 29.632 138.827 29.176 138.624 28.632C138.427 28.088 138.328 27.4613 138.328 26.752C138.328 26.1867 138.416 25.6587 138.592 25.168C138.773 24.6773 139.029 24.2507 139.36 23.888C139.696 23.5253 140.101 23.24 140.576 23.032C141.056 22.8187 141.597 22.712 142.2 22.712C142.701 22.712 143.165 22.7947 143.592 22.96C144.019 23.12 144.387 23.3573 144.696 23.672C145.005 23.9867 145.245 24.3733 145.416 24.832C145.592 25.2853 145.68 25.8027 145.68 26.384C145.68 26.6507 145.651 26.8293 145.592 26.92C145.533 27.0107 145.427 27.056 145.272 27.056H140.032ZM148.992 23.92C149.168 23.7387 149.349 23.576 149.536 23.432C149.728 23.2827 149.931 23.1547 150.144 23.048C150.357 22.9413 150.584 22.8587 150.824 22.8C151.064 22.7413 151.325 22.712 151.608 22.712C152.056 22.712 152.448 22.7867 152.784 22.936C153.125 23.0853 153.411 23.296 153.64 23.568C153.875 23.84 154.051 24.168 154.168 24.552C154.285 24.9307 154.344 25.3493 154.344 25.808V31H152.632V25.808C152.632 25.2587 152.504 24.832 152.248 24.528C151.997 24.224 151.613 24.072 151.096 24.072C150.712 24.072 150.355 24.16 150.024 24.336C149.699 24.512 149.392 24.752 149.104 25.056V31H147.384V22.84H148.424C148.659 22.84 148.808 22.9493 148.872 23.168L148.992 23.92ZM158.959 31.128C158.282 31.128 157.759 30.9387 157.391 30.56C157.029 30.176 156.847 29.6373 156.847 28.944V24.192H155.951C155.855 24.192 155.773 24.1627 155.703 24.104C155.634 24.04 155.599 23.9467 155.599 23.824V23.128L156.919 22.936L157.295 20.576C157.322 20.4853 157.367 20.4133 157.431 20.36C157.495 20.3013 157.581 20.272 157.687 20.272H158.567V22.952H160.831V24.192H158.567V28.824C158.567 29.1173 158.639 29.3413 158.783 29.496C158.927 29.6507 159.119 29.728 159.359 29.728C159.493 29.728 159.607 29.712 159.703 29.68C159.799 29.6427 159.882 29.6053 159.951 29.568C160.021 29.5253 160.079 29.488 160.127 29.456C160.181 29.4187 160.231 29.4 160.279 29.4C160.375 29.4 160.453 29.4533 160.511 29.56L161.023 30.4C160.757 30.6347 160.442 30.816 160.079 30.944C159.717 31.0667 159.343 31.128 158.959 31.128ZM168.091 28.952C168.331 29.2613 168.593 29.48 168.875 29.608C169.163 29.7307 169.481 29.792 169.827 29.792C170.499 29.792 171.022 29.5467 171.395 29.056C171.774 28.5653 171.963 27.8347 171.963 26.864C171.963 26.3627 171.921 25.936 171.835 25.584C171.75 25.2267 171.627 24.936 171.467 24.712C171.307 24.488 171.113 24.3253 170.883 24.224C170.654 24.1227 170.395 24.072 170.107 24.072C169.67 24.072 169.291 24.168 168.971 24.36C168.657 24.5467 168.363 24.816 168.091 25.168V28.952ZM168.003 24.024C168.345 23.624 168.731 23.3013 169.163 23.056C169.601 22.8107 170.107 22.688 170.683 22.688C171.142 22.688 171.558 22.7813 171.931 22.968C172.305 23.1493 172.625 23.416 172.891 23.768C173.158 24.12 173.363 24.5573 173.507 25.08C173.657 25.5973 173.731 26.192 173.731 26.864C173.731 27.4667 173.649 28.0293 173.483 28.552C173.323 29.0693 173.091 29.52 172.787 29.904C172.483 30.2827 172.115 30.5813 171.683 30.8C171.251 31.0133 170.763 31.12 170.219 31.12C169.739 31.12 169.331 31.0427 168.995 30.888C168.665 30.7333 168.363 30.52 168.091 30.248V33.712H166.371V22.84H167.411C167.646 22.84 167.795 22.9493 167.859 23.168L168.003 24.024ZM177.255 19.16V31H175.535V19.16H177.255ZM183.838 27.432C183.224 27.4533 182.707 27.504 182.286 27.584C181.864 27.6587 181.523 27.7573 181.262 27.88C181 27.9973 180.811 28.1387 180.694 28.304C180.582 28.4693 180.526 28.6507 180.526 28.848C180.526 29.04 180.555 29.2053 180.614 29.344C180.678 29.4773 180.763 29.5893 180.87 29.68C180.982 29.7653 181.11 29.8293 181.254 29.872C181.403 29.9093 181.566 29.928 181.742 29.928C182.19 29.928 182.574 29.8453 182.894 29.68C183.219 29.5093 183.534 29.264 183.838 28.944V27.432ZM179.278 23.976C180.2 23.1173 181.299 22.688 182.574 22.688C183.043 22.688 183.459 22.7653 183.822 22.92C184.19 23.0693 184.496 23.2827 184.742 23.56C184.992 23.8373 185.182 24.168 185.31 24.552C185.443 24.9307 185.51 25.352 185.51 25.816V31H184.742C184.576 31 184.451 30.976 184.366 30.928C184.28 30.8747 184.208 30.7707 184.15 30.616L183.982 29.952C183.774 30.1387 183.568 30.3067 183.366 30.456C183.163 30.6 182.952 30.7227 182.734 30.824C182.52 30.9253 182.288 31 182.038 31.048C181.792 31.1013 181.52 31.128 181.222 31.128C180.891 31.128 180.582 31.0827 180.294 30.992C180.011 30.9013 179.766 30.7653 179.558 30.584C179.35 30.3973 179.184 30.168 179.062 29.896C178.944 29.624 178.886 29.304 178.886 28.936C178.886 28.6213 178.968 28.3147 179.134 28.016C179.304 27.7173 179.582 27.4507 179.966 27.216C180.355 26.976 180.864 26.7787 181.494 26.624C182.128 26.4693 182.91 26.3813 183.838 26.36V25.816C183.838 25.2293 183.712 24.792 183.462 24.504C183.211 24.216 182.843 24.072 182.358 24.072C182.027 24.072 181.75 24.1147 181.526 24.2C181.302 24.28 181.107 24.368 180.942 24.464C180.776 24.56 180.63 24.6507 180.502 24.736C180.374 24.816 180.238 24.856 180.094 24.856C179.976 24.856 179.875 24.8267 179.79 24.768C179.71 24.704 179.643 24.6267 179.59 24.536L179.278 23.976ZM189.233 23.92C189.409 23.7387 189.59 23.576 189.777 23.432C189.969 23.2827 190.171 23.1547 190.385 23.048C190.598 22.9413 190.825 22.8587 191.065 22.8C191.305 22.7413 191.566 22.712 191.849 22.712C192.297 22.712 192.689 22.7867 193.025 22.936C193.366 23.0853 193.651 23.296 193.881 23.568C194.115 23.84 194.291 24.168 194.409 24.552C194.526 24.9307 194.585 25.3493 194.585 25.808V31H192.873V25.808C192.873 25.2587 192.745 24.832 192.489 24.528C192.238 24.224 191.854 24.072 191.337 24.072C190.953 24.072 190.595 24.16 190.265 24.336C189.939 24.512 189.633 24.752 189.345 25.056V31H187.625V22.84H188.665C188.899 22.84 189.049 22.9493 189.113 23.168L189.233 23.92ZM201.565 24.32C201.523 24.3947 201.475 24.448 201.421 24.48C201.368 24.512 201.301 24.528 201.221 24.528C201.131 24.528 201.032 24.5013 200.925 24.448C200.819 24.3893 200.693 24.3253 200.549 24.256C200.405 24.1867 200.235 24.1253 200.037 24.072C199.845 24.0133 199.619 23.984 199.357 23.984C199.144 23.984 198.949 24.0107 198.773 24.064C198.603 24.112 198.456 24.184 198.333 24.28C198.216 24.3707 198.125 24.48 198.061 24.608C197.997 24.7307 197.965 24.864 197.965 25.008C197.965 25.2 198.024 25.36 198.141 25.488C198.259 25.616 198.413 25.728 198.605 25.824C198.797 25.9147 199.016 25.9973 199.261 26.072C199.507 26.1467 199.757 26.2267 200.013 26.312C200.269 26.3973 200.52 26.496 200.765 26.608C201.011 26.72 201.229 26.8587 201.421 27.024C201.613 27.184 201.768 27.3813 201.885 27.616C202.003 27.8453 202.061 28.1253 202.061 28.456C202.061 28.84 201.992 29.1947 201.853 29.52C201.715 29.8453 201.512 30.128 201.245 30.368C200.979 30.608 200.645 30.7947 200.245 30.928C199.851 31.0613 199.397 31.128 198.885 31.128C198.603 31.128 198.328 31.1013 198.061 31.048C197.8 31 197.549 30.9333 197.309 30.848C197.075 30.7573 196.853 30.6507 196.645 30.528C196.443 30.4053 196.261 30.272 196.101 30.128L196.501 29.472C196.549 29.392 196.608 29.3307 196.677 29.288C196.752 29.24 196.843 29.216 196.949 29.216C197.061 29.216 197.171 29.2533 197.277 29.328C197.389 29.3973 197.517 29.4747 197.661 29.56C197.811 29.6453 197.989 29.7253 198.197 29.8C198.405 29.8693 198.664 29.904 198.973 29.904C199.229 29.904 199.451 29.8747 199.637 29.816C199.824 29.752 199.979 29.6667 200.101 29.56C200.224 29.4533 200.315 29.3333 200.373 29.2C200.432 29.0613 200.461 28.9147 200.461 28.76C200.461 28.552 200.403 28.3813 200.285 28.248C200.168 28.1147 200.011 28 199.813 27.904C199.621 27.808 199.4 27.7227 199.149 27.648C198.904 27.5733 198.653 27.4933 198.397 27.408C198.141 27.3227 197.888 27.224 197.637 27.112C197.392 27 197.171 26.8587 196.973 26.688C196.781 26.512 196.627 26.3013 196.509 26.056C196.392 25.8053 196.333 25.5013 196.333 25.144C196.333 24.8187 196.397 24.5093 196.525 24.216C196.659 23.9227 196.851 23.664 197.101 23.44C197.357 23.216 197.669 23.04 198.037 22.912C198.411 22.7787 198.84 22.712 199.325 22.712C199.875 22.712 200.373 22.8 200.821 22.976C201.269 23.152 201.645 23.392 201.949 23.696L201.565 24.32Z" fill="#6D3745"/>
<path d="M39.8792 26.1597C37.9962 22.4858 34.2684 20 30 20C25.7316 20 22.0028 22.4875 20.1208 26.1601C20.0414 26.3172 20 26.4908 20 26.6669C20 26.8429 20.0414 27.0165 20.1208 27.1736C22.0038 30.8476 25.7316 33.3334 30 33.3334C34.2684 33.3334 37.9972 30.8459 39.8792 27.1733C39.9586 27.0162 40 26.8426 40 26.6665C40 26.4904 39.9586 26.3169 39.8792 26.1597ZM30 31.6667C29.0111 31.6667 28.0444 31.3734 27.2221 30.824C26.3999 30.2746 25.759 29.4937 25.3806 28.5801C25.0022 27.6665 24.9031 26.6611 25.0961 25.6912C25.289 24.7213 25.7652 23.8304 26.4645 23.1311C27.1637 22.4319 28.0546 21.9557 29.0245 21.7627C29.9945 21.5698 30.9998 21.6688 31.9134 22.0473C32.8271 22.4257 33.6079 23.0666 34.1574 23.8888C34.7068 24.7111 35 25.6778 35 26.6667C35.0003 27.3234 34.8712 27.9737 34.6201 28.5805C34.3689 29.1873 34.0006 29.7386 33.5363 30.2029C33.0719 30.6673 32.5206 31.0356 31.9138 31.2867C31.307 31.5379 30.6567 31.667 30 31.6667ZM30 23.3333C29.7025 23.3375 29.4069 23.3818 29.1212 23.4649C29.3567 23.785 29.4697 24.1788 29.4397 24.575C29.4097 24.9712 29.2388 25.3435 28.9578 25.6245C28.6769 25.9054 28.3045 26.0764 27.9083 26.1064C27.5121 26.1364 27.1183 26.0234 26.7983 25.7879C26.616 26.4592 26.6489 27.1709 26.8923 27.8226C27.1357 28.4743 27.5773 29.0333 28.1551 29.4208C28.7328 29.8084 29.4175 30.005 30.1128 29.9831C30.8082 29.9611 31.4791 29.7216 32.0312 29.2984C32.5833 28.8751 32.9888 28.2894 33.1906 27.6236C33.3923 26.9578 33.3803 26.2456 33.156 25.587C32.9318 24.9285 32.5066 24.3568 31.9405 23.9525C31.3744 23.5483 30.6957 23.3317 30 23.3333Z" fill="#6D3745"/>
</svg>
