<svg width="181" height="37" viewBox="0 0 181 37" fill="none" xmlns="http://www.w3.org/2000/svg">
<path d="M0 18.5C0 8.28273 8.28273 0 18.5 0H162.5C172.717 0 181 8.28273 181 18.5C181 28.7173 172.717 37 162.5 37H18.5C8.28273 37 0 28.7173 0 18.5Z" fill="#F2E6CC"/>
<path d="M31.9033 17.0958C30.397 14.1566 27.4147 12.168 24 12.168C20.5853 12.168 17.6022 14.158 16.0967 17.096C16.0331 17.2217 16 17.3606 16 17.5015C16 17.6423 16.0331 17.7812 16.0967 17.9069C17.603 20.846 20.5853 22.8347 24 22.8347C27.4147 22.8347 30.3978 20.8447 31.9033 17.9066C31.9669 17.7809 32 17.642 32 17.5012C32 17.3603 31.9669 17.2215 31.9033 17.0958ZM24 21.5013C23.2089 21.5013 22.4355 21.2667 21.7777 20.8272C21.1199 20.3877 20.6072 19.763 20.3045 19.032C20.0017 18.3011 19.9225 17.4969 20.0769 16.7209C20.2312 15.945 20.6122 15.2323 21.1716 14.6729C21.731 14.1135 22.4437 13.7325 23.2196 13.5782C23.9956 13.4238 24.7998 13.503 25.5307 13.8058C26.2616 14.1085 26.8864 14.6212 27.3259 15.279C27.7654 15.9368 28 16.7102 28 17.5013C28.0003 18.0267 27.897 18.5469 27.696 19.0324C27.4951 19.5178 27.2005 19.9588 26.829 20.3303C26.4575 20.7018 26.0165 20.9964 25.531 21.1974C25.0456 21.3983 24.5254 21.5016 24 21.5013ZM24 14.8346C23.762 14.838 23.5255 14.8734 23.2969 14.9399C23.4853 15.1959 23.5757 15.511 23.5518 15.828C23.5278 16.1449 23.391 16.4428 23.1662 16.6676C22.9415 16.8923 22.6436 17.0291 22.3266 17.0531C22.0097 17.0771 21.6946 16.9866 21.4386 16.7983C21.2928 17.3354 21.3191 17.9047 21.5139 18.426C21.7086 18.9474 22.0619 19.3946 22.5241 19.7046C22.9862 20.0147 23.534 20.172 24.0903 20.1544C24.6465 20.1369 25.1833 19.9453 25.625 19.6067C26.0667 19.2681 26.391 18.7995 26.5525 18.2669C26.7139 17.7342 26.7042 17.1644 26.5248 16.6376C26.3454 16.1107 26.0053 15.6534 25.5524 15.33C25.0995 15.0066 24.5565 14.8333 24 14.8346Z" fill="#6D3745"/>
<path d="M42.064 12.536H43.304C43.4427 12.536 43.5547 12.5707 43.64 12.64C43.7253 12.7093 43.7893 12.7973 43.832 12.904L47.072 20.992C47.1467 21.1733 47.2133 21.3707 47.272 21.584C47.336 21.7973 47.3973 22.0187 47.456 22.248C47.504 22.0187 47.5547 21.7973 47.608 21.584C47.6667 21.3707 47.7333 21.1733 47.808 20.992L51.032 12.904C51.0693 12.8133 51.1333 12.7307 51.224 12.656C51.3147 12.576 51.4267 12.536 51.56 12.536H52.808L48.136 24H46.736L42.064 12.536ZM55.627 15.896V24H54.203V15.896H55.627ZM55.947 13.352C55.947 13.4907 55.9177 13.6213 55.859 13.744C55.8057 13.8613 55.731 13.968 55.635 14.064C55.5443 14.1547 55.4377 14.2267 55.315 14.28C55.1923 14.3333 55.0617 14.36 54.923 14.36C54.7843 14.36 54.6537 14.3333 54.531 14.28C54.4137 14.2267 54.307 14.1547 54.211 14.064C54.1203 13.968 54.0483 13.8613 53.995 13.744C53.9417 13.6213 53.915 13.4907 53.915 13.352C53.915 13.2133 53.9417 13.0827 53.995 12.96C54.0483 12.832 54.1203 12.7227 54.211 12.632C54.307 12.536 54.4137 12.4613 54.531 12.408C54.6537 12.3547 54.7843 12.328 54.923 12.328C55.0617 12.328 55.1923 12.3547 55.315 12.408C55.4377 12.4613 55.5443 12.536 55.635 12.632C55.731 12.7227 55.8057 12.832 55.859 12.96C55.9177 13.0827 55.947 13.2133 55.947 13.352ZM61.3448 15.768C61.8301 15.768 62.2781 15.8507 62.6888 16.016C63.0994 16.176 63.4541 16.4107 63.7528 16.72C64.0514 17.024 64.2834 17.4027 64.4488 17.856C64.6194 18.304 64.7048 18.816 64.7048 19.392C64.7048 19.616 64.6808 19.7653 64.6328 19.84C64.5848 19.9147 64.4941 19.952 64.3608 19.952H58.9688C58.9794 20.464 59.0488 20.9093 59.1768 21.288C59.3048 21.6667 59.4808 21.984 59.7048 22.24C59.9288 22.4907 60.1954 22.68 60.5048 22.808C60.8141 22.9307 61.1608 22.992 61.5448 22.992C61.9021 22.992 62.2088 22.952 62.4648 22.872C62.7261 22.7867 62.9501 22.696 63.1368 22.6C63.3234 22.504 63.4781 22.416 63.6008 22.336C63.7288 22.2507 63.8381 22.208 63.9288 22.208C64.0461 22.208 64.1368 22.2533 64.2008 22.344L64.6008 22.864C64.4248 23.0773 64.2141 23.264 63.9688 23.424C63.7234 23.5787 63.4594 23.7067 63.1768 23.808C62.8994 23.9093 62.6114 23.984 62.3128 24.032C62.0141 24.0853 61.7181 24.112 61.4248 24.112C60.8648 24.112 60.3474 24.0187 59.8728 23.832C59.4034 23.64 58.9954 23.3627 58.6488 23C58.3074 22.632 58.0408 22.1787 57.8488 21.64C57.6568 21.1013 57.5608 20.4827 57.5608 19.784C57.5608 19.2187 57.6461 18.6907 57.8168 18.2C57.9928 17.7093 58.2434 17.2853 58.5688 16.928C58.8941 16.5653 59.2914 16.2827 59.7608 16.08C60.2301 15.872 60.7581 15.768 61.3448 15.768ZM61.3767 16.816C60.6888 16.816 60.1474 17.016 59.7528 17.416C59.3581 17.8107 59.1128 18.36 59.0168 19.064H63.4248C63.4248 18.7333 63.3794 18.432 63.2888 18.16C63.1981 17.8827 63.0648 17.6453 62.8888 17.448C62.7128 17.2453 62.4968 17.0907 62.2408 16.984C61.9901 16.872 61.7021 16.816 61.3767 16.816ZM65.4714 15.896H66.5914C66.7087 15.896 66.8047 15.9253 66.8794 15.984C66.954 16.0427 67.0047 16.112 67.0314 16.192L68.5834 21.408C68.626 21.6 68.666 21.7867 68.7034 21.968C68.7407 22.144 68.7727 22.3227 68.7994 22.504C68.842 22.3227 68.89 22.144 68.9434 21.968C68.9967 21.7867 69.0527 21.6 69.1114 21.408L70.8234 16.16C70.85 16.08 70.8954 16.0133 70.9594 15.96C71.0287 15.9067 71.114 15.88 71.2154 15.88H71.8314C71.938 15.88 72.026 15.9067 72.0954 15.96C72.1647 16.0133 72.2127 16.08 72.2394 16.16L73.9114 21.408C73.97 21.5947 74.0207 21.7787 74.0634 21.96C74.1114 22.1413 74.1567 22.32 74.1994 22.496C74.226 22.32 74.2607 22.136 74.3034 21.944C74.346 21.752 74.3914 21.5733 74.4394 21.408L76.0234 16.192C76.05 16.1067 76.1007 16.0373 76.1754 15.984C76.25 15.9253 76.338 15.896 76.4394 15.896H77.5114L74.8874 24H73.7594C73.6207 24 73.5247 23.9093 73.4714 23.728L71.6794 18.232C71.6367 18.1093 71.602 17.9867 71.5754 17.864C71.5487 17.736 71.522 17.6107 71.4954 17.488C71.4687 17.6107 71.442 17.736 71.4154 17.864C71.3887 17.992 71.354 18.1173 71.3114 18.24L69.4954 23.728C69.4367 23.9093 69.3274 24 69.1674 24H68.0954L65.4714 15.896ZM83.7991 19.712V24H82.2551V12.536H85.6391C86.3645 12.536 86.9938 12.6213 87.5271 12.792C88.0658 12.9573 88.5111 13.1947 88.8631 13.504C89.2151 13.8133 89.4765 14.1867 89.6471 14.624C89.8231 15.0613 89.9111 15.5493 89.9111 16.088C89.9111 16.6213 89.8178 17.1093 89.6311 17.552C89.4445 17.9947 89.1698 18.376 88.8071 18.696C88.4498 19.016 88.0045 19.2667 87.4711 19.448C86.9378 19.624 86.3271 19.712 85.6391 19.712H83.7991ZM83.7991 18.48H85.6391C86.0818 18.48 86.4711 18.4213 86.8071 18.304C87.1485 18.1867 87.4338 18.024 87.6631 17.816C87.8925 17.6027 88.0658 17.3493 88.1831 17.056C88.3005 16.7627 88.3591 16.44 88.3591 16.088C88.3591 15.3573 88.1325 14.7867 87.6791 14.376C87.2311 13.9653 86.5511 13.76 85.6391 13.76H83.7991V18.48ZM93.2364 12.216V24H91.8124V12.216H93.2364ZM101.698 24H101.066C100.927 24 100.815 23.9787 100.73 23.936C100.645 23.8933 100.589 23.8027 100.562 23.664L100.402 22.912C100.189 23.104 99.9808 23.2773 99.7781 23.432C99.5755 23.5813 99.3621 23.7093 99.1381 23.816C98.9141 23.9173 98.6741 23.9947 98.4181 24.048C98.1675 24.1013 97.8875 24.128 97.5781 24.128C97.2635 24.128 96.9675 24.0853 96.6901 24C96.4181 23.9093 96.1808 23.776 95.9781 23.6C95.7755 23.424 95.6128 23.2027 95.4901 22.936C95.3728 22.664 95.3141 22.344 95.3141 21.976C95.3141 21.656 95.4021 21.3493 95.5781 21.056C95.7541 20.7573 96.0368 20.4933 96.4261 20.264C96.8208 20.0347 97.3355 19.848 97.9701 19.704C98.6048 19.5547 99.3808 19.4693 100.298 19.448V18.816C100.298 18.1867 100.162 17.712 99.8901 17.392C99.6235 17.0667 99.2261 16.904 98.6981 16.904C98.3515 16.904 98.0581 16.9493 97.8181 17.04C97.5835 17.1253 97.3781 17.224 97.2021 17.336C97.0315 17.4427 96.8821 17.5413 96.7541 17.632C96.6315 17.7173 96.5088 17.76 96.3861 17.76C96.2901 17.76 96.2048 17.736 96.1301 17.688C96.0608 17.6347 96.0048 17.5707 95.9621 17.496L95.7061 17.04C96.1541 16.608 96.6368 16.2853 97.1541 16.072C97.6715 15.8587 98.2448 15.752 98.8741 15.752C99.3275 15.752 99.7301 15.8267 100.082 15.976C100.434 16.1253 100.73 16.3333 100.97 16.6C101.21 16.8667 101.391 17.1893 101.514 17.568C101.637 17.9467 101.698 18.3627 101.698 18.816V24ZM98.0021 23.128C98.2528 23.128 98.4821 23.104 98.6901 23.056C98.8981 23.0027 99.0928 22.9307 99.2741 22.84C99.4608 22.744 99.6368 22.6293 99.8021 22.496C99.9728 22.3627 100.138 22.2107 100.298 22.04V20.352C99.6421 20.3733 99.0848 20.4267 98.6261 20.512C98.1675 20.592 97.7941 20.6987 97.5061 20.832C97.2181 20.9653 97.0075 21.1227 96.8741 21.304C96.7461 21.4853 96.6821 21.688 96.6821 21.912C96.6821 22.1253 96.7168 22.3093 96.7861 22.464C96.8555 22.6187 96.9488 22.7467 97.0661 22.848C97.1835 22.944 97.3221 23.016 97.4821 23.064C97.6421 23.1067 97.8155 23.128 98.0021 23.128ZM103.856 24V15.896H104.704C104.906 15.896 105.034 15.9947 105.088 16.192L105.2 17.072C105.552 16.6827 105.944 16.368 106.376 16.128C106.813 15.888 107.317 15.768 107.888 15.768C108.33 15.768 108.72 15.8427 109.056 15.992C109.397 16.136 109.68 16.344 109.904 16.616C110.133 16.8827 110.306 17.2053 110.424 17.584C110.541 17.9627 110.6 18.3813 110.6 18.84V24H109.176V18.84C109.176 18.2267 109.034 17.752 108.752 17.416C108.474 17.0747 108.048 16.904 107.472 16.904C107.05 16.904 106.656 17.0053 106.288 17.208C105.925 17.4107 105.589 17.6853 105.28 18.032V24H103.856ZM126 18.272C126 19.1307 125.864 19.912 125.592 20.616C125.32 21.32 124.936 21.9227 124.44 22.424C123.944 22.9253 123.349 23.3147 122.656 23.592C121.963 23.864 121.195 24 120.352 24H116.064V12.536H120.352C121.195 12.536 121.963 12.6747 122.656 12.952C123.349 13.224 123.944 13.6133 124.44 14.12C124.936 14.6213 125.32 15.224 125.592 15.928C125.864 16.632 126 17.4133 126 18.272ZM124.408 18.272C124.408 17.568 124.312 16.9387 124.12 16.384C123.928 15.8293 123.656 15.36 123.304 14.976C122.952 14.592 122.525 14.2987 122.024 14.096C121.523 13.8933 120.965 13.792 120.352 13.792H117.624V22.744H120.352C120.965 22.744 121.523 22.6427 122.024 22.44C122.525 22.2373 122.952 21.9467 123.304 21.568C123.656 21.184 123.928 20.7147 124.12 20.16C124.312 19.6053 124.408 18.976 124.408 18.272ZM131.095 15.768C131.58 15.768 132.028 15.8507 132.439 16.016C132.849 16.176 133.204 16.4107 133.503 16.72C133.801 17.024 134.033 17.4027 134.199 17.856C134.369 18.304 134.455 18.816 134.455 19.392C134.455 19.616 134.431 19.7653 134.383 19.84C134.335 19.9147 134.244 19.952 134.111 19.952H128.719C128.729 20.464 128.799 20.9093 128.927 21.288C129.055 21.6667 129.231 21.984 129.455 22.24C129.679 22.4907 129.945 22.68 130.255 22.808C130.564 22.9307 130.911 22.992 131.295 22.992C131.652 22.992 131.959 22.952 132.215 22.872C132.476 22.7867 132.7 22.696 132.887 22.6C133.073 22.504 133.228 22.416 133.351 22.336C133.479 22.2507 133.588 22.208 133.679 22.208C133.796 22.208 133.887 22.2533 133.951 22.344L134.351 22.864C134.175 23.0773 133.964 23.264 133.719 23.424C133.473 23.5787 133.209 23.7067 132.927 23.808C132.649 23.9093 132.361 23.984 132.063 24.032C131.764 24.0853 131.468 24.112 131.175 24.112C130.615 24.112 130.097 24.0187 129.623 23.832C129.153 23.64 128.745 23.3627 128.399 23C128.057 22.632 127.791 22.1787 127.599 21.64C127.407 21.1013 127.311 20.4827 127.311 19.784C127.311 19.2187 127.396 18.6907 127.567 18.2C127.743 17.7093 127.993 17.2853 128.319 16.928C128.644 16.5653 129.041 16.2827 129.511 16.08C129.98 15.872 130.508 15.768 131.095 15.768ZM131.127 16.816C130.439 16.816 129.897 17.016 129.503 17.416C129.108 17.8107 128.863 18.36 128.767 19.064H133.175C133.175 18.7333 133.129 18.432 133.039 18.16C132.948 17.8827 132.815 17.6453 132.639 17.448C132.463 17.2453 132.247 17.0907 131.991 16.984C131.74 16.872 131.452 16.816 131.127 16.816ZM138.733 24.128C138.093 24.128 137.6 23.9493 137.253 23.592C136.912 23.2347 136.741 22.72 136.741 22.048V17.088H135.765C135.68 17.088 135.608 17.064 135.549 17.016C135.491 16.9627 135.461 16.8827 135.461 16.776V16.208L136.789 16.04L137.117 13.536C137.128 13.456 137.163 13.392 137.221 13.344C137.28 13.2907 137.355 13.264 137.445 13.264H138.165V16.056H140.485V17.088H138.165V21.952C138.165 22.2933 138.248 22.5467 138.413 22.712C138.579 22.8773 138.792 22.96 139.053 22.96C139.203 22.96 139.331 22.9413 139.437 22.904C139.549 22.8613 139.645 22.816 139.725 22.768C139.805 22.72 139.872 22.6773 139.925 22.64C139.984 22.5973 140.035 22.576 140.077 22.576C140.152 22.576 140.219 22.6213 140.277 22.712L140.693 23.392C140.448 23.6213 140.152 23.8027 139.805 23.936C139.459 24.064 139.101 24.128 138.733 24.128ZM148.198 24H147.566C147.427 24 147.315 23.9787 147.23 23.936C147.145 23.8933 147.089 23.8027 147.062 23.664L146.902 22.912C146.689 23.104 146.481 23.2773 146.278 23.432C146.075 23.5813 145.862 23.7093 145.638 23.816C145.414 23.9173 145.174 23.9947 144.918 24.048C144.667 24.1013 144.387 24.128 144.078 24.128C143.763 24.128 143.467 24.0853 143.19 24C142.918 23.9093 142.681 23.776 142.478 23.6C142.275 23.424 142.113 23.2027 141.99 22.936C141.873 22.664 141.814 22.344 141.814 21.976C141.814 21.656 141.902 21.3493 142.078 21.056C142.254 20.7573 142.537 20.4933 142.926 20.264C143.321 20.0347 143.835 19.848 144.47 19.704C145.105 19.5547 145.881 19.4693 146.798 19.448V18.816C146.798 18.1867 146.662 17.712 146.39 17.392C146.123 17.0667 145.726 16.904 145.198 16.904C144.851 16.904 144.558 16.9493 144.318 17.04C144.083 17.1253 143.878 17.224 143.702 17.336C143.531 17.4427 143.382 17.5413 143.254 17.632C143.131 17.7173 143.009 17.76 142.886 17.76C142.79 17.76 142.705 17.736 142.63 17.688C142.561 17.6347 142.505 17.5707 142.462 17.496L142.206 17.04C142.654 16.608 143.137 16.2853 143.654 16.072C144.171 15.8587 144.745 15.752 145.374 15.752C145.827 15.752 146.23 15.8267 146.582 15.976C146.934 16.1253 147.23 16.3333 147.47 16.6C147.71 16.8667 147.891 17.1893 148.014 17.568C148.137 17.9467 148.198 18.3627 148.198 18.816V24ZM144.502 23.128C144.753 23.128 144.982 23.104 145.19 23.056C145.398 23.0027 145.593 22.9307 145.774 22.84C145.961 22.744 146.137 22.6293 146.302 22.496C146.473 22.3627 146.638 22.2107 146.798 22.04V20.352C146.142 20.3733 145.585 20.4267 145.126 20.512C144.667 20.592 144.294 20.6987 144.006 20.832C143.718 20.9653 143.507 21.1227 143.374 21.304C143.246 21.4853 143.182 21.688 143.182 21.912C143.182 22.1253 143.217 22.3093 143.286 22.464C143.355 22.6187 143.449 22.7467 143.566 22.848C143.683 22.944 143.822 23.016 143.982 23.064C144.142 23.1067 144.315 23.128 144.502 23.128ZM151.94 15.896V24H150.516V15.896H151.94ZM152.26 13.352C152.26 13.4907 152.23 13.6213 152.172 13.744C152.118 13.8613 152.044 13.968 151.948 14.064C151.857 14.1547 151.75 14.2267 151.628 14.28C151.505 14.3333 151.374 14.36 151.236 14.36C151.097 14.36 150.966 14.3333 150.844 14.28C150.726 14.2267 150.62 14.1547 150.524 14.064C150.433 13.968 150.361 13.8613 150.308 13.744C150.254 13.6213 150.228 13.4907 150.228 13.352C150.228 13.2133 150.254 13.0827 150.308 12.96C150.361 12.832 150.433 12.7227 150.524 12.632C150.62 12.536 150.726 12.4613 150.844 12.408C150.966 12.3547 151.097 12.328 151.236 12.328C151.374 12.328 151.505 12.3547 151.628 12.408C151.75 12.4613 151.857 12.536 151.948 12.632C152.044 12.7227 152.118 12.832 152.172 12.96C152.23 13.0827 152.26 13.2133 152.26 13.352ZM156.033 12.216V24H154.609V12.216H156.033ZM163.183 17.232C163.119 17.3493 163.02 17.408 162.887 17.408C162.807 17.408 162.716 17.3787 162.615 17.32C162.514 17.2613 162.388 17.1973 162.239 17.128C162.095 17.0533 161.922 16.9867 161.719 16.928C161.516 16.864 161.276 16.832 160.999 16.832C160.759 16.832 160.543 16.864 160.351 16.928C160.159 16.9867 159.994 17.0693 159.855 17.176C159.722 17.2827 159.618 17.408 159.543 17.552C159.474 17.6907 159.439 17.8427 159.439 18.008C159.439 18.216 159.498 18.3893 159.615 18.528C159.738 18.6667 159.898 18.7867 160.095 18.888C160.292 18.9893 160.516 19.08 160.767 19.16C161.018 19.2347 161.274 19.3173 161.535 19.408C161.802 19.4933 162.06 19.5893 162.311 19.696C162.562 19.8027 162.786 19.936 162.983 20.096C163.18 20.256 163.338 20.4533 163.455 20.688C163.578 20.9173 163.639 21.1947 163.639 21.52C163.639 21.8933 163.572 22.24 163.439 22.56C163.306 22.8747 163.108 23.1493 162.847 23.384C162.586 23.6133 162.266 23.7947 161.887 23.928C161.508 24.0613 161.071 24.128 160.575 24.128C160.01 24.128 159.498 24.0373 159.039 23.856C158.58 23.6693 158.191 23.432 157.871 23.144L158.207 22.6C158.25 22.5307 158.3 22.4773 158.359 22.44C158.418 22.4027 158.495 22.384 158.591 22.384C158.687 22.384 158.788 22.4213 158.895 22.496C159.002 22.5707 159.13 22.6533 159.279 22.744C159.434 22.8347 159.618 22.9173 159.831 22.992C160.05 23.0667 160.322 23.104 160.647 23.104C160.924 23.104 161.167 23.0693 161.375 23C161.583 22.9253 161.756 22.8267 161.895 22.704C162.034 22.5813 162.135 22.44 162.199 22.28C162.268 22.12 162.303 21.9493 162.303 21.768C162.303 21.544 162.242 21.36 162.119 21.216C162.002 21.0667 161.844 20.9413 161.647 20.84C161.45 20.7333 161.223 20.6427 160.967 20.568C160.716 20.488 160.458 20.4053 160.191 20.32C159.93 20.2347 159.671 20.1387 159.415 20.032C159.164 19.92 158.94 19.7813 158.743 19.616C158.546 19.4507 158.386 19.248 158.263 19.008C158.146 18.7627 158.087 18.4667 158.087 18.12C158.087 17.8107 158.151 17.5147 158.279 17.232C158.407 16.944 158.594 16.6933 158.839 16.48C159.084 16.2613 159.386 16.088 159.743 15.96C160.1 15.832 160.508 15.768 160.967 15.768C161.5 15.768 161.978 15.8533 162.399 16.024C162.826 16.1893 163.194 16.4187 163.503 16.712L163.183 17.232Z" fill="#6D3745"/>
<path d="M18.5 1H162.5V-1H18.5V1ZM162.5 36H18.5V38H162.5V36ZM18.5 36C8.83501 36 1 28.165 1 18.5H-1C-1 29.2696 7.73044 38 18.5 38V36ZM180 18.5C180 28.165 172.165 36 162.5 36V38C173.27 38 182 29.2696 182 18.5H180ZM162.5 1C172.165 1 180 8.83502 180 18.5H182C182 7.73045 173.27 -1 162.5 -1V1ZM18.5 -1C7.73045 -1 -1 7.73045 -1 18.5H1C1 8.83502 8.83502 1 18.5 1V-1Z" fill="#6D3745"/>
</svg>
