<svg width="7" height="7" viewBox="0 0 7 7" fill="none" xmlns="http://www.w3.org/2000/svg">
<path fill-rule="evenodd" clip-rule="evenodd" d="M6.10038 0.242631C5.77687 -0.0808769 5.25236 -0.080877 4.92885 0.242631L3.17141 2.00007L1.41416 0.242814C1.09065 -0.0806941 0.566139 -0.0806942 0.242631 0.242814C-0.0808768 0.566321 -0.080877 1.09083 0.242631 1.41434L1.99989 3.1716L0.242756 4.92873C-0.0807518 5.25224 -0.080752 5.77675 0.242756 6.10025C0.566263 6.42376 1.09077 6.42376 1.41428 6.10025L3.17141 4.34312L4.92873 6.10044C5.25224 6.42394 5.77675 6.42394 6.10025 6.10044C6.42376 5.77693 6.42376 5.25242 6.10025 4.92891L4.34294 3.1716L6.10038 1.41416C6.42389 1.09065 6.42389 0.566139 6.10038 0.242631Z" fill="white"/>
</svg>
