<svg width="32" height="32" viewBox="0 0 32 32" fill="none" xmlns="http://www.w3.org/2000/svg">
<path d="M10.2001 27.8804C10.1601 27.8804 10.1067 27.9071 10.0667 27.9071C7.48008 26.6271 5.37341 24.5071 4.08008 21.9204C4.08008 21.8804 4.10674 21.8271 4.10674 21.7871C5.73341 22.2671 7.41341 22.6271 9.08008 22.9071C9.37341 24.5871 9.72008 26.2538 10.2001 27.8804Z" fill="white"/>
<path d="M27.9197 21.9338C26.5997 24.5871 24.3997 26.7338 21.7197 28.0271C22.2264 26.3338 22.6531 24.6271 22.9331 22.9071C24.6131 22.6271 26.2664 22.2671 27.8931 21.7871C27.8797 21.8404 27.9197 21.8938 27.9197 21.9338Z" fill="white"/>
<path d="M28.0264 10.2793C26.3464 9.77266 24.6531 9.35932 22.9331 9.06599C22.6531 7.34599 22.2397 5.63932 21.7197 3.97266C24.4797 5.29266 26.7064 7.51932 28.0264 10.2793Z" fill="white"/>
<path d="M10.2003 4.12008C9.7203 5.74674 9.37363 7.40008 9.09363 9.08008C7.37363 9.34675 5.66697 9.77341 3.97363 10.2801C5.26697 7.60008 7.41363 5.40008 10.067 4.08008C10.107 4.08008 10.1603 4.12008 10.2003 4.12008Z" fill="white"/>
<path d="M20.6533 8.78602C17.56 8.43935 14.44 8.43935 11.3467 8.78602C11.68 6.95935 12.1067 5.13268 12.7067 3.37268C12.7333 3.26602 12.72 3.18602 12.7333 3.07935C13.7867 2.82602 14.8667 2.66602 16 2.66602C17.12 2.66602 18.2133 2.82602 19.2533 3.07935C19.2667 3.18602 19.2667 3.26602 19.2933 3.37268C19.8933 5.14602 20.32 6.95935 20.6533 8.78602Z" fill="white"/>
<path d="M8.78699 20.6543C6.94699 20.321 5.13366 19.8943 3.37366 19.2943C3.26699 19.2677 3.18699 19.281 3.08033 19.2677C2.82699 18.2143 2.66699 17.1343 2.66699 16.001C2.66699 14.881 2.82699 13.7877 3.08033 12.7477C3.18699 12.7343 3.26699 12.7343 3.37366 12.7077C5.14699 12.121 6.94699 11.681 8.78699 11.3477C8.45366 14.441 8.45366 17.561 8.78699 20.6543Z" fill="white"/>
<path d="M29.3339 16.001C29.3339 17.1343 29.1739 18.2143 28.9205 19.2677C28.8139 19.281 28.7339 19.2677 28.6272 19.2943C26.8539 19.881 25.0405 20.321 23.2139 20.6543C23.5605 17.561 23.5605 14.441 23.2139 11.3477C25.0405 11.681 26.8672 12.1077 28.6272 12.7077C28.7339 12.7343 28.8139 12.7477 28.9205 12.7477C29.1739 13.801 29.3339 14.881 29.3339 16.001Z" fill="white"/>
<path d="M20.6533 23.2129C20.32 25.0529 19.8933 26.8662 19.2933 28.6262C19.2667 28.7329 19.2667 28.8129 19.2533 28.9196C18.2133 29.1729 17.12 29.3329 16 29.3329C14.8667 29.3329 13.7867 29.1729 12.7333 28.9196C12.72 28.8129 12.7333 28.7329 12.7067 28.6262C12.12 26.8529 11.68 25.0529 11.3467 23.2129C12.8933 23.3862 14.44 23.5062 16 23.5062C17.56 23.5062 19.12 23.3862 20.6533 23.2129Z" fill="white"/>
<path d="M21.0181 21.0171C17.6833 21.4379 14.3173 21.4379 10.9826 21.0171C10.5618 17.6823 10.5618 14.3164 10.9826 10.9816C14.3173 10.5608 17.6833 10.5608 21.0181 10.9816C21.4388 14.3164 21.4388 17.6823 21.0181 21.0171Z" fill="white"/>
</svg>
